<?xml version="1.0" encoding="utf-8"?>
<!-- Generator: Adobe Illustrator 16.0.0, SVG Export Plug-In . SVG Version: 6.00 Build 0)  -->
<!DOCTYPE svg PUBLIC "-//W3C//DTD SVG 1.1//EN" "http://www.w3.org/Graphics/SVG/1.1/DTD/svg11.dtd">
<svg version="1.1" id="Vrstva_1" xmlns="http://www.w3.org/2000/svg" xmlns:xlink="http://www.w3.org/1999/xlink" x="0px" y="0px"
	 width="100px" height="100px" viewBox="0 0 100 100" enable-background="new 0 0 100 100" xml:space="preserve">
<g>
	<path fill="#006B4D" d="M44.177,33.179c-4.703-0.553-15.091,2.368-14.515,16.32c0,0-4.492,0.253-6.992-0.787v2.368
		c3.584,0.951,6.992,0.686,6.992,0.686V59h2.102v-7.487C31.764,51.513,46.677,48.558,44.177,33.179 M31.764,49.195
		c-0.535-9.011,5.006-13.404,10.488-13.914C42.384,36.989,42.535,46.499,31.764,49.195"/>
	<path fill="#006B4D" d="M29.393,44.224c-0.244-1.898-1.3-5.515-4.469-8.585l4.469-5.068l4.444,5.291
		C31.839,37.743,29.803,41.065,29.393,44.224"/>
	<path fill="#006B4D" d="M14.276,32.639c-1.648,5.343,1.401,16.544,14.691,16.197C29.626,35.864,19.644,32.309,14.276,32.639
		 M26.777,46.491c-3.479,0-10.83-2.599-10.577-11.592C26.054,35.958,26.99,46.104,26.777,46.491"/>
	<path fill="#006B4D" d="M40.853,38.241c0,0.51-0.415,0.924-0.924,0.924c-0.51,0-0.923-0.414-0.923-0.924
		c0-0.51,0.413-0.924,0.923-0.924C40.438,37.317,40.853,37.731,40.853,38.241"/>
</g>
<g>
	<path fill="#006B4D" d="M36.705,52.875v3.305h-0.661l-1.293-2.231c0.001,0.056,0.003,0.093,0.005,0.11
		c0.006,0.056,0.009,0.104,0.009,0.143v1.979h-0.603v-3.305h0.834l1.124,1.949c-0.01-0.098-0.015-0.17-0.015-0.221v-1.729H36.705z"
		/>
	<path fill="#006B4D" d="M39.017,52.875l1.034,3.305H39.22l-0.204-0.681h-1.069L37.74,56.18h-0.679l1.059-3.305H39.017z
		 M38.133,54.889h0.7l-0.347-1.159L38.133,54.889z"/>
	<path fill="#006B4D" d="M42.275,52.875v0.653h-0.818v2.651h-0.785v-2.651h-0.823v-0.653H42.275z"/>
	<path fill="#006B4D" d="M45.236,52.875v2.058c0,0.333-0.038,0.58-0.113,0.742c-0.076,0.163-0.217,0.295-0.421,0.399
		s-0.465,0.156-0.783,0.156c-0.318,0-0.571-0.047-0.759-0.141c-0.188-0.093-0.329-0.227-0.422-0.399
		c-0.094-0.172-0.14-0.425-0.14-0.758v-2.058h0.84v2.058c0,0.178,0.015,0.309,0.045,0.393c0.03,0.084,0.09,0.15,0.179,0.2
		c0.09,0.049,0.2,0.073,0.33,0.073c0.146,0,0.264-0.023,0.355-0.072c0.092-0.049,0.151-0.113,0.182-0.192
		c0.03-0.08,0.044-0.214,0.044-0.401v-2.058H45.236z"/>
	<path fill="#006B4D" d="M46.656,54.87v1.31h-0.78v-3.305h1.453c0.268,0,0.483,0.031,0.645,0.094
		c0.162,0.062,0.296,0.176,0.403,0.342s0.16,0.351,0.16,0.554c0,0.397-0.192,0.681-0.575,0.854l0.61,1.461h-0.855l-0.508-1.31
		H46.656z M46.656,53.463v0.843h0.475c0.154,0,0.267-0.011,0.337-0.032c0.07-0.021,0.132-0.07,0.188-0.146s0.083-0.161,0.083-0.258
		c0-0.092-0.027-0.175-0.083-0.248c-0.055-0.072-0.114-0.116-0.179-0.134c-0.064-0.017-0.186-0.025-0.364-0.025H46.656z"/>
	<path fill="#006B4D" d="M51.52,53.504h-1.573v0.679h1.237v0.622h-1.237v0.722h1.573v0.653h-2.36v-3.305h2.36V53.504z"/>
	<path fill="#006B4D" d="M36.769,60.055l-0.795,0.052c-0.011-0.467-0.189-0.7-0.535-0.7c-0.396,0-0.595,0.359-0.595,1.077
		c0,0.415,0.054,0.696,0.162,0.844s0.258,0.222,0.452,0.222c0.313,0,0.505-0.208,0.575-0.624l0.735,0.045
		c-0.047,0.396-0.191,0.696-0.433,0.902s-0.537,0.309-0.887,0.309c-0.429,0-0.777-0.151-1.045-0.452
		c-0.269-0.302-0.402-0.72-0.402-1.253c0-0.498,0.129-0.906,0.389-1.225c0.26-0.318,0.614-0.477,1.063-0.477
		C36.232,58.774,36.67,59.201,36.769,60.055z"/>
	<path fill="#006B4D" d="M38.373,62.181c-0.436,0-0.773-0.167-1.012-0.501s-0.358-0.739-0.358-1.214
		c0-0.482,0.121-0.885,0.363-1.207c0.241-0.323,0.586-0.484,1.034-0.484c0.452,0,0.793,0.173,1.023,0.517
		c0.229,0.345,0.345,0.739,0.345,1.183c0,0.479-0.119,0.884-0.355,1.214C39.174,62.017,38.828,62.181,38.373,62.181z M38.394,59.406
		c-0.398,0-0.597,0.356-0.597,1.069c0,0.715,0.199,1.073,0.597,1.073c0.385,0,0.578-0.357,0.578-1.07
		C38.972,59.764,38.779,59.406,38.394,59.406z"/>
	<path fill="#006B4D" d="M42.705,58.824v3.306h-0.647l-1.267-2.231c0.001,0.056,0.003,0.093,0.004,0.11
		c0.006,0.057,0.009,0.104,0.009,0.143v1.979h-0.59v-3.306h0.817l1.102,1.949c-0.009-0.096-0.014-0.17-0.014-0.22v-1.729H42.705z"/>
	<path fill="#006B4D" d="M45.544,59.552l-0.646,0.22c-0.085-0.262-0.27-0.392-0.55-0.392c-0.3,0-0.45,0.099-0.45,0.298
		c0,0.078,0.027,0.146,0.084,0.2c0.056,0.056,0.183,0.103,0.38,0.144c0.33,0.067,0.571,0.137,0.725,0.206
		c0.153,0.069,0.282,0.181,0.388,0.335c0.105,0.154,0.157,0.326,0.157,0.517c0,0.299-0.112,0.557-0.337,0.774
		s-0.56,0.327-1.001,0.327c-0.332,0-0.614-0.077-0.848-0.231c-0.233-0.153-0.386-0.383-0.461-0.687l0.702-0.162
		c0.079,0.309,0.299,0.463,0.658,0.463c0.174,0,0.303-0.034,0.389-0.104c0.086-0.068,0.128-0.15,0.128-0.245
		c0-0.097-0.039-0.172-0.117-0.226c-0.077-0.054-0.227-0.103-0.447-0.149c-0.413-0.088-0.707-0.207-0.882-0.357
		c-0.175-0.151-0.263-0.372-0.263-0.662c0-0.294,0.105-0.542,0.314-0.743c0.209-0.202,0.493-0.303,0.852-0.303
		C44.954,58.774,45.363,59.033,45.544,59.552z"/>
	<path fill="#006B4D" d="M48.393,59.454h-1.542v0.679h1.213v0.622h-1.213v0.722h1.542v0.653h-2.313v-3.306h2.313V59.454z"/>
	<path fill="#006B4D" d="M49.563,60.82v1.31h-0.764v-3.306h1.423c0.263,0,0.474,0.032,0.634,0.094
		c0.158,0.062,0.29,0.176,0.395,0.343c0.104,0.166,0.155,0.351,0.155,0.554c0,0.396-0.187,0.682-0.562,0.854l0.598,1.461h-0.838
		l-0.497-1.31H49.563z M49.563,59.413v0.843h0.466c0.151,0,0.262-0.011,0.33-0.032c0.069-0.022,0.131-0.07,0.185-0.146
		c0.053-0.075,0.081-0.161,0.081-0.258c0-0.093-0.028-0.174-0.081-0.247c-0.054-0.072-0.112-0.117-0.176-0.134
		c-0.064-0.018-0.183-0.026-0.356-0.026H49.563z"/>
	<path fill="#006B4D" d="M54.293,58.824l-0.978,3.306H52.5l-0.974-3.306h0.808l0.648,2.364l0.675-2.364H54.293z"/>
	<path fill="#006B4D" d="M55.979,58.824l1.014,3.306h-0.815l-0.199-0.68H54.93l-0.202,0.68h-0.666l1.038-3.306H55.979z
		 M55.112,60.84h0.687l-0.341-1.16L55.112,60.84z"/>
	<path fill="#006B4D" d="M59.099,58.824v0.654h-0.803v2.651h-0.769v-2.651h-0.807v-0.654H59.099z"/>
	<path fill="#006B4D" d="M60.132,58.824v3.306h-0.757v-3.306H60.132z"/>
	<path fill="#006B4D" d="M61.95,62.181c-0.438,0-0.774-0.167-1.014-0.501c-0.238-0.334-0.358-0.739-0.358-1.214
		c0-0.482,0.122-0.885,0.363-1.207c0.243-0.323,0.587-0.484,1.034-0.484c0.452,0,0.793,0.173,1.022,0.517
		c0.23,0.345,0.345,0.739,0.345,1.183c0,0.479-0.118,0.884-0.355,1.214C62.751,62.017,62.405,62.181,61.95,62.181z M61.971,59.406
		c-0.398,0-0.597,0.356-0.597,1.069c0,0.715,0.198,1.073,0.597,1.073c0.386,0,0.578-0.357,0.578-1.07
		C62.549,59.764,62.356,59.406,61.971,59.406z"/>
	<path fill="#006B4D" d="M66.281,58.824v3.306h-0.646l-1.268-2.231c0.002,0.056,0.003,0.093,0.005,0.11
		c0.007,0.057,0.01,0.104,0.01,0.143v1.979h-0.591v-3.306h0.817l1.102,1.949c-0.009-0.096-0.014-0.17-0.014-0.22v-1.729H66.281z"/>
	<path fill="#006B4D" d="M69.641,58.824l1.014,3.306H69.84l-0.2-0.68h-1.047l-0.203,0.68h-0.665l1.038-3.306H69.641z M68.774,60.84
		h0.687l-0.34-1.16L68.774,60.84z"/>
	<path fill="#006B4D" d="M73.376,60.362v1.768h-0.347c-0.026-0.124-0.062-0.251-0.108-0.38c-0.231,0.287-0.524,0.431-0.884,0.431
		c-0.422,0-0.751-0.153-0.985-0.462c-0.236-0.309-0.354-0.708-0.354-1.196c0-0.526,0.126-0.949,0.377-1.269
		c0.251-0.32,0.591-0.479,1.021-0.479c0.361,0,0.651,0.104,0.872,0.31c0.223,0.207,0.357,0.482,0.407,0.825l-0.723,0.098
		c-0.059-0.401-0.244-0.601-0.557-0.601c-0.206,0-0.361,0.095-0.467,0.284c-0.104,0.189-0.157,0.46-0.157,0.812
		c0,0.339,0.057,0.598,0.171,0.777c0.113,0.179,0.274,0.269,0.485,0.269c0.137,0,0.258-0.045,0.364-0.136s0.16-0.234,0.16-0.433
		h-0.609v-0.618H73.376z"/>
	<path fill="#006B4D" d="M76.238,59.454h-1.543v0.679h1.213v0.622h-1.213v0.722h1.543v0.653h-2.313v-3.306h2.313V59.454z"/>
	<path fill="#006B4D" d="M79.136,58.824v3.306h-0.647l-1.268-2.231c0.002,0.056,0.003,0.093,0.005,0.11
		c0.007,0.057,0.01,0.104,0.01,0.143v1.979h-0.591v-3.306h0.817l1.103,1.949c-0.01-0.096-0.015-0.17-0.015-0.22v-1.729H79.136z"/>
	<path fill="#006B4D" d="M82.35,60.055l-0.795,0.052c-0.011-0.467-0.189-0.7-0.535-0.7c-0.396,0-0.594,0.359-0.594,1.077
		c0,0.415,0.055,0.696,0.161,0.844c0.108,0.147,0.259,0.222,0.452,0.222c0.313,0,0.506-0.208,0.575-0.624l0.735,0.045
		c-0.048,0.396-0.191,0.696-0.433,0.902s-0.537,0.309-0.887,0.309c-0.428,0-0.777-0.151-1.045-0.452
		c-0.268-0.302-0.402-0.72-0.402-1.253c0-0.498,0.13-0.906,0.391-1.225c0.259-0.318,0.612-0.477,1.062-0.477
		C81.814,58.774,82.251,59.201,82.35,60.055z"/>
	<path fill="#006B4D" d="M85.075,58.824l-1.018,1.913v1.393h-0.757v-1.393l-1.019-1.913h0.881l0.616,1.252l0.615-1.252H85.075z"/>
	<path fill="#006B4D" d="M35.372,68.131c-0.436,0-0.773-0.168-1.012-0.501c-0.239-0.334-0.357-0.739-0.357-1.214
		c0-0.482,0.121-0.885,0.362-1.208c0.242-0.322,0.586-0.483,1.034-0.483c0.452,0,0.793,0.172,1.022,0.517
		c0.23,0.345,0.346,0.738,0.346,1.183c0,0.479-0.119,0.884-0.356,1.213C36.173,67.967,35.827,68.131,35.372,68.131z M35.394,65.355
		c-0.398,0-0.597,0.357-0.597,1.07c0,0.716,0.199,1.073,0.597,1.073c0.385,0,0.578-0.357,0.578-1.07
		C35.972,65.714,35.779,65.355,35.394,65.355z"/>
	<path fill="#006B4D" d="M39.517,65.429h-1.516v0.74h1.198v0.618h-1.198v1.293h-0.787v-3.305h2.303V65.429z"/>
	<path fill="#006B4D" d="M43.077,64.775v0.653h-0.802v2.651h-0.769v-2.651h-0.807v-0.653H43.077z"/>
	<path fill="#006B4D" d="M45.854,64.775v3.305h-0.745v-1.363h-1.01v1.363h-0.745v-3.305h0.745v1.288h1.01v-1.288H45.854z"/>
	<path fill="#006B4D" d="M48.769,65.404h-1.542v0.679h1.213v0.621h-1.213v0.723h1.542v0.653h-2.313v-3.305h2.313V65.404z"/>
	<path fill="#006B4D" d="M52.954,66.005l-0.795,0.051c-0.011-0.466-0.189-0.7-0.535-0.7c-0.396,0-0.594,0.359-0.594,1.078
		c0,0.415,0.054,0.696,0.161,0.844c0.108,0.147,0.259,0.222,0.451,0.222c0.314,0,0.507-0.208,0.576-0.625l0.735,0.047
		c-0.048,0.395-0.192,0.695-0.434,0.901s-0.536,0.309-0.886,0.309c-0.429,0-0.777-0.151-1.046-0.452
		c-0.267-0.303-0.401-0.72-0.401-1.253c0-0.498,0.13-0.906,0.39-1.225c0.259-0.318,0.612-0.477,1.062-0.477
		C52.418,64.725,52.855,65.151,52.954,66.005z"/>
	<path fill="#006B4D" d="M55.678,65.345l-1.637,2.104h1.688v0.632h-2.614v-0.562l1.632-2.118h-1.523v-0.624h2.454V65.345z"/>
	<path fill="#006B4D" d="M58.416,65.404h-1.542v0.679h1.213v0.621h-1.213v0.723h1.542v0.653h-2.313v-3.305h2.313V65.404z"/>
	<path fill="#006B4D" d="M61.436,66.005l-0.796,0.051c-0.011-0.466-0.188-0.7-0.534-0.7c-0.396,0-0.594,0.359-0.594,1.078
		c0,0.415,0.054,0.696,0.161,0.844s0.258,0.222,0.452,0.222c0.313,0,0.506-0.208,0.575-0.625l0.735,0.047
		c-0.048,0.395-0.191,0.695-0.433,0.901s-0.538,0.309-0.888,0.309c-0.427,0-0.776-0.151-1.044-0.452
		c-0.269-0.303-0.402-0.72-0.402-1.253c0-0.498,0.13-0.906,0.39-1.225c0.259-0.318,0.613-0.477,1.062-0.477
		C60.899,64.725,61.337,65.151,61.436,66.005z"/>
	<path fill="#006B4D" d="M64.324,64.775v3.305h-0.745v-1.363h-1.011v1.363h-0.745v-3.305h0.745v1.288h1.011v-1.288H64.324z"/>
	<path fill="#006B4D" d="M66.855,66.771v1.31h-0.764v-3.305h1.425c0.262,0,0.473,0.03,0.632,0.093
		c0.159,0.062,0.291,0.176,0.396,0.343c0.104,0.166,0.156,0.351,0.156,0.554c0,0.396-0.188,0.682-0.562,0.854l0.598,1.461h-0.839
		l-0.497-1.31H66.855z M66.855,65.363v0.843h0.467c0.15,0,0.261-0.011,0.33-0.032c0.068-0.022,0.13-0.071,0.184-0.146
		c0.055-0.074,0.081-0.161,0.081-0.257c0-0.093-0.026-0.174-0.081-0.247c-0.054-0.073-0.112-0.117-0.176-0.135
		c-0.062-0.017-0.182-0.025-0.356-0.025H66.855z"/>
	<path fill="#006B4D" d="M71.551,65.404h-1.543v0.679h1.213v0.621h-1.213v0.723h1.543v0.653h-2.313v-3.305h2.313V65.404z"/>
	<path fill="#006B4D" d="M72.729,66.853v1.228h-0.771v-3.305h1.277c0.284,0,0.502,0.03,0.652,0.093
		c0.152,0.062,0.287,0.174,0.405,0.333c0.119,0.16,0.178,0.355,0.178,0.589c0,0.162-0.031,0.321-0.095,0.477
		c-0.063,0.154-0.152,0.276-0.268,0.366c-0.116,0.088-0.229,0.146-0.336,0.176c-0.108,0.029-0.277,0.044-0.509,0.044H72.729z
		 M72.702,66.252h0.494c0.188,0,0.32-0.045,0.396-0.133c0.076-0.089,0.113-0.191,0.113-0.306c0-0.134-0.042-0.24-0.126-0.319
		c-0.086-0.079-0.214-0.119-0.387-0.119h-0.491V66.252z"/>
	<path fill="#006B4D" d="M77.395,64.775v2.058c0,0.333-0.038,0.58-0.111,0.742c-0.074,0.162-0.211,0.295-0.412,0.399
		c-0.199,0.104-0.455,0.156-0.768,0.156c-0.312,0-0.56-0.047-0.743-0.141c-0.185-0.094-0.322-0.227-0.414-0.399
		c-0.093-0.172-0.138-0.425-0.138-0.758v-2.058h0.824v2.058c0,0.178,0.014,0.309,0.043,0.392c0.029,0.085,0.088,0.151,0.176,0.2
		c0.088,0.05,0.195,0.074,0.323,0.074c0.143,0,0.259-0.023,0.349-0.072c0.089-0.05,0.148-0.113,0.178-0.192
		c0.029-0.081,0.044-0.214,0.044-0.401v-2.058H77.395z"/>
	<path fill="#006B4D" d="M77.948,64.775h1.51c0.271,0,0.473,0.033,0.609,0.102c0.136,0.067,0.249,0.164,0.337,0.29
		c0.089,0.126,0.133,0.278,0.133,0.46c0,0.366-0.194,0.61-0.583,0.732c0.224,0.052,0.394,0.155,0.505,0.308
		c0.112,0.154,0.168,0.321,0.168,0.502c0,0.247-0.091,0.461-0.274,0.641c-0.184,0.181-0.482,0.271-0.895,0.271h-1.51V64.775z
		 M78.705,65.358v0.725h0.575c0.211,0,0.343-0.043,0.396-0.127c0.056-0.085,0.083-0.166,0.083-0.244
		c0-0.084-0.022-0.156-0.068-0.217c-0.045-0.06-0.094-0.098-0.148-0.113c-0.054-0.016-0.159-0.023-0.317-0.023H78.705z
		 M78.705,66.671v0.796h0.583c0.199,0,0.34-0.034,0.421-0.105c0.083-0.071,0.123-0.171,0.123-0.298c0-0.107-0.038-0.199-0.118-0.276
		c-0.079-0.078-0.209-0.116-0.394-0.116H78.705z"/>
	<path fill="#006B4D" d="M81.834,67.427h1.288v0.653h-2.057v-3.305h0.769V67.427z"/>
	<path fill="#006B4D" d="M84.22,64.775v3.305h-0.758v-3.305H84.22z"/>
	<path fill="#006B4D" d="M87.434,66.005l-0.795,0.051c-0.011-0.466-0.189-0.7-0.535-0.7c-0.396,0-0.594,0.359-0.594,1.078
		c0,0.415,0.054,0.696,0.161,0.844c0.108,0.147,0.259,0.222,0.452,0.222c0.313,0,0.505-0.208,0.575-0.625l0.735,0.047
		c-0.048,0.395-0.191,0.695-0.433,0.901s-0.537,0.309-0.887,0.309c-0.428,0-0.777-0.151-1.045-0.452
		c-0.269-0.303-0.402-0.72-0.402-1.253c0-0.498,0.129-0.906,0.39-1.225c0.259-0.318,0.613-0.477,1.062-0.477
		C86.897,64.725,87.336,65.151,87.434,66.005z"/>
</g>
</svg>
