<?xml version="1.0" encoding="utf-8"?>
<!-- Generator: Adobe Illustrator 16.0.0, SVG Export Plug-In . SVG Version: 6.00 Build 0)  -->
<!DOCTYPE svg PUBLIC "-//W3C//DTD SVG 1.1//EN" "http://www.w3.org/Graphics/SVG/1.1/DTD/svg11.dtd">
<svg version="1.1" id="Vrstva_1" xmlns="http://www.w3.org/2000/svg" xmlns:xlink="http://www.w3.org/1999/xlink" x="0px" y="0px"
	 width="100px" height="100px" viewBox="0 0 100 100" enable-background="new 0 0 100 100" xml:space="preserve">
<g>
	<path fill="#003974" d="M50.058,26.754c5.196,0,9.907,2.121,13.326,5.531c3.411,3.419,5.531,8.129,5.531,13.325
		c0,10.383-8.474,18.847-18.857,18.847v-0.37c10.181,0,18.487-8.298,18.487-18.477c0-5.089-2.077-9.711-5.427-13.06
		c-3.349-3.349-7.971-5.425-13.061-5.425V26.754z M50.058,64.458c-10.374,0-18.838-8.464-18.838-18.847
		c0-5.196,2.121-9.906,5.531-13.325c3.42-3.41,8.129-5.531,13.307-5.531v0.371c-5.081,0-9.702,2.077-13.042,5.425
		c-3.349,3.349-5.425,7.971-5.425,13.06c0,10.179,8.297,18.477,18.467,18.477V64.458z"/>
	<path fill="#003974" d="M49.917,43.914l11.708,12.442l0.125,0.131l-0.143,0.133l-0.981,0.85l-0.123,0.114l-0.125-0.124
		l-10.46-10.524v-0.512L60.521,57.08l0.697-0.618l-11.3-12.008V43.914z M38.094,35.043l0.141-0.132l1.582-1.468l0.132-0.124
		l0.123,0.133l9.845,10.462v0.54l-9.986-10.621l-1.308,1.219l11.293,11.373v0.512L38.227,35.175L38.094,35.043z"/>
	<path fill="#003974" d="M50.199,44.285l9.871-10.983l0.131-0.15l0.143,0.141l1.352,1.476l0.115,0.124l-0.115,0.124L51.524,45.7
		l-0.273-0.256l10.056-10.551l-1.096-1.202l-9.737,10.842L50.199,44.285L50.199,44.285z M43.997,53.563v-0.521l6.097-6.211
		l0.266,0.256L43.997,53.563L43.997,53.563z M43.997,51.451l5.187-5.522l-0.265-0.256l-4.921,5.239V51.451z M43.997,50.912v0.539
		l-4.931,5.24l-0.274-0.246L43.997,50.912L43.997,50.912z M43.997,53.042l-4.109,4.171l-1.078-0.777l-0.22,0.301l1.219,0.865
		l0.123,0.088l0.115-0.105l3.95-4.021V53.042z"/>
	<polygon fill-rule="evenodd" clip-rule="evenodd" fill="#003974" points="36.698,41.661 37.299,40.036 38.174,38.294 
		39.075,36.828 40.171,35.626 41.222,34.619 42.689,33.382 44.165,32.454 45.631,33.85 45.03,35.007 44.385,36.05 43.864,36.828 
		43.298,37.596 42.769,38.215 42.202,38.833 41.337,39.496 40.585,40.036 39.861,40.424 39.11,40.733 38.059,41.157 	"/>
	<polygon fill-rule="evenodd" clip-rule="evenodd" fill="#003974" points="54.282,33.841 55.749,32.225 56.694,32.833 
		57.709,33.496 59.027,34.38 59.894,35.237 60.76,36.121 61.395,37.048 62.189,38.4 62.907,39.911 63.392,41.104 63.657,41.767 
		62.455,41.219 61.173,40.565 59.813,39.833 58.911,39.292 57.675,38.321 56.811,37.437 55.749,36.235 	"/>
	<path fill="#003974" d="M50.049,25.791c10.921,0.009,19.819,8.916,19.819,19.838c0,0.574-0.033,1.184-0.097,1.776
		c-0.053,0.521-0.149,1.202-0.22,1.688l7.536,1.528l-0.017,0.098l0.025,0.01c-1.13,6.405-4.585,11.998-9.409,15.984
		c-4.825,3.992-11.029,6.388-17.638,6.388v-0.371c6.521,0,12.635-2.359,17.408-6.3c4.692-3.879,8.076-9.306,9.233-15.525
		l-7.59-1.538l0.078-0.363l0.019,0.009c0.062-0.477,0.16-1.149,0.213-1.643c0.054-0.583,0.097-1.167,0.097-1.741
		c0-10.718-8.738-19.458-19.458-19.476V25.791z M23.054,50.594l7.44-1.475c-0.07-0.478-0.141-1.246-0.194-1.794
		c-0.062-0.574-0.097-1.157-0.097-1.696c0-10.931,8.907-19.838,19.829-19.838c0.008,0,0.008,0,0.017,0v0.362
		c-0.009,0-0.009,0-0.017,0c-10.719,0-19.467,8.748-19.467,19.476c0,0.539,0.044,1.104,0.097,1.661
		c0.053,0.557,0.132,1.352,0.212,1.855l0,0l0.053,0.256l-7.502,1.485c1.167,6.247,4.516,11.664,9.189,15.543
		c4.754,3.95,10.869,6.3,17.425,6.3c0.009,0,0.009,0,0.009,0v0.371c0,0,0,0-0.009,0c-6.645,0-12.847-2.387-17.664-6.388
		c-4.816-4.004-8.252-9.624-9.375-16.092l0.062-0.018L23.054,50.594z"/>
	<g>
		<path fill-rule="evenodd" clip-rule="evenodd" fill="#003974" d="M53.778,60.898V60.28c0.142-0.019,0.257-0.116,0.336-0.284
			c0.098-0.193,0.141-0.459,0.141-0.812l-0.008-0.009c-0.062,0.105-0.143,0.185-0.238,0.248c-0.07,0.034-0.152,0.061-0.23,0.07
			v-0.61l0,0c0.142,0,0.257-0.053,0.336-0.177c0.079-0.115,0.124-0.273,0.124-0.477c0-0.239-0.045-0.415-0.124-0.54
			c-0.079-0.122-0.186-0.186-0.336-0.186v-0.635c0.371,0,0.646,0.167,0.822,0.494c0.177,0.336,0.272,0.84,0.272,1.52
			c0,0.654-0.105,1.149-0.3,1.494C54.388,60.712,54.124,60.881,53.778,60.898z M53.778,56.869v0.635c-0.01,0-0.01,0-0.018,0
			c-0.141,0-0.247,0.054-0.326,0.168c-0.079,0.115-0.116,0.283-0.116,0.495c0,0.248,0.037,0.424,0.116,0.539
			s0.186,0.177,0.344,0.177v0.61c-0.044,0.009-0.089,0.009-0.132,0.009c-0.284,0-0.514-0.106-0.689-0.327
			c-0.168-0.221-0.257-0.521-0.257-0.894c0-0.449,0.097-0.804,0.282-1.041c0.177-0.249,0.442-0.371,0.786-0.371H53.778
			L53.778,56.869z M53.778,60.28v0.618c-0.018,0-0.035,0-0.044,0c-0.291,0-0.521-0.097-0.697-0.292
			c-0.16-0.177-0.248-0.415-0.274-0.726h0.608v0.01c0.019,0.132,0.054,0.229,0.115,0.291c0.062,0.062,0.142,0.099,0.248,0.099
			C53.753,60.28,53.761,60.28,53.778,60.28L53.778,60.28z M48.521,60.898V60.28c0.133-0.019,0.248-0.116,0.327-0.284
			c0.088-0.193,0.132-0.459,0.132-0.812v-0.009c-0.062,0.105-0.141,0.185-0.239,0.248c-0.071,0.034-0.141,0.061-0.221,0.07v-0.61
			l0,0c0.133,0,0.248-0.053,0.327-0.177c0.079-0.115,0.123-0.273,0.123-0.477c0-0.239-0.044-0.415-0.123-0.54
			c-0.079-0.122-0.194-0.186-0.327-0.186v-0.635c0.354,0,0.628,0.167,0.813,0.494c0.177,0.336,0.266,0.84,0.266,1.52
			c0,0.654-0.098,1.149-0.292,1.494C49.122,60.712,48.856,60.881,48.521,60.898L48.521,60.898z M51.604,60.792h-0.616v-2.696h-0.743
			v-0.547c0.281,0,0.494-0.054,0.637-0.177c0.131-0.115,0.203-0.283,0.21-0.503h0.513V60.792z M46.338,60.792h-0.609v-2.696h-0.752
			v-0.547c0.292,0,0.504-0.054,0.645-0.177c0.132-0.115,0.204-0.283,0.212-0.503h0.504V60.792L46.338,60.792z M48.521,56.869v0.635
			c-0.008,0-0.008,0-0.017,0c-0.141,0-0.257,0.054-0.328,0.168c-0.08,0.115-0.114,0.283-0.114,0.495
			c0,0.248,0.034,0.424,0.114,0.539c0.071,0.115,0.187,0.177,0.345,0.177v0.61c-0.044,0.009-0.088,0.009-0.132,0.009
			c-0.292,0-0.521-0.106-0.689-0.327c-0.176-0.221-0.257-0.521-0.257-0.894c0-0.449,0.088-0.804,0.274-1.041
			c0.186-0.249,0.451-0.371,0.795-0.371C48.512,56.869,48.512,56.869,48.521,56.869L48.521,56.869z M48.521,60.28v0.618
			c-0.017,0-0.036,0-0.052,0c-0.283,0-0.522-0.097-0.69-0.292c-0.158-0.177-0.248-0.415-0.273-0.726h0.61v0.01
			c0.017,0.132,0.053,0.229,0.114,0.291c0.062,0.062,0.142,0.099,0.248,0.099C48.494,60.28,48.503,60.28,48.521,60.28z"/>
		<path fill-rule="evenodd" clip-rule="evenodd" fill="#003974" d="M36.15,67.41c-0.354-0.213-0.513-0.574-0.504-1.077
			c0.019-0.504,0.222-1.07,0.601-1.706c0.398-0.663,0.812-1.113,1.263-1.36c0.451-0.239,0.867-0.248,1.246-0.018
			c0.327,0.193,0.513,0.484,0.566,0.855c0.044,0.363-0.044,0.752-0.265,1.158l-0.53-0.316c0.097-0.161,0.123-0.347,0.097-0.559
			c-0.035-0.203-0.115-0.353-0.256-0.432c-0.229-0.143-0.477-0.125-0.76,0.051c-0.273,0.178-0.556,0.495-0.831,0.947
			c-0.273,0.459-0.415,0.839-0.423,1.139c-0.019,0.302,0.097,0.532,0.335,0.672c0.176,0.106,0.371,0.106,0.583-0.008
			c0.177-0.098,0.362-0.257,0.556-0.495l-0.592-0.354l0.407-0.67l1.06,0.636l-1.299,2.146l-0.353-0.212l0.255-0.539
			c-0.22,0.133-0.388,0.212-0.521,0.239C36.565,67.56,36.354,67.534,36.15,67.41z"/>
		<polygon fill-rule="evenodd" clip-rule="evenodd" fill="#003974" points="40.162,69.336 38.146,68.354 40.197,64.167 
			42.141,65.121 41.778,65.863 40.374,65.174 39.94,66.059 41.24,66.676 40.877,67.42 39.578,66.791 39.048,67.878 40.523,68.595 		
			"/>
		<path fill-rule="evenodd" clip-rule="evenodd" fill="#003974" d="M43.263,66.278c-0.16-0.053-0.318-0.035-0.46,0.055v-0.832
			c0.222-0.078,0.451-0.078,0.689-0.009c0.434,0.124,0.708,0.435,0.822,0.91c0.114,0.486,0.061,1.097-0.159,1.838
			c-0.222,0.743-0.504,1.29-0.867,1.635c-0.158,0.142-0.317,0.247-0.486,0.31v-0.839c0.071-0.044,0.151-0.107,0.222-0.186
			c0.211-0.229,0.397-0.593,0.539-1.097c0.15-0.495,0.203-0.901,0.15-1.209C43.661,66.536,43.511,66.35,43.263,66.278z
			 M42.803,66.333c-0.079,0.043-0.159,0.106-0.229,0.185c-0.212,0.23-0.397,0.592-0.539,1.096c-0.15,0.504-0.194,0.902-0.142,1.211
			c0.054,0.317,0.203,0.503,0.442,0.574c0.159,0.053,0.318,0.035,0.468-0.053v0.839c-0.22,0.08-0.459,0.09-0.698,0.009
			c-0.433-0.123-0.707-0.424-0.822-0.91c-0.115-0.485-0.062-1.104,0.159-1.847c0.211-0.742,0.504-1.281,0.866-1.617
			c0.159-0.149,0.318-0.256,0.494-0.318V66.333z"/>
		<polygon fill-rule="evenodd" clip-rule="evenodd" fill="#003974" points="46.188,71.007 44.156,70.573 45.128,66.015 
			45.729,66.13 44.933,69.875 46.364,70.177 		"/>
		<path fill-rule="evenodd" clip-rule="evenodd" fill="#003974" d="M48.221,67.269c-0.053,0-0.097,0-0.142,0.009v-0.83
			c0.071-0.008,0.142-0.008,0.212,0c0.441,0.044,0.769,0.283,0.972,0.742c0.213,0.451,0.284,1.06,0.221,1.829
			c-0.071,0.779-0.247,1.361-0.53,1.776c-0.239,0.335-0.522,0.521-0.875,0.547v-0.83c0.187-0.026,0.354-0.149,0.487-0.362
			c0.149-0.274,0.255-0.662,0.301-1.184c0.044-0.523,0.008-0.929-0.098-1.22C48.653,67.454,48.477,67.295,48.221,67.269z
			 M48.079,67.277c-0.194,0.027-0.353,0.15-0.486,0.363c-0.158,0.274-0.265,0.671-0.309,1.184c-0.053,0.521-0.018,0.928,0.106,1.22
			c0.115,0.291,0.291,0.45,0.548,0.477c0.044,0,0.097,0,0.141-0.009v0.83c-0.07,0.01-0.141,0.01-0.211,0
			c-0.451-0.035-0.778-0.281-0.99-0.732c-0.203-0.451-0.284-1.061-0.212-1.839c0.071-0.768,0.248-1.36,0.53-1.767
			c0.24-0.345,0.531-0.531,0.884-0.557V67.277z"/>
		<path fill-rule="evenodd" clip-rule="evenodd" fill="#003974" d="M51.33,71.422c-0.406,0.026-0.741-0.186-1.007-0.609
			c-0.273-0.433-0.423-1.015-0.46-1.76c-0.035-0.768,0.063-1.378,0.302-1.827c0.229-0.461,0.574-0.689,1.017-0.717
			c0.388-0.018,0.698,0.116,0.944,0.407c0.239,0.273,0.38,0.644,0.425,1.104l-0.61,0.027c-0.01-0.187-0.089-0.354-0.23-0.513
			c-0.141-0.151-0.291-0.229-0.449-0.221c-0.273,0.009-0.469,0.167-0.611,0.468c-0.131,0.3-0.186,0.716-0.157,1.247
			c0.026,0.528,0.113,0.927,0.273,1.191c0.158,0.257,0.379,0.39,0.662,0.372c0.204-0.008,0.361-0.124,0.478-0.327
			c0.097-0.186,0.159-0.425,0.185-0.726l-0.688,0.028l-0.035-0.787l1.237-0.054l0.114,2.51l-0.406,0.018l-0.088-0.583
			c-0.115,0.229-0.213,0.39-0.301,0.486C51.765,71.324,51.569,71.412,51.33,71.422z"/>
		
			<rect x="53.179" y="66.385" transform="matrix(0.9876 -0.1569 0.1569 0.9876 -10.1224 9.2458)" fill-rule="evenodd" clip-rule="evenodd" fill="#003974" width="0.616" height="4.674"/>
		<path fill-rule="evenodd" clip-rule="evenodd" fill="#003974" d="M58.231,68.047l0.494-0.187l-0.494-0.804v-1.113l2.067,3.234
			l-0.626,0.229l-0.503-0.84l-0.938,0.337V68.047L58.231,68.047z M58.231,69.928v-0.327l0.045,0.311L58.231,69.928z M57.754,66.253
			l-0.008,0.009l0.273,1.863l0.212-0.078v0.857l-0.088,0.033l0.088,0.663v0.327l-0.565,0.204l-0.609-4.737l0.671-0.246l0.504,0.795
			v1.113L57.754,66.253z"/>
		<path fill-rule="evenodd" clip-rule="evenodd" fill="#003974" d="M56.146,70.697c-0.413,0.098-0.786-0.036-1.112-0.406
			c-0.327-0.363-0.582-0.928-0.751-1.679c-0.178-0.752-0.195-1.371-0.062-1.848c0.141-0.477,0.416-0.75,0.83-0.848
			c0.363-0.088,0.688,0,0.989,0.247c0.283,0.238,0.485,0.601,0.618,1.062l-0.6,0.14c-0.107-0.237-0.204-0.405-0.31-0.511
			c-0.141-0.124-0.311-0.169-0.505-0.124c-0.229,0.052-0.371,0.229-0.432,0.538c-0.063,0.31-0.035,0.716,0.088,1.211
			c0.107,0.504,0.256,0.866,0.449,1.113c0.188,0.237,0.39,0.335,0.62,0.282c0.186-0.045,0.309-0.167,0.38-0.362
			c0.062-0.167,0.079-0.379,0.054-0.645l0.601-0.142c0.053,0.521,0.025,0.946-0.097,1.272C56.766,70.38,56.509,70.616,56.146,70.697
			z"/>
		<polygon fill-rule="evenodd" clip-rule="evenodd" fill="#003974" points="62.748,67.915 60.91,68.895 58.718,64.777 
			59.258,64.484 61.052,67.852 62.349,67.162 		"/>
		<path fill-rule="evenodd" clip-rule="evenodd" fill="#003974" d="M25.431,53.616c-0.141-0.397-0.035-0.777,0.3-1.14
			c0.336-0.362,0.866-0.663,1.609-0.901c0.724-0.247,1.343-0.319,1.829-0.229c0.486,0.097,0.795,0.345,0.928,0.742
			c0.124,0.362,0.062,0.698-0.159,1.016c-0.221,0.301-0.557,0.539-1.007,0.716l-0.195-0.593c0.229-0.123,0.389-0.236,0.477-0.353
			c0.124-0.149,0.15-0.318,0.08-0.512c-0.071-0.222-0.265-0.345-0.575-0.381c-0.309-0.035-0.707,0.036-1.202,0.195
			c-0.477,0.158-0.831,0.345-1.06,0.548c-0.221,0.211-0.301,0.424-0.221,0.645c0.062,0.186,0.186,0.301,0.389,0.353
			c0.176,0.045,0.389,0.045,0.654-0.008l0.186,0.583c-0.504,0.105-0.928,0.105-1.272,0.017
			C25.803,54.208,25.546,53.979,25.431,53.616z"/>
		<polygon fill-rule="evenodd" clip-rule="evenodd" fill="#003974" points="27.146,57.319 26.2,55.207 26.96,54.872 30.335,55.039 
			29.735,53.688 30.486,53.342 31.405,55.41 30.707,55.72 27.261,55.561 27.897,56.982 		"/>
		<polygon fill-rule="evenodd" clip-rule="evenodd" fill="#003974" points="28.657,60.05 27.525,58.114 31.564,55.756 32.66,57.629 
			31.944,58.052 31.148,56.7 30.3,57.195 31.025,58.433 30.318,58.848 29.594,57.611 28.542,58.221 29.373,59.634 		"/>
		<path fill-rule="evenodd" clip-rule="evenodd" fill="#003974" d="M29.735,61.702c-0.265-0.336-0.292-0.725-0.097-1.176
			c0.185-0.45,0.592-0.918,1.201-1.396c0.61-0.478,1.158-0.752,1.644-0.831c0.495-0.079,0.866,0.054,1.131,0.38
			c0.23,0.3,0.292,0.637,0.185,1.008c-0.097,0.362-0.335,0.698-0.706,1.016l-0.372-0.485c0.168-0.195,0.283-0.363,0.328-0.495
			c0.061-0.186,0.026-0.354-0.097-0.513c-0.142-0.186-0.372-0.238-0.672-0.159c-0.3,0.071-0.662,0.266-1.069,0.583
			c-0.397,0.317-0.663,0.609-0.804,0.876c-0.142,0.273-0.142,0.503,0,0.688c0.124,0.15,0.283,0.212,0.495,0.195
			c0.178-0.019,0.38-0.089,0.601-0.23l0.38,0.485c-0.442,0.273-0.839,0.425-1.193,0.451C30.283,62.135,29.964,62.003,29.735,61.702z
			"/>
		<polygon fill-rule="evenodd" clip-rule="evenodd" fill="#003974" points="32.818,64.83 32.376,64.396 33.853,62.903 33.031,62.1 
			31.555,63.584 31.123,63.151 34.409,59.829 34.842,60.262 33.597,61.524 34.418,62.338 35.665,61.075 36.097,61.508 		"/>
		<polygon fill-rule="evenodd" clip-rule="evenodd" fill="#003974" points="74.667,52.884 74.481,53.467 72.804,52.945 
			69.719,53.033 69.94,52.344 72.06,52.37 70.293,51.205 70.505,50.533 72.998,52.353 		"/>
		<polygon fill-rule="evenodd" clip-rule="evenodd" fill="#003974" points="73.915,55.127 72.971,57.151 68.738,55.181 
			69.658,53.21 70.408,53.563 69.747,54.986 70.639,55.401 71.248,54.094 71.99,54.446 71.38,55.746 72.476,56.259 73.174,54.774 		
			"/>
		<path fill-rule="evenodd" clip-rule="evenodd" fill="#003974" d="M67.643,60.155l0.177,0.151l0.467-0.559
			c0.107-0.122,0.143-0.246,0.116-0.37c-0.027-0.124-0.125-0.256-0.302-0.398c-0.148-0.132-0.281-0.203-0.406-0.203
			c-0.016-0.008-0.033-0.008-0.052-0.008v-0.742c0.247,0.043,0.513,0.186,0.786,0.415c0.239,0.203,0.397,0.397,0.495,0.602
			c0.071,0.158,0.088,0.316,0.061,0.459c0.152-0.036,0.292-0.036,0.426,0.009c0.176,0.061,0.425,0.221,0.724,0.468
			c0.294,0.247,0.477,0.398,0.575,0.451c0.088,0.053,0.158,0.07,0.221,0.053l0.097,0.079l-0.441,0.521
			c-0.097-0.062-0.213-0.133-0.343-0.229c-0.134-0.097-0.276-0.203-0.416-0.327c-0.274-0.229-0.478-0.354-0.611-0.38
			c-0.133-0.026-0.255,0.035-0.379,0.177l-0.416,0.485l1.406,1.177l-0.39,0.468l-1.794-1.511V60.155z M67.36,58.919l-0.495,0.592
			l0.777,0.645v0.787l-1.785-1.493l0.953-1.149c0.195-0.222,0.425-0.318,0.718-0.292c0.035,0,0.069,0.01,0.114,0.019v0.742
			C67.536,58.776,67.439,58.821,67.36,58.919z"/>
		<polygon fill-rule="evenodd" clip-rule="evenodd" fill="#003974" points="72.185,58.645 71.884,59.148 67.351,57.638 
			67.688,57.062 71.062,58.318 71.07,58.309 68.341,55.959 68.668,55.401 		"/>
		<path fill-rule="evenodd" clip-rule="evenodd" fill="#003974" d="M68.183,63.981c-0.267,0.266-0.576,0.372-0.92,0.301
			c-0.345-0.062-0.706-0.291-1.104-0.672l-2.191-2.19l0.441-0.452l2.148,2.147c0.211,0.212,0.406,0.345,0.582,0.389
			c0.177,0.054,0.327,0.019,0.45-0.098c0.143-0.14,0.195-0.3,0.16-0.477c-0.036-0.176-0.16-0.361-0.371-0.574l-2.174-2.174
			l0.441-0.45l2.156,2.156c0.406,0.406,0.646,0.786,0.706,1.14C68.571,63.381,68.465,63.699,68.183,63.981z"/>
		<path fill-rule="evenodd" clip-rule="evenodd" fill="#003974" d="M65.919,66.023c-0.326,0.229-0.653,0.31-0.997,0.229
			c-0.336-0.089-0.655-0.318-0.955-0.725l0.477-0.354c0.143,0.195,0.301,0.31,0.46,0.345c0.168,0.045,0.326,0.01,0.486-0.114
			c0.168-0.123,0.264-0.256,0.283-0.397c0.025-0.142-0.027-0.291-0.152-0.46c-0.104-0.133-0.229-0.212-0.37-0.212
			c-0.089-0.009-0.229,0.019-0.406,0.071l-0.316,0.096c-0.328,0.098-0.586,0.125-0.771,0.081c-0.273-0.062-0.547-0.266-0.805-0.61
			c-0.273-0.362-0.414-0.706-0.404-1.025c0.007-0.318,0.157-0.592,0.439-0.803c0.283-0.214,0.593-0.274,0.92-0.186
			c0.325,0.096,0.627,0.326,0.911,0.697l-0.47,0.353c-0.149-0.167-0.301-0.273-0.441-0.309c-0.159-0.044-0.309-0.009-0.467,0.114
			c-0.135,0.098-0.204,0.213-0.213,0.346c-0.01,0.133,0.033,0.265,0.141,0.407c0.088,0.122,0.186,0.193,0.273,0.22
			c0.071,0.018,0.16,0.01,0.266-0.017l0.741-0.213c0.249-0.071,0.47-0.079,0.665-0.027c0.246,0.08,0.484,0.267,0.714,0.574
			c0.291,0.38,0.434,0.743,0.425,1.078C66.353,65.519,66.21,65.802,65.919,66.023z"/>
	</g>
</g>
</svg>
