<?xml version="1.0" encoding="utf-8"?>
<!-- Generator: Adobe Illustrator 13.0.1, SVG Export Plug-In . SVG Version: 6.00 Build 14948)  -->
<!DOCTYPE svg PUBLIC "-//W3C//DTD SVG 1.1//EN" "http://www.w3.org/Graphics/SVG/1.1/DTD/svg11.dtd">
<svg version="1.1" id="Vrstva_1" xmlns="http://www.w3.org/2000/svg" xmlns:xlink="http://www.w3.org/1999/xlink" x="0px" y="0px"
	 width="100px" height="100px" viewBox="0 0 100 100" enable-background="new 0 0 100 100" xml:space="preserve">
<g>
	<g>
		<defs>
			<rect id="SVGID_1_" x="22.291" y="19.231" width="55.66" height="57.711"/>
		</defs>
		<clipPath id="SVGID_2_">
			<use xlink:href="#SVGID_1_"  overflow="visible"/>
		</clipPath>
		<path clip-path="url(#SVGID_2_)" fill-rule="evenodd" clip-rule="evenodd" fill="#E1001A" d="M43.319,34.819
			c0,3.741-3.032,6.773-6.772,6.773c-3.741,0-6.772-3.032-6.772-6.773c0-3.739,3.031-6.772,6.772-6.772
			C40.288,28.046,43.319,31.08,43.319,34.819"/>
		<path clip-path="url(#SVGID_2_)" fill-rule="evenodd" clip-rule="evenodd" fill="#E1001A" d="M50.092,34.819v6.773
			c-3.741,0-6.772-3.032-6.772-6.773c0-3.739,3.032-6.772,6.772-6.772V34.819z"/>
		<path clip-path="url(#SVGID_2_)" fill-rule="evenodd" clip-rule="evenodd" fill="#E1001A" d="M70.411,34.819
			c0,3.741-3.031,6.773-6.772,6.773c-3.74,0-6.772-3.032-6.772-6.773c0-3.739,3.032-6.772,6.772-6.772
			C67.38,28.046,70.411,31.08,70.411,34.819"/>
		<path clip-path="url(#SVGID_2_)" fill-rule="evenodd" clip-rule="evenodd" fill="#008ACF" d="M63.639,48.365v6.772
			c-3.73,0-6.773-3.043-6.773-6.772c0,3.729-3.043,6.772-6.773,6.772c-3.729,0-6.772-3.043-6.772-6.772
			c0,3.729-3.042,6.772-6.772,6.772v-6.772c3.73,0,6.772-3.043,6.772-6.773c0,3.73,3.043,6.773,6.772,6.773
			c3.73,0,6.773-3.043,6.773-6.773C56.865,45.322,59.908,48.365,63.639,48.365"/>
		<path clip-path="url(#SVGID_2_)" fill="#1A171B" d="M38.057,64.999v0.34c0,1.465-0.146,2.006-0.674,2.504
			c-0.586,0.572-1.318,0.734-3.399,0.734c-1.67,0-2.141-0.076-2.785-0.441c-0.835-0.453-1.216-1.201-1.318-2.578
			c-0.029-0.514-0.073-1.832-0.073-2.652c0-2.022,0.189-2.785,0.85-3.415c0.732-0.702,1.464-0.864,3.839-0.864
			c1.554,0,2.168,0.131,2.667,0.557c0.409,0.352,0.659,0.865,0.747,1.584c0.03,0.233,0.044,0.527,0.059,1.2h-1.862
			c-0.028-1.567-0.205-1.728-1.875-1.728c-1.23,0-1.787,0.102-2.081,0.38c-0.247,0.249-0.351,0.601-0.38,1.348
			c-0.015,0.25-0.015,0.25-0.015,1.583c0,3.209,0.133,3.414,2.242,3.414c1.875,0,2.211-0.234,2.211-1.553
			c0-0.088,0-0.221-0.014-0.412H38.057z M31.521,56.618l0.308-0.645l2.008,0.807l1.993-0.807l0.323,0.645l-2.316,1.363
			L31.521,56.618z"/>
		<polygon clip-path="url(#SVGID_2_)" fill="#1A171B" points="47.515,68.487 45.639,68.487 45.639,64.312 41.109,64.312 
			41.109,68.487 39.234,68.487 39.234,58.714 41.109,58.714 41.109,62.714 45.639,62.714 45.639,58.714 47.515,58.714 		"/>
		<path clip-path="url(#SVGID_2_)" fill="#1A171B" d="M60.664,68.487h-1.848v-5.332c0-0.428,0.03-1.393,0.104-2.889h-0.059
			c-0.66,2.066-0.688,2.17-0.895,2.711l-2.152,5.51h-1.687l-2.167-5.465c-0.162-0.426-0.47-1.334-0.924-2.711h-0.059
			c0.102,2.051,0.118,2.228,0.118,2.844v5.332h-1.847v-9.773h3.019l1.744,4.527c0.16,0.441,0.38,1.057,0.907,2.711h0.06l0.351-1.084
			c0.235-0.762,0.411-1.303,0.528-1.611l1.729-4.543h3.077V68.487z"/>
		<path clip-path="url(#SVGID_2_)" fill="#1A171B" d="M70.502,58.714v6.506c0,1.201-0.145,1.861-0.512,2.346
			c-0.586,0.789-1.377,1.012-3.545,1.012c-1.423,0-2.098-0.09-2.668-0.322c-1.055-0.455-1.392-1.16-1.392-2.932v-6.609h1.876v6.609
			c0,1.422,0.292,1.641,2.197,1.641c1.904,0,2.168-0.219,2.168-1.715v-6.535H70.502z M68.379,57.307l-2.74,0.455l-0.191-0.733
			l2.608-0.923L68.379,57.307z"/>
	</g>
</g>
<rect fill="none" width="100" height="100"/>
</svg>
