<?xml version="1.0" encoding="utf-8"?>
<!-- Generator: Adobe Illustrator 13.0.1, SVG Export Plug-In . SVG Version: 6.00 Build 14948)  -->
<!DOCTYPE svg PUBLIC "-//W3C//DTD SVG 1.1//EN" "http://www.w3.org/Graphics/SVG/1.1/DTD/svg11.dtd">
<svg version="1.1" id="Vrstva_1" xmlns="http://www.w3.org/2000/svg" xmlns:xlink="http://www.w3.org/1999/xlink" x="0px" y="0px"
	 width="100px" height="100px" viewBox="0 0 100 100" enable-background="new 0 0 100 100" xml:space="preserve">
<g>
	<g>
		<path fill="#004587" d="M32.249,53.688c-0.028-0.021-0.042-0.055-0.078-0.076c-0.336-0.314-0.792-0.527-1.262-0.527
			c-1.291,0-1.937,1.047-1.937,2.239c0,0.259,0.057,0.631,0.12,0.876c0.071,0.26,0.176,0.464,0.344,0.676
			c0.344,0.427,0.877,0.657,1.424,0.657c0.506,0,1.004-0.202,1.403-0.504c0.028-0.015,0.056-0.05,0.112-0.05l-0.063,0.428
			c-0.441,0.296-1.017,0.394-1.55,0.394c-1.543,0-2.469-0.969-2.469-2.506c0-0.672,0.287-1.415,0.807-1.858
			c0.519-0.435,1.165-0.617,1.838-0.617c0.513,0,1.039,0.119,1.508,0.323c-0.07,0.176-0.112,0.357-0.146,0.54L32.249,53.688z
			 M30.249,51.927l0.183,0.177l0.26,0.237l0.189,0.142h0.042l0.063-0.036l0.133-0.105l0.225-0.202l0.224-0.212
			c0.007-0.006,0.015-0.021,0.042-0.033c0.092,0.076,0.197,0.139,0.197,0.139l0.064,0.029c-0.014,0.013-0.028,0.026-0.049,0.042
			l-0.512,0.365l-0.196,0.161l-0.042,0.027l-0.028,0.021c-0.133-0.006-0.238,0-0.309,0.007c-0.015-0.007-0.021-0.013-0.028-0.02
			l-0.113-0.092l-0.294-0.225l-0.372-0.266c-0.007-0.009-0.021-0.021-0.028-0.029l0.007-0.014c0.126-0.05,0.238-0.125,0.238-0.125
			l0.07-0.021C30.228,51.906,30.235,51.915,30.249,51.927"/>
		<path fill="#004587" d="M35.798,52.925c0.239,0,0.484-0.015,0.723-0.028c-0.007,0.07-0.021,0.14-0.021,0.209
			c0,0.072,0,0.141,0.021,0.212c-0.21-0.015-0.42-0.035-0.631-0.05l-0.702-0.021h-0.511l-0.036,1.052v0.316
			c0,0.135,0.007,0.268,0.007,0.4h0.709l0.378-0.021c0.211-0.014,0.415-0.021,0.625-0.035c-0.021,0.069-0.035,0.141-0.035,0.211
			c0,0.069,0.014,0.141,0.028,0.21c-0.211-0.021-0.414-0.041-0.618-0.041l-0.393-0.015H35.04h-0.393
			c0,0.189-0.007,0.379-0.007,0.562v0.876c0,0.203,0.007,0.408,0.014,0.612c0.421,0.013,0.842-0.015,1.263-0.029
			c0.217-0.009,0.428-0.028,0.639-0.063c-0.029,0.14-0.029,0.279,0.006,0.419l-0.483-0.012c-0.289-0.009-0.576-0.016-0.864-0.016
			c-0.203,0-0.407,0.007-0.61,0.007c-0.196,0-0.393,0.009-0.589,0.015l0.042-0.885l0.021-2.398l-0.014-0.617
			c-0.007-0.295-0.021-0.597-0.036-0.897l0.758,0.028H35.798z"/>
		<path fill="#004587" d="M38.127,56.775c0.274,0.448,0.59,0.714,1.136,0.714c0.569,0,0.976-0.455,0.976-1.01
			c0-0.469-0.316-0.708-0.708-0.883c-0.33-0.155-0.688-0.267-0.989-0.47c-0.316-0.211-0.499-0.582-0.499-0.961
			c0-0.906,0.716-1.348,1.558-1.348c0.337,0,0.743,0.106,1.003,0.337c-0.085,0.184-0.134,0.379-0.189,0.576h-0.071
			c-0.147-0.38-0.456-0.632-0.869-0.632c-0.484,0-0.884,0.344-0.884,0.842c0,0.267,0.098,0.484,0.301,0.652
			c0.112,0.098,0.141,0.105,0.274,0.168c0.083,0.041,0.175,0.084,0.267,0.12c0.105,0.04,0.21,0.084,0.316,0.133
			c0.104,0.049,0.224,0.091,0.322,0.146c0.155,0.085,0.331,0.169,0.442,0.303c0.176,0.218,0.288,0.454,0.288,0.743
			c0,1.004-0.779,1.586-1.733,1.586c-0.344,0-0.905-0.135-1.144-0.394c0.07-0.204,0.105-0.414,0.133-0.624H38.127z"/>
		<path fill="#004587" d="M42.476,53.071l-0.014-0.161c0.028,0.007,0.057,0.007,0.085,0.015c0.188,0.042,0.386,0.013,0.575-0.015
			c-0.014,0.063-0.014,0.132-0.014,0.203l-0.035,1.859c0,0.042,0.007,0.084,0.007,0.119c0,0.021,0.042,0.049,0.064,0.042
			c0,0.007,0.147-0.106,0.195-0.148c0.099-0.09,0.19-0.183,0.288-0.28l0.345-0.337l1.36-1.458c0.084,0.007,0.168,0.015,0.253,0.015
			c0.099,0,0.204-0.015,0.302-0.015l-1.572,1.545l-0.596,0.602c0.561,0.646,1.144,1.277,1.705,1.929l0.568,0.666v0.051
			c-0.126-0.008-0.245-0.036-0.372-0.036c-0.134,0-0.259,0.028-0.393,0.036c-0.168-0.204-0.322-0.415-0.498-0.618l-0.947-1.13
			l-0.582-0.659c-0.035-0.027-0.077-0.05-0.12-0.021c-0.007,0.029-0.007,0.064-0.007,0.099c0,0.246,0.007,0.498,0.007,0.743v0.716
			l0.028,0.695l0.014,0.176c-0.182-0.036-0.351-0.022-0.534-0.008l-0.133,0.008c0.006-0.064,0.006-0.119,0.013-0.184l0.042-1.241
			c0.007-0.323,0.015-0.653,0.015-0.975c0-0.317-0.007-0.625-0.015-0.935l-0.021-0.66L42.476,53.071z"/>
		<path fill="#004587" d="M49.253,52.812l1.992,4.638l0.119,0.251c-0.119-0.012-0.239-0.021-0.356-0.021
			c-0.126,0-0.26,0-0.387,0.021l-0.063-0.202l-0.315-0.842l-0.343-0.828l-0.843-0.021l-0.94,0.021
			c-0.245,0.617-0.498,1.235-0.687,1.872c-0.076-0.021-0.162-0.021-0.246-0.021c-0.084,0-0.175,0.009-0.259,0.021l2.188-4.889
			H49.253z M49.793,55.533l-0.778-1.796l-0.765,1.789c0.28,0,0.561,0.007,0.842,0.007H49.793z M48.937,52.65l0.113-0.168
			l0.364-0.576c0.007-0.013,0.014-0.027,0.029-0.027c0.139,0.007,0.399,0.007,0.462,0.007h0.133c0.021,0,0.021,0.008,0.007,0.029
			c-0.007,0.006-0.027,0.026-0.034,0.033l-0.12,0.099l-0.316,0.288l-0.386,0.337c-0.021,0.013-0.042,0.013-0.056,0.013
			c0,0-0.021-0.005-0.197,0C48.93,52.685,48.923,52.68,48.937,52.65"/>
		<path fill="#004587" d="M55.861,54.468c-0.015,0.435-0.029,0.877-0.029,1.318c0,0.141,0.007,0.279,0.015,0.421L55.91,57.7
			c-0.113-0.006-0.23-0.021-0.344-0.021c-0.119,0-0.24,0.015-0.358,0.021l0.071-1.507c0.014-0.225,0.007-0.448,0.014-0.674
			c0-0.196,0.006-0.399,0.006-0.598c0-0.167-0.006-0.334-0.006-0.503l-0.029-1.502c0.1,0.015,0.218,0.035,0.316,0.035
			c0.111,0,0.238,0,0.344-0.041L55.861,54.468z"/>
		<path fill="#004587" d="M57.994,55.147v-2.343h0.119l3.45,3.688l0.05,0.043c0.016-0.253,0.02-0.513,0.02-0.765v-2.244
			l-0.027-0.563l-0.007-0.053c0.099,0.013,0.204,0.021,0.302,0.021c0.057,0,0.12-0.008,0.176-0.021
			c-0.008,0.053-0.008,0.11-0.015,0.168l-0.035,0.687l-0.063,1.663l-0.02,1.572l0.02,0.792h-0.104
			c-0.142-0.168-0.281-0.337-0.429-0.499l-1.144-1.271l-1.957-2.082l-0.015,0.659c-0.006,0.351,0,0.694,0,1.038v0.561l0.022,0.829
			l0.033,0.672c-0.16-0.027-0.322-0.027-0.483,0c0.028-0.307,0.05-0.615,0.057-0.925L57.994,55.147z"/>
		<path fill="#004587" d="M63.908,56.775c0.273,0.448,0.588,0.714,1.136,0.714c0.567,0,0.976-0.455,0.976-1.01
			c0-0.469-0.317-0.708-0.709-0.883c-0.33-0.155-0.688-0.267-0.99-0.47c-0.314-0.211-0.496-0.582-0.496-0.961
			c0-0.906,0.713-1.348,1.557-1.348c0.336,0,0.743,0.106,1.002,0.337c-0.084,0.184-0.132,0.379-0.188,0.576h-0.07
			c-0.147-0.38-0.456-0.632-0.87-0.632c-0.484,0-0.883,0.344-0.883,0.842c0,0.267,0.097,0.484,0.301,0.652
			c0.112,0.098,0.139,0.105,0.273,0.168c0.084,0.041,0.176,0.084,0.266,0.12c0.105,0.04,0.212,0.084,0.316,0.133
			c0.105,0.049,0.225,0.091,0.324,0.146c0.153,0.085,0.328,0.169,0.439,0.303c0.176,0.218,0.289,0.454,0.289,0.743
			c0,1.004-0.779,1.586-1.732,1.586c-0.344,0-0.904-0.135-1.144-0.394c0.069-0.204,0.105-0.414,0.132-0.624H63.908z"/>
		<path fill="#004587" d="M68.88,56.031v0.309l0.022,1.214v0.155c-0.105-0.007-0.211-0.021-0.323-0.021
			c-0.12,0-0.231,0.015-0.351,0.015c0.008-0.057,0.008-0.113,0.013-0.176l0.063-1.354l-0.027-2.465l-0.036-0.798
			c0.142,0.015,0.288,0.015,0.43,0.015l0.849-0.015c0.681-0.007,1.564-0.007,1.768,0.807c0.027,0.119,0.042,0.237,0.042,0.356
			c0,0.24-0.077,0.563-0.211,0.759c-0.146,0.225-0.288,0.336-0.525,0.448c-0.303,0.148-0.442,0.17-0.765,0.226
			c-0.141,0.027-0.279,0.027-0.422,0.027c-0.175,0-0.35-0.014-0.526-0.014V56.031z M68.875,53.766v1.48
			c0.104,0.021,0.224,0.021,0.336,0.021c0.118,0,0.238-0.008,0.365-0.021c0.323-0.028,0.624-0.105,0.848-0.359
			c0.162-0.182,0.26-0.539,0.26-0.777c0-0.225-0.078-0.491-0.225-0.659s-0.357-0.225-0.567-0.246
			c-0.134-0.015-0.253-0.026-0.386-0.026c-0.203,0-0.415,0.006-0.619,0.02v0.169L68.875,53.766z"/>
		<path fill="#004587" d="M74.598,52.925c0.238,0,0.484-0.015,0.723-0.028c-0.007,0.07-0.021,0.14-0.021,0.209
			c0,0.072,0,0.141,0.021,0.212c-0.211-0.015-0.42-0.035-0.631-0.05l-0.701-0.021h-0.513l-0.035,1.052v0.316
			c0,0.135,0.009,0.268,0.009,0.4h0.707l0.379-0.021c0.211-0.014,0.413-0.021,0.623-0.035c-0.02,0.069-0.033,0.141-0.033,0.211
			c0,0.069,0.014,0.141,0.027,0.21c-0.21-0.021-0.414-0.041-0.617-0.041l-0.393-0.015h-0.302h-0.392
			c0,0.189-0.009,0.379-0.009,0.562v0.876c0,0.203,0.009,0.408,0.013,0.612c0.423,0.013,0.844-0.015,1.266-0.029
			c0.217-0.009,0.428-0.028,0.637-0.063c-0.027,0.14-0.027,0.279,0.008,0.419l-0.484-0.012c-0.287-0.009-0.575-0.016-0.864-0.016
			c-0.201,0-0.406,0.007-0.609,0.007c-0.196,0-0.393,0.009-0.589,0.015l0.043-0.885l0.02-2.398l-0.014-0.617
			c-0.006-0.295-0.021-0.597-0.034-0.897l0.757,0.028H74.598z"/>
		<path fill="#004587" d="M77.066,53.071l-0.012-0.161c0.027,0.007,0.054,0.007,0.082,0.015c0.19,0.042,0.387,0.013,0.576-0.015
			c-0.015,0.063-0.015,0.132-0.015,0.203l-0.034,1.859c0,0.042,0.007,0.084,0.007,0.119c0,0.021,0.042,0.049,0.063,0.042
			c0,0.007,0.147-0.106,0.198-0.148c0.097-0.09,0.189-0.183,0.286-0.28l0.343-0.337l1.363-1.458
			c0.083,0.007,0.167,0.015,0.251,0.015c0.098,0,0.204-0.015,0.302-0.015l-1.57,1.545l-0.597,0.602
			c0.561,0.646,1.142,1.277,1.704,1.929l0.568,0.666v0.051c-0.127-0.008-0.246-0.036-0.372-0.036c-0.132,0-0.259,0.028-0.394,0.036
			c-0.166-0.204-0.321-0.415-0.498-0.618l-0.945-1.13l-0.584-0.659c-0.033-0.027-0.076-0.05-0.118-0.021
			c-0.007,0.029-0.007,0.064-0.007,0.099c0,0.246,0.007,0.498,0.007,0.743v0.716l0.027,0.695l0.015,0.176
			c-0.182-0.036-0.351-0.022-0.533-0.008l-0.133,0.008c0.008-0.064,0.008-0.119,0.014-0.184l0.041-1.241
			c0.007-0.323,0.015-0.653,0.015-0.975c0-0.317-0.008-0.625-0.015-0.935l-0.02-0.66L77.066,53.071z"/>
		<path fill="#004587" d="M85.626,53.688c-0.028-0.021-0.042-0.056-0.077-0.076c-0.338-0.314-0.793-0.527-1.264-0.527
			c-1.289,0-1.936,1.047-1.936,2.239c0,0.259,0.057,0.631,0.119,0.876c0.07,0.26,0.176,0.464,0.345,0.676
			c0.343,0.427,0.876,0.657,1.424,0.657c0.505,0,1.004-0.202,1.401-0.504c0.029-0.015,0.058-0.05,0.113-0.05l-0.063,0.429
			C85.246,57.7,84.672,57.8,84.139,57.8c-1.543,0-2.469-0.969-2.469-2.505c0-0.673,0.287-1.416,0.806-1.859
			c0.521-0.436,1.165-0.617,1.838-0.617c0.513,0,1.04,0.119,1.51,0.323c-0.071,0.176-0.112,0.357-0.147,0.54L85.626,53.688z"/>
		<path fill="#004587" d="M89.176,52.925c0.238,0,0.484-0.015,0.723-0.028c-0.008,0.07-0.021,0.14-0.021,0.209
			c0,0.072,0,0.141,0.021,0.212c-0.211-0.015-0.42-0.035-0.631-0.05l-0.701-0.021h-0.513l-0.034,1.052v0.316
			c0,0.135,0.006,0.268,0.006,0.4h0.709l0.379-0.021c0.209-0.014,0.412-0.021,0.624-0.035c-0.022,0.069-0.036,0.141-0.036,0.211
			c0,0.069,0.014,0.141,0.029,0.21c-0.21-0.021-0.416-0.041-0.617-0.041l-0.394-0.015h-0.303h-0.392
			c0,0.189-0.006,0.379-0.006,0.562v0.876c0,0.203,0.006,0.408,0.012,0.612c0.423,0.013,0.843-0.015,1.264-0.029
			c0.217-0.009,0.428-0.028,0.639-0.063c-0.027,0.14-0.027,0.279,0.008,0.419l-0.485-0.012c-0.288-0.009-0.574-0.016-0.863-0.016
			c-0.202,0-0.407,0.007-0.61,0.007c-0.195,0-0.392,0.009-0.59,0.015l0.042-0.885l0.022-2.398l-0.014-0.617
			c-0.009-0.295-0.021-0.597-0.036-0.897l0.759,0.028H89.176z"/>
		<path fill="#004587" d="M30.495,63.185l0.47-0.038c-0.015,0.056-0.02,0.108-0.02,0.167c0,0.044,0.005,0.086,0.015,0.129h-0.12
			l-0.604-0.019l-1.114-0.01l-0.863,0.024v-0.071l1.396-1.974c0.23-0.33,0.465-0.662,0.681-1.001c-0.182,0-0.364-0.012-0.547-0.006
			l-0.941,0.038l-0.392,0.03c0.008-0.049,0.014-0.098,0.014-0.145c0-0.045,0-0.096-0.014-0.14c0.201,0.01,0.402,0.019,0.604,0.019
			h1.314l0.562-0.014l0.043-0.005v0.071l-0.566,0.739l-1.118,1.592l-0.409,0.621l0.02,0.026h0.327h0.24L30.495,63.185z M29.3,59.497
			l0.125,0.121l0.177,0.164l0.13,0.096h0.029l0.042-0.024l0.092-0.071l0.154-0.141l0.153-0.145c0.005-0.004,0.009-0.013,0.029-0.022
			c0.062,0.053,0.134,0.096,0.134,0.096l0.043,0.02c-0.009,0.01-0.019,0.02-0.034,0.028l-0.35,0.251l-0.135,0.11l-0.028,0.02
			l-0.02,0.012c-0.09-0.003-0.163,0-0.21,0.006c-0.01-0.006-0.015-0.009-0.02-0.014l-0.076-0.063l-0.202-0.154l-0.254-0.183
			c-0.005-0.004-0.015-0.014-0.019-0.018l0.004-0.011c0.087-0.034,0.163-0.086,0.163-0.086l0.049-0.015
			C29.286,59.484,29.29,59.489,29.3,59.497"/>
		<path fill="#004587" d="M32.462,61.235c-0.01,0.299-0.019,0.6-0.019,0.902c0,0.097,0.004,0.191,0.009,0.288l0.043,1.021
			c-0.077-0.004-0.158-0.013-0.235-0.013c-0.082,0-0.163,0.009-0.245,0.013l0.048-1.031c0.01-0.152,0.005-0.306,0.01-0.46
			c0-0.134,0.004-0.273,0.004-0.407c0-0.116-0.004-0.231-0.004-0.347l-0.02-1.025c0.068,0.01,0.149,0.023,0.216,0.023
			c0.078,0,0.164,0,0.236-0.028L32.462,61.235z"/>
		<path fill="#004587" d="M34.453,62.392l-0.859-2.087l-0.072-0.134c0.091,0.005,0.182,0.019,0.273,0.019
			c0.072,0,0.148-0.014,0.221-0.019c0.058,0.158,0.115,0.316,0.172,0.476l0.322,0.839l0.59,1.454h0.034
			c0.081-0.197,0.177-0.385,0.249-0.581l0.504-1.301l0.288-0.801l0.029-0.086c0.119,0.019,0.235,0.028,0.351,0
			c-0.02,0.044-0.039,0.081-0.058,0.12l-1.084,2.542l-0.236,0.613c-0.105-0.019-0.211-0.019-0.316,0L34.453,62.392z"/>
		<path fill="#004587" d="M40.01,60.285c0.576,0.303,0.874,0.798,0.874,1.448c0,1.081-0.758,1.786-1.829,1.786
			c-0.724,0-1.314-0.299-1.63-0.965c-0.058-0.124-0.083-0.25-0.106-0.384c-0.019-0.119-0.028-0.24-0.028-0.359
			c0-0.484,0.177-0.936,0.542-1.261c0.346-0.313,0.768-0.466,1.234-0.466C39.372,60.085,39.736,60.141,40.01,60.285 M40.111,60.723
			c-0.24-0.308-0.615-0.471-0.999-0.471c-0.297,0-0.566,0.08-0.801,0.254c-0.422,0.312-0.551,0.879-0.551,1.372
			c0,0.39,0.081,0.765,0.34,1.062c0.25,0.281,0.595,0.433,0.97,0.433c0.672,0,1.18-0.51,1.3-1.153
			c0.029-0.139,0.043-0.292,0.043-0.436C40.413,61.385,40.36,61.043,40.111,60.723"/>
		<path fill="#004587" d="M43.483,60.41H43.24h-0.121c-0.004,0.038-0.004,0.077-0.004,0.11l-0.014,0.508v1.911l0.028,0.475
			l0.005,0.032c-0.073-0.008-0.145-0.019-0.221-0.019c-0.086,0-0.172,0.006-0.254,0.019c0.009-0.037,0.009-0.079,0.014-0.119
			l0.019-0.505l0.023-1.927v-0.489c-0.206,0.004-0.403,0.004-0.604,0.019l-0.461,0.034c0.015-0.097,0.019-0.193,0.005-0.288
			c0.22,0.005,0.441,0.024,0.657,0.028l0.629,0.011l0.595-0.015l0.595-0.024c-0.02,0.1-0.023,0.202,0,0.302
			c-0.043-0.01-0.086-0.014-0.135-0.018L43.483,60.41z"/>
		<path fill="#004587" d="M45.226,61.701v-1.603h0.082l2.36,2.523l0.034,0.029c0.009-0.174,0.014-0.351,0.014-0.524v-1.535
			l-0.019-0.382l-0.005-0.039c0.067,0.01,0.139,0.015,0.206,0.015c0.04,0,0.082-0.005,0.12-0.015
			c-0.005,0.039-0.005,0.077-0.01,0.114l-0.023,0.47l-0.042,1.139l-0.015,1.075l0.015,0.54H47.87
			c-0.097-0.113-0.192-0.229-0.293-0.339l-0.781-0.869l-1.34-1.425l-0.009,0.451c-0.005,0.24,0,0.475,0,0.71v0.384l0.015,0.566
			l0.024,0.459c-0.111-0.019-0.221-0.019-0.331,0c0.019-0.209,0.033-0.421,0.038-0.632L45.226,61.701z"/>
		<path fill="#004587" d="M49.794,61.235c-0.01,0.299-0.019,0.6-0.019,0.902c0,0.097,0.005,0.191,0.009,0.288l0.044,1.021
			c-0.078-0.004-0.159-0.013-0.235-0.013c-0.082,0-0.164,0.009-0.245,0.013l0.048-1.031c0.009-0.152,0.005-0.307,0.009-0.459
			c0-0.136,0.005-0.274,0.005-0.408c0-0.116-0.005-0.231-0.005-0.347l-0.02-1.024c0.067,0.009,0.149,0.022,0.217,0.022
			c0.076,0,0.163,0,0.235-0.028L49.794,61.235z M49.448,59.992l0.078-0.114l0.249-0.394c0.005-0.01,0.009-0.02,0.019-0.02
			c0.096,0.005,0.273,0.005,0.317,0.005h0.091c0.014,0,0.014,0.005,0.005,0.02c-0.005,0.004-0.019,0.019-0.024,0.023l-0.082,0.067
			l-0.216,0.198l-0.264,0.229c-0.013,0.009-0.028,0.009-0.039,0.009c0,0-0.015-0.005-0.134,0
			C49.444,60.017,49.438,60.012,49.448,59.992"/>
		<path fill="#004587" d="M51.594,61.783l0.014,1.039l0.02,0.521l0.01,0.104c-0.072-0.004-0.148-0.022-0.221-0.022
			c-0.086,0-0.168,0.019-0.255,0.022c0.005-0.032,0.005-0.069,0.011-0.104l0.018-0.38l0.021-1.122v-0.183v-0.989l-0.024-0.51
			c0.081,0.007,0.163,0.021,0.245,0.021c0.071,0,0.147-0.01,0.22-0.015c-0.004,0.044-0.004,0.086-0.008,0.129l-0.021,0.437
			l-0.022,0.836l0.618,0.013l1.372-0.013V60.55l-0.023-0.391c0.082,0.007,0.163,0.021,0.245,0.021c0.076,0,0.148-0.01,0.226-0.015
			c-0.009,0.044-0.009,0.086-0.015,0.129l-0.043,1.563l0.014,1.081l0.025,0.507c-0.073-0.004-0.145-0.022-0.217-0.022
			c-0.086,0-0.168,0.019-0.254,0.022c0.005-0.032,0.005-0.069,0.009-0.104l0.024-0.495l0.014-1.064H51.594z"/>
		<path fill="#004587" d="M57.875,60.285c0.576,0.303,0.873,0.798,0.873,1.448c0,1.081-0.759,1.786-1.828,1.786
			c-0.725,0-1.314-0.299-1.632-0.965c-0.058-0.124-0.08-0.25-0.105-0.384c-0.019-0.119-0.028-0.24-0.028-0.359
			c0-0.484,0.177-0.936,0.543-1.261c0.344-0.313,0.766-0.466,1.231-0.466C57.236,60.085,57.602,60.141,57.875,60.285 M57.977,60.723
			c-0.242-0.308-0.615-0.471-1-0.471c-0.297,0-0.566,0.08-0.801,0.254c-0.422,0.312-0.553,0.879-0.553,1.372
			c0,0.39,0.082,0.765,0.343,1.062c0.249,0.281,0.595,0.433,0.968,0.433c0.672,0,1.182-0.51,1.302-1.153
			c0.028-0.139,0.043-0.292,0.043-0.436C58.278,61.385,58.225,61.043,57.977,60.723"/>
		<path fill="#004587" d="M62.112,62.305v0.212l0.013,0.83v0.106c-0.07-0.007-0.143-0.015-0.219-0.015
			c-0.082,0-0.16,0.008-0.24,0.008c0.004-0.037,0.004-0.074,0.01-0.119l0.041-0.925l-0.018-1.686l-0.023-0.546
			c0.096,0.01,0.196,0.01,0.293,0.01l0.58-0.01c0.465-0.005,1.068-0.005,1.209,0.552c0.019,0.083,0.027,0.161,0.027,0.243
			c0,0.165-0.053,0.385-0.143,0.52c-0.102,0.153-0.197,0.23-0.36,0.308c-0.205,0.101-0.304,0.114-0.522,0.153
			c-0.096,0.021-0.191,0.021-0.289,0.021c-0.119,0-0.238-0.011-0.358-0.011V62.305z M62.107,60.755v1.014
			c0.071,0.015,0.153,0.015,0.23,0.015c0.082,0,0.162-0.005,0.248-0.015c0.222-0.02,0.428-0.071,0.581-0.245
			c0.11-0.123,0.178-0.37,0.178-0.532c0-0.154-0.052-0.336-0.152-0.451c-0.103-0.115-0.245-0.153-0.39-0.167
			c-0.091-0.011-0.172-0.021-0.264-0.021c-0.141,0-0.282,0.005-0.422,0.014v0.116L62.107,60.755z"/>
		<path fill="#004587" d="M65.211,60.176l0.639-0.01c0.346-0.007,0.782,0.023,0.964,0.37c0.059,0.11,0.101,0.246,0.101,0.374
			c0,0.557-0.498,0.823-0.982,0.91l0.989,1.253l0.229,0.27l0.082,0.104c-0.098-0.004-0.188-0.022-0.285-0.022
			c-0.09,0-0.177,0.019-0.268,0.022c-0.096-0.133-0.191-0.268-0.292-0.402l-0.566-0.734l-0.384-0.451h-0.184v0.386v0.205l0.02,0.997
			c-0.072-0.004-0.148-0.013-0.221-0.013c-0.077,0-0.158,0.009-0.235,0.013c0.006-0.188,0.021-0.368,0.024-0.555l0.023-1.68
			l-0.027-0.932v-0.114L65.211,60.176z M65.245,61.679c0.077,0.003,0.153,0.008,0.229,0.008c0.153,0,0.25-0.005,0.399-0.033
			c0.351-0.073,0.614-0.311,0.614-0.688c0-0.155-0.045-0.311-0.159-0.426c-0.124-0.131-0.196-0.148-0.369-0.178
			c-0.091-0.016-0.212-0.016-0.304-0.016c-0.129,0-0.262,0.005-0.393,0.011L65.245,61.679z"/>
		<path fill="#004587" d="M70.726,60.285c0.576,0.303,0.873,0.798,0.873,1.448c0,1.081-0.759,1.786-1.829,1.786
			c-0.725,0-1.314-0.299-1.632-0.965c-0.057-0.124-0.081-0.25-0.104-0.384c-0.02-0.119-0.029-0.24-0.029-0.359
			c0-0.484,0.178-0.936,0.543-1.261c0.345-0.313,0.767-0.466,1.232-0.466C70.087,60.085,70.45,60.141,70.726,60.285 M70.826,60.723
			c-0.24-0.308-0.615-0.471-0.998-0.471c-0.298,0-0.566,0.08-0.801,0.254c-0.424,0.312-0.553,0.879-0.553,1.372
			c0,0.39,0.081,0.765,0.34,1.062c0.251,0.281,0.596,0.433,0.969,0.433c0.672,0,1.183-0.51,1.302-1.153
			c0.028-0.139,0.044-0.292,0.044-0.436C71.129,61.385,71.074,61.043,70.826,60.723"/>
		<path fill="#004587" d="M72.624,62.814c0.188,0.306,0.403,0.488,0.778,0.488c0.389,0,0.667-0.312,0.667-0.688
			c0-0.323-0.217-0.488-0.484-0.605c-0.226-0.104-0.47-0.183-0.677-0.322c-0.216-0.145-0.341-0.396-0.341-0.658
			c0-0.618,0.489-0.921,1.065-0.921c0.229,0,0.508,0.073,0.686,0.229c-0.057,0.126-0.09,0.259-0.13,0.395h-0.048
			c-0.1-0.259-0.312-0.432-0.594-0.432c-0.332,0-0.605,0.236-0.605,0.576c0,0.182,0.066,0.33,0.207,0.446
			c0.076,0.067,0.096,0.071,0.186,0.115c0.059,0.029,0.121,0.057,0.184,0.081c0.072,0.029,0.145,0.058,0.215,0.091
			c0.073,0.035,0.155,0.062,0.222,0.101c0.104,0.059,0.226,0.116,0.304,0.207c0.119,0.148,0.196,0.312,0.196,0.509
			c0,0.685-0.533,1.083-1.187,1.083c-0.234,0-0.619-0.09-0.781-0.268c0.048-0.138,0.071-0.282,0.09-0.427H72.624z"/>
		<path fill="#004587" d="M77.078,60.41h-0.245h-0.12c-0.004,0.038-0.004,0.077-0.004,0.11l-0.014,0.508v1.911l0.027,0.475
			l0.006,0.032c-0.073-0.008-0.145-0.019-0.222-0.019c-0.087,0-0.172,0.006-0.255,0.019c0.01-0.037,0.01-0.079,0.015-0.119
			l0.019-0.505l0.025-1.927v-0.489c-0.207,0.004-0.403,0.004-0.605,0.019l-0.46,0.034c0.015-0.097,0.019-0.193,0.005-0.288
			c0.221,0.005,0.441,0.024,0.657,0.028l0.628,0.011l0.596-0.015l0.596-0.024c-0.021,0.1-0.025,0.202,0,0.302
			c-0.045-0.01-0.086-0.014-0.136-0.018L77.078,60.41z"/>
		<path fill="#004587" d="M79.127,60.176l0.638-0.01c0.347-0.007,0.782,0.023,0.965,0.37c0.058,0.11,0.1,0.246,0.1,0.374
			c0,0.557-0.499,0.823-0.983,0.91l0.988,1.253l0.232,0.27l0.08,0.104c-0.096-0.004-0.187-0.022-0.283-0.022
			c-0.09,0-0.178,0.019-0.268,0.022c-0.096-0.133-0.191-0.268-0.293-0.402l-0.565-0.734l-0.385-0.451H79.17v0.386v0.205l0.019,0.997
			c-0.071-0.004-0.149-0.013-0.22-0.013c-0.077,0-0.158,0.009-0.235,0.013c0.005-0.188,0.02-0.368,0.024-0.555l0.023-1.68
			l-0.028-0.932v-0.114L79.127,60.176z M79.208,59.497l0.125,0.121l0.177,0.164l0.13,0.096h0.029l0.044-0.024l0.09-0.071
			l0.154-0.141l0.154-0.145c0.004-0.004,0.009-0.013,0.027-0.022c0.063,0.053,0.136,0.096,0.136,0.096l0.042,0.02
			c-0.008,0.01-0.02,0.02-0.034,0.028l-0.351,0.251l-0.133,0.11l-0.029,0.02l-0.02,0.012c-0.09-0.003-0.163,0-0.211,0.006
			c-0.009-0.006-0.014-0.009-0.018-0.014l-0.078-0.063l-0.201-0.154l-0.254-0.183c-0.004-0.004-0.015-0.014-0.02-0.018l0.005-0.011
			c0.085-0.034,0.163-0.086,0.163-0.086l0.047-0.015C79.194,59.484,79.199,59.489,79.208,59.497 M79.162,61.679
			c0.074,0.003,0.152,0.008,0.229,0.008c0.152,0,0.249-0.005,0.399-0.033c0.349-0.073,0.614-0.311,0.614-0.688
			c0-0.155-0.045-0.311-0.158-0.426c-0.126-0.131-0.197-0.148-0.371-0.178c-0.091-0.016-0.211-0.016-0.303-0.016
			c-0.129,0-0.263,0.005-0.393,0.011L79.162,61.679z"/>
		<path fill="#004587" d="M83.35,60.181c0.164,0,0.332-0.01,0.494-0.021c-0.005,0.051-0.016,0.098-0.016,0.146
			c0,0.047,0,0.096,0.016,0.144c-0.145-0.008-0.288-0.023-0.432-0.033L82.934,60.4h-0.352l-0.024,0.721v0.215
			c0,0.092,0.005,0.183,0.005,0.273h0.484l0.261-0.014c0.144-0.01,0.282-0.016,0.425-0.023c-0.014,0.047-0.021,0.096-0.021,0.144
			c0,0.049,0.008,0.096,0.018,0.143c-0.144-0.014-0.283-0.027-0.421-0.027l-0.27-0.011h-0.207h-0.269
			c0,0.129-0.005,0.26-0.005,0.384v0.6c0,0.141,0.005,0.28,0.01,0.417c0.288,0.011,0.577-0.008,0.862-0.019
			c0.15-0.004,0.293-0.018,0.438-0.043c-0.018,0.096-0.018,0.194,0.006,0.287l-0.332-0.008c-0.197-0.005-0.393-0.011-0.588-0.011
			c-0.141,0-0.279,0.006-0.419,0.006c-0.136,0-0.27,0.005-0.403,0.009l0.029-0.603l0.013-1.644l-0.009-0.421
			c-0.004-0.203-0.014-0.41-0.023-0.616l0.519,0.021H83.35z"/>
		<path fill="#004587" d="M85.418,63.434c-0.121,0-0.24,0.005-0.36,0.013l0.024-0.469l0.01-2.228l-0.014-0.59h0.119
			c0.316,0.021,0.643,0,0.965,0c0.498,0,0.978-0.023,1.387,0.307c0.358,0.298,0.513,0.745,0.513,1.201
			c0,0.263-0.033,0.558-0.144,0.796c-0.109,0.236-0.265,0.451-0.461,0.62c-0.408,0.354-0.939,0.362-1.449,0.358L85.418,63.434z
			 M85.493,63.231c0.173,0.01,0.347,0.027,0.519,0.027c0.164,0,0.379-0.009,0.543-0.032c0.126-0.018,0.23-0.053,0.346-0.109
			c0.278-0.136,0.412-0.284,0.543-0.566c0.124-0.255,0.162-0.527,0.162-0.812c0-0.364-0.086-0.855-0.385-1.104
			c-0.335-0.278-0.709-0.284-1.121-0.284c-0.197,0-0.399,0.014-0.596,0.021c-0.011,0.331-0.029,0.662-0.029,0.992v1.31
			L85.493,63.231z"/>
		<path fill="#004587" d="M89.68,61.235c-0.012,0.299-0.02,0.6-0.02,0.902c0,0.097,0.005,0.191,0.008,0.288l0.044,1.021
			c-0.076-0.004-0.158-0.013-0.235-0.013c-0.08,0-0.163,0.009-0.244,0.013l0.048-1.031c0.011-0.152,0.005-0.307,0.011-0.459
			c0-0.136,0.004-0.274,0.004-0.408c0-0.116-0.004-0.231-0.004-0.347l-0.021-1.024c0.068,0.009,0.15,0.022,0.218,0.022
			c0.075,0,0.163,0,0.233-0.028L89.68,61.235z M89.332,59.992l0.078-0.114l0.25-0.394c0.005-0.01,0.008-0.02,0.02-0.02
			c0.096,0.005,0.273,0.005,0.314,0.005h0.092c0.016,0,0.016,0.005,0.005,0.02c-0.005,0.004-0.02,0.019-0.024,0.023l-0.08,0.067
			l-0.217,0.198l-0.264,0.229c-0.016,0.009-0.029,0.009-0.038,0.009c0,0-0.015-0.005-0.136,0
			C89.328,60.017,89.324,60.012,89.332,59.992"/>
		<path fill="#004587" d="M24.211,37.992c1.151,1.672,1.482,4.018,0.755,5.856c-1.621,4.093-7.489,4.507-9.641,0.491
			c-1.033-1.929-0.593-4.94,1.186-6.568c5.053-4.619,11.612,0.03,13.867,1.921c3.662,3.07,6.709,5.511,10.625,6.892
			c-3.611-1.879-5.777-4.142-10.078-8.366c-5.763-5.661-12.432-6.065-16.38-2.117c-1.967,1.966-3.357,5.538-1.452,9.202
			c2.718,5.229,11.605,5.438,13.122-1.098C26.799,41.691,25.641,39.396,24.211,37.992"/>
		<path fill="#96BD0D" d="M10.098,47.29c3.524,3.437,7.536,8.021,15.01,3.833c6.788-3.804,9.646-4.344,15.183-3.042
			c-4.585-2.113-8.12-3.023-15.491,1.114C18.973,52.464,14.283,50.182,10.098,47.29"/>
	</g>
</g>
<rect fill="none" width="100" height="100"/>
</svg>
