<?xml version="1.0" encoding="utf-8"?>
<!-- Generator: Adobe Illustrator 16.0.0, SVG Export Plug-In . SVG Version: 6.00 Build 0)  -->
<!DOCTYPE svg PUBLIC "-//W3C//DTD SVG 1.1//EN" "http://www.w3.org/Graphics/SVG/1.1/DTD/svg11.dtd">
<svg version="1.1" id="Layer_1" xmlns="http://www.w3.org/2000/svg" xmlns:xlink="http://www.w3.org/1999/xlink" x="0px" y="0px"
	 width="100px" height="100px" viewBox="0 0 100 100" enable-background="new 0 0 100 100" xml:space="preserve">
<g>
	<path fill-rule="evenodd" clip-rule="evenodd" fill="#FFD400" d="M49.957,24.5c14.635-0.024,26.52,11.821,26.543,26.458
		C76.524,65.593,64.679,77.476,50.044,77.5C35.408,77.524,23.524,65.68,23.5,51.043C23.476,36.407,35.321,24.523,49.957,24.5"/>
	<path fill-rule="evenodd" clip-rule="evenodd" fill="#A2D073" d="M32.896,45.92c2.257-1.282,4.382-2.653,6.767-3.734
		c1.043-0.475,2.123-0.899,3.197-1.298c1.372-0.51,2.805-1.012,4.218-1.393c0.619-0.167,1.177-0.55,1.859-0.745
		c0.525-0.15,1.035-0.001,1.643,0.166c1.804,0.49,3.28,1.062,4.918,1.758c0.757,0.321,1.238,0.5,1.97,0.681
		c2.333,0.579,4.782,1.341,7.009,2.05c0.64,0.205,1.285,0.395,1.93,0.589c0.954,2.256,1.445,4.595,1.445,7.045
		c0,8.658-6.164,15.874-14.344,17.504c-0.08-0.227-0.177-0.445-0.294-0.651c-0.302-0.535-0.7-0.98-1.204-1.337
		c-0.158-0.111-0.323-0.212-0.498-0.301c-0.583-0.293-1.2-0.444-1.853-0.444c-0.277,0.002-0.548,0.03-0.811,0.083
		c-0.566,0.118-1.085,0.347-1.556,0.683c-0.634,0.459-1.131,1.093-1.418,1.834c-7.869-1.862-13.725-8.931-13.725-17.37
		C32.15,49.294,32.401,47.593,32.896,45.92"/>
	<path fill-rule="evenodd" clip-rule="evenodd" fill="#006543" d="M49.958,25.227c14.234-0.025,25.792,11.496,25.816,25.731
		C75.8,65.192,64.278,76.752,50.043,76.774c-14.236,0.023-25.794-11.496-25.818-25.731C24.202,36.808,35.723,25.249,49.958,25.227
		 M49.971,32.574c10.197-0.017,18.479,8.238,18.494,18.436c0.016,9.147-6.624,16.75-15.352,18.233
		c-0.312-1.615-1.684-2.873-3.452-2.871c-1.697,0.004-3.055,1.176-3.417,2.749c-8.385-1.731-14.694-9.15-14.71-18.052
		C31.52,40.872,39.772,32.59,49.971,32.574z"/>
	<path fill-rule="evenodd" clip-rule="evenodd" fill="#006543" d="M53.213,67.892c-0.303-0.535-0.699-0.98-1.203-1.337
		c0.037-0.057,0.076-0.113,0.116-0.162c0.285-0.359,0.572-0.526,1.089-0.675c3.697-1.069,8.598-3.386,10.456-6.991
		c-2.111,3.012-6.649,5.442-10.638,6.436c0.721-0.799,1.465-1.2,2.343-1.632c3.663-1.427,5.24-2.606,6.326-3.528
		c-1.685,1.068-3.326,1.878-5.199,2.642c1.197-0.996,2.062-1.475,3.32-2.229c2.288-1.369,4.82-3.414,6.295-5.683
		c-0.766,3.723-2.914,7.733-6.722,10.326C57.713,66.207,55.589,67.313,53.213,67.892 M48.85,65.893
		c-0.566,0.118-1.085,0.347-1.557,0.683c-0.467-0.57-1.053-0.928-1.555-1.135c-1.345-0.555-3.942,1.311-5.784-1.943
		c2.273,1.86,4.15,0.182,6.188,0.538c0.202,0.036,0.413,0.104,0.624,0.201c-0.422-1.737-0.4-3.502,0.164-5.372
		c0.628-2.083,1.8-3.764,2.557-5.731c0.354-0.923,0.734-2.281,0.204-3.208c-0.425-0.743-1.239-0.844-1.957-0.592
		c0.072,1.04,0.433,1.605,1.14,2.678c-0.909-0.172-1.666-0.787-1.919-1.644c-0.473,0.277-0.891,0.423-1.669,0.442
		c0.458-0.576,0.615-0.936,0.791-1.389c-0.948-0.132-1.714-0.709-1.933-1.741c1.071,0.605,1.85,0.961,2.876,1.016
		c1.18-0.611,2.731-0.436,3.432,0.795c0.274,0.479,0.37,1.017,0.368,1.565c0.182-0.116,0.38-0.177,0.593-0.18
		c0.79-0.006,1.229,0.742,0.876,1.747c-0.128-0.807-0.547-0.971-0.864-0.948c-0.471,0.036-0.638,0.455-0.8,0.897
		c-0.104,0.285-0.246,0.67-0.385,1.02c-0.756,1.883-1.742,3.398-2.378,5.513c-0.557,1.849-0.487,3.655-0.002,5.359
		c0.275-0.444,0.809-0.752,1.661-0.748C48.502,64.231,48.515,65.089,48.85,65.893z M51.513,66.254
		c-0.485-0.243-0.96-0.379-1.5-0.429c0.194-1.288-0.032-2.886-0.219-3.796c0.775,0.649,1.133,1.721,1.339,2.646
		c0.723-0.511,1.83-1.009,3.04-1.254C53.096,64.231,52.053,65.063,51.513,66.254z"/>
	<path fill-rule="evenodd" clip-rule="evenodd" fill="#006543" d="M32.895,45.92c2.258-1.282,4.383-2.653,6.768-3.735
		c1.043-0.474,2.122-0.898,3.196-1.297c1.372-0.511,2.804-1.014,4.219-1.393c0.618-0.167,1.177-0.551,1.858-0.745
		c0.525-0.15,1.035-0.001,1.644,0.165c1.803,0.491,3.279,1.062,4.917,1.758c0.757,0.321,1.239,0.5,1.97,0.681
		c2.333,0.578,4.782,1.339,7.009,2.05c0.641,0.204,1.285,0.395,1.93,0.589c0.752,1.776,1.219,3.603,1.38,5.526
		c-2.495-0.854-5.134-1.529-8.077-2.093c-1.411-1.829-3.553-3.43-5.551-4.476c0.889,0.038,2.175,0.371,3.065,0.61
		c0.422,0.114,0.812,0.219,1.107-0.136c-0.999-1.266-2.449-2.034-3.122-2.318c-0.985-0.416-2.089-0.861-3.098-1.198
		c-0.735-0.245-1.557-0.5-2.282-0.663c-0.305-0.069-0.471-0.019-0.723,0.101c-0.262,0.126-0.511,0.275-0.684,0.411
		c-0.419,0.331-0.515,0.73-0.073,1.064c0.377,0.284,1.104,0.547,1.161,1.367c-0.985,0.221-3.563,0.673-3.733,1.568
		c-0.138,0.739,1.68,0.974,2.035,1.021c2.028,0.275,4.849,0.35,5.281,1.979c-5.532-0.406-10.848-0.104-15.81,0.81
		c0.423,0.264,0.832,0.673,0.934,1.069c0.12,0.461-0.064,0.7-0.445,0.927c-0.674,0.401-1.958,0.691-2.777,0.845
		c-0.877,0.165-1.869,0.295-2.841,0.38C32.177,49.124,32.424,47.515,32.895,45.92 M60.648,42.72
		c0.492,0.264,0.518,0.688,0.392,1.074c-0.206,0.631-0.406,1.049-0.346,1.836c1.009-1.021,2.29-1.641,3.649-1.761
		C63.335,43.517,61.586,42.993,60.648,42.72z"/>
	<path fill="#FFFFFF" d="M70.654,63.098l-3.423-2.322l-0.44,0.65l1.603,1.087l-2.587,0.363l-0.579,0.855l2.951-0.414l0.594,2.554
		l0.507-0.746l-0.561-2.392l1.494,1.015L70.654,63.098 M31.429,34.708l-0.875,0.395l0.042,0.354l1.007-0.319l0.266-0.32l0.142-1.044
		l-0.367,0.025L31.429,34.708z M35.138,32.042c-0.326,0.251-0.524,0.547-0.599,0.881c-0.075,0.335-0.007,0.638,0.201,0.905
		c0.167,0.214,0.371,0.342,0.617,0.385c0.248,0.042,0.582,0.011,1.002-0.097l0.164-0.046c0.292-0.074,0.501-0.104,0.629-0.089
		c0.127,0.017,0.238,0.086,0.333,0.209c0.109,0.141,0.147,0.292,0.115,0.458c-0.035,0.165-0.131,0.311-0.293,0.438
		c-0.315,0.246-0.654,0.265-1.015,0.055l-0.282,0.704c0.534,0.239,1.077,0.144,1.631-0.287c0.376-0.292,0.603-0.617,0.686-0.975
		c0.08-0.359,0.002-0.691-0.236-0.997c-0.178-0.227-0.381-0.361-0.608-0.395c-0.228-0.036-0.583,0.006-1.069,0.128l-0.38,0.096
		c-0.333,0.083-0.569,0.035-0.709-0.143c-0.098-0.125-0.13-0.263-0.102-0.416c0.028-0.149,0.113-0.281,0.25-0.388
		c0.256-0.198,0.54-0.21,0.856-0.036l0.265-0.674C36.125,31.557,35.639,31.651,35.138,32.042z M30.918,65.498l3.461-2.264
		l-0.429-0.655l-1.621,1.059l0.66-2.525l-0.566-0.867l-0.756,2.888l-2.584-0.437l0.496,0.755L32,63.854l-1.511,0.987L30.918,65.498z
		 M28.641,60.401l-0.114-0.285l-0.074-0.176c-0.1-0.243-0.129-0.436-0.092-0.572c0.037-0.134,0.151-0.241,0.343-0.318
		c0.212-0.085,0.393-0.081,0.544,0.009c0.148,0.093,0.282,0.281,0.397,0.566l0.128,0.32L28.641,60.401z M31.931,59.074l-1.633,0.658
		l-0.171-0.419l1.227-1.672l-0.347-0.86l-1.286,1.848c-0.437-0.414-0.892-0.526-1.364-0.335c-0.44,0.178-0.671,0.478-0.692,0.903
		c-0.01,0.211,0.071,0.53,0.242,0.955l0.483,1.197l3.834-1.549L31.931,59.074z M26.758,56.916l4.07-0.727l-0.137-0.773l-1.907,0.342
		l1.6-2.067l-0.182-1.019l-1.826,2.359l-2.208-1.415l0.16,0.89l2.068,1.319l-1.777,0.318L26.758,56.916z M26.972,49.483
		c0.29-0.227,0.677-0.332,1.162-0.317c0.485,0.017,0.865,0.146,1.141,0.389c0.274,0.245,0.405,0.568,0.394,0.97
		c-0.012,0.402-0.165,0.717-0.455,0.942c-0.292,0.229-0.678,0.333-1.161,0.318c-0.484-0.013-0.865-0.144-1.14-0.389
		c-0.276-0.244-0.407-0.567-0.395-0.97C26.53,50.023,26.683,49.71,26.972,49.483z M26.45,52.015
		c0.364,0.395,0.876,0.603,1.539,0.624c0.435,0.013,0.798-0.043,1.095-0.161c0.296-0.121,0.544-0.317,0.746-0.589
		c0.262-0.355,0.404-0.804,0.419-1.346c0.022-0.683-0.151-1.219-0.517-1.612c-0.367-0.391-0.891-0.598-1.571-0.618
		c-0.681-0.022-1.216,0.151-1.606,0.518c-0.391,0.367-0.596,0.893-0.619,1.578C25.916,51.084,26.086,51.62,26.45,52.015z
		 M27.254,43.549l2.881,0.759l-3.467,1.468l-0.19,0.726l4,1.053l0.198-0.748l-2.852-0.751l3.43-1.455l0.196-0.749l-3.998-1.052
		L27.254,43.549z M30.392,38.816c0.362-0.06,0.754,0.03,1.171,0.275c0.42,0.243,0.692,0.538,0.818,0.884
		c0.125,0.347,0.088,0.693-0.114,1.041c-0.203,0.347-0.487,0.553-0.85,0.613c-0.364,0.062-0.754-0.031-1.172-0.274
		c-0.418-0.243-0.691-0.538-0.817-0.884c-0.126-0.344-0.089-0.692,0.115-1.041C29.745,39.083,30.029,38.878,30.392,38.816z
		 M28.728,40.794c0.132,0.521,0.485,0.948,1.058,1.281c0.375,0.219,0.722,0.346,1.04,0.381c0.317,0.034,0.627-0.021,0.934-0.165
		c0.401-0.186,0.737-0.515,1.009-0.982c0.345-0.591,0.449-1.145,0.313-1.665c-0.137-0.52-0.5-0.95-1.086-1.292
		c-0.589-0.343-1.143-0.445-1.661-0.308c-0.518,0.136-0.949,0.502-1.295,1.093C28.7,39.722,28.596,40.276,28.728,40.794z
		 M31.927,35.076c-0.271,0.311-0.41,0.635-0.419,0.98c-0.011,0.343,0.112,0.626,0.367,0.848c0.394,0.343,0.943,0.338,1.651-0.02
		l0.279-0.14c0.355-0.181,0.636-0.182,0.837-0.004c0.134,0.117,0.201,0.259,0.199,0.427c0,0.17-0.068,0.332-0.204,0.484
		c-0.264,0.303-0.592,0.386-0.985,0.25l-0.144,0.743c0.569,0.135,1.085-0.062,1.548-0.592c0.312-0.357,0.476-0.718,0.486-1.086
		c0.011-0.366-0.128-0.679-0.421-0.934c-0.216-0.189-0.441-0.28-0.669-0.272c-0.229,0.008-0.573,0.117-1.026,0.33l-0.355,0.168
		c-0.312,0.143-0.553,0.142-0.724-0.008c-0.118-0.104-0.178-0.232-0.178-0.387c-0.001-0.154,0.056-0.296,0.172-0.43
		c0.214-0.244,0.491-0.308,0.833-0.197l0.132-0.712C32.805,34.414,32.346,34.599,31.927,35.076z M37.684,30.42l1.865,3.69
		l0.702-0.354l-0.875-1.727l2.437,0.936l0.923-0.466l-2.783-1.069l0.719-2.521l-0.806,0.407l-0.67,2.363l-0.814-1.611L37.684,30.42z
		 M43.824,29.567l-1.486-1.326l-0.863,0.24l2.107,1.875l0.473,1.698l0.762-0.21l-0.476-1.714l0.822-2.676l-0.792,0.223
		L43.824,29.567z M43.039,27.89l0.519-0.145l0.798-1.171l-0.744,0.191L43.039,27.89z M73.486,44.924l0.131,0.539l0.995,0.768
		l-0.183-0.762L73.486,44.924z M56.319,27.58l0.535,0.152l1.157-0.487l-0.751-0.217L56.319,27.58z M55.196,30.18l1.091-1.382
		l0.123,1.726L55.196,30.18z M56.126,27.873l-2.762,3.515l0.761,0.214l0.714-0.952l1.604,0.454l0.109,1.187l0.8,0.228l-0.436-4.422
		L56.126,27.873z M52.177,27.109l-0.157,2.972l-2.142-3.093l-0.75-0.04l-0.217,4.129l0.773,0.041l0.155-2.944l2.121,3.064
		l0.773,0.041l0.217-4.129L52.177,27.109z M60.335,30.015l0.27,0.147l0.168,0.089c0.233,0.126,0.378,0.255,0.436,0.383
		c0.056,0.128,0.033,0.283-0.062,0.464c-0.11,0.201-0.252,0.312-0.428,0.337c-0.175,0.023-0.397-0.038-0.667-0.186l-0.302-0.166
		L60.335,30.015z M58.634,33.127l0.845-1.548l0.397,0.217l0.113,2.071l0.813,0.445l-0.177-2.244c0.6,0.042,1.022-0.158,1.267-0.605
		c0.228-0.417,0.215-0.795-0.038-1.135c-0.125-0.172-0.39-0.367-0.792-0.587l-1.133-0.619l-1.984,3.629L58.634,33.127z
		 M65.512,33.879c0.002,0.368-0.153,0.739-0.46,1.112c-0.31,0.375-0.646,0.594-1.008,0.662s-0.697-0.026-1.007-0.283
		c-0.31-0.258-0.466-0.569-0.466-0.939c-0.001-0.369,0.151-0.738,0.461-1.11c0.31-0.373,0.643-0.594,1.004-0.662
		c0.363-0.068,0.697,0.026,1.008,0.283C65.354,33.2,65.511,33.513,65.512,33.879z M63.831,31.916
		c-0.533,0.045-1.013,0.323-1.436,0.834c-0.277,0.334-0.458,0.656-0.544,0.963c-0.085,0.307-0.082,0.623,0.009,0.949
		c0.12,0.428,0.389,0.812,0.805,1.158c0.528,0.436,1.057,0.627,1.591,0.579c0.535-0.05,1.02-0.336,1.453-0.861
		c0.433-0.524,0.625-1.054,0.575-1.587c-0.052-0.532-0.342-1.018-0.868-1.455C64.895,32.064,64.366,31.871,63.831,31.916z
		 M68.486,36.78c0.164,0.21,0.275,0.377,0.333,0.503c0.056,0.125,0.082,0.261,0.077,0.404c-0.01,0.383-0.232,0.743-0.67,1.083
		c-0.812,0.63-1.507,0.576-2.085-0.163l-0.425-0.544l2.349-1.823L68.486,36.78z M64.77,37.798l0.963,1.229
		c0.429,0.55,0.905,0.859,1.429,0.925c0.522,0.067,1.058-0.111,1.604-0.537c0.598-0.463,0.883-0.987,0.858-1.574
		c-0.018-0.389-0.219-0.831-0.607-1.327l-0.979-1.253L64.77,37.798z M72.362,42.491l-2.725,1.202l1.794-3.308l-0.304-0.688
		l-3.782,1.67l0.312,0.707l2.698-1.189l-1.776,3.277l0.312,0.707l3.781-1.669L72.362,42.491z M73.179,44.942l-4.027,0.948
		l0.184,0.77l4.023-0.95L73.179,44.942z M73.354,50.677l0.01,0.429c0.004,0.283-0.038,0.486-0.128,0.607
		c-0.088,0.125-0.237,0.187-0.447,0.191c-0.449,0.007-0.679-0.282-0.688-0.866l-0.006-0.34L73.354,50.677z M69.805,50.738l1.7-0.029
		l0.007,0.345c0.01,0.547,0.129,0.965,0.357,1.255c0.232,0.291,0.554,0.433,0.972,0.425c0.394-0.006,0.693-0.16,0.902-0.463
		c0.146-0.211,0.215-0.545,0.207-1.001l-0.022-1.391l-4.137,0.072L69.805,50.738z M71.196,54.281l1.478,0.931l-1.715,0.311
		L71.196,54.281z M73.577,55.001l-3.747-2.435l-0.146,0.774l1.012,0.627l-0.309,1.638l-1.174,0.215l-0.155,0.817l4.366-0.825
		L73.577,55.001z M71.802,59.337l-0.12,0.285l-0.07,0.174c-0.104,0.245-0.215,0.401-0.339,0.472
		c-0.121,0.068-0.277,0.064-0.467-0.018c-0.211-0.088-0.338-0.217-0.379-0.386c-0.042-0.173-0.002-0.401,0.116-0.685l0.134-0.317
		L71.802,59.337z M68.532,57.958l1.625,0.686l-0.176,0.417l-2.048,0.321l-0.361,0.855l2.217-0.404
		c0.016,0.604,0.26,1.003,0.729,1.201c0.438,0.184,0.813,0.133,1.126-0.152c0.157-0.145,0.325-0.428,0.503-0.849l0.502-1.189
		l-3.811-1.607L68.532,57.958z"/>
	<path fill="#FFFFFF" d="M54.616,72.962c0.389-0.121,0.625-0.392,0.622-0.811c-0.004-0.518-0.38-0.799-0.827-0.889
		c-0.499-0.103-1.271-0.065-1.802-0.062l0.002,1.567l-0.376,0.002c0-0.398,0.06-0.956-0.241-1.307
		c-0.35-0.414-0.929-0.424-1.329-0.294c-0.367,0.122-0.691,0.511-0.69,0.943l0.554,0.006c0.023-0.214,0.084-0.408,0.239-0.535
		c0.191-0.157,0.526-0.162,0.709,0.012c0.274,0.259,0.206,0.844,0.2,1.175c-0.81-0.023-1.476,0.031-1.772,0.318v-2.413l1.347,0.002
		c-0.001-0.153,0.001-0.298-0.002-0.442h-1.26l0.304-0.751c0.152-0.376,0.247-0.812,0.121-1.164
		c-0.129-0.371-0.42-0.577-0.789-0.577c-0.368,0-0.678,0.202-0.8,0.576c-0.13,0.393,0.006,0.821,0.145,1.182l0.285,0.734h-1.292
		v0.444h1.395l-1.281,3.489l-1.177-2.951l-0.789,0.002l-0.001,3.675h0.49l-0.004-3.068l1.196,3.07l0.524-0.002l1.086-2.973
		l-0.008,1.405c-0.001,0.323,0.017,0.611,0.082,0.841c0.112,0.413,0.427,0.67,0.775,0.738c0.468,0.089,1.052,0.019,1.434-0.404
		c0,0.121,0.003,0.393,0.003,0.393h0.645c-0.126-0.506-0.102-1.218-0.102-1.72l0.377-0.002l0.001,1.722
		c0.281,0,1.8,0.119,2.355-0.21c0.28-0.167,0.469-0.417,0.471-0.806C55.442,73.2,54.799,73.017,54.616,72.962 M49.63,70.219
		l-0.374-1.018c-0.105-0.286-0.14-0.59-0.041-0.828c0.074-0.174,0.24-0.277,0.413-0.277c0.172,0,0.33,0.098,0.416,0.289
		c0.081,0.179,0.075,0.5-0.052,0.845L49.63,70.219z M51.275,74.411c-0.23,0.122-0.767,0.175-1.047-0.026
		c-0.212-0.151-0.297-0.424-0.238-0.681c0.142-0.601,1.108-0.534,1.703-0.527C51.663,73.626,51.724,74.174,51.275,74.411z
		 M53.2,71.588c0.369,0.002,0.748-0.025,1.045,0.063c0.229,0.068,0.442,0.227,0.442,0.504c-0.001,0.288-0.165,0.461-0.437,0.542
		c-0.285,0.086-0.757,0.072-1.051,0.072V71.588z M54.21,74.477c-0.316,0.062-0.657,0.028-1.01,0.033l0.003-1.333
		c0.424-0.001,0.782-0.005,1.033,0.036c0.324,0.051,0.614,0.232,0.611,0.593C54.845,74.205,54.608,74.398,54.21,74.477z"/>
	<path fill-rule="evenodd" clip-rule="evenodd" fill="#295CAA" d="M57.31,60.011c0.644-0.71,1.228-1.877,1.669-2.836
		c0.513-1.112,1.122-2.505,1.911-3.39c1.051-0.62,2.347-0.533,3.569,0.112c-0.39-1.026-1.016-1.754-2.173-2.03
		c0.271-0.719,0.922-1.134,1.717-1.682c-1.458,0.126-3.174-0.532-4.622-0.154c-0.485-1.876-1.463-1.759-2.266-3.09
		c0.02,0.614,0.039,1.597-0.129,2.204c0.553,0.414,0.908,1.023,0.995,1.85c1.024-0.04,1.56,0.13,3.097-0.069
		c-0.244,0.68-0.33,1.213-0.265,2.116c-0.354-0.386-0.52-0.93-0.42-1.497c-0.877,0.108-1.951-0.062-2.981,0.028
		c0.064-0.919-0.24-1.662-0.731-2.209c-0.609-0.68-2.241-1.159-3.229-1.326c0.662,0.392,1.153,0.836,1.457,1.3
		c0.408,0.621,0.549,1.356,0.493,1.894c-0.357,0.667-1.235,1.706-1.933,2.618c-1.314,1.716-1.856,2.506-2.173,3.594
		c-0.319,1.093-0.406,2.156-0.324,3.29c0.066,0.925,0.327,1.892,0.577,2.838c1.212-0.512,2.222-0.979,3.331-1.608
		C55.827,61.427,56.613,60.785,57.31,60.011 M34.083,52.658c1.067,0.422,2.162,0.422,3.397,0.137
		c1.254-0.287,2.163-0.848,3.371-1.798c1.119-0.88,2.104-1.898,3.188-2.156c0.029-0.007,0.061-0.014,0.091-0.021
		c0.333,0.414,0.785,0.727,1.307,0.906c-0.273,0.532-0.607,0.951-0.989,1.45c0.768,0.063,1.661,0.079,2.303-0.214
		c0.238,0.478,0.61,0.856,1.054,1.113c-0.002,0.115-0.013,0.229-0.032,0.338c-0.149,0.868-0.805,1.839-1.31,2.459
		c-0.712,0.871-1.314,1.765-1.821,2.694c-0.815,1.491-0.865,3.448-0.397,5.188c-0.751-0.41-1.324-0.738-1.673-1.646
		c-0.483,0.146-1.314,0.313-1.883,0.195c-1.057-1.589-0.841-3.157-0.213-4.899c-2.082,0.395-3.996,0-5.765-1.547
		c0.196-0.21,0.594-0.645,0.792-0.798C34.908,53.884,34.472,53.454,34.083,52.658z M39.395,59.403
		c-0.418,0.053-0.908-0.002-1.352-0.05c-0.338-0.663-0.429-1.501-0.461-2.379c0.699,0.128,1.335,0.191,2.047,0.083
		C39.362,57.859,39.306,58.587,39.395,59.403z M36.12,54.727c1.429-0.102,2.31-0.411,3.277-0.985
		c1.029-0.61,1.772-1.371,2.651-2.167c0.7-0.633,1.333-1.193,2.203-1.388c-0.724,0.498-1.224,1.084-1.861,1.749
		c-0.85,0.885-1.56,1.646-2.639,2.26C38.781,54.753,37.78,54.979,36.12,54.727z M41.288,60.173c0.2-1.8,0.963-3.07,1.864-4.277
		c1.025-1.376,2.216-2.356,3.238-3.936c-0.316,1.733-1.851,3.133-2.79,4.412C42.685,57.613,41.915,58.706,41.288,60.173z
		 M56.696,52.498c-0.639,0.673-1.288,1.43-1.887,2.23c-0.6,0.807-1.23,1.783-1.647,2.67c-0.324,0.691-0.551,1.408-0.678,2.159
		c-0.127,0.752-0.093,1.416-0.01,2.192c1.035-0.453,1.717-0.944,2.307-1.467c0.592-0.521,1.108-1.172,1.505-1.777
		c0.51-0.782,1.095-1.992,1.528-2.929c0.403-0.873,0.748-1.667,1.174-2.513c-0.605,0.752-1.127,1.617-1.521,2.331
		c-0.459,0.833-1.186,2.174-1.669,2.865c-0.72,1.026-1.462,1.805-2.784,2.581c0.038-1.392,0.223-2.257,0.631-3.226
		c0.271-0.641,0.687-1.432,1.165-2.206C55.296,54.617,55.93,53.687,56.696,52.498z"/>
</g>
</svg>
