<?xml version="1.0" encoding="utf-8"?>
<!-- Generator: Adobe Illustrator 16.0.0, SVG Export Plug-In . SVG Version: 6.00 Build 0)  -->
<!DOCTYPE svg PUBLIC "-//W3C//DTD SVG 1.1//EN" "http://www.w3.org/Graphics/SVG/1.1/DTD/svg11.dtd">
<svg version="1.1" xmlns="http://www.w3.org/2000/svg" xmlns:xlink="http://www.w3.org/1999/xlink" x="0px" y="0px" width="100px"
	 height="100px" viewBox="0 0 100 100" enable-background="new 0 0 100 100" xml:space="preserve">
<g id="Layer_1">
	<path fill-rule="evenodd" clip-rule="evenodd" fill="#FAF0CD" d="M50.07,31.08c1.26,0.03,2.47,0.15,3.71,0.37
		c1.19,0.21,2.35,0.61,3.47,1.06c2.27,0.9,4.29,2.33,6.05,4.01c1.77,1.68,3.11,3.77,4.11,5.98c0.99,2.18,1.48,4.62,1.55,7
		c0.06,2.38-0.29,4.85-1.16,7.07c-0.89,2.26-2.11,4.43-3.79,6.2c-1.67,1.75-3.6,3.31-5.81,4.32c-1.11,0.51-2.25,0.97-3.45,1.25
		c-1.23,0.29-2.45,0.47-3.71,0.56c-2.43,0.18-4.91-0.26-7.2-1.04c-2.32-0.79-4.43-2.09-6.27-3.69c-1.84-1.6-3.31-3.58-4.41-5.74
		c-1.09-2.15-1.74-4.53-1.93-6.93c-0.19-2.37,0.03-4.87,0.79-7.14c0.78-2.31,1.88-4.55,3.48-6.4c1.57-1.83,3.42-3.5,5.59-4.61
		c1.09-0.56,2.21-1.09,3.39-1.43c1.21-0.35,2.41-0.59,3.66-0.75C48.78,31.1,49.43,31.1,50.07,31.08z"/>
	<path fill-rule="evenodd" clip-rule="evenodd" fill="#CB894A" d="M49.99,24.73c1.27,0.03,2.51,0.12,3.77,0.28
		c1.22,0.16,2.42,0.48,3.6,0.82c2.36,0.67,4.57,1.83,6.62,3.15c2.07,1.33,3.84,3.05,5.44,4.91c1.61,1.86,2.81,4.03,3.82,6.25
		c1.01,2.23,1.54,4.66,1.85,7.08c0.31,2.37,0.18,4.84-0.24,7.19c-0.42,2.38-1.17,4.71-2.27,6.86c-1.13,2.2-2.52,4.26-4.23,6.05
		c-1.71,1.79-3.64,3.34-5.78,4.58c-2.11,1.22-4.4,2.15-6.78,2.7c-2.35,0.54-4.82,0.82-7.23,0.64c-2.45-0.19-4.94-0.59-7.24-1.5
		c-2.27-0.9-4.5-1.98-6.43-3.5c-1.91-1.5-3.73-3.18-5.15-5.17c-1.42-1.98-2.69-4.12-3.48-6.43c-0.4-1.17-0.8-2.35-1.01-3.56
		c-0.22-1.25-0.38-2.49-0.48-3.76c-0.19-2.46,0.15-4.97,0.7-7.36c0.55-2.37,1.54-4.62,2.74-6.72c1.23-2.14,2.83-4.04,4.62-5.74
		c1.79-1.71,3.88-3.06,6.07-4.18c2.17-1.12,4.55-1.81,6.95-2.23C47.22,24.83,48.6,24.76,49.99,24.73z M50.07,32.18
		c2.4,0.06,4.81,0.45,7.01,1.45c2.28,1.04,4.27,2.42,6,4.23c1.61,1.68,2.97,3.82,3.72,6.03c0.77,2.28,1.23,4.7,1.05,7.12
		c-0.19,2.46-0.78,4.83-1.9,7.04c-1.12,2.21-2.69,4.06-4.55,5.68c-1.75,1.52-3.99,2.7-6.22,3.33c-2.35,0.67-4.81,0.93-7.24,0.62
		c-2.47-0.32-4.78-1.12-6.94-2.37c-2-1.16-3.88-2.82-5.22-4.7c-1.42-1.99-2.5-4.16-3.05-6.55c-0.55-2.39-0.61-4.85-0.18-7.27
		c0.43-2.43,1.41-4.65,2.73-6.72c1.25-1.95,3.04-3.69,4.99-4.94c2.09-1.35,4.36-2.25,6.81-2.7C48.07,32.26,49.07,32.21,50.07,32.18z
		"/>
	<path fill-rule="evenodd" clip-rule="evenodd" fill="#4F1717" d="M49.99,23.97c1.28,0.03,2.52,0.12,3.79,0.28
		c1.2,0.16,2.38,0.45,3.55,0.78c2.31,0.66,4.55,1.69,6.57,2.99c2.04,1.31,3.95,2.88,5.54,4.72c1.6,1.85,3.04,3.88,4.05,6.11
		c0.51,1.12,1.01,2.26,1.35,3.44c0.35,1.24,0.64,2.47,0.86,3.73c0.22,1.22,0.27,2.48,0.3,3.72c0.03,1.19-0.06,2.38-0.21,3.56
		c-0.3,2.36-0.9,4.76-1.89,6.94c-1.02,2.25-2.24,4.44-3.87,6.32c-0.81,0.94-1.63,1.88-2.57,2.69c-0.95,0.82-1.92,1.58-2.94,2.32
		c-2.02,1.44-4.35,2.45-6.68,3.24c-2.25,0.77-4.69,1.14-7.07,1.2c-2.43,0.06-4.93-0.14-7.28-0.81c-1.22-0.35-2.4-0.75-3.59-1.21
		c-1.16-0.46-2.25-1.08-3.32-1.7c-2.13-1.23-4-2.88-5.69-4.65c-1.69-1.76-3.05-3.84-4.16-6.01c-1.09-2.12-1.88-4.45-2.3-6.8
		c-0.21-1.19-0.4-2.39-0.43-3.6c-0.03-1.3,0-2.58,0.1-3.88c0.19-2.43,0.88-4.85,1.77-7.1c0.89-2.27,2.16-4.39,3.66-6.3
		c1.5-1.91,3.26-3.63,5.23-5.03c1.98-1.41,4.14-2.63,6.44-3.42c1.16-0.39,2.35-0.79,3.56-1c1.27-0.23,2.54-0.39,3.83-0.49
		C49.07,23.98,49.53,23.99,49.99,23.97z M49.99,24.73c1.27,0.03,2.51,0.12,3.77,0.28c1.22,0.16,2.42,0.48,3.6,0.82
		c2.36,0.68,4.56,1.83,6.62,3.15c2.07,1.33,3.84,3.06,5.44,4.91c1.61,1.86,2.81,4.03,3.82,6.25c1.01,2.23,1.54,4.66,1.85,7.08
		c0.31,2.37,0.18,4.84-0.24,7.19c-0.42,2.38-1.17,4.71-2.27,6.86c-1.13,2.2-2.52,4.26-4.23,6.05c-1.71,1.79-3.64,3.34-5.78,4.58
		c-2.11,1.22-4.4,2.15-6.78,2.7c-2.35,0.54-4.82,0.82-7.23,0.64c-2.45-0.19-4.94-0.59-7.24-1.5c-2.27-0.9-4.5-1.98-6.43-3.5
		c-1.91-1.5-3.73-3.18-5.15-5.17c-1.42-1.98-2.69-4.12-3.48-6.43c-0.4-1.17-0.8-2.35-1.01-3.56c-0.22-1.25-0.38-2.49-0.48-3.76
		c-0.19-2.46,0.15-4.97,0.7-7.36c0.55-2.37,1.54-4.62,2.74-6.72c1.23-2.14,2.83-4.04,4.62-5.74c1.79-1.71,3.88-3.06,6.07-4.18
		c2.17-1.12,4.55-1.81,6.95-2.23C47.22,24.83,48.6,24.76,49.99,24.73z"/>
	<path fill-rule="evenodd" clip-rule="evenodd" fill="#4F1717" d="M50.07,32.18c1.26,0.03,2.48,0.15,3.72,0.4
		c1.18,0.23,2.32,0.63,3.41,1.11c2.22,0.96,4.23,2.43,5.88,4.2c1.67,1.81,2.98,3.95,3.79,6.28c0.78,2.24,1.19,4.73,0.96,7.1
		c-0.02,0.19-0.04,0.38-0.05,0.57c-0.01,0.09-0.02,0.18-0.03,0.27c-0.01,0.1,0,0.06-0.07,0.09c-0.05,0.02-0.34,0.02-0.39-0.01
		c-0.1-0.06-0.04-0.23-0.03-0.36c0.05-0.59,0.11-1.18,0.1-1.77c-0.03-1.28-0.16-2.52-0.41-3.78c-0.47-2.36-1.61-4.62-3.03-6.54
		c-1.39-1.89-3.22-3.55-5.27-4.7c-1.06-0.59-2.17-1.15-3.33-1.49c-1.23-0.37-2.44-0.61-3.72-0.76c-0.61-0.07-1.24-0.06-1.85-0.06
		c-0.29,0-0.59,0.02-0.88,0.04c-0.16,0.01-0.28,0.08-0.32-0.09c-0.03-0.15-0.11-0.27-0.2-0.4C48.92,32.21,49.49,32.18,50.07,32.18z
		 M41.52,34.6c-0.04,0.11-0.04,0.25-0.09,0.36c-0.06,0.13-0.23,0.19-0.36,0.27c-0.28,0.17-0.55,0.35-0.82,0.53
		c-0.46,0.31-0.93,0.66-1.35,1.03c-0.93,0.83-1.77,1.71-2.55,2.69c-1.53,1.92-2.51,4.24-3.12,6.6c-0.6,2.36-0.58,4.88-0.14,7.26
		c0.1,0.53,0.24,1.06,0.39,1.58c0.07,0.25,0.16,0.5,0.24,0.75c0.01,0.03-0.36,0.25-0.43,0.31c-0.75-2.26-1.19-4.66-0.99-7.06
		c0.21-2.53,0.85-4.92,2.01-7.18c1.11-2.18,2.71-4.04,4.57-5.6c0.85-0.72,1.8-1.3,2.77-1.84C41.6,34.4,41.56,34.5,41.52,34.6z
		 M34.14,56.74c0.04,0.1,0.08,0.19,0.12,0.29c0.06,0.14,0.08,0.14-0.01,0.24c-0.1,0.1-0.24,0.13-0.35,0.2
		c-0.08-0.17-0.16-0.35-0.23-0.52C33.84,56.92,33.97,56.79,34.14,56.74z M34.79,58.11c1.19,2.16,2.74,4.01,4.67,5.55
		c0.94,0.75,1.98,1.39,3.05,1.91c0.54,0.26,1.09,0.51,1.65,0.7c0.29,0.1,0.58,0.2,0.87,0.29c0.11,0.03,0.35,0.05,0.39,0.17
		c0.04,0.11,0.07,0.23,0.12,0.33c0.04,0.08,0.08,0.15,0.13,0.21c-2.31-0.62-4.49-1.64-6.4-3.11c-1.91-1.47-3.48-3.29-4.69-5.37
		c-0.09-0.15-0.17-0.31-0.26-0.46C34.49,58.26,34.65,58.2,34.79,58.11z M54.31,66.78c2.3-0.62,4.44-1.64,6.33-3.1
		c1.85-1.43,3.41-3.24,4.55-5.29c0.37-0.67,0.72-1.38,0.99-2.1c0.14-0.37,0.28-0.74,0.39-1.11c0.04-0.13,0.08-0.25,0.11-0.38
		c0.03-0.1,0.07-0.1,0.17-0.13c0.15-0.04,0.3-0.09,0.44-0.15c-0.65,2.31-1.67,4.52-3.17,6.4c-1.58,1.96-3.46,3.57-5.67,4.79
		c-1.27,0.7-2.63,1.19-4.02,1.57C54.43,67.11,54.39,66.93,54.31,66.78z"/>
	<path fill-rule="evenodd" clip-rule="evenodd" fill="#4F1717" d="M68.06,65.82c-0.09,0.11-0.18,0.21-0.27,0.31
		c-0.04,0.04-0.23,0.31-0.28,0.31c-0.11,0-0.22,0-0.33,0c-0.67,0-1.34,0-2.02,0c-1.61,0-3.23,0-4.84,0c-0.15,0-0.29,0-0.44,0
		c0.21-0.15,0.4-0.33,0.57-0.53c0.1-0.11,0.14-0.09,0.3-0.09c0.63,0,1.26,0,1.9,0c1.64,0,3.28,0,4.91,0
		C67.73,65.82,67.89,65.82,68.06,65.82z M40.25,66.4c0.01,0.01,0.01,0.02,0.02,0.04c-2.58,0-5.16,0-7.74,0
		c-0.1,0-0.15-0.1-0.21-0.17c-0.13-0.15-0.27-0.29-0.39-0.44c2.55,0,5.1,0,7.65,0c0.08,0,0.19,0.18,0.25,0.23
		C39.95,66.18,40.09,66.31,40.25,66.4z"/>
	<path fill-rule="evenodd" clip-rule="evenodd" fill="#4F1717" d="M64.2,69.42c-0.3,0.22-0.66,0.61-1.04,0.61c-0.64,0-1.28,0-1.92,0
		c-1.53,0-3.06,0-4.59,0c-0.14,0-0.13,0.01-0.22-0.08c-0.16-0.16-0.33-0.35-0.48-0.53c2.67,0,5.35,0,8.02,0
		C64.04,69.42,64.12,69.42,64.2,69.42z M48.21,70.03c-2.73,0-5.46,0-8.2,0c-0.95,0-1.9,0-2.84,0c-0.17,0-0.35,0-0.52,0
		c-0.09,0-0.31-0.21-0.38-0.26c-0.16-0.12-0.32-0.23-0.48-0.35c2.69,0,5.39,0,8.08,0c1.08,0,2.15,0,3.23,0c0.24,0,0.49,0,0.73,0
		c0.1,0,0.08,0.05,0.11,0.14C48.01,69.73,48.11,69.89,48.21,70.03z"/>
	<path fill-rule="evenodd" clip-rule="evenodd" fill="#4F1717" d="M56.31,73.28c-2.13,0.59-4.36,0.89-6.58,0.85
		c-2.05-0.03-4.08-0.31-6.06-0.85c2.66,0,5.32,0,7.98,0C53.2,73.28,54.76,73.28,56.31,73.28z"/>
	<path fill-rule="evenodd" clip-rule="evenodd" fill="#4F1717" d="M70.44,62.56c-0.12,0.2-0.25,0.4-0.37,0.59
		c-0.04,0.06-0.27,0.02-0.33,0.02c-0.69,0-1.39,0-2.08,0c-1.26,0-2.52,0-3.78,0c0.04-0.18,0.24-0.44,0.38-0.55
		c0.1-0.08,0.17-0.06,0.32-0.06c0.68,0,1.37,0,2.05,0C67.89,62.56,69.17,62.56,70.44,62.56z M59.4,63.17c-1.94,0-3.88,0-5.83,0
		c0.04-0.1,0.07-0.2,0.09-0.3c0.01-0.05,0.01-0.28,0.04-0.31c0.04-0.04,0.29,0,0.34,0c0.72,0,1.43,0,2.15,0c1.27,0,2.55,0,3.82,0
		C59.79,62.72,59.54,62.92,59.4,63.17z M43.52,63.17c-0.71,0-1.42,0-2.14,0c-0.18,0-0.36,0-0.53,0c-0.05,0-0.17,0.02-0.21,0
		c-0.11-0.05-0.21-0.26-0.3-0.35c-0.1-0.1-0.2-0.18-0.3-0.26c0.77,0,1.54,0,2.3,0c0.33,0,0.65,0,0.98,0
		C43.37,62.56,43.49,63.09,43.52,63.17z M36.37,63.17c-1.29,0-2.59,0-3.88,0c-0.72,0-1.45,0-2.17,0c-0.13,0-0.26,0-0.39,0
		c-0.07,0-0.35-0.54-0.39-0.61c1.28,0,2.55,0,3.83,0c0.69,0,1.38,0,2.08,0c0.08,0,0.28-0.04,0.34,0.02
		C35.98,62.78,36.14,63.01,36.37,63.17z"/>
	<path fill-rule="evenodd" clip-rule="evenodd" fill="#1F1A17" d="M73.98,53.59c-1.22-0.18-2.43-0.42-3.65-0.6
		c-0.56-0.08-1.11-0.19-1.67-0.26c-0.32-0.04-0.64-0.09-0.96-0.15c-0.28-0.05-0.6-0.07-0.86-0.17c-0.26-0.1-0.49-0.28-0.77-0.35
		c-0.21-0.05-0.44-0.07-0.65-0.04c-0.54,0.08-1.15,0.32-1.62,0.61c-0.49,0.3-0.92,0.71-1.41,1.02c-0.54,0.34-1.07,0.59-1.68,0.79
		c-0.25,0.08-0.51,0.2-0.77,0.21c-0.34,0.02-0.67,0.03-1.01,0.02c-0.58-0.02-1.16-0.04-1.73-0.17c-0.61-0.14-1.12-0.43-1.67-0.72
		c-0.49-0.26-1-0.65-1.37-1.06c-0.2-0.22-0.38-0.48-0.58-0.69c-0.21-0.21-0.45-0.4-0.69-0.58c-0.24-0.18-0.55-0.28-0.82-0.42
		c-0.26-0.13-0.5-0.29-0.76-0.41c-0.3-0.14-0.48-0.29-0.62-0.59c-0.13-0.28-0.2-0.57-0.27-0.87c-0.14-0.59-0.26-1.18-0.4-1.76
		c-0.14-0.57-0.21-1.13-0.25-1.72c-0.02-0.28-0.1-0.61-0.06-0.89c0.02-0.14,0.13-0.24,0.15-0.37c0.02-0.15,0-0.29,0-0.43
		c-0.01-0.59-0.16-1.2-0.38-1.75c-0.22-0.56-0.44-1.11-0.73-1.64c-0.07-0.12-0.12-0.25-0.17-0.38c-0.05-0.12-0.05-0.26-0.1-0.38
		c-0.12-0.27-0.27-0.53-0.36-0.81c-0.1-0.28-0.2-0.57-0.3-0.85c-0.11-0.3-0.15-0.61-0.2-0.93c-0.09-0.59-0.16-1.17-0.16-1.77
		c0-0.29,0.09-0.55,0.13-0.83c0.05-0.31,0.12-0.58,0.22-0.87c0.09-0.27,0.14-0.54,0.28-0.8c0.04-0.08,0.02-0.37-0.12-0.24
		c-0.12,0.11-0.23,0.2-0.33,0.32c-0.38,0.44-0.6,0.93-0.79,1.48c-0.04,0.1-0.21,0.26-0.21,0.05c0-0.16,0.01-0.3,0.04-0.46
		c0.04-0.26,0.12-0.52,0.17-0.77c0.06-0.29,0.15-0.57,0.23-0.85c0.06-0.21,0.27-0.67,0.14-0.86c-0.2-0.29-0.98,1.08-1.06,1.23
		c-0.28,0.49-0.41,1.09-0.46,1.65c0,0.05,0.02,0.18-0.05,0.17c-0.07,0-0.1-0.08-0.12-0.13c-0.05-0.14-0.03-0.32-0.04-0.47
		c-0.02-0.27,0.1-0.59,0.15-0.86c0.05-0.28,0.12-0.55,0.2-0.82c0.04-0.13,0.11-0.25,0.08-0.39c-0.03-0.19-0.27-0.02-0.34,0.04
		c-0.43,0.38-0.62,1.03-0.81,1.55c-0.21,0.58-0.21,1.13-0.25,1.73c-0.01,0.18-0.17-0.01-0.19-0.1c-0.03-0.16-0.08-0.31-0.12-0.47
		c-0.07-0.25-0.1-0.59-0.05-0.84c0.04-0.24,0.08-0.62,0-0.86c-0.13-0.4-0.46,0.16-0.5,0.33c-0.15,0.54-0.2,1.07-0.2,1.64
		c0,0.13,0.03,0.28,0.01,0.41c-0.04,0.22-0.19-0.19-0.2-0.23c-0.07-0.28-0.14-0.56-0.18-0.84c-0.03-0.19-0.14-0.77-0.35-0.35
		c-0.1,0.19-0.2,0.58-0.18,0.8c0.04,0.29,0.09,0.57,0.13,0.86c0.01,0.08,0.08,0.33-0.01,0.37c-0.08,0.04-0.21-0.26-0.24-0.32
		c-0.13-0.25-0.16-0.51-0.22-0.77c-0.02-0.1-0.04-0.33-0.19-0.25c-0.11,0.06-0.16,0.23-0.19,0.34c-0.07,0.31-0.09,0.59-0.05,0.9
		c0.02,0.12,0.13,0.8-0.07,0.76c-0.07-0.01-0.39-0.74-0.5-0.4c-0.09,0.28-0.06,0.61-0.06,0.89c0,0.14,0.01,0.28,0.04,0.42
		c0.05,0.23-0.02,0.24-0.2,0.13c-0.28-0.18-0.24,0.43-0.23,0.56c0.01,0.16,0.24,0.66,0.01,0.69c-0.26,0.03-0.3,0.25-0.32,0.47
		c-0.02,0.23,0.2,0.57,0.02,0.75c-0.1,0.1-0.25,0.1-0.32,0.25c-0.06,0.12-0.03,0.32-0.02,0.45c0.02,0.3,0.12,0.58,0.15,0.88
		c0.02,0.16-0.04,0.18-0.08,0.34c-0.04,0.16-0.08,0.31-0.12,0.47c-0.08,0.28-0.01,0.55-0.12,0.82c-0.1,0.25-0.18,0.57-0.22,0.84
		c-0.02,0.13,0.03,0.24,0.04,0.37c0.01,0.14-0.06,0.32-0.09,0.46c-0.08,0.31-0.12,0.56-0.09,0.88c0.01,0.15-0.06,0.13,0.02,0.29
		c0.08,0.13,0.09,0.23,0.04,0.37c-0.09,0.3-0.04,0.42,0.14,0.69c0.15,0.24-0.08,0.53-0.11,0.77c-0.02,0.13,0.07,0.25,0.09,0.38
		c0.03,0.15,0,0.3,0,0.46c0,0.16,0.05,0.25,0.1,0.4c0.05,0.14-0.02,0.28-0.02,0.43c-0.01,0.23,0.4,0.57,0.32,0.73
		c-0.13,0.28-0.32,0.4-0.2,0.74c0.1,0.3,0.19,0.57,0.38,0.83c0.19,0.26,0.46,0.32,0.76,0.41c0.16,0.05,0.78,0.1,0.36,0.26
		c-0.53,0.21-0.98,0.64-1.52,0.82c-0.31,0.1-0.56,0.16-0.89,0.18c-0.27,0.01-0.53,0-0.8,0.02c-0.61,0.04-1.21,0.13-1.81,0.24
		c-0.28,0.05-0.53,0.2-0.57,0.5c-0.02,0.12,0.18,0.2,0.17,0.33c-0.01,0.12-0.22,0.21-0.31,0.27c-1.04,0.62-2.17,1.13-3.25,1.68
		c-0.51,0.26-1.03,0.57-1.61,0.61c-0.29,0.02-0.51,0.21-0.76,0.33c-0.25,0.12-0.5,0.22-0.77,0.28c-0.15,0.03-0.27,0.05-0.42,0.03
		c-0.19-0.03-0.25-0.05-0.37,0.12c-0.09,0.13-0.1,0.24-0.28,0.26c-0.14,0.01-0.27-0.01-0.4-0.01c-0.35,0-0.38,0.33-0.09,0.47
		c0.31,0.16,0.53,0.23,0.85,0.08c0.26-0.12,0.59-0.04,0.88-0.07c0.3-0.02,0.55-0.14,0.82-0.28c0.55-0.29,1.02-0.73,1.52-1.1
		c0.45-0.34,1.06-0.54,1.56-0.8c0.51-0.26,1.03-0.52,1.55-0.74c0.09-0.04,0.32-0.18,0.43-0.14c0.1,0.03,0.25,0.23,0.32,0.31
		c0.06,0.06-0.21,0.24-0.26,0.29c-0.09,0.1-0.18,0.25-0.17,0.39c0.01,0.12,0.17,0.22,0.04,0.31c-0.11,0.07-0.24,0.13-0.36,0.18
		c-0.31,0.13-0.61,0.27-0.92,0.4c-0.52,0.23-1.07,0.42-1.61,0.6c-0.24,0.08-0.57,0.06-0.82,0.08c-0.16,0.01-0.29,0.06-0.43,0.11
		c-0.22,0.09-0.04,0.2,0,0.31c0.09,0.24-1.33,0.45-1.54,0.42c-0.13-0.02-0.24-0.05-0.37-0.01c-0.11,0.04-0.3-0.05-0.36,0.09
		c-0.03,0.06,0.07,0.09,0,0.17c-0.04,0.05-0.12,0.03-0.17,0.02c-0.15-0.03-0.29-0.06-0.41-0.14c-0.08-0.05-0.29,0-0.34,0.08
		c-0.09,0.13,0.1,0.27,0.19,0.34c0.23,0.17,0.52,0.26,0.8,0.2c0.14-0.03,0.26-0.07,0.41-0.07c0.14,0,0.3,0,0.43-0.04
		c0.28-0.09,0.56-0.18,0.84-0.28c0.26-0.09,0.56-0.3,0.84-0.31c0.13,0,0.26,0.03,0.38-0.03c0.14-0.07,0.26-0.16,0.38-0.26
		c0.46-0.35,1.01-0.61,1.56-0.79c0.28-0.09,0.57-0.18,0.84-0.29c0.1-0.04,0.82-0.37,0.81-0.13c-0.01,0.33,0.08,0.52,0.34,0.73
		c0.11,0.09,0.17,0.13,0.14,0.27c-0.04,0.18-0.02,0.28,0.07,0.45c0.14,0.26,0.46,0.29,0.71,0.22c0.19-0.05,0.13,0.09,0.14,0.21
		c0.01,0.19,0.1,0.28,0.24,0.4c0.44,0.35,1.15-0.02,1.57-0.24c0.07-0.04,0.25-0.23,0.33-0.18c0.12,0.07-0.11,0.25-0.14,0.33
		c-0.07,0.17-0.22,0.7,0.01,0.82c0.55,0.28,1.1-0.54,1.36-0.93c0.31-0.45,0.61-0.94,0.87-1.43c0.14-0.26,0.33-0.49,0.64-0.53
		c0.23-0.03,0.61-0.15,0.73,0.12c0.05,0.11-0.04,0.27-0.06,0.37c-0.02,0.13,0,0.27,0.04,0.39c0.09,0.29,0.15,0.58,0.26,0.86
		c0.1,0.26,0.2,0.52,0.27,0.8c0.08,0.29,0.16,0.58,0.37,0.81c0.19,0.21,0,0.61,0.07,0.87c0.07,0.26,0.15,0.53,0.27,0.78
		c0.12,0.26,0.27,0.5,0.36,0.77c0.07,0.2,0.18,0.66,0.38,0.77c0.13,0.07,0.25,0.08,0.39,0.12c0.16,0.05,0.15,0.23,0.17,0.37
		c0.05,0.31,0.15,0.59,0.22,0.89c0.07,0.29,0.34,0.42,0.42,0.68c0.1,0.31,0.39,0.38,0.55,0.64c0.09,0.16,0.22,0.74,0.49,0.62
		c0.08-0.03,0.05-0.09,0.14-0.08c0.09,0.01,0.06,0.05,0.09,0.13c0.06,0.15,0.1,0.3,0.15,0.45c0.06,0.18,0.25,0.71,0.42,0.29
		c0.04-0.09,0.04-0.31,0.13-0.37c0.13-0.08,0.15,0.2,0.17,0.29c0.08,0.29,0.16,0.56,0.27,0.83c0.08,0.19,0.35,0.65,0.44,0.22
		c0.02-0.11-0.03-0.26,0.03-0.36c0.12-0.2,0.16,0.02,0.18,0.13c0.06,0.28,0.13,0.56,0.22,0.83c0.04,0.11,0.11,0.28,0.24,0.28
		c0.11,0,0.15-0.28,0.17-0.36c0.02-0.08,0.12-0.32,0.22-0.19c0.08,0.11,0.07,0.29,0.12,0.42c0.12,0.27,0.25,0.53,0.4,0.79
		c0.06,0.11,0.12,0.27,0.21,0.37c0.08,0.09,0.29,0.14,0.24-0.05c-0.08-0.3-0.11-0.61-0.2-0.91c-0.05-0.16-0.03-0.8,0.21-0.43
		c0.32,0.49,0.66,0.95,1.01,1.41c0.09,0.11,0.17,0.24,0.27,0.33c0.1,0.08,0.37,0.1,0.3-0.11c-0.09-0.28-0.19-0.56-0.27-0.84
		c-0.17-0.57-0.38-1.14-0.53-1.71c-0.02-0.06-0.07-0.31,0.05-0.29c0.1,0.02,0.2,0.24,0.24,0.33c0.12,0.26,0.28,0.51,0.43,0.75
		c0.32,0.52,0.63,1.03,1.06,1.46c0.07,0.07,0.2,0.24,0.29,0.27c0.12,0.03,0.31,0.05,0.29-0.12c-0.02-0.29-0.23-0.5-0.34-0.76
		c-0.12-0.29-0.28-0.56-0.42-0.85c-0.1-0.21-0.14-0.45-0.2-0.67c-0.03-0.12-0.09-0.3-0.03-0.42c0.07-0.16,0.22,0.16,0.25,0.21
		c0.15,0.24,0.29,0.49,0.46,0.72c0.35,0.48,0.66,1.02,1.07,1.44c0.1,0.1,0.72,0.48,0.64,0.08c-0.05-0.25-0.29-0.54-0.43-0.76
		c-0.16-0.25-0.3-0.52-0.44-0.78c-0.06-0.1-0.11-0.23-0.13-0.35c-0.03-0.15,0.02-0.24,0.16-0.11c0.2,0.2,0.43,0.37,0.64,0.55
		c0.23,0.2,0.45,0.42,0.74,0.54c0.27,0.11,0.63-0.03,0.35-0.32c-0.21-0.22-0.44-0.4-0.64-0.63c-0.4-0.45-0.68-0.96-0.99-1.48
		c-0.16-0.26-0.3-0.51-0.4-0.8c-0.1-0.31-0.17-0.63-0.27-0.95c-0.04-0.11-0.03-0.22-0.06-0.33c-0.05-0.16-0.11-0.33-0.15-0.49
		c-0.07-0.28-0.1-0.57-0.18-0.85c-0.08-0.29-0.17-0.59-0.21-0.88c-0.03-0.26,0.1-0.52,0.17-0.77c0.07-0.3,0.03-0.58-0.06-0.87
		c-0.08-0.27-0.17-0.59-0.3-0.83c-0.27-0.5-0.55-1.05-0.68-1.6c-0.07-0.27-0.17-0.55-0.23-0.83c-0.06-0.29-0.08-0.59-0.13-0.88
		c-0.03-0.19-0.19-0.66,0.16-0.63c0.29,0.02,0.53-0.06,0.81-0.11c0.26-0.05,0.54-0.2,0.78-0.29c0.28-0.11,0.56-0.21,0.84-0.31
		c0.58-0.19,1.18-0.14,1.77-0.02c0.26,0.05,0.54,0.07,0.81,0.11c0.29,0.05,0.57,0.07,0.87,0.08c0.29,0,0.59,0.02,0.88,0.01
		c0.31-0.01,0.61-0.06,0.92-0.06c1.19,0,2.29-0.61,3.34-1.08c0.5-0.22,1.04-0.6,1.59-0.64c0.58-0.05,1.14-0.22,1.67-0.45
		c0.27-0.12,0.54-0.24,0.83-0.31c0.31-0.07,0.63-0.07,0.94-0.12C68.72,53.96,69.34,54,69.9,54c0.59-0.01,1.18-0.01,1.77-0.03
		c0.27-0.01,0.54-0.04,0.81-0.03c0.28,0.01,0.58-0.04,0.85-0.02c0.28,0.03,0.55,0.02,0.84,0c0.1-0.01,0.19-0.17,0.07-0.22
		C74.16,53.66,74.08,53.62,73.98,53.59z"/>
	<path fill-rule="evenodd" clip-rule="evenodd" fill="#FFFFFF" d="M65.43,52.5c-0.11,0.21,0.34,0.32,0.46,0.32
		c0.11,0.01,0.21-0.01,0.32-0.02c0.11-0.01,0.2,0.04,0.31,0.04c0.47,0.03,0.94,0.13,1.41,0.17c0.49,0.04,0.98,0.11,1.47,0.16
		c0.22,0.02,0.43,0.08,0.65,0.09c0.16,0.01,0.58,0.13,0.72,0.03c-0.12-0.11-0.54-0.1-0.7-0.12c-0.22-0.03-0.43-0.11-0.65-0.14
		c-0.47-0.07-0.94-0.11-1.4-0.2c-0.46-0.09-0.93-0.1-1.37-0.27c-0.2-0.08-0.4-0.21-0.61-0.24C65.89,52.31,65.51,52.3,65.43,52.5z"/>
	<path fill-rule="evenodd" clip-rule="evenodd" fill="#FFFFFF" d="M66.05,53.14c0.26,0.31,0.76,0.33,1.12,0.37
		c0.41,0.04,0.83,0,1.24,0.03c0.37,0.03,0.77,0.01,1.14,0.01c0.19,0,1.12,0.16,1.18-0.03c-0.19-0.07-0.42-0.06-0.62-0.08
		c-0.21-0.02-0.42-0.05-0.63-0.07c-0.41-0.03-0.81-0.1-1.21-0.11c-0.19-0.01-0.38-0.07-0.56-0.07c-0.2,0-0.42-0.01-0.61-0.06
		C66.97,53.09,65.97,52.83,66.05,53.14z"/>
	<path fill-rule="evenodd" clip-rule="evenodd" fill="#FFFFFF" d="M49.53,50.84c0.07-0.12,0.09-0.24,0.01-0.36
		c-0.1-0.15-0.04-0.18,0.01-0.3c0.06-0.13,0.02-0.19-0.04-0.33c-0.1-0.2-0.07-0.26-0.05-0.46c0.02-0.16-0.1-0.25-0.12-0.4
		c-0.03-0.15,0.07-0.25,0.02-0.41c-0.03-0.09-0.09-0.16-0.11-0.26c-0.02-0.12,0.03-0.22,0.05-0.33c0.02-0.13-0.13-0.16-0.15-0.28
		c-0.02-0.13,0.07-0.23,0.06-0.36c-0.01-0.08-0.08-0.17-0.1-0.25c-0.04-0.12-0.04-0.25-0.05-0.37c-0.01-0.13-0.07-0.22-0.09-0.34
		c-0.02-0.1,0.01-0.21,0.02-0.31c0.01-0.17-0.07-0.31-0.1-0.47c-0.02-0.12-0.01-0.25-0.01-0.38c0-0.14-0.12-0.19-0.13-0.33
		c0-0.05,0.06-0.15,0.04-0.19c-0.01-0.02-0.13-0.03-0.16-0.04c-0.06-0.03-0.09-0.07-0.14-0.12c-0.14-0.12,0.01-0.25-0.11-0.33
		c-0.15-0.1-0.16,0.12-0.29,0.11c-0.15,0-0.18-0.26-0.31-0.32c-0.09-0.04-0.18,0.01-0.12,0.12c0.05,0.1,0.21,0.24,0.07,0.31
		c-0.07,0.04-0.15-0.14-0.24-0.14c-0.04,0.08,0.24,0.32,0.1,0.37c-0.05,0.02-0.11-0.07-0.13-0.09c-0.07-0.07-0.17-0.11-0.27-0.14
		c-0.19-0.06-0.27,0.04-0.08,0.14c0.11,0.06,0.26,0.1,0.29,0.24c-0.13,0.03-0.17,0.07-0.26-0.01c-0.06-0.04-0.07-0.13-0.14-0.16
		c-0.04-0.02-0.11-0.03-0.15-0.02c-0.1,0.04-0.01,0.03-0.06,0.11c-0.06,0.09-0.08,0.1-0.2,0.03c-0.1-0.06,0.13-0.18,0.13-0.25
		c0-0.1-0.13-0.13-0.2-0.11c-0.16,0.04,0.01,0.17,0,0.25c-0.02,0.13-0.17,0.03-0.2,0.1c-0.04,0.07,0.2,0.23,0.24,0.27
		c-0.21,0.15-0.47-0.4-0.57-0.22c-0.04,0.08,0.2,0.13,0.21,0.23c0.03,0.16,0.15,0.09,0.26,0.15c0.02,0.01,0.13,0.07,0.12,0.11
		c-0.02,0.07-0.17-0.01-0.21,0c-0.13,0.04,0.02,0.17,0.13,0.21c0.18,0.06,0.39-0.09,0.55,0.09c0.08,0.1-0.28,0.1-0.32,0.1
		c-0.22-0.05-0.4-0.2-0.63-0.23c-0.14-0.02-0.15-0.28-0.34-0.14c-0.29,0.2,0.19,0.17,0.24,0.3c0.06,0.14,0.15-0.02,0.24-0.01
		c0.12,0.02,0.12,0.22,0.26,0.19c0.06-0.02,0.43-0.05,0.37,0.11c-0.05,0.15-0.49-0.06-0.57-0.07c-0.12-0.02-0.23,0.06-0.33-0.04
		c-0.12-0.11-0.1-0.14-0.27-0.16c-0.08-0.01-0.39-0.12-0.33,0.04c0.04,0.13,0.33,0.13,0.43,0.21c0.17,0.13,0.19,0.18,0.42,0.2
		c-0.08,0.19-0.43-0.02-0.6,0.02c-0.12,0.03-0.28,0.14-0.12,0.22c0.13,0.06,0.27,0.12,0.42,0.13c0.02-0.06,0.01-0.12-0.04-0.15
		c0.18-0.05,0.45,0.08,0.61,0.15c0.05,0.02,0.21,0.07,0.12,0.14c-0.04,0.03-0.1,0.03-0.14,0.02c-0.11-0.03-0.25-0.2-0.39-0.1
		c-0.13,0.09,0.06,0.16,0.15,0.19c0.05,0.01,0.41,0.19,0.22,0.16c-0.11-0.02-0.2-0.06-0.31-0.05c-0.13,0-0.27,0.02-0.4,0.01
		c-0.11-0.01-0.56-0.17-0.48,0.08c0.05,0.13,0.27,0.14,0.38,0.13c0.16-0.02,0.31-0.09,0.47-0.04c0.14,0.04,0.33,0.33,0.07,0.29
		c0.03,0.06,0.14,0.26-0.01,0.2c-0.05-0.02-0.08-0.06-0.1-0.12c-0.03-0.1,0.09-0.17,0.04-0.24c-0.03-0.05-0.18-0.01-0.22,0
		c-0.14,0.04-0.33,0.16-0.48,0.09c-0.08-0.04-0.21-0.25-0.27-0.08c-0.03,0.08,0.1,0.05,0.11,0.1c0.01,0.07-0.03,0.09-0.09,0.08
		c-0.16-0.04-0.39-0.11-0.21,0.12c0.12,0.16,0.24,0.19,0.37,0.06c0.13-0.13,0.15-0.11,0.34-0.08c0.17,0.02,0.14,0.2,0.34,0.17
		c0.13-0.02,0.23,0.1,0.19,0.22c-0.04,0.11-0.17,0.21-0.29,0.21c-0.2,0-0.12-0.06,0-0.12c0.14-0.07-0.11-0.29-0.19-0.33
		c-0.14-0.07-0.27-0.04-0.38,0.06c-0.14,0.13-0.19,0.21-0.37,0.11c-0.04-0.02-0.14-0.03-0.13,0.04c0.01,0.07,0.07,0.06,0.09,0.11
		c0.05,0.09,0,0.18,0.15,0.19c0.14,0.01,0.14-0.11,0.22-0.18c0.24-0.17,0.05,0.32,0.29,0.32c0.06,0,0.25,0.01,0.18,0.1
		c-0.08,0.12-0.33-0.08-0.39-0.11c-0.09-0.05-0.28-0.13-0.37-0.03c-0.09,0.1,0.2,0.14,0.28,0.15c-0.05,0.09-0.23,0.21-0.04,0.27
		c0.12,0.04,0.18-0.09,0.29-0.08c0.04,0,0.12,0.03,0.12,0.08c0,0.07-0.08,0.05-0.13,0.07c-0.13,0.05-0.18,0.11,0,0.17
		c0.09,0.03,0.13-0.1,0.21,0.02c0.09,0.14-0.08,0.2-0.11,0.31c-0.05,0.16,0.22,0.32,0.14,0.45c-0.1,0.16-0.18-0.18-0.25-0.22
		c-0.07-0.04-0.21-0.01-0.3-0.02c-0.04,0-0.11,0.01-0.15-0.01c-0.09-0.04-0.03-0.01-0.07-0.08c-0.08-0.12-0.08-0.17-0.27-0.14
		c0.05,0.17,0.08,0.19-0.08,0.27c-0.06,0.03-0.2,0.1-0.22,0.17c-0.04,0.11,0.08,0.18,0.19,0.15c0.11-0.03,0.14-0.23,0.27-0.2
		c0.16,0.04-0.14,0.23-0.19,0.3c-0.07,0.11,0.19,0.23,0.2,0.35c0.01,0.14-0.19,0.19-0.17,0.34c0.02,0.11,0.22,0.12,0.3,0.21
		c0.04,0.04,0.02,0.08,0.08,0.11c0.06,0.03,0.15,0.02,0.21,0.03c0.19,0.03,0.2,0.16-0.01,0.15c-0.32-0.01-0.21,0.08-0.34,0.31
		c-0.07,0.11-0.12,0.09-0.23,0.12c-0.11,0.03-0.26,0.01-0.26,0.15c0,0.06,0.02,0.1,0.06,0.14c0.08,0.08,0.31,0.03,0.35,0.16
		c0.04,0.1-0.12,0.21-0.22,0.21c-0.11,0-0.17-0.02-0.27,0.01c-0.12,0.04-0.24,0.08-0.36,0.11c-0.26,0.07-0.5,0.21-0.77,0.26
		c-0.28,0.05-0.56,0.07-0.83,0.16c-0.27,0.09-0.53,0.23-0.77,0.37c-0.22,0.13-0.52,0.27-0.7,0.45c-0.08,0.07-0.33,0.28-0.28,0.42
		c0.06,0.15,0.44,0.08,0.56,0.08c0.3,0,0.59-0.01,0.88,0.01c0.14,0.01,0.27,0.02,0.41,0.04c0.09,0.01,0.03,0.12-0.01,0.15
		c-0.06,0.04-0.34,0-0.42,0c-0.15,0-0.29,0-0.44,0c-0.58,0.01-1.17,0.06-1.73,0.2c-0.25,0.06-0.51,0.16-0.73,0.3
		c-0.11,0.07-0.52,0.37-0.46,0.53c0.03,0.09,0.08,0.17,0.17,0.21c0.08,0.04,0.24,0.04,0.3,0.11c0.14,0.17-0.22,0.2-0.33,0.23
		c-0.2,0.05-0.53,0.13-0.63,0.33c-0.08,0.17,0.1,0.29,0.25,0.34c0.22,0.07,0.49,0.01,0.71-0.02c0.14-0.02,0.23-0.03,0.35,0.03
		c0.11,0.05,0.21,0.12,0.33,0.15c0.22,0.05,0.47,0.02,0.7,0.03c0.27,0.02,0.53,0.08,0.79,0.08c0.51-0.01,1.03-0.18,1.53-0.1
		c0.09,0.01,0.29,0.06,0.22,0.19c-0.04,0.08-0.28,0.12-0.36,0.14c-0.11,0.02-0.23,0.04-0.35,0.04c-0.16,0-0.25-0.04-0.4-0.08
		c-0.25-0.06-0.49,0.08-0.74,0.08c-0.23,0-0.5-0.02-0.7,0.1c0.12,0.38,1.33-0.14,1.33,0.26c0,0.2,0.27,0.22,0.41,0.25
		c0.26,0.04,0.5,0.11,0.75,0.19c0.26,0.08,0.6,0.07,0.88,0.1c0.27,0.03,0.54,0.04,0.82,0.01c0.26-0.03,0.52-0.1,0.77-0.14
		c0.17-0.02,0.33,0.03,0.5,0.01c0.17-0.02,0.3-0.15,0.47-0.15c0.2,0,0.07,0.15,0.22,0.22c0.07,0.03,0.11,0.11,0.09,0.19
		c-0.03,0.11-0.03,0.08-0.12,0.06c-0.05-0.01-0.33-0.16-0.29,0.03c0.02,0.13,0.21,0.15,0.33,0.14c0.01,0,0.38-0.08,0.24,0.03
		c-0.05,0.04-0.29,0.07-0.25,0.18c0.05,0.14,0.3-0.04,0.37,0c0.04,0.02,0.11,0.22,0.12,0.27c0.01,0.05-0.02,0.08-0.07,0.09
		c-0.14,0.04-0.15,0.02-0.21-0.12c-0.08,0.03-0.24,0.16-0.2,0.26c0.05,0.15-0.1,0.19-0.18,0.28c-0.04,0.04,0.02,0.08,0.06,0.09
		c0.07,0.01,0.22-0.14,0.28-0.18c0.07-0.05,0.25,0.04,0.18,0.09c-0.07,0.04-0.15,0.12-0.22,0.15c-0.06,0.03-0.35,0-0.28,0.16
		c0.06,0.13,0.3-0.04,0.36-0.05c0.12-0.03-0.04,0.11-0.06,0.13c-0.06,0.05-0.13,0.11-0.09,0.18c0.06,0.1,0.2,0.07,0.24-0.02
		c0.02-0.05,0.03-0.12,0.1-0.11c0.09,0.01,0.02,0.09,0.04,0.14c0.07,0.18,0.2-0.04,0.3-0.14c0.15-0.15,0.16-0.08,0.26,0.05
		c0.04,0.05,0.07,0.04,0.09,0.1c0.01,0.02-0.03,0.06-0.03,0.08c0.01,0.04,0.04,0.03,0.06,0.06c0.02,0.05,0.13,0.13,0,0.14
		c-0.07,0.01-0.11-0.06-0.13-0.12c-0.06-0.21-0.11-0.08-0.25-0.06c-0.06,0.01-0.13,0.02-0.09,0.1c0.03,0.06,0.17,0.03,0.22,0.03
		c0.09,0-0.17,0.17-0.18,0.24c-0.03,0.21-0.13,0.13-0.25,0.28c-0.09,0.12,0.21,0.07,0.26,0.03c0.1-0.06,0.14-0.24,0.23-0.29
		c0.12-0.06,0.23,0.12,0.1,0.18c-0.06,0.03-0.26,0.03-0.24,0.16c0.02,0.16,0.22,0,0.28-0.02c0.29-0.1,0.07,0.08,0.08,0.17
		c0.02,0.19,0.21-0.02,0.26,0.05c0.07,0.1-0.29,0.13-0.33,0.13c-0.14,0.03-0.1,0.17,0.02,0.2c0.09,0.02,0.3-0.15,0.27-0.02
		c-0.04,0.22,0.16,0.13,0.3,0.07c0.05-0.02,0.16-0.06,0.19-0.11c0.06-0.12-0.08-0.13-0.16-0.06c-0.05,0.04-0.11,0.06-0.15-0.01
		c-0.04-0.06,0.03-0.11,0.03-0.18c0-0.07-0.15-0.35,0.03-0.3c0.18,0.05,0.3,0.31,0.4,0.45c0.04,0.06,0.09,0.16,0.15,0.21
		c0.09,0.07,0.09,0.05,0.21,0c0.09,0.16-0.15,0.12-0.18,0.22c-0.04,0.13-0.01,0.16-0.12,0.22c-0.05,0.03-0.19,0.02-0.2,0.1
		c-0.01,0.05,0.04,0.09,0.09,0.1c0.04,0.01,0.07,0.01,0.11,0.01c0.04,0,0.05-0.07,0.09-0.08c0.14-0.01-0.02,0.09,0.07,0.16
		c0.09,0.08,0.19-0.01,0.21-0.09c0.02-0.08-0.09-0.46,0.13-0.32c0.12,0.08,0.24,0.31,0.39,0.31c0.09,0,0.08,0.03,0.13,0.08
		c0.08,0.07,0.04,0.09,0.17,0.13c0.21,0.07-0.08,0.2-0.11,0.31c-0.03,0.13,0.08,0.25,0.2,0.17c0.1-0.07,0.09-0.34,0.28-0.2
		c0.1,0.08,0.07,0.22,0,0.31c-0.15,0.19,0.08,0.29,0.25,0.3c0.01-0.13-0.17-0.23-0.03-0.36c0.08-0.08,0.18,0.04,0.26,0.09
		c0.06,0.04,0.12-0.03,0.08,0.08c-0.02,0.06-0.08,0.17-0.03,0.23c0.14,0.18,0.14-0.19,0.19-0.22c0.16-0.09,0.25,0.2,0.24,0.3
		c-0.03,0.25-0.18-0.06-0.21,0.01c-0.05,0.12,0.08,0.27,0.16,0.35c0.04,0.04,0.29,0.24,0.29,0.07c0-0.1-0.12-0.12-0.12-0.24
		c0-0.11,0.05-0.29,0.19-0.26c0.14,0.02,0.35,0.21,0.5,0.13c0.17-0.09-0.01-0.17-0.01-0.27c-0.01-0.12,0.23-0.29,0.27-0.43
		c0.04-0.11-0.05-0.17-0.11-0.24c-0.31-0.38-0.31-0.94-0.44-1.39c-0.06-0.19-0.16-0.32-0.16-0.52c0-0.24-0.06-0.41-0.11-0.63
		c-0.01-0.08-0.02-0.15-0.05-0.23c-0.04-0.09-0.12-0.15-0.15-0.24c-0.05-0.15,0.04-0.29,0.02-0.44c-0.02-0.17-0.18-0.26-0.18-0.45
		c0-0.11,0-0.18-0.07-0.25c-0.07-0.07-0.14-0.08-0.18-0.18c-0.07-0.14,0.03-0.28-0.11-0.42c-0.16-0.15-0.45-0.13-0.66-0.13
		c-0.24,0-0.49-0.04-0.73,0.03c-0.05,0.01-0.3,0.08-0.2-0.08c0.09-0.13,0.4-0.12,0.54-0.12c0.26,0,0.52,0.02,0.79,0.02
		c0.16,0,0.53,0.01,0.62-0.15c0.08-0.14-0.07-0.16-0.1-0.26c-0.02-0.05,0.03-0.13,0.03-0.19c-0.01-0.08-0.05-0.16-0.1-0.22
		c-0.1-0.13-0.26-0.27-0.22-0.45c0.02-0.12,0.13-0.19,0.07-0.32c-0.06-0.13-0.19-0.22-0.16-0.37c0.03-0.17,0.13-0.22,0.07-0.42
		c-0.05-0.15-0.11-0.27-0.04-0.42c0.04-0.1,0.11-0.17,0.14-0.28c0.04-0.13,0.05-0.26,0.08-0.38c0.06-0.21,0.18-0.34,0.2-0.56
		c0.02-0.2,0.06-0.32,0.18-0.48c0.09-0.12,0.02-0.21-0.02-0.33c-0.08-0.23,0.3-0.32,0.23-0.55c-0.1-0.31-0.68-0.42-0.95-0.48
		c-0.16-0.03-0.37-0.04-0.5-0.13c-0.07-0.05-0.14-0.08-0.23-0.07c-0.11,0.02-0.15,0.14-0.25,0.05
		C49.52,51.04,49.5,50.94,49.53,50.84z M47.93,60.2c-0.13,0.11,0.04,0.38,0.19,0.34C48.32,60.49,48.11,60.08,47.93,60.2z
		 M47.13,59.49c0.02,0.11,0.1,0.12,0.18,0.07c0.02-0.02,0.25-0.23,0.25-0.27C47.53,59.16,47.07,59.28,47.13,59.49z M47.25,59.04
		c0.19,0.09,0.17-0.17,0.07-0.19C47.23,58.83,47.13,59,47.25,59.04z M47.24,45c-0.15-0.07-0.24,0.03-0.38,0.03
		c-0.06,0-0.14-0.07-0.19-0.01c-0.07,0.08,0.08,0.14,0.14,0.15c0.08,0.01,0.12-0.01,0.19-0.03c0.08-0.01,0.16,0.01,0.23,0
		C47.38,45.13,47.34,44.94,47.24,45z M47.11,45.25c-0.11,0.01-0.5,0.16-0.19,0.18c0.06,0,0.28-0.03,0.31-0.1
		C47.26,45.25,47.17,45.2,47.11,45.25z M46.33,46.11c-0.06,0.01-0.06,0.05-0.07,0.1c0,0.05,0.2,0.09,0.24,0.1
		c0.08,0.02,0.32,0.09,0.29-0.07c-0.02-0.13-0.15-0.05-0.22-0.07C46.49,46.14,46.43,46.03,46.33,46.11z M45.87,48.79
		c0.05-0.09-0.03-0.19-0.11-0.1C45.69,48.78,45.8,48.89,45.87,48.79z M45.99,48.47c-0.05-0.08-0.19-0.06-0.13,0.05
		C45.9,48.62,46.03,48.58,45.99,48.47z M46.01,48.2c-0.01-0.09-0.16-0.1-0.16,0C45.85,48.29,46,48.29,46.01,48.2z M45.65,47.74
		c-0.01-0.08-0.16-0.13-0.17-0.03C45.47,47.8,45.62,47.83,45.65,47.74z M45.14,49.89c-0.08-0.03-0.42-0.14-0.24,0.06
		c0.03,0.04,0.2,0.1,0.24,0.08C45.22,50,45.22,49.92,45.14,49.89z M45.26,50.14c-0.09-0.03-0.25-0.01-0.15,0.11
		c0.04,0.05,0.11,0.04,0.15,0.07c0.04,0.03,0.01,0.09,0.09,0.11c0.08,0.03,0.28-0.08,0.14-0.12C45.39,50.28,45.36,50.2,45.26,50.14z
		 M45.31,50.54c-0.06-0.04-0.26-0.19-0.32-0.07c-0.06,0.12,0.18,0.17,0.25,0.21c0.05,0.03,0.14,0.17,0.22,0.05
		C45.52,50.63,45.39,50.57,45.31,50.54z M44.91,51.61c-0.12,0.04-0.02,0.2,0.07,0.19C45.17,51.79,45.06,51.6,44.91,51.61z
		 M45.24,51.25c-0.18,0.07-0.1,0.45,0.08,0.43c0.09-0.01,0.17-0.19,0.17-0.27C45.48,51.27,45.36,51.24,45.24,51.25z M45.41,50.12
		c0.11,0.09,0.23,0.07,0.21-0.08c-0.02-0.17-0.3-0.3-0.42-0.41c-0.03-0.02-0.13-0.07-0.16-0.01c-0.03,0.05,0.11,0.13,0.15,0.15
		c0.07,0.05,0.16,0.1,0.19,0.18C45.39,50.02,45.35,50.07,45.41,50.12z M48.39,57.33c-0.12,0.01-0.1,0.21,0,0.18
		C48.48,57.48,48.52,57.3,48.39,57.33z M48.67,57.25c-0.13,0-0.14,0.19-0.01,0.2C48.81,57.46,48.81,57.24,48.67,57.25z M48.96,57.21
		c-0.17-0.02-0.17,0.22,0,0.22C49.1,57.42,49.1,57.21,48.96,57.21z M43.24,56.64c-0.2,0.02,0.03,0.18,0.12,0.2
		c0.11,0.02,0.41,0.05,0.49-0.07c0.07-0.11-0.05-0.2-0.15-0.23C43.54,56.48,43.37,56.54,43.24,56.64z M42.66,54.01
		c-0.19,0.21,0.44,0.19,0.55,0.15c0.1-0.04,0.19-0.17,0.09-0.25C43.15,53.81,42.79,53.97,42.66,54.01z"/>
	<polygon fill-rule="evenodd" clip-rule="evenodd" fill="#FFFFFF" points="49.18,61.99 49.28,61.89 49.37,61.91 49.42,61.93 
		49.4,61.99 49.4,61.99 49.39,62.01 49.39,62.02 49.39,62.03 49.4,62.04 49.4,62.05 49.44,62.06 49.46,62.07 49.52,62.03 
		49.58,62.01 49.64,62.04 49.65,62.05 49.67,62.07 49.68,62.08 49.69,62.09 49.7,62.1 49.7,62.1 49.7,62.15 49.7,62.19 49.7,62.21 
		49.69,62.24 49.68,62.25 49.68,62.26 49.67,62.27 49.66,62.28 49.62,62.29 49.55,62.3 49.49,62.32 49.47,62.32 49.44,62.32 
		49.38,62.32 49.31,62.32 49.27,62.32 49.24,62.32 49.19,62.32 49.14,62.32 49.11,62.31 49.06,62.3 49.02,62.28 48.98,62.24 
		48.94,62.22 48.93,62.13 49,62.09 49.03,62.09 49.07,62.09 49.12,62.08 49.15,62.07 49.17,62.03 49.18,61.99 	"/>
	<path fill-rule="evenodd" clip-rule="evenodd" fill="#FFFFFF" d="M50.65,63.21c0.24-0.27,0.25,0.35,0.06,0.33
		c-0.09-0.01-0.11-0.07-0.05-0.13C50.75,63.34,50.59,63.3,50.65,63.21z"/>
	<path fill-rule="evenodd" clip-rule="evenodd" fill="#FFFFFF" d="M50.96,63.46c0.12,0.01,0.11,0.14,0,0.15
		C50.83,63.62,50.87,63.5,50.96,63.46z"/>
	<path fill-rule="evenodd" clip-rule="evenodd" fill="#FFFFFF" d="M48.37,61.3c-0.02,0.07-0.06,0.14,0.01,0.19
		c0.06,0.04,0.14-0.03,0.17-0.07C48.64,61.25,48.48,61.21,48.37,61.3z"/>
	<path fill-rule="evenodd" clip-rule="evenodd" fill="#FFFFFF" d="M45.67,58.3C45.86,58.31,45.55,58.4,45.67,58.3L45.67,58.3z"/>
	<path fill-rule="evenodd" clip-rule="evenodd" fill="#FFFFFF" d="M45.92,58.64c0.11,0,0.12,0.14,0,0.14
		C45.8,58.78,45.81,58.65,45.92,58.64z"/>
	<path fill-rule="evenodd" clip-rule="evenodd" fill="#FFFFFF" d="M46.4,58.31c0.13,0.03,0.04,0.16-0.07,0.14
		C46.18,58.43,46.33,58.32,46.4,58.31z"/>
	<path fill-rule="evenodd" clip-rule="evenodd" fill="#FFFFFF" d="M46.52,58.58c0.17,0.01,0.13,0.17-0.03,0.18
		C46.27,58.76,46.34,58.59,46.52,58.58z"/>
	<path fill-rule="evenodd" clip-rule="evenodd" fill="#FFFFFF" d="M46.42,58.93c0.14-0.06,0.12,0.11,0.03,0.13
		C46.35,59.09,46.3,58.94,46.42,58.93z"/>
	<path fill-rule="evenodd" clip-rule="evenodd" fill="#FFFFFF" d="M46.73,60.06c0.19-0.03,0.16,0.2,0.01,0.2
		C46.56,60.26,46.54,60.05,46.73,60.06z"/>
	<path fill-rule="evenodd" clip-rule="evenodd" fill="#FFFFFF" d="M43.72,52c0.12-0.02,0.24,0,0.17,0.14
		c-0.02,0.04-0.09,0.05-0.13,0.03C43.67,52.12,43.7,52.09,43.72,52z"/>
	<path fill-rule="evenodd" clip-rule="evenodd" fill="#FFFFFF" d="M43.55,51.27c0.09,0.07,0.26,0.14,0.24,0.25
		c-0.01,0.04-0.1,0.16-0.16,0.16c-0.1,0.01-0.06-0.04-0.07-0.12c-0.03-0.1-0.13-0.21-0.1-0.31C43.49,51.26,43.52,51.26,43.55,51.27z
		"/>
	<path fill-rule="evenodd" clip-rule="evenodd" fill="#FFFFFF" d="M44.12,51.17c0.23,0.01,0.45,0.06,0.68,0.11
		c0,0.2-0.3,0.08-0.41,0.08c-0.07,0-0.2,0-0.26-0.04C44.08,51.28,43.99,51.15,44.12,51.17z"/>
	<path fill-rule="evenodd" clip-rule="evenodd" fill="#FFFFFF" d="M43.62,50.68c0.07,0.07,0.3,0.26,0.08,0.29
		c-0.08,0.01-0.29-0.21-0.31-0.3C43.47,50.65,43.54,50.64,43.62,50.68z"/>
	<path fill-rule="evenodd" clip-rule="evenodd" fill="#FFFFFF" d="M44.41,50.86c0.04,0.03,0.08,0.13,0.11,0.15
		c0.04,0.02,0.18,0,0.22,0c-0.01-0.16-0.24-0.1-0.27-0.27c0.14-0.05,0.32-0.05,0.42,0.06c0.12,0.13,0.09,0.32-0.08,0.37
		c-0.14,0.04-0.28-0.01-0.4-0.07c-0.06-0.03-0.16-0.07-0.16-0.15C44.25,50.86,44.32,50.81,44.41,50.86z"/>
	<path fill-rule="evenodd" clip-rule="evenodd" fill="#FFFFFF" d="M44.04,50.71c0.16,0.02,0.15,0.19-0.01,0.17
		C43.87,50.86,43.88,50.68,44.04,50.71z"/>
	<path fill-rule="evenodd" clip-rule="evenodd" fill="#FFFFFF" d="M44.08,50.35c0.08-0.01,0.13,0.06,0.05,0.11
		C44.03,50.53,43.98,50.41,44.08,50.35z"/>
	<path fill-rule="evenodd" clip-rule="evenodd" fill="#FFFFFF" d="M44.5,50.33c0.01,0.16-0.25,0.12-0.23,0.03
		C44.29,50.27,44.45,50.31,44.5,50.33z"/>
	<path fill-rule="evenodd" clip-rule="evenodd" fill="#FFFFFF" d="M44.3,50.13c0.1-0.02,0.27,0.15,0.34,0.1
		c0.11-0.1,0.04-0.27-0.11-0.29c-0.09-0.01-0.3,0.01-0.39,0.05C44,50.06,44.18,50.2,44.3,50.13z"/>
	<path fill-rule="evenodd" clip-rule="evenodd" fill="#FFFFFF" d="M43.92,49.66c0.09,0.05,0.32,0.03,0.33,0.15
		c0.01,0.07-0.08,0.12-0.15,0.14c-0.08,0.02-0.2,0-0.26-0.07C43.79,49.8,43.79,49.57,43.92,49.66z"/>
	<path fill-rule="evenodd" clip-rule="evenodd" fill="#FFFFFF" d="M43.76,50.21c0.05,0.12-0.11,0.19-0.13,0.11
		C43.6,50.21,43.71,50.06,43.76,50.21z"/>
	<polygon fill-rule="evenodd" clip-rule="evenodd" fill="#FFFFFF" points="44.95,48.89 45.02,48.89 45.06,48.94 45.06,48.95 
		45.05,48.97 45.05,48.98 45.05,48.98 45.04,48.99 45.04,48.99 45,49.01 44.98,49.02 44.96,49.07 44.95,49.15 44.97,49.19 
		44.98,49.19 45.01,49.2 45.05,49.21 45.08,49.21 45.1,49.21 45.13,49.2 45.15,49.2 45.17,49.2 45.2,49.22 45.22,49.23 45.22,49.23 
		45.22,49.24 45.23,49.24 45.24,49.26 45.26,49.29 45.26,49.31 45.27,49.31 45.31,49.32 45.34,49.32 45.37,49.33 45.39,49.33 
		45.4,49.32 45.41,49.32 45.41,49.32 45.41,49.32 45.42,49.32 45.43,49.31 45.44,49.31 45.46,49.28 45.48,49.26 45.49,49.25 
		45.5,49.25 45.5,49.25 45.5,49.24 45.5,49.24 45.5,49.23 45.49,49.18 45.48,49.17 45.49,49.17 45.49,49.16 45.48,49.15 
		45.48,49.15 45.48,49.15 45.47,49.15 45.44,49.15 45.41,49.14 45.37,49.13 45.35,49.12 45.35,49.12 45.34,49.11 45.33,49.1 
		45.32,49.09 45.31,49.05 45.31,49.03 45.31,48.99 45.28,48.95 45.28,48.94 45.28,48.94 45.26,48.92 45.24,48.91 45.2,48.9 
		45.18,48.89 45.17,48.89 45.17,48.89 45.17,48.89 45.17,48.88 45.17,48.85 45.18,48.85 45.21,48.82 45.23,48.78 45.2,48.75 
		45.2,48.74 45.18,48.73 45.15,48.73 45.12,48.73 45.11,48.73 45.09,48.74 45.09,48.74 45.08,48.75 45.08,48.75 45.07,48.75 
		45.07,48.76 45.06,48.76 45.05,48.76 45.03,48.75 45,48.75 44.97,48.74 44.95,48.73 44.94,48.72 44.92,48.72 44.9,48.72 
		44.87,48.72 44.84,48.72 44.82,48.72 44.8,48.73 44.78,48.73 44.77,48.74 44.76,48.74 44.75,48.75 44.74,48.76 44.73,48.76 
		44.73,48.76 44.72,48.77 44.72,48.79 44.72,48.8 44.71,48.83 44.71,48.85 44.72,48.89 44.72,48.9 44.73,48.9 44.74,48.93 
		44.76,48.95 44.77,48.96 44.77,48.96 44.79,48.96 44.82,48.96 44.83,48.96 44.86,48.96 44.88,48.95 44.89,48.93 44.92,48.91 
		44.95,48.89 	"/>
	<path fill-rule="evenodd" clip-rule="evenodd" fill="#FFFFFF" d="M44.24,48.63c0.12-0.12,0.59,0,0.4-0.37
		c-0.04-0.09-0.15-0.1-0.23-0.15c-0.03-0.02-0.1-0.08-0.15-0.07c-0.06,0.01-0.13,0.08-0.06,0.13c0.06,0.05,0.24,0.05,0.24,0.15
		c0,0.09-0.16,0.1-0.23,0.11C43.88,48.49,44.06,48.79,44.24,48.63z"/>
	<path fill-rule="evenodd" clip-rule="evenodd" fill="#FFFFFF" d="M44.44,47.24c0.2-0.02,0.47,0.33,0.22,0.39
		c-0.15,0.04-0.11-0.1-0.12-0.19C44.54,47.38,44.29,47.26,44.44,47.24z"/>
	<path fill-rule="evenodd" clip-rule="evenodd" fill="#FFFFFF" d="M44.5,47.79c0.21,0.02,0.12,0.28-0.01,0.25
		C44.38,48.02,44.49,47.84,44.5,47.79z"/>
	<path fill-rule="evenodd" clip-rule="evenodd" fill="#FFFFFF" d="M44.99,46.45c0.11-0.04,0.11,0.06,0.18,0.09
		c0.05,0.02,0.15,0.03,0.21,0.02c0.09-0.01,0.23-0.12,0.28,0.02c0.06,0.14-0.12,0.12-0.21,0.1c-0.12-0.03-0.18-0.08-0.3,0.02
		c0.01,0,0.03,0.01,0.03,0.02c-0.07,0-0.3,0.03-0.32-0.05C44.83,46.58,44.84,46.47,44.99,46.45z"/>
	<path fill-rule="evenodd" clip-rule="evenodd" fill="#FFFFFF" d="M47.64,43.67c-0.07,0.16,0.3,0.15,0.23-0.01
		C47.83,43.57,47.61,43.52,47.64,43.67z M48.26,43.85c-0.18-0.15-0.56,0.09-0.29,0.27C48.18,44.26,48.35,44.05,48.26,43.85z"/>
	<path fill-rule="evenodd" clip-rule="evenodd" fill="#FFFFFF" d="M47.07,44.09c0.13,0.04,0.19,0.23,0.02,0.23
		C46.95,44.33,46.86,44.07,47.07,44.09z"/>
	<polygon fill-rule="evenodd" clip-rule="evenodd" fill="#4F1717" points="26.23,47.74 31.32,47.95 31.28,48.65 29.51,48.57 
		26.91,49.65 31.22,49.85 31.18,50.5 26.13,50.29 26.17,49.27 28.02,48.51 26.21,48.44 26.23,47.74 	"/>
	<polygon fill-rule="evenodd" clip-rule="evenodd" fill="#4F1717" points="39.54,28.31 42.06,32.74 41.45,33.07 40.59,31.53 
		38.28,29.89 40.4,33.65 39.82,33.96 37.32,29.56 38.21,29.06 39.84,30.23 38.94,28.65 39.54,28.31 	"/>
	<polygon fill-rule="evenodd" clip-rule="evenodd" fill="#4F1717" points="31.22,40.42 33.76,40.31 33.43,41.01 30.51,41.15 
		30.53,41.07 30.54,41 30.55,40.92 30.56,40.84 30.57,40.76 30.58,40.68 30.59,40.6 30.6,40.52 30.6,40.46 30.6,40.4 30.59,40.33 
		30.58,40.27 30.57,40.21 30.55,40.16 30.53,40.1 30.51,40.04 30.48,39.99 30.45,39.94 30.42,39.9 30.38,39.85 30.34,39.81 
		30.3,39.77 30.26,39.73 30.21,39.7 30.16,39.67 30.11,39.65 30.06,39.63 30,39.62 29.94,39.6 29.89,39.6 29.82,39.6 29.76,39.6 
		29.7,39.62 29.63,39.63 29.57,39.65 29.5,39.68 29.43,39.72 29.36,39.76 29.29,39.81 29.22,39.87 29.19,39.9 29.17,39.92 
		29.14,39.95 29.12,39.98 29.08,40.04 29.05,40.11 29.02,40.18 28.98,40.25 28.95,40.33 28.9,40.41 32.84,42.27 32.55,42.89 
		28.09,40.74 28.16,40.56 28.22,40.38 28.29,40.2 28.36,40.04 28.4,39.95 28.44,39.87 28.48,39.79 28.52,39.72 28.57,39.64 
		28.61,39.57 28.66,39.5 28.71,39.44 28.77,39.37 28.83,39.3 28.91,39.24 28.98,39.19 29.07,39.13 29.15,39.09 29.24,39.05 
		29.33,39.01 29.42,38.98 29.52,38.96 29.62,38.95 29.72,38.94 29.81,38.93 29.91,38.94 30.01,38.95 30.11,38.96 30.21,38.99 
		30.3,39.02 30.4,39.07 30.49,39.11 30.58,39.17 30.66,39.24 30.74,39.32 30.82,39.4 30.89,39.49 30.96,39.59 31.02,39.71 
		31.07,39.83 31.12,39.96 31.16,40.1 31.2,40.25 31.22,40.42 	"/>
	<path fill-rule="evenodd" clip-rule="evenodd" fill="#4F1717" d="M55.83,29.54c0.2,0.82,0.4,1.64,0.6,2.47
		c-0.12-0.03-0.74-0.11-0.76-0.2c-0.07-0.28-0.14-0.56-0.21-0.84c-0.16-0.66-0.33-1.31-0.49-1.97c0.52-0.02,1.23-0.03,1.38-0.67
		c0.07-0.29-0.06-0.56-0.27-0.76c-0.21-0.2-0.44-0.22-0.7-0.3c-0.21,0.86-0.43,1.73-0.64,2.59c-0.12,0.47-0.24,0.95-0.35,1.42
		c0,0.02-0.05,0.21-0.06,0.21c-0.22-0.05-0.44-0.11-0.65-0.16c0.34-1.34,0.68-2.69,1.02-4.03c0.06-0.24,0.12-0.47,0.18-0.71
		c0.03-0.13,0.41,0,0.53,0.02c0.49,0.09,1.02,0.23,1.33,0.65c0.3,0.4,0.39,0.94,0.18,1.4C56.72,29.12,56.29,29.38,55.83,29.54z"/>
	<path fill-rule="evenodd" clip-rule="evenodd" fill="#4F1717" d="M32.77,34.91l0.12,0.03l0.12,0.04l0.13,0.05l0.13,0.06l0.13,0.06
		l0.13,0.07l0.13,0.08l0.13,0.08l0.13,0.09l0.13,0.09l0.13,0.1l0.12,0.11l0.12,0.11l0.12,0.12l0.11,0.12l0.11,0.12l0.1,0.13
		l0.09,0.13l0.09,0.13l0.08,0.14l0.07,0.14l0.06,0.14l0.05,0.14l0.04,0.14l0.03,0.14l0.02,0.14v0.14l-0.01,0.14l-0.02,0.14
		l-0.04,0.14l-0.06,0.14l-0.07,0.13l-0.04,0.07l-0.04,0.06l-0.05,0.06l-0.05,0.05l-0.05,0.05l-0.05,0.05l-0.06,0.04l-0.06,0.04
		l-0.06,0.04l-0.06,0.03l-0.06,0.03l-0.06,0.02L34.49,39l-0.07,0.02l-0.07,0.02l-0.07,0.01l-0.07,0.01l-0.08,0.01l-0.08,0h-0.08
		h-0.08l-0.08-0.01l-0.08-0.01l-0.08-0.01l-0.08-0.01l-0.08-0.02L33.43,39l-0.08-0.02l-0.08-0.02l-0.08-0.02l-0.07-0.03l-0.07-0.03
		l-0.09-0.03l-0.09-0.04l-0.08-0.04l-0.09-0.04L32.6,38.7l-0.08-0.05l-0.08-0.05l-0.08-0.04l-0.08-0.05l-0.07-0.05l-0.07-0.05
		l-0.07-0.05l-0.07-0.06l-0.07-0.06l-0.07-0.06l-0.06-0.06l-0.06-0.06L31.66,38l-0.06-0.06l-0.06-0.06l-0.06-0.07l-0.06-0.06
		l-0.05-0.07l-0.05-0.07l-0.05-0.06l-0.05-0.07l-0.05-0.06l-0.05-0.07l-0.04-0.07l-0.04-0.07l-0.04-0.07l-0.04-0.07l-0.05-0.12
		l-0.05-0.12l-0.04-0.12l-0.03-0.12l-0.02-0.12l-0.02-0.12l-0.01-0.11l-0.01-0.11l0-0.11l0.01-0.11l0.02-0.1l0.02-0.1l0.03-0.1
		l0.04-0.09l0.05-0.09l0.05-0.08l0.06-0.08l0.06-0.07l0.07-0.07l0.08-0.06L31.33,35l0.09-0.05l0.1-0.04l0.11-0.04l0.11-0.03
		l0.12-0.02L32,34.82h0.14l0.14,0.01l0.15,0.02l0.16,0.03L32.77,34.91L32.77,34.91z M33.72,36.11l0.1,0.09l0.11,0.1l0.11,0.11
		l0.11,0.12l0.06,0.06l0.05,0.07l0.05,0.06l0.05,0.07l0.05,0.07l0.05,0.07L34.5,37l0.04,0.07l0.04,0.07l0.04,0.07l0.03,0.07
		l0.03,0.07l0.03,0.07l0.02,0.07l0.01,0.07l0.01,0.07l0,0.07v0.07l-0.01,0.06l-0.01,0.07l-0.02,0.06l-0.03,0.06l-0.03,0.06
		l-0.04,0.06l-0.05,0.05l-0.04,0.05l-0.05,0.04l-0.05,0.04l-0.05,0.03l-0.06,0.03l-0.06,0.02l-0.06,0.02l-0.06,0.02l-0.06,0.01
		L34,38.46l-0.06,0h-0.07l-0.07,0l-0.07-0.01l-0.07-0.01l-0.07-0.01l-0.07-0.02l-0.07-0.02l-0.07-0.02l-0.07-0.03l-0.07-0.03
		l-0.07-0.03l-0.07-0.04l-0.07-0.04l-0.07-0.04l-0.07-0.04l-0.07-0.05l-0.07-0.05l-0.07-0.05l-0.07-0.05l-0.06-0.05l-0.2-0.17
		l-0.18-0.16l-0.16-0.16l-0.14-0.16l-0.12-0.15l-0.1-0.15l-0.08-0.15l-0.07-0.14l-0.05-0.14l-0.03-0.13l-0.01-0.12v-0.12l0.02-0.11
		l0.03-0.1l0.04-0.09l0.06-0.08l0.07-0.07l0.08-0.06l0.09-0.05l0.1-0.04l0.11-0.03l0.12-0.02l0.13,0l0.14,0.01l0.15,0.03l0.15,0.04
		l0.16,0.06L33,35.66l0.17,0.09l0.18,0.1l0.18,0.12L33.72,36.11L33.72,36.11z"/>
	<path fill-rule="evenodd" clip-rule="evenodd" fill="#4F1717" d="M68.85,36.78c-0.44,0.92-1.52,1.72-2.52,1.91
		c-0.57,0.11-1.22,0.01-1.6-0.48c-0.32-0.42-0.29-0.96-0.12-1.44c0.32-0.92,1.1-1.65,1.98-2.03c0.82-0.35,2.47-0.4,2.54,0.84
		C69.16,36.02,69.03,36.4,68.85,36.78z M67.47,37.44c-0.57,0.43-2.37,1.28-2.35-0.12c0.01-0.99,1.26-1.87,2.1-2.13
		c0.6-0.19,1.31,0,1.26,0.76C68.42,36.57,67.91,37.06,67.47,37.44z"/>
	<path fill-rule="evenodd" clip-rule="evenodd" fill="#4F1717" d="M33.55,32.65l3.27,3.77l0.12-0.09l0.12-0.09l0.11-0.08l0.11-0.09
		l0.1-0.09l0.1-0.09l0.09-0.09l0.09-0.09l0.08-0.09l0.08-0.09l0.07-0.09l0.06-0.1l0.06-0.1l0.05-0.1l0.04-0.1l0.04-0.11l0.03-0.11
		l0.02-0.11l0.01-0.12v-0.12l-0.01-0.12l-0.02-0.13l-0.03-0.13l-0.04-0.14l-0.06-0.14l-0.07-0.15l-0.08-0.15l-0.09-0.16l-0.1-0.16
		l-0.12-0.17l-0.13-0.18l-0.14-0.18l-0.13-0.15l-0.13-0.13l-0.13-0.12l-0.13-0.11l-0.13-0.1l-0.13-0.09l-0.13-0.07l-0.13-0.07
		l-0.12-0.06l-0.13-0.05l-0.12-0.04l-0.12-0.03l-0.12-0.02l-0.12-0.01l-0.12,0l-0.12,0.01l-0.12,0.02l-0.12,0.02l-0.12,0.03
		l-0.11,0.04l-0.11,0.05l-0.11,0.05l-0.11,0.06l-0.11,0.06l-0.11,0.07l-0.11,0.08l-0.11,0.08l-0.1,0.08l-0.1,0.09l-0.1,0.09
		l-0.1,0.1L33.55,32.65L33.55,32.65z M34.47,32.66l0.15,0.18l0.16,0.18l0.15,0.18l0.16,0.18l0.16,0.18l0.15,0.18l0.16,0.18
		l0.15,0.18l0.16,0.18l0.15,0.18l0.16,0.18l0.15,0.18l0.16,0.18l0.15,0.18l0.16,0.18l0.15,0.18l0.09-0.07l0.08-0.07l0.07-0.07
		l0.07-0.07l0.06-0.07l0.05-0.07l0.05-0.07l0.04-0.07l0.03-0.07l0.03-0.07l0.02-0.08l0.02-0.08l0.01-0.08l0-0.08l0-0.08l-0.01-0.08
		l-0.02-0.08l-0.02-0.08l-0.02-0.08l-0.03-0.08l-0.03-0.08l-0.04-0.08l-0.04-0.08l-0.05-0.08l-0.05-0.08l-0.05-0.08l-0.06-0.08
		l-0.06-0.08l-0.07-0.08l-0.07-0.08l-0.07-0.08l-0.07-0.08l-0.15-0.15l-0.15-0.14l-0.07-0.06l-0.07-0.06L36.3,32.6l-0.07-0.05
		l-0.07-0.05l-0.07-0.05l-0.07-0.04l-0.07-0.04l-0.07-0.04l-0.07-0.03l-0.07-0.02l-0.07-0.02l-0.07-0.01l-0.07-0.01l-0.07,0l-0.07,0
		l-0.07,0.01l-0.07,0.01l-0.07,0.02l-0.08,0.02l-0.07,0.03l-0.07,0.03l-0.08,0.04l-0.08,0.05l-0.08,0.05l-0.08,0.06l-0.08,0.06
		L34.47,32.66L34.47,32.66z"/>
	<path fill-rule="evenodd" clip-rule="evenodd" fill="#4F1717" d="M70.91,38.09c-1.24,0.62-2.48,1.25-3.71,1.87
		c-0.22,0.11-0.45,0.23-0.67,0.34c-0.15,0.07,0.07,0.38,0.13,0.51c0.21,0.46,0.48,0.94,0.93,1.2c0.92,0.52,2.31-0.06,3.06-0.65
		c0.42-0.33,0.77-0.77,0.84-1.31c0.07-0.53-0.1-1.05-0.33-1.52C71.08,38.37,70.99,38.23,70.91,38.09z M70.67,38.98
		c-1,0.51-2,1.01-3,1.5c-0.06,0.03-0.36,0.14-0.38,0.19c-0.02,0.07,0.17,0.33,0.21,0.39c0.14,0.19,0.32,0.35,0.55,0.43
		c0.46,0.16,0.99,0,1.41-0.21c0.42-0.21,0.89-0.48,1.19-0.85C71,39.98,70.9,39.47,70.67,38.98z"/>
	<polygon fill-rule="evenodd" clip-rule="evenodd" fill="#4F1717" points="41.68,27.54 42.35,27.31 43.97,31.99 43.33,32.2 
		41.68,27.54 	"/>
	<polygon fill-rule="evenodd" clip-rule="evenodd" fill="#4F1717" points="73.97,49.29 73.97,50.01 69.02,50.06 69.03,49.39 
		73.97,49.29 	"/>
	<path fill-rule="evenodd" clip-rule="evenodd" fill="#4F1717" d="M46.3,26.3c0.98-0.27,2.48-0.29,2.75,0.97
		c0.13,0.6-0.2,1.11-0.69,1.42c-0.23,0.15-0.53,0.23-0.79,0.27c-0.1,0.01-0.23-0.02-0.21,0.09c0.02,0.16,0.04,0.31,0.06,0.47
		c0.07,0.55,0.13,1.1,0.2,1.65c-0.24,0.02-0.49,0.04-0.73,0.05c-0.01,0-0.03-0.22-0.03-0.24c-0.07-0.56-0.13-1.11-0.2-1.67
		C46.53,28.31,46.42,27.3,46.3,26.3z M47.09,26.83c0.03,0.25,0.06,0.51,0.09,0.76c0.02,0.19,0.04,0.37,0.07,0.56
		c0,0.04,0,0.23,0.03,0.26c0.11,0.1,0.55-0.07,0.66-0.13c0.18-0.09,0.33-0.23,0.42-0.41c0.16-0.29,0.08-0.64-0.16-0.85
		C47.9,26.74,47.46,26.74,47.09,26.83z"/>
	<path fill-rule="evenodd" clip-rule="evenodd" fill="#4F1717" d="M64.9,31.13c0.82,0.5,1.67,1.26,1.39,2.32
		c-0.14,0.53-0.65,0.84-1.16,0.88c-0.53,0.05-1.02-0.26-1.41-0.57c-0.46,0.57-0.91,1.14-1.37,1.71c-0.18-0.16-0.37-0.32-0.55-0.48
		c-0.01-0.01,0.14-0.18,0.15-0.19c0.35-0.44,0.7-0.87,1.06-1.31C63.63,32.7,64.26,31.92,64.9,31.13z M65.07,32.06
		c-0.16,0.2-0.32,0.4-0.48,0.59c-0.12,0.15-0.23,0.29-0.35,0.44c-0.02,0.03-0.16,0.16-0.16,0.2c0.01,0.15,0.44,0.34,0.55,0.38
		c0.19,0.07,0.4,0.07,0.59,0.02c0.31-0.09,0.51-0.39,0.5-0.71C65.7,32.56,65.39,32.3,65.07,32.06z"/>
	<polygon fill-rule="evenodd" clip-rule="evenodd" fill="#4F1717" points="68.08,44.4 70.3,43.69 72.6,41.74 72.79,42.44 
		71.16,43.81 73.25,44.11 73.46,44.8 70.52,44.36 68.3,45.07 68.08,44.4 	"/>
	<polygon fill-rule="evenodd" clip-rule="evenodd" fill="#4F1717" points="59.43,27.91 60.02,28.2 59.03,30.27 61.31,28.82 
		61.94,29.12 59.71,30.57 59.94,33.67 59.31,33.35 59.03,30.27 57.89,32.64 57.31,32.34 59.43,27.91 	"/>
	<path fill-rule="evenodd" clip-rule="evenodd" fill="#4F1717" d="M68.59,46.37c0.12,0.31,0.29,0.65,0.66,0.68
		c0.42,0.04,0.91-0.1,1.32-0.16c0.81-0.11,1.62-0.23,2.42-0.34c0.23-0.03,0.46-0.06,0.69-0.1c0.08-0.01,0.12,0.54,0.13,0.64
		c-1.11,0.16-2.22,0.31-3.32,0.47c-0.49,0.07-1.11,0.26-1.6,0.1c-0.49-0.17-0.69-0.63-0.88-1.08C68.21,46.51,68.4,46.44,68.59,46.37
		z"/>
	<path fill-rule="evenodd" clip-rule="evenodd" fill="#4F1717" d="M26.6,43.27c0.06,0,0.23-0.01,0.28,0.04
		c0.06,0.06,0,0.22-0.02,0.32c-0.05,0.27-0.09,0.54-0.14,0.81c-0.04,0.22-0.05,0.18-0.26,0.14c-0.03-0.01,0.02-0.26,0.02-0.29
		C26.52,43.95,26.56,43.61,26.6,43.27z"/>
	<path fill-rule="evenodd" clip-rule="evenodd" fill="#4F1717" d="M42.68,26.53c0.03,0.05,0.14,0.19,0.13,0.25
		c-0.01,0.08-0.18,0.13-0.27,0.17c-0.25,0.12-0.5,0.23-0.75,0.35c-0.2,0.09-0.17,0.07-0.27-0.13c-0.01-0.03,0.22-0.14,0.25-0.15
		C42.08,26.85,42.38,26.69,42.68,26.53z"/>
	<path fill-rule="evenodd" clip-rule="evenodd" fill="#4F1717" d="M74.61,50.57c-0.06,0.02-0.21,0.07-0.28,0.04
		c-0.08-0.03-0.07-0.22-0.08-0.31c-0.03-0.27-0.06-0.55-0.09-0.82c-0.03-0.22-0.01-0.19,0.21-0.21c0.03,0,0.06,0.26,0.06,0.29
		C74.49,49.89,74.55,50.23,74.61,50.57z"/>
	<path fill-rule="evenodd" clip-rule="evenodd" fill="#4F1717" d="M27.07,43.72l5.05,0.14l-0.14,0.62l-1.31-0.02l-0.36,1.21
		l1.27,0.62l-0.15,0.68l-4.64-2.32L27.07,43.72L27.07,43.72z M27.71,44.39l2.23,0.07l-0.24,0.89L27.71,44.39L27.71,44.39z"/>
	<path fill-rule="evenodd" clip-rule="evenodd" fill="#4F1717" d="M51.85,26.1l0.86,4.98l-0.63-0.01l-0.24-1.29l-1.25-0.11
		l-0.35,1.37l-0.7-0.01l1.36-5.01L51.85,26.1L51.85,26.1z M51.33,26.86l0.37,2.2L50.77,29L51.33,26.86L51.33,26.86z"/>
</g>
<g id="Layer_2">
</g>
</svg>
