<?xml version="1.0" encoding="utf-8"?>
<!-- Generator: Adobe Illustrator 13.0.1, SVG Export Plug-In . SVG Version: 6.00 Build 14948)  -->
<!DOCTYPE svg PUBLIC "-//W3C//DTD SVG 1.1//EN" "http://www.w3.org/Graphics/SVG/1.1/DTD/svg11.dtd">
<svg version="1.1" id="Vrstva_1" xmlns="http://www.w3.org/2000/svg" xmlns:xlink="http://www.w3.org/1999/xlink" x="0px" y="0px"
	 width="100px" height="100px" viewBox="0 0 100 100" enable-background="new 0 0 100 100" xml:space="preserve">
<g>
	<path fill="#9FD6F1" d="M36.737,36.296v0.009c0,0.003,0.007,0.219,0.015,0.42c0.311-5.451,4.727-9.792,10.128-9.792
		c5.6,0,10.156,4.666,10.158,10.401c0,1.338-0.255,2.645-0.748,3.884c2.388-1.865,3.813-4.799,3.813-7.874
		c0-6.399-5.275-10.225-10.375-10.225c-3.504,0-6.791,1.392-9.258,3.918C38.065,29.503,36.739,32.791,36.737,36.296"/>
	<path fill="#0062AB" d="M42.471,39.738L42.471,39.738c0.379,3.057,2.142,5.794,4.733,7.332c2.288,1.356,4.819,1.711,7.318,1.024
		c2.668-0.732,5.095-2.654,6.493-5.139c1.136-2.021,1.744-4.319,1.761-6.645c0-0.034,0-0.067,0-0.102
		c0-4.771-2.383-9.028-6.388-11.404c0,0-0.225-0.123-0.45-0.246c2.975,1.97,4.646,5.306,4.646,8.748
		c0,1.771-0.439,3.566-1.361,5.208c-1.354,2.408-3.55,4.133-6.182,4.856c-2.619,0.719-5.342,0.355-7.668-1.025
		C44.244,41.678,43.271,40.798,42.471,39.738"/>
	<path fill="#359829" d="M38.623,43.08c-2.55-4.535-1.962-11.139,3.437-14.34c2.593-1.539,5.781-1.737,8.55-0.547
		c-1.295,0.182-2.523,0.609-3.653,1.278c-3.242,1.923-5.055,5.427-5.055,9.028c0,1.771,0.438,3.564,1.361,5.206
		c1.353,2.408,3.547,4.131,6.182,4.855c2.45,0.673,4.987,0.377,7.21-0.792c-0.209,0.135-0.419,0.27-0.419,0.27
		c-1.976,1.171-4.167,1.765-6.512,1.765C45.207,49.802,40.954,47.227,38.623,43.08z"/>
	<path fill="#70787D" d="M32.776,58.67c0.175,0,0.312-0.041,0.409-0.124c0.1-0.082,0.149-0.189,0.149-0.321
		c0-0.082-0.015-0.149-0.045-0.205c-0.029-0.055-0.071-0.104-0.128-0.144c-0.057-0.042-0.126-0.079-0.208-0.115
		c-0.081-0.034-0.176-0.075-0.276-0.12c-0.094-0.037-0.181-0.078-0.263-0.124c-0.083-0.046-0.155-0.101-0.22-0.163
		c-0.063-0.063-0.114-0.137-0.151-0.222c-0.037-0.084-0.057-0.182-0.057-0.295c0-0.101,0.02-0.198,0.058-0.292
		c0.039-0.095,0.097-0.179,0.173-0.253c0.078-0.073,0.173-0.133,0.286-0.177c0.111-0.045,0.242-0.067,0.388-0.067
		c0.265,0,0.491,0.064,0.678,0.192c0.019,0.015,0.03,0.028,0.033,0.043c0.004,0.013,0.005,0.033,0.005,0.057v0.269
		c0,0.036-0.015,0.055-0.045,0.055c-0.018,0-0.034-0.008-0.051-0.024c-0.18-0.182-0.396-0.271-0.646-0.271
		c-0.158,0-0.279,0.041-0.364,0.127c-0.082,0.085-0.124,0.187-0.124,0.306c0,0.076,0.016,0.142,0.048,0.195s0.075,0.101,0.127,0.141
		c0.053,0.04,0.113,0.074,0.185,0.106c0.071,0.031,0.145,0.063,0.223,0.094c0.127,0.051,0.239,0.101,0.335,0.155
		c0.097,0.054,0.177,0.115,0.24,0.183c0.063,0.067,0.11,0.141,0.142,0.225c0.032,0.082,0.048,0.177,0.048,0.282
		c0,0.126-0.023,0.238-0.071,0.337c-0.048,0.098-0.112,0.182-0.196,0.25c-0.083,0.068-0.181,0.12-0.294,0.156
		c-0.113,0.035-0.236,0.054-0.368,0.054c-0.094,0-0.177-0.005-0.25-0.016c-0.072-0.009-0.14-0.023-0.201-0.044
		c-0.063-0.021-0.12-0.046-0.177-0.077c-0.057-0.03-0.115-0.068-0.175-0.113c-0.013-0.013-0.021-0.025-0.028-0.038
		c-0.006-0.014-0.01-0.03-0.01-0.052v-0.217c0-0.042,0.013-0.063,0.038-0.063c0.016,0,0.032,0.009,0.05,0.025
		c0.113,0.093,0.23,0.163,0.352,0.213C32.514,58.646,32.641,58.67,32.776,58.67"/>
	<path fill="#70787D" d="M37.28,56.139c0.019,0,0.027,0.011,0.027,0.032v0.267c0,0.02-0.009,0.027-0.027,0.027
		c-0.071,0-0.147,0-0.227-0.004c-0.079-0.002-0.156-0.004-0.227-0.004c-0.176,0-0.347-0.002-0.517-0.012
		c0.008,0.149,0.013,0.293,0.013,0.439v2.002c0,0.008-0.005,0.016-0.013,0.024c-0.007,0.008-0.016,0.013-0.023,0.013h-0.318
		c-0.01,0-0.019-0.005-0.026-0.013c-0.005-0.009-0.009-0.017-0.009-0.024v-2.011c0-0.147,0.004-0.292,0.012-0.431
		c-0.153,0.01-0.31,0.012-0.467,0.012c-0.09,0-0.174,0.002-0.255,0.004c-0.081,0.004-0.165,0.004-0.257,0.004
		c-0.021,0-0.032-0.01-0.026-0.03l0.034-0.26c0.003-0.023,0.012-0.036,0.028-0.036H37.28z"/>
	<path fill="#70787D" d="M39.521,55.921c-0.009,0.008-0.018,0.016-0.029,0.022s-0.021,0.011-0.029,0.011h-0.152
		c-0.011,0-0.018-0.005-0.022-0.013c-0.003-0.009-0.003-0.016,0.002-0.023l0.485-0.552c0.005-0.008,0.014-0.017,0.024-0.026
		c0.012-0.01,0.023-0.014,0.033-0.014h0.292c0.01,0,0.018,0.006,0.021,0.016c0.002,0.011,0,0.021-0.009,0.028L39.521,55.921z
		 M40.075,58.016c-0.081,0.005-0.168,0.008-0.256,0.01s-0.173,0.002-0.256,0.002c-0.084,0-0.171,0-0.257-0.002
		c-0.088-0.002-0.172-0.005-0.255-0.01c-0.016,0.053-0.034,0.114-0.058,0.186c-0.022,0.071-0.048,0.146-0.075,0.224
		c-0.027,0.076-0.056,0.155-0.085,0.233c-0.028,0.078-0.058,0.154-0.082,0.226c-0.01,0.026-0.025,0.04-0.043,0.04h-0.304
		c-0.039,0-0.05-0.023-0.035-0.064l0.989-2.685c0.003-0.008,0.008-0.016,0.016-0.023c0.007-0.008,0.015-0.013,0.023-0.013h0.35
		c0.021,0,0.036,0.013,0.046,0.036l0.989,2.685c0.016,0.041,0.005,0.064-0.034,0.064h-0.331c-0.021,0-0.035-0.014-0.046-0.04
		c-0.059-0.159-0.114-0.312-0.167-0.464C40.151,58.268,40.109,58.134,40.075,58.016z M39.79,57.234
		c-0.108-0.311-0.184-0.569-0.227-0.777c-0.022,0.104-0.055,0.219-0.092,0.348c-0.039,0.13-0.084,0.267-0.136,0.415
		c-0.017,0.05-0.036,0.1-0.056,0.152c-0.019,0.053-0.037,0.105-0.056,0.154c-0.018,0.051-0.034,0.096-0.05,0.136
		c-0.016,0.041-0.027,0.075-0.038,0.102c0.071-0.006,0.145-0.009,0.22-0.011c0.073-0.001,0.146-0.002,0.215-0.002s0.14,0,0.212,0
		c0.071,0,0.14,0.003,0.204,0.008c-0.01-0.025-0.023-0.06-0.041-0.101c-0.016-0.04-0.034-0.086-0.052-0.134
		c-0.018-0.049-0.037-0.098-0.054-0.147C39.823,57.328,39.807,57.279,39.79,57.234z"/>
	<path fill="#70787D" d="M44.187,56.139c0.018,0,0.026,0.011,0.026,0.032v0.267c0,0.02-0.009,0.027-0.026,0.027
		c-0.071,0-0.147,0-0.227-0.004c-0.08-0.002-0.156-0.004-0.228-0.004c-0.175,0-0.346-0.002-0.516-0.012
		c0.008,0.149,0.011,0.293,0.011,0.439v2.002c0,0.008-0.003,0.016-0.011,0.024c-0.008,0.008-0.016,0.013-0.023,0.013h-0.319
		c-0.01,0-0.019-0.005-0.025-0.013c-0.006-0.009-0.009-0.017-0.009-0.024v-2.011c0-0.147,0.003-0.292,0.011-0.431
		c-0.153,0.01-0.309,0.012-0.466,0.012c-0.089,0-0.174,0.002-0.255,0.004c-0.082,0.004-0.166,0.004-0.257,0.004
		c-0.022,0-0.031-0.01-0.026-0.03l0.034-0.26c0.003-0.023,0.012-0.036,0.028-0.036H44.187z"/>
	<path fill="#70787D" d="M46.22,56.97c-0.107-0.168-0.196-0.344-0.266-0.527c0.008,0.1,0.013,0.197,0.017,0.295
		c0.005,0.099,0.006,0.202,0.006,0.312v1.838c0,0.008-0.003,0.016-0.01,0.024c-0.007,0.008-0.013,0.013-0.021,0.013h-0.288
		c-0.01,0-0.018-0.005-0.024-0.013c-0.006-0.009-0.011-0.017-0.011-0.024v-2.71c0-0.025,0.013-0.038,0.035-0.038h0.435
		c0.014,0,0.025,0.005,0.034,0.013c0.011,0.008,0.019,0.016,0.024,0.025l1.107,1.76c0.072,0.112,0.132,0.22,0.18,0.319
		c0.047,0.101,0.089,0.2,0.126,0.3c-0.013-0.136-0.022-0.259-0.026-0.367c-0.004-0.107-0.006-0.226-0.006-0.354v-1.657
		c0-0.025,0.012-0.038,0.035-0.038h0.285c0.007,0,0.015,0.005,0.022,0.013s0.012,0.016,0.012,0.025v2.71
		c0,0.008-0.004,0.016-0.012,0.024c-0.008,0.008-0.016,0.013-0.022,0.013h-0.377c-0.021,0-0.037-0.012-0.047-0.033L46.22,56.97z"/>
	<path fill="#70787D" d="M49.807,55.921c-0.007,0.008-0.018,0.016-0.028,0.022s-0.022,0.011-0.029,0.011h-0.153
		c-0.01,0-0.018-0.005-0.022-0.013c-0.003-0.009-0.003-0.016,0.002-0.023l0.486-0.552c0.005-0.008,0.013-0.017,0.024-0.026
		c0.013-0.01,0.022-0.014,0.033-0.014h0.291c0.011,0,0.017,0.006,0.02,0.016c0.004,0.011,0,0.021-0.007,0.028L49.807,55.921z
		 M50.05,58.887c0,0.008-0.004,0.016-0.013,0.024c-0.007,0.008-0.015,0.013-0.022,0.013h-0.319c-0.011,0-0.019-0.005-0.024-0.013
		c-0.007-0.009-0.011-0.017-0.011-0.024v-2.71c0-0.025,0.013-0.038,0.035-0.038h0.319c0.008,0,0.016,0.005,0.022,0.013
		c0.009,0.008,0.013,0.016,0.013,0.025V58.887z"/>
	<path fill="#70787D" d="M54.25,58.887c0,0.008-0.004,0.016-0.011,0.024c-0.008,0.008-0.017,0.013-0.024,0.013h-0.317
		c-0.011,0-0.02-0.005-0.026-0.013c-0.006-0.009-0.01-0.017-0.01-0.024v-2.71c0-0.025,0.012-0.038,0.036-0.038h1.619
		c0.014,0,0.022,0.013,0.027,0.036l0.027,0.243c0,0.021-0.011,0.032-0.027,0.032c-0.06,0-0.125-0.001-0.199-0.002
		c-0.072-0.001-0.147-0.003-0.224-0.003c-0.074,0-0.147,0-0.223-0.002c-0.072,0-0.138-0.001-0.193-0.001
		c-0.08,0-0.16-0.001-0.241-0.002s-0.155-0.005-0.225-0.011c0.005,0.077,0.009,0.156,0.01,0.241c0,0.084,0.001,0.162,0.001,0.233
		c0,0.159-0.004,0.313-0.011,0.456c0.06-0.005,0.127-0.009,0.203-0.012c0.078-0.002,0.159-0.003,0.247-0.003
		c0.116,0,0.211-0.001,0.289-0.002c0.076-0.002,0.129-0.002,0.157-0.002c0.018,0,0.026,0.012,0.026,0.035v0.24
		c0,0.021-0.009,0.03-0.026,0.03c-0.033,0-0.087,0-0.16-0.002c-0.073-0.003-0.167-0.005-0.282-0.005c-0.088,0-0.166,0-0.236-0.002
		c-0.071-0.001-0.145-0.004-0.218-0.009c0.007,0.171,0.011,0.356,0.011,0.559V58.887z"/>
	<path fill="#70787D" d="M58.158,56.048c0.179,0,0.352,0.031,0.517,0.098c0.166,0.063,0.313,0.156,0.439,0.281
		c0.127,0.123,0.229,0.272,0.304,0.451c0.076,0.178,0.113,0.38,0.113,0.609c0,0.224-0.034,0.426-0.102,0.609
		c-0.068,0.182-0.163,0.339-0.285,0.469s-0.267,0.231-0.434,0.303c-0.17,0.07-0.353,0.106-0.553,0.106
		c-0.188,0-0.364-0.035-0.529-0.105c-0.166-0.069-0.312-0.169-0.435-0.297c-0.125-0.129-0.223-0.284-0.295-0.468
		c-0.073-0.184-0.107-0.389-0.107-0.617c0-0.224,0.036-0.424,0.11-0.601c0.075-0.179,0.175-0.329,0.301-0.452
		c0.126-0.124,0.271-0.218,0.436-0.285C57.802,56.082,57.975,56.048,58.158,56.048 M58.158,58.654c0.154,0,0.289-0.028,0.405-0.086
		c0.117-0.056,0.215-0.135,0.295-0.238c0.079-0.103,0.14-0.225,0.18-0.367c0.038-0.145,0.06-0.303,0.06-0.476
		c0-0.189-0.025-0.354-0.072-0.493c-0.047-0.14-0.112-0.256-0.196-0.346c-0.084-0.094-0.182-0.161-0.296-0.208
		s-0.239-0.068-0.372-0.068c-0.13,0-0.253,0.021-0.367,0.065c-0.113,0.046-0.214,0.113-0.299,0.206
		c-0.084,0.092-0.15,0.208-0.199,0.349c-0.048,0.141-0.073,0.306-0.073,0.495c0,0.17,0.021,0.327,0.062,0.47
		c0.041,0.142,0.102,0.264,0.181,0.368c0.079,0.104,0.178,0.185,0.292,0.242C57.873,58.625,58.006,58.654,58.158,58.654z"/>
	<path fill="#70787D" d="M61.772,56.97c-0.107-0.168-0.194-0.344-0.266-0.527c0.008,0.1,0.013,0.197,0.019,0.295
		c0.003,0.099,0.005,0.202,0.005,0.312v1.838c0,0.008-0.003,0.016-0.011,0.024c-0.006,0.008-0.013,0.013-0.021,0.013H61.21
		c-0.009,0-0.018-0.005-0.023-0.013c-0.008-0.009-0.011-0.017-0.011-0.024v-2.71c0-0.025,0.013-0.038,0.034-0.038h0.436
		c0.013,0,0.024,0.005,0.034,0.013c0.012,0.008,0.019,0.016,0.023,0.025l1.108,1.76c0.072,0.112,0.133,0.22,0.179,0.319
		c0.048,0.101,0.09,0.2,0.126,0.3c-0.014-0.136-0.021-0.259-0.025-0.367c-0.004-0.107-0.007-0.226-0.007-0.354v-1.657
		c0-0.025,0.012-0.038,0.036-0.038h0.284c0.008,0,0.015,0.005,0.022,0.013s0.012,0.016,0.012,0.025v2.71
		c0,0.008-0.004,0.016-0.012,0.024c-0.008,0.008-0.015,0.013-0.022,0.013h-0.377c-0.021,0-0.037-0.012-0.047-0.033L61.772,56.97z"/>
	<path fill="#70787D" d="M66.122,58.611c0.133,0,0.26-0.02,0.38-0.058c0.119-0.038,0.223-0.101,0.312-0.186
		c0.089-0.086,0.158-0.196,0.212-0.333c0.053-0.137,0.077-0.304,0.077-0.501c0-0.151-0.018-0.295-0.057-0.427
		c-0.038-0.134-0.1-0.249-0.183-0.346c-0.084-0.098-0.19-0.174-0.322-0.229c-0.131-0.056-0.287-0.082-0.473-0.082
		c-0.071,0-0.151-0.001-0.24-0.002s-0.167-0.005-0.237-0.011c0.008,0.159,0.012,0.319,0.012,0.485v1.085
		c0,0.121,0,0.231-0.001,0.329c-0.001,0.099-0.005,0.193-0.011,0.286c0.101-0.006,0.19-0.009,0.27-0.01
		C65.94,58.611,66.027,58.611,66.122,58.611 M65.249,58.924c-0.011,0-0.02-0.005-0.024-0.013c-0.008-0.009-0.011-0.017-0.011-0.024
		v-2.71c0-0.025,0.012-0.038,0.035-0.038h0.85c0.216,0,0.412,0.032,0.588,0.094c0.176,0.063,0.326,0.155,0.45,0.276
		s0.221,0.27,0.286,0.445c0.067,0.174,0.1,0.374,0.1,0.596c0,0.227-0.034,0.425-0.102,0.596s-0.163,0.314-0.286,0.431
		c-0.123,0.115-0.271,0.201-0.441,0.26c-0.17,0.058-0.357,0.088-0.563,0.088H65.249z"/>
	<path fill="#70787D" d="M19.88,62.391c0.023-0.023,0.043-0.036,0.058-0.036h0.15c0.01,0,0.017,0.003,0.02,0.013
		c0.002,0.007,0,0.016-0.008,0.023l-0.465,0.556c-0.023,0.023-0.045,0.036-0.063,0.036H19.41c-0.022,0-0.043-0.013-0.061-0.036
		l-0.459-0.556c-0.005-0.008-0.005-0.017-0.001-0.023c0.004-0.01,0.012-0.013,0.021-0.013h0.162c0.015,0,0.035,0.013,0.058,0.036
		l0.378,0.362L19.88,62.391z M19.311,65.084c-0.057,0.081-0.105,0.151-0.147,0.211c-0.043,0.059-0.081,0.109-0.111,0.153
		c-0.033,0.044-0.063,0.083-0.091,0.117c-0.029,0.034-0.056,0.066-0.08,0.099c0.13-0.005,0.265-0.01,0.407-0.012
		c0.141-0.004,0.28-0.004,0.418-0.004c0.124,0,0.257-0.002,0.399-0.005c0.143-0.002,0.275-0.003,0.398-0.003
		c0.023,0,0.033,0.013,0.031,0.039l-0.031,0.239c-0.005,0.022-0.018,0.032-0.034,0.032h-2.083c-0.01,0-0.021-0.008-0.031-0.023
		s-0.015-0.033-0.015-0.051c0-0.017,0.005-0.031,0.015-0.044l1.275-1.834c0.054-0.076,0.1-0.141,0.138-0.195
		c0.039-0.054,0.073-0.102,0.104-0.142c0.031-0.04,0.06-0.076,0.086-0.104c0.024-0.029,0.051-0.058,0.076-0.087
		c-0.131,0.005-0.263,0.009-0.395,0.01s-0.261,0.003-0.383,0.003c-0.123,0-0.25,0-0.384,0.003c-0.131,0.002-0.259,0.004-0.382,0.004
		c-0.025,0-0.036-0.011-0.031-0.031l0.031-0.257c0.003-0.023,0.013-0.035,0.03-0.035h1.994c0.016,0,0.026,0.007,0.036,0.018
		c0.009,0.012,0.013,0.026,0.013,0.042s-0.003,0.031-0.011,0.047L19.311,65.084z"/>
	<path fill="#70787D" d="M22.557,65.915c0,0.009-0.004,0.017-0.013,0.024c-0.008,0.008-0.014,0.012-0.021,0.012h-0.32
		c-0.011,0-0.019-0.004-0.025-0.012c-0.006-0.008-0.009-0.016-0.009-0.024v-2.709c0-0.026,0.011-0.039,0.034-0.039h0.32
		c0.008,0,0.014,0.004,0.021,0.012c0.009,0.008,0.013,0.017,0.013,0.027V65.915z"/>
	<path fill="#70787D" d="M25.02,65.951c-0.024,0-0.041-0.012-0.046-0.036l-0.988-2.685c-0.016-0.042-0.004-0.063,0.034-0.063h0.331
		c0.008,0,0.017,0.004,0.027,0.012c0.01,0.008,0.016,0.017,0.019,0.027l0.612,1.736c0.041,0.118,0.079,0.234,0.113,0.35
		c0.034,0.116,0.063,0.229,0.087,0.343c0.049-0.226,0.113-0.457,0.196-0.692l0.608-1.736c0.01-0.026,0.025-0.039,0.045-0.039h0.305
		c0.039,0,0.05,0.021,0.035,0.063l-0.989,2.685c-0.003,0.009-0.008,0.017-0.016,0.024s-0.017,0.012-0.022,0.012H25.02z"/>
	<path fill="#70787D" d="M29.065,63.076c0.18,0,0.353,0.032,0.519,0.098c0.165,0.063,0.311,0.158,0.439,0.281
		c0.126,0.124,0.228,0.274,0.303,0.451c0.075,0.178,0.113,0.382,0.113,0.61c0,0.224-0.034,0.426-0.102,0.608
		c-0.068,0.184-0.163,0.339-0.285,0.47c-0.121,0.13-0.267,0.231-0.435,0.302c-0.167,0.07-0.353,0.106-0.553,0.106
		c-0.187,0-0.364-0.035-0.529-0.105c-0.166-0.069-0.31-0.168-0.434-0.297c-0.125-0.128-0.223-0.285-0.296-0.468
		c-0.071-0.183-0.107-0.388-0.107-0.616c0-0.225,0.037-0.425,0.111-0.602c0.075-0.178,0.175-0.329,0.302-0.452
		c0.124-0.124,0.271-0.219,0.435-0.285C28.711,63.11,28.885,63.076,29.065,63.076 M29.065,65.683c0.154,0,0.289-0.027,0.406-0.084
		s0.216-0.137,0.295-0.238c0.078-0.103,0.14-0.226,0.178-0.369c0.041-0.144,0.061-0.301,0.061-0.475c0-0.19-0.023-0.354-0.071-0.494
		c-0.047-0.14-0.112-0.255-0.195-0.347c-0.084-0.093-0.183-0.161-0.298-0.207c-0.114-0.046-0.237-0.069-0.37-0.069
		c-0.132,0-0.254,0.022-0.369,0.067c-0.113,0.046-0.213,0.113-0.297,0.206c-0.086,0.091-0.152,0.206-0.2,0.349
		c-0.049,0.14-0.073,0.305-0.073,0.495c0,0.17,0.02,0.326,0.061,0.469c0.043,0.142,0.103,0.265,0.182,0.368s0.178,0.186,0.293,0.243
		S28.914,65.683,29.065,65.683z"/>
	<path fill="#70787D" d="M34.059,63.167c0.019,0,0.026,0.011,0.026,0.031v0.269c0,0.019-0.008,0.027-0.026,0.027
		c-0.072,0-0.148,0-0.228-0.004c-0.079-0.003-0.155-0.004-0.227-0.004c-0.174,0-0.347-0.003-0.517-0.012
		c0.008,0.148,0.013,0.293,0.013,0.438v2.003c0,0.009-0.005,0.017-0.013,0.024c-0.007,0.008-0.016,0.012-0.022,0.012h-0.319
		c-0.01,0-0.019-0.004-0.024-0.012c-0.007-0.008-0.011-0.016-0.011-0.024v-2.011c0-0.147,0.004-0.29,0.012-0.43
		c-0.153,0.009-0.309,0.012-0.466,0.012c-0.089,0-0.174,0.001-0.255,0.004c-0.082,0.004-0.166,0.004-0.257,0.004
		c-0.022,0-0.032-0.011-0.026-0.031l0.033-0.261c0.003-0.023,0.013-0.035,0.029-0.035H34.059z"/>
	<path fill="#70787D" d="M36.092,63.999c-0.107-0.168-0.196-0.345-0.267-0.528c0.008,0.1,0.013,0.199,0.019,0.296
		c0.003,0.098,0.006,0.201,0.006,0.312v1.837c0,0.009-0.004,0.017-0.012,0.024c-0.006,0.008-0.013,0.012-0.021,0.012H35.53
		c-0.011,0-0.02-0.004-0.026-0.012c-0.006-0.008-0.01-0.016-0.01-0.024v-2.709c0-0.026,0.013-0.039,0.036-0.039h0.434
		c0.013,0,0.024,0.004,0.035,0.012c0.01,0.008,0.018,0.017,0.023,0.027l1.108,1.76c0.072,0.113,0.132,0.219,0.179,0.319
		s0.089,0.2,0.125,0.301c-0.013-0.138-0.021-0.261-0.025-0.368s-0.005-0.226-0.005-0.354v-1.657c0-0.026,0.01-0.039,0.034-0.039
		h0.285c0.008,0,0.016,0.004,0.021,0.012c0.008,0.008,0.013,0.017,0.013,0.027v2.709c0,0.009-0.005,0.017-0.013,0.024
		c-0.006,0.008-0.014,0.012-0.021,0.012h-0.377c-0.021,0-0.037-0.01-0.048-0.032L36.092,63.999z"/>
	<path fill="#70787D" d="M39.679,62.951c-0.008,0.007-0.017,0.014-0.028,0.021c-0.012,0.006-0.021,0.011-0.029,0.011h-0.153
		c-0.011,0-0.018-0.005-0.022-0.013c-0.003-0.009-0.003-0.015,0.003-0.023l0.485-0.552c0.005-0.008,0.013-0.016,0.024-0.025
		c0.013-0.009,0.022-0.015,0.033-0.015h0.292c0.01,0,0.017,0.007,0.019,0.017c0.003,0.011,0,0.02-0.007,0.026L39.679,62.951z
		 M39.923,65.915c0,0.009-0.005,0.017-0.014,0.024c-0.008,0.008-0.015,0.012-0.022,0.012h-0.319c-0.01,0-0.018-0.004-0.024-0.012
		c-0.006-0.008-0.01-0.016-0.01-0.024v-2.709c0-0.026,0.011-0.039,0.034-0.039h0.319c0.008,0,0.015,0.004,0.022,0.012
		c0.009,0.008,0.014,0.017,0.014,0.027V65.915z"/>
	<path fill="#70787D" d="M43.163,64.303c0.139,0,0.269,0.005,0.389,0.013c-0.008-0.161-0.011-0.327-0.011-0.498v-0.611
		c0-0.026,0.011-0.039,0.034-0.039h0.322c0.008,0,0.016,0.004,0.023,0.012s0.013,0.017,0.013,0.027v2.709
		c0,0.009-0.005,0.017-0.013,0.024s-0.016,0.012-0.023,0.012h-0.322c-0.011,0-0.019-0.004-0.025-0.012
		c-0.006-0.008-0.009-0.016-0.009-0.024v-0.737c0-0.188,0.003-0.374,0.011-0.555c-0.077,0.005-0.143,0.008-0.197,0.008
		c-0.057,0-0.117,0-0.184,0h-0.717c-0.066,0-0.126,0-0.183,0c-0.056,0-0.12-0.003-0.197-0.008c0.008,0.181,0.012,0.366,0.012,0.555
		v0.737c0,0.009-0.004,0.017-0.012,0.024s-0.016,0.012-0.023,0.012h-0.319c-0.011,0-0.019-0.004-0.025-0.012
		c-0.006-0.008-0.01-0.016-0.01-0.024v-2.709c0-0.026,0.012-0.039,0.035-0.039h0.319c0.008,0,0.016,0.004,0.023,0.012
		s0.012,0.017,0.012,0.027v0.611c0,0.171-0.004,0.337-0.012,0.498c0.118-0.008,0.247-0.013,0.389-0.013H43.163z"/>
	<path fill="#70787D" d="M46.955,63.076c0.18,0,0.352,0.032,0.517,0.098c0.167,0.063,0.313,0.158,0.44,0.281
		c0.126,0.124,0.228,0.274,0.304,0.451c0.074,0.178,0.113,0.382,0.113,0.61c0,0.224-0.034,0.426-0.103,0.608
		c-0.068,0.184-0.162,0.339-0.285,0.47c-0.121,0.13-0.266,0.231-0.435,0.302c-0.168,0.07-0.351,0.106-0.552,0.106
		c-0.187,0-0.363-0.035-0.529-0.105c-0.165-0.069-0.311-0.168-0.435-0.297c-0.125-0.128-0.223-0.285-0.295-0.468
		s-0.107-0.388-0.107-0.616c0-0.225,0.038-0.425,0.111-0.602c0.074-0.178,0.175-0.329,0.3-0.452
		c0.126-0.124,0.271-0.219,0.436-0.285C46.6,63.11,46.772,63.076,46.955,63.076 M46.955,65.683c0.153,0,0.289-0.027,0.406-0.084
		s0.215-0.137,0.294-0.238c0.08-0.103,0.14-0.226,0.179-0.369c0.04-0.144,0.061-0.301,0.061-0.475c0-0.19-0.024-0.354-0.072-0.494
		s-0.112-0.255-0.196-0.347c-0.083-0.093-0.181-0.161-0.296-0.207c-0.113-0.046-0.239-0.069-0.371-0.069
		c-0.131,0-0.253,0.022-0.367,0.067c-0.115,0.046-0.214,0.113-0.299,0.206c-0.084,0.091-0.151,0.206-0.2,0.349
		c-0.049,0.14-0.074,0.305-0.074,0.495c0,0.17,0.022,0.326,0.063,0.469c0.04,0.142,0.1,0.265,0.181,0.368
		c0.078,0.104,0.178,0.186,0.292,0.243C46.671,65.654,46.804,65.683,46.955,65.683z"/>
	<path fill="#70787D" d="M52.734,64.591c0.208,0,0.364-0.045,0.467-0.136c0.104-0.091,0.155-0.232,0.155-0.424
		c0-0.079-0.01-0.154-0.029-0.223c-0.021-0.07-0.054-0.13-0.099-0.181c-0.045-0.049-0.104-0.089-0.175-0.118
		s-0.159-0.043-0.263-0.043c-0.066,0-0.134-0.001-0.201-0.002c-0.068-0.001-0.136-0.005-0.202-0.01
		c0.003,0.037,0.004,0.078,0.006,0.126c0.001,0.047,0.002,0.097,0.003,0.148c0.001,0.051,0.003,0.102,0.003,0.151
		c0,0.051,0,0.095,0,0.135c0,0.045,0,0.092,0,0.143c0,0.052-0.002,0.104-0.003,0.159c-0.001,0.053-0.002,0.104-0.003,0.153
		c-0.002,0.049-0.003,0.091-0.006,0.128c0.056-0.005,0.114-0.008,0.177-0.008C52.626,64.591,52.682,64.591,52.734,64.591
		 M52.761,64.887c-0.154,0-0.277-0.004-0.373-0.012c0.005,0.079,0.008,0.164,0.009,0.257c0.001,0.091,0.003,0.184,0.003,0.274v0.509
		c0,0.009-0.005,0.017-0.012,0.024c-0.008,0.008-0.016,0.012-0.023,0.012h-0.319c-0.01,0-0.019-0.004-0.025-0.012
		s-0.01-0.016-0.01-0.024v-2.696c0-0.014,0.004-0.025,0.013-0.036c0.008-0.01,0.015-0.016,0.022-0.016h0.758
		c0.167,0,0.311,0.023,0.434,0.071c0.122,0.048,0.223,0.11,0.3,0.188c0.078,0.08,0.138,0.172,0.175,0.276
		c0.039,0.105,0.058,0.216,0.058,0.331c0,0.129-0.021,0.246-0.063,0.35c-0.042,0.104-0.106,0.194-0.19,0.269
		c-0.085,0.074-0.188,0.132-0.315,0.173C53.073,64.866,52.928,64.887,52.761,64.887z"/>
	<path fill="#70787D" d="M56.109,63.467c-0.134,0-0.266-0.004-0.396-0.012c0.002,0.037,0.005,0.082,0.006,0.134
		s0.003,0.106,0.004,0.162c0,0.055,0.001,0.11,0.001,0.164s0,0.101,0,0.14c0,0.163-0.004,0.323-0.011,0.48
		c0.035-0.002,0.078-0.005,0.128-0.007c0.05-0.003,0.103-0.005,0.157-0.005c0.23,0,0.398-0.051,0.504-0.151
		c0.104-0.102,0.158-0.24,0.158-0.416c0-0.15-0.046-0.269-0.136-0.357C56.436,63.511,56.298,63.467,56.109,63.467 M55.93,64.809
		c-0.021,0-0.054-0.001-0.099-0.003c-0.045-0.001-0.086-0.002-0.12-0.005c0.004,0.083,0.008,0.171,0.01,0.26
		c0.003,0.089,0.004,0.18,0.004,0.271v0.583c0,0.009-0.004,0.017-0.011,0.024c-0.008,0.008-0.016,0.012-0.024,0.012h-0.317
		c-0.011,0-0.021-0.004-0.026-0.012c-0.007-0.008-0.011-0.016-0.011-0.024v-2.696c0-0.014,0.005-0.025,0.013-0.036
		c0.008-0.01,0.016-0.016,0.024-0.016h0.784c0.156,0,0.292,0.02,0.408,0.062c0.115,0.041,0.211,0.097,0.285,0.166
		c0.073,0.069,0.128,0.151,0.165,0.246c0.036,0.095,0.054,0.196,0.054,0.305c0,0.105-0.022,0.206-0.065,0.297
		c-0.044,0.09-0.102,0.169-0.173,0.236c-0.072,0.067-0.154,0.121-0.247,0.162c-0.092,0.04-0.188,0.064-0.288,0.072
		c0.049,0.011,0.103,0.036,0.161,0.074c0.06,0.04,0.121,0.09,0.186,0.146c0.066,0.059,0.135,0.124,0.204,0.198
		c0.069,0.073,0.138,0.15,0.207,0.233c0.107,0.123,0.199,0.227,0.275,0.311s0.135,0.137,0.175,0.157
		c0.016,0.006,0.023,0.023,0.023,0.056c0,0.042-0.017,0.063-0.051,0.063h-0.354c-0.025,0-0.05-0.008-0.074-0.025
		c-0.022-0.018-0.056-0.056-0.099-0.117c-0.085-0.102-0.173-0.211-0.266-0.328s-0.184-0.226-0.272-0.326
		c-0.087-0.1-0.173-0.183-0.255-0.248C56.074,64.84,55.999,64.809,55.93,64.809z"/>
	<path fill="#70787D" d="M60.145,63.076c0.179,0,0.352,0.032,0.517,0.098c0.166,0.063,0.313,0.158,0.439,0.281
		c0.127,0.124,0.229,0.274,0.304,0.451c0.076,0.178,0.113,0.382,0.113,0.61c0,0.224-0.034,0.426-0.102,0.608
		c-0.068,0.184-0.163,0.339-0.285,0.47c-0.122,0.13-0.267,0.231-0.435,0.302c-0.169,0.07-0.352,0.106-0.552,0.106
		c-0.188,0-0.364-0.035-0.529-0.105c-0.166-0.069-0.312-0.168-0.435-0.297c-0.125-0.128-0.225-0.285-0.295-0.468
		c-0.072-0.183-0.108-0.388-0.108-0.616c0-0.225,0.038-0.425,0.111-0.602c0.075-0.178,0.175-0.329,0.301-0.452
		c0.127-0.124,0.271-0.219,0.436-0.285C59.788,63.11,59.961,63.076,60.145,63.076 M60.145,65.683c0.154,0,0.288-0.027,0.405-0.084
		s0.215-0.137,0.296-0.238c0.078-0.103,0.139-0.226,0.178-0.369s0.061-0.301,0.061-0.475c0-0.19-0.025-0.354-0.072-0.494
		c-0.048-0.14-0.113-0.255-0.196-0.347c-0.083-0.093-0.182-0.161-0.296-0.207s-0.238-0.069-0.372-0.069
		c-0.13,0-0.253,0.022-0.367,0.067c-0.113,0.046-0.214,0.113-0.299,0.206c-0.084,0.091-0.15,0.206-0.199,0.349
		c-0.048,0.14-0.073,0.305-0.073,0.495c0,0.17,0.02,0.326,0.062,0.469c0.041,0.142,0.103,0.265,0.181,0.368
		c0.079,0.104,0.178,0.186,0.292,0.243C59.859,65.654,59.992,65.683,60.145,65.683z"/>
	<path fill="#70787D" d="M63.852,65.699c0.175,0,0.311-0.041,0.409-0.125c0.1-0.082,0.149-0.188,0.149-0.32
		c0-0.082-0.016-0.15-0.045-0.206c-0.03-0.055-0.072-0.103-0.129-0.144c-0.057-0.04-0.126-0.079-0.208-0.114
		s-0.174-0.076-0.277-0.121c-0.093-0.036-0.179-0.078-0.262-0.123c-0.082-0.047-0.154-0.102-0.22-0.164
		c-0.063-0.063-0.115-0.136-0.151-0.222c-0.037-0.084-0.056-0.182-0.056-0.295c0-0.101,0.019-0.197,0.058-0.292
		c0.038-0.095,0.096-0.179,0.173-0.253c0.077-0.073,0.173-0.132,0.285-0.177c0.112-0.044,0.242-0.067,0.39-0.067
		c0.263,0,0.489,0.064,0.677,0.193c0.018,0.014,0.028,0.027,0.033,0.042c0.002,0.015,0.005,0.033,0.005,0.057v0.269
		c0,0.037-0.016,0.056-0.046,0.056c-0.019,0-0.035-0.01-0.05-0.024c-0.181-0.182-0.396-0.271-0.646-0.271
		c-0.16,0-0.28,0.043-0.363,0.127c-0.085,0.086-0.126,0.188-0.126,0.306c0,0.077,0.017,0.143,0.049,0.195
		c0.031,0.055,0.074,0.102,0.127,0.141c0.052,0.04,0.113,0.074,0.184,0.106c0.07,0.031,0.145,0.063,0.223,0.094
		c0.127,0.051,0.239,0.103,0.336,0.156s0.176,0.115,0.238,0.182c0.063,0.067,0.11,0.142,0.143,0.225
		c0.031,0.082,0.048,0.177,0.048,0.282c0,0.126-0.023,0.238-0.071,0.337s-0.113,0.183-0.196,0.25
		c-0.083,0.068-0.181,0.121-0.294,0.156c-0.113,0.036-0.236,0.054-0.369,0.054c-0.093,0-0.175-0.005-0.248-0.015
		c-0.073-0.008-0.142-0.024-0.202-0.045c-0.063-0.021-0.121-0.046-0.178-0.076c-0.057-0.031-0.114-0.068-0.173-0.112
		c-0.013-0.014-0.022-0.027-0.029-0.04s-0.009-0.03-0.009-0.052V65.45c0-0.042,0.013-0.063,0.038-0.063
		c0.015,0,0.032,0.009,0.051,0.027c0.112,0.092,0.229,0.162,0.35,0.211C63.587,65.674,63.715,65.699,63.852,65.699"/>
	<path fill="#70787D" d="M68.354,63.167c0.019,0,0.027,0.011,0.027,0.031v0.269c0,0.019-0.009,0.027-0.027,0.027
		c-0.071,0-0.146,0-0.227-0.004c-0.079-0.003-0.155-0.004-0.228-0.004c-0.174,0-0.347-0.003-0.517-0.012
		c0.008,0.148,0.013,0.293,0.013,0.438v2.003c0,0.009-0.005,0.017-0.013,0.024c-0.006,0.008-0.014,0.012-0.021,0.012h-0.32
		c-0.009,0-0.018-0.004-0.023-0.012c-0.007-0.008-0.011-0.016-0.011-0.024v-2.011c0-0.147,0.005-0.29,0.012-0.43
		c-0.153,0.009-0.311,0.012-0.467,0.012c-0.089,0-0.174,0.001-0.255,0.004c-0.081,0.004-0.166,0.004-0.257,0.004
		c-0.021,0-0.031-0.011-0.025-0.031l0.034-0.261c0.002-0.023,0.011-0.035,0.026-0.035H68.354z"/>
	<path fill="#70787D" d="M70.938,62.391c0.023-0.023,0.043-0.036,0.059-0.036h0.15c0.01,0,0.016,0.003,0.018,0.013
		c0.003,0.007,0,0.016-0.006,0.023l-0.466,0.556c-0.024,0.023-0.045,0.036-0.062,0.036h-0.162c-0.023,0-0.044-0.013-0.062-0.036
		l-0.458-0.556c-0.006-0.008-0.007-0.017-0.003-0.023c0.005-0.01,0.012-0.013,0.021-0.013h0.162c0.016,0,0.034,0.013,0.058,0.036
		l0.376,0.362L70.938,62.391z M70.563,63.467c-0.133,0-0.264-0.004-0.396-0.012c0.002,0.037,0.004,0.082,0.006,0.134
		s0.004,0.106,0.004,0.162c0.002,0.055,0.002,0.11,0.002,0.164s0,0.101,0,0.14c0,0.163-0.004,0.323-0.012,0.48
		c0.036-0.002,0.08-0.005,0.129-0.007c0.049-0.003,0.102-0.005,0.156-0.005c0.23,0,0.398-0.051,0.504-0.151
		c0.104-0.102,0.158-0.24,0.158-0.416c0-0.15-0.046-0.269-0.135-0.357C70.891,63.511,70.753,63.467,70.563,63.467z M70.384,64.809
		c-0.021,0-0.053-0.001-0.099-0.003c-0.044-0.001-0.085-0.002-0.121-0.005c0.005,0.083,0.009,0.171,0.012,0.26
		s0.004,0.18,0.004,0.271v0.583c0,0.009-0.004,0.017-0.012,0.024s-0.015,0.012-0.022,0.012h-0.319c-0.011,0-0.02-0.004-0.025-0.012
		c-0.007-0.008-0.009-0.016-0.009-0.024v-2.696c0-0.014,0.003-0.025,0.011-0.036c0.008-0.01,0.016-0.016,0.023-0.016h0.784
		c0.157,0,0.292,0.02,0.408,0.062c0.115,0.041,0.211,0.097,0.285,0.166s0.129,0.151,0.165,0.246s0.054,0.196,0.054,0.305
		c0,0.105-0.021,0.206-0.064,0.297c-0.045,0.09-0.103,0.169-0.174,0.236s-0.154,0.121-0.246,0.162
		c-0.093,0.04-0.189,0.064-0.288,0.072c0.049,0.011,0.102,0.036,0.16,0.074c0.061,0.04,0.122,0.09,0.188,0.146
		c0.065,0.059,0.132,0.124,0.202,0.198c0.069,0.073,0.139,0.15,0.208,0.233c0.107,0.123,0.2,0.227,0.275,0.311
		s0.134,0.137,0.175,0.157c0.015,0.006,0.022,0.023,0.022,0.056c0,0.042-0.017,0.063-0.051,0.063h-0.354
		c-0.024,0-0.05-0.008-0.073-0.025c-0.021-0.018-0.056-0.056-0.1-0.117c-0.084-0.102-0.174-0.211-0.265-0.328
		c-0.093-0.117-0.185-0.226-0.271-0.326c-0.089-0.1-0.174-0.183-0.257-0.248C70.529,64.84,70.453,64.809,70.384,64.809z"/>
	<path fill="#70787D" d="M74.353,65.648c0.124,0,0.25-0.002,0.38-0.005c0.129-0.002,0.252-0.003,0.367-0.003
		c0.019,0,0.026,0.012,0.026,0.035l-0.03,0.243c-0.006,0.022-0.014,0.032-0.027,0.032h-1.675c-0.01,0-0.018-0.004-0.023-0.012
		c-0.007-0.008-0.011-0.016-0.011-0.024v-2.709c0-0.026,0.012-0.039,0.034-0.039h1.617c0.016,0,0.025,0.012,0.032,0.035l0.025,0.245
		c0,0.021-0.009,0.031-0.025,0.031c-0.061,0-0.127-0.001-0.2-0.002c-0.072-0.001-0.147-0.002-0.224-0.002
		c-0.077,0-0.153,0-0.225-0.002c-0.071-0.001-0.135-0.002-0.191-0.002c-0.101,0-0.187-0.001-0.258-0.002
		c-0.072-0.001-0.142-0.005-0.209-0.01c0.006,0.076,0.01,0.153,0.011,0.229c0.001,0.075,0.002,0.148,0.002,0.216
		c0,0.15-0.005,0.301-0.013,0.454c0.061-0.006,0.125-0.009,0.194-0.012c0.07-0.002,0.156-0.004,0.253-0.004
		c0.098,0,0.183-0.001,0.254-0.002c0.071-0.003,0.131-0.003,0.178-0.003c0.017,0,0.025,0.013,0.025,0.036v0.236
		c0,0.021-0.009,0.032-0.025,0.032c-0.05,0-0.111-0.001-0.184-0.002c-0.073-0.002-0.158-0.003-0.256-0.003
		c-0.083,0-0.159-0.001-0.233-0.005c-0.072-0.005-0.142-0.009-0.206-0.015c0.008,0.175,0.013,0.34,0.013,0.501
		c0,0.185-0.005,0.364-0.013,0.54c0.046-0.003,0.091-0.004,0.134-0.005c0.042-0.002,0.087-0.003,0.136-0.004
		c0.049-0.002,0.101-0.002,0.156-0.002S74.281,65.648,74.353,65.648"/>
	<path fill="#70787D" d="M77.521,65.641c0.134,0,0.261-0.021,0.38-0.059c0.119-0.037,0.223-0.099,0.313-0.186
		c0.088-0.084,0.158-0.195,0.21-0.333c0.054-0.137,0.08-0.304,0.08-0.501c0-0.151-0.02-0.295-0.058-0.428
		c-0.039-0.132-0.1-0.247-0.184-0.344c-0.083-0.098-0.191-0.174-0.321-0.229c-0.132-0.055-0.288-0.083-0.474-0.083
		c-0.071,0-0.151-0.001-0.24-0.002c-0.088-0.001-0.167-0.004-0.237-0.01c0.008,0.158,0.012,0.32,0.012,0.485v1.085
		c0,0.12,0,0.23-0.001,0.329c-0.002,0.098-0.005,0.193-0.011,0.286c0.101-0.006,0.19-0.009,0.271-0.01
		C77.339,65.642,77.426,65.641,77.521,65.641 M76.648,65.951c-0.011,0-0.02-0.004-0.025-0.012c-0.008-0.008-0.012-0.016-0.012-0.024
		v-2.709c0-0.026,0.014-0.039,0.037-0.039h0.85c0.216,0,0.411,0.031,0.587,0.095s0.325,0.155,0.45,0.276s0.22,0.269,0.287,0.443
		s0.099,0.374,0.099,0.598c0,0.227-0.034,0.425-0.102,0.595c-0.067,0.171-0.163,0.314-0.286,0.431
		c-0.124,0.115-0.27,0.201-0.441,0.26c-0.17,0.058-0.357,0.087-0.563,0.087H76.648z"/>
	<path fill="#70787D" d="M80.716,62.951c-0.007,0.007-0.017,0.014-0.028,0.021c-0.012,0.006-0.021,0.011-0.028,0.011h-0.154
		c-0.011,0-0.018-0.005-0.021-0.013c-0.004-0.009-0.003-0.015,0.002-0.023l0.484-0.552c0.005-0.008,0.014-0.016,0.026-0.025
		c0.011-0.009,0.021-0.015,0.031-0.015h0.294c0.01,0,0.016,0.007,0.019,0.017c0.003,0.011,0,0.02-0.007,0.026L80.716,62.951z
		 M80.959,65.915c0,0.009-0.005,0.017-0.011,0.024c-0.008,0.008-0.016,0.012-0.023,0.012h-0.319c-0.011,0-0.019-0.004-0.026-0.012
		c-0.006-0.008-0.009-0.016-0.009-0.024v-2.709c0-0.026,0.012-0.039,0.035-0.039h0.319c0.008,0,0.016,0.004,0.023,0.012
		c0.006,0.008,0.011,0.017,0.011,0.027V65.915z"/>
	<path fill="#70787D" d="M27.527,69.419c0.023-0.023,0.042-0.034,0.059-0.034h0.149c0.01,0,0.016,0.003,0.019,0.011
		c0.004,0.007,0,0.016-0.007,0.023l-0.466,0.556c-0.023,0.024-0.044,0.037-0.062,0.037h-0.162c-0.022,0-0.044-0.013-0.063-0.037
		l-0.457-0.556c-0.005-0.008-0.005-0.017-0.002-0.023c0.004-0.008,0.011-0.011,0.021-0.011h0.162c0.016,0,0.035,0.011,0.058,0.034
		l0.378,0.363L27.527,69.419z M27.073,73.031c-0.195,0-0.374-0.033-0.537-0.105c-0.162-0.069-0.303-0.167-0.419-0.293
		c-0.117-0.126-0.208-0.277-0.273-0.453c-0.065-0.177-0.099-0.369-0.099-0.58c0-0.206,0.033-0.398,0.099-0.579
		c0.065-0.182,0.158-0.34,0.283-0.476c0.123-0.135,0.273-0.242,0.45-0.32c0.177-0.08,0.375-0.119,0.597-0.119
		c0.156,0,0.299,0.019,0.431,0.058c0.131,0.037,0.241,0.09,0.33,0.155c0.019,0.013,0.029,0.027,0.035,0.044
		c0.005,0.015,0.008,0.035,0.008,0.059v0.265c0,0.041-0.017,0.063-0.05,0.063c-0.014,0-0.029-0.009-0.05-0.024
		c-0.09-0.087-0.196-0.154-0.318-0.203c-0.121-0.049-0.25-0.072-0.386-0.072c-0.166,0-0.31,0.026-0.436,0.082
		c-0.126,0.055-0.231,0.133-0.317,0.232c-0.086,0.101-0.15,0.219-0.194,0.359c-0.044,0.14-0.065,0.293-0.065,0.462
		c0,0.173,0.024,0.328,0.074,0.469c0.048,0.139,0.115,0.256,0.202,0.353c0.088,0.096,0.192,0.17,0.313,0.224
		c0.12,0.053,0.253,0.078,0.396,0.078c0.146,0,0.279-0.021,0.397-0.06c0.121-0.039,0.233-0.104,0.341-0.197
		c0.021-0.013,0.036-0.019,0.048-0.019c0.029,0,0.045,0.018,0.045,0.055v0.209c0,0.023-0.004,0.041-0.01,0.052
		c-0.007,0.01-0.018,0.022-0.033,0.035c-0.111,0.084-0.235,0.146-0.369,0.187C27.432,73.011,27.268,73.031,27.073,73.031z"/>
	<path fill="#70787D" d="M30.499,72.677c0.123,0,0.25-0.002,0.38-0.005c0.13-0.002,0.251-0.003,0.367-0.003
		c0.019,0,0.027,0.012,0.027,0.034l-0.032,0.245c-0.005,0.021-0.014,0.031-0.025,0.031h-1.675c-0.011,0-0.019-0.003-0.024-0.011
		c-0.007-0.008-0.011-0.016-0.011-0.023v-2.71c0-0.026,0.013-0.04,0.035-0.04h1.616c0.016,0,0.025,0.013,0.031,0.036l0.027,0.244
		c0,0.021-0.009,0.032-0.027,0.032c-0.059,0-0.125,0-0.198-0.002c-0.074-0.002-0.148-0.003-0.225-0.003
		c-0.078,0-0.152,0-0.224-0.002c-0.073-0.001-0.137-0.002-0.193-0.002c-0.099,0-0.186,0-0.257-0.002
		c-0.071-0.001-0.143-0.005-0.208-0.009c0.005,0.076,0.008,0.152,0.009,0.229c0.002,0.077,0.002,0.148,0.002,0.216
		c0,0.151-0.004,0.301-0.011,0.454c0.058-0.006,0.123-0.009,0.195-0.012c0.07-0.002,0.152-0.004,0.251-0.004
		c0.098,0,0.182,0,0.254-0.002c0.072-0.001,0.132-0.001,0.178-0.001c0.018,0,0.026,0.011,0.026,0.034v0.237
		c0,0.021-0.009,0.031-0.026,0.031c-0.049,0-0.109-0.001-0.185-0.002c-0.071-0.002-0.157-0.002-0.255-0.002
		c-0.083,0-0.16-0.003-0.233-0.006c-0.073-0.005-0.142-0.009-0.205-0.014c0.007,0.174,0.011,0.34,0.011,0.501
		c0,0.184-0.004,0.363-0.011,0.539c0.046-0.003,0.091-0.004,0.132-0.005c0.043-0.002,0.089-0.003,0.138-0.004
		s0.102-0.002,0.156-0.002S30.428,72.677,30.499,72.677"/>
	<path fill="#70787D" d="M33.448,72.729c0.174,0,0.312-0.042,0.41-0.124c0.098-0.084,0.147-0.19,0.147-0.322
		c0-0.082-0.014-0.149-0.044-0.206c-0.029-0.055-0.072-0.103-0.129-0.143c-0.057-0.041-0.125-0.08-0.208-0.114
		c-0.081-0.036-0.175-0.076-0.277-0.12c-0.092-0.037-0.179-0.08-0.261-0.125c-0.083-0.046-0.155-0.101-0.22-0.163
		c-0.063-0.064-0.115-0.137-0.152-0.221c-0.036-0.085-0.056-0.185-0.056-0.297c0-0.1,0.02-0.197,0.058-0.292
		c0.039-0.094,0.096-0.179,0.174-0.251c0.077-0.074,0.172-0.134,0.284-0.178c0.112-0.045,0.244-0.067,0.39-0.067
		c0.264,0,0.49,0.064,0.677,0.192c0.017,0.013,0.029,0.027,0.033,0.043c0.003,0.014,0.005,0.032,0.005,0.057v0.267
		c0,0.038-0.015,0.056-0.046,0.056c-0.018,0-0.035-0.008-0.051-0.023c-0.179-0.181-0.395-0.271-0.646-0.271
		c-0.159,0-0.28,0.043-0.364,0.128c-0.083,0.086-0.125,0.188-0.125,0.307c0,0.075,0.016,0.141,0.049,0.194
		c0.032,0.055,0.074,0.101,0.126,0.141c0.054,0.039,0.114,0.074,0.185,0.106c0.071,0.03,0.146,0.063,0.222,0.093
		c0.129,0.051,0.241,0.103,0.336,0.157c0.097,0.054,0.176,0.113,0.24,0.182c0.063,0.066,0.109,0.142,0.142,0.225
		s0.048,0.177,0.048,0.282c0,0.125-0.023,0.238-0.07,0.336c-0.048,0.1-0.113,0.183-0.197,0.252c-0.083,0.068-0.181,0.12-0.294,0.154
		c-0.113,0.036-0.235,0.054-0.369,0.054c-0.092,0-0.175-0.005-0.249-0.014c-0.071-0.009-0.14-0.023-0.201-0.045
		c-0.063-0.021-0.121-0.047-0.178-0.076c-0.057-0.032-0.113-0.068-0.173-0.113c-0.013-0.013-0.022-0.026-0.028-0.039
		c-0.007-0.013-0.01-0.03-0.01-0.052v-0.218c0-0.041,0.014-0.063,0.038-0.063c0.016,0,0.032,0.009,0.051,0.028
		c0.111,0.091,0.229,0.162,0.35,0.211C33.184,72.703,33.313,72.729,33.448,72.729"/>
	<path fill="#70787D" d="M36.366,72.945c0,0.008-0.004,0.016-0.011,0.023c-0.009,0.008-0.017,0.011-0.024,0.011h-0.319
		c-0.01,0-0.019-0.003-0.024-0.011c-0.007-0.008-0.011-0.016-0.011-0.023v-2.71c0-0.026,0.013-0.04,0.035-0.04h0.319
		c0.008,0,0.016,0.005,0.024,0.013c0.007,0.008,0.011,0.017,0.011,0.027v0.647c0,0.084-0.001,0.167-0.001,0.25
		c-0.001,0.083-0.005,0.161-0.01,0.238h0.062c0.035,0,0.104-0.051,0.205-0.15s0.226-0.231,0.372-0.398
		c0.081-0.091,0.169-0.189,0.262-0.294c0.091-0.106,0.186-0.206,0.281-0.3c0.02-0.022,0.042-0.033,0.064-0.033h0.385
		c0.021,0,0.031,0.014,0.031,0.04c0,0.021-0.008,0.035-0.022,0.044c-0.029,0.016-0.067,0.044-0.116,0.088s-0.104,0.097-0.17,0.161
		c-0.064,0.063-0.134,0.134-0.211,0.214s-0.157,0.165-0.242,0.255c-0.105,0.107-0.203,0.206-0.295,0.293
		c-0.092,0.089-0.159,0.146-0.202,0.171c0.021,0.01,0.05,0.029,0.087,0.063c0.036,0.032,0.081,0.074,0.131,0.124
		c0.05,0.051,0.105,0.108,0.168,0.174c0.061,0.065,0.126,0.134,0.196,0.207c0.085,0.093,0.17,0.186,0.258,0.277
		c0.086,0.092,0.171,0.177,0.249,0.255c0.08,0.077,0.151,0.143,0.213,0.198c0.061,0.056,0.107,0.092,0.138,0.106
		c0.021,0.011,0.031,0.03,0.031,0.056c0,0.04-0.011,0.059-0.031,0.059H37.79c-0.013,0-0.026-0.003-0.04-0.01
		c-0.015-0.007-0.026-0.014-0.036-0.021c-0.11-0.104-0.225-0.22-0.341-0.347c-0.117-0.127-0.229-0.252-0.333-0.378
		c-0.072-0.085-0.14-0.163-0.205-0.235c-0.063-0.072-0.122-0.136-0.176-0.188c-0.055-0.053-0.102-0.093-0.144-0.123
		c-0.04-0.028-0.072-0.043-0.095-0.043H36.35c0.007,0.082,0.011,0.17,0.013,0.265c0.003,0.096,0.004,0.188,0.004,0.28V72.945z"/>
	<path fill="#70787D" d="M40.512,69.979c-0.007,0.008-0.017,0.014-0.027,0.021c-0.013,0.006-0.021,0.011-0.029,0.011h-0.154
		c-0.011,0-0.018-0.005-0.021-0.013c-0.004-0.009-0.003-0.017,0.002-0.024l0.485-0.552c0.005-0.008,0.013-0.017,0.024-0.025
		s0.021-0.013,0.033-0.013h0.293c0.01,0,0.016,0.005,0.018,0.015c0.003,0.011,0,0.02-0.007,0.026L40.512,69.979z M40.67,72.677
		c0.124,0,0.25-0.002,0.38-0.005c0.129-0.002,0.251-0.003,0.366-0.003c0.019,0,0.027,0.012,0.027,0.034l-0.03,0.245
		c-0.005,0.021-0.014,0.031-0.026,0.031h-1.674c-0.011,0-0.02-0.003-0.026-0.011s-0.011-0.016-0.011-0.023v-2.71
		c0-0.026,0.014-0.04,0.037-0.04h1.615c0.016,0,0.025,0.013,0.03,0.036l0.028,0.244c0,0.021-0.011,0.032-0.028,0.032
		c-0.059,0-0.124,0-0.198-0.002c-0.072-0.002-0.147-0.003-0.224-0.003c-0.078,0-0.152,0-0.224-0.002
		c-0.072-0.001-0.137-0.002-0.193-0.002c-0.101,0-0.186,0-0.257-0.002c-0.072-0.001-0.143-0.005-0.209-0.009
		c0.006,0.076,0.009,0.152,0.01,0.229c0.002,0.077,0.002,0.148,0.002,0.216c0,0.151-0.004,0.301-0.012,0.454
		c0.06-0.006,0.124-0.009,0.194-0.012c0.071-0.002,0.155-0.004,0.253-0.004s0.182,0,0.254-0.002
		c0.071-0.001,0.132-0.001,0.177-0.001c0.018,0,0.027,0.011,0.027,0.034v0.237c0,0.021-0.01,0.031-0.027,0.031
		c-0.048,0-0.109-0.001-0.183-0.002c-0.073-0.002-0.159-0.002-0.256-0.002c-0.083,0-0.159-0.003-0.233-0.006
		c-0.072-0.005-0.143-0.009-0.206-0.014c0.008,0.174,0.012,0.34,0.012,0.501c0,0.184-0.004,0.363-0.012,0.539
		c0.047-0.003,0.092-0.004,0.134-0.005c0.042-0.002,0.087-0.003,0.136-0.004s0.101-0.002,0.157-0.002
		C40.534,72.677,40.599,72.677,40.67,72.677z"/>
	<path fill="#70787D" d="M45.74,70.495c-0.134,0-0.265-0.004-0.395-0.012c0,0.037,0.004,0.083,0.005,0.135s0.002,0.106,0.004,0.161
		c0.001,0.056,0.002,0.11,0.002,0.163c0,0.055,0,0.102,0,0.142c0,0.163-0.005,0.322-0.011,0.48c0.034-0.003,0.077-0.005,0.128-0.008
		c0.05-0.003,0.103-0.004,0.155-0.004c0.232,0,0.399-0.051,0.504-0.152c0.105-0.101,0.158-0.24,0.158-0.415
		c0-0.15-0.046-0.27-0.135-0.357C46.066,70.539,45.929,70.495,45.74,70.495 M45.56,71.837c-0.021,0-0.054-0.001-0.098-0.002
		c-0.045-0.002-0.086-0.003-0.122-0.006c0.006,0.083,0.01,0.171,0.012,0.261c0.003,0.089,0.005,0.18,0.005,0.271v0.585
		c0,0.008-0.005,0.016-0.011,0.023c-0.009,0.008-0.017,0.011-0.024,0.011h-0.319c-0.011,0-0.019-0.003-0.025-0.011
		c-0.006-0.008-0.01-0.016-0.01-0.023v-2.697c0-0.014,0.004-0.025,0.012-0.037c0.008-0.01,0.016-0.016,0.023-0.016h0.785
		c0.156,0,0.293,0.021,0.408,0.062s0.211,0.097,0.285,0.166c0.073,0.069,0.129,0.152,0.164,0.246
		c0.036,0.095,0.055,0.196,0.055,0.305c0,0.106-0.021,0.205-0.065,0.297s-0.101,0.169-0.173,0.236s-0.154,0.121-0.246,0.162
		c-0.094,0.041-0.188,0.064-0.289,0.072c0.049,0.012,0.103,0.036,0.162,0.076c0.06,0.038,0.121,0.088,0.186,0.145
		c0.065,0.059,0.133,0.124,0.201,0.198c0.071,0.073,0.14,0.15,0.209,0.233c0.108,0.123,0.2,0.227,0.275,0.31
		c0.075,0.085,0.134,0.139,0.174,0.158c0.016,0.006,0.023,0.024,0.023,0.056c0,0.042-0.016,0.063-0.049,0.063h-0.354
		c-0.026,0-0.05-0.008-0.073-0.024c-0.022-0.018-0.056-0.057-0.101-0.117c-0.084-0.103-0.173-0.212-0.265-0.328
		c-0.092-0.118-0.184-0.226-0.271-0.326c-0.089-0.101-0.174-0.183-0.256-0.249C45.704,71.869,45.629,71.837,45.56,71.837z"/>
	<path fill="#70787D" d="M49.528,72.677c0.124,0,0.25-0.002,0.379-0.005c0.13-0.002,0.252-0.003,0.368-0.003
		c0.018,0,0.026,0.012,0.026,0.034l-0.03,0.245c-0.006,0.021-0.014,0.031-0.026,0.031h-1.674c-0.012,0-0.02-0.003-0.026-0.011
		c-0.005-0.008-0.009-0.016-0.009-0.023v-2.71c0-0.026,0.011-0.04,0.035-0.04h1.616c0.016,0,0.025,0.013,0.03,0.036l0.027,0.244
		c0,0.021-0.009,0.032-0.027,0.032c-0.06,0-0.125,0-0.199-0.002c-0.072-0.002-0.147-0.003-0.225-0.003c-0.076,0-0.151,0-0.224-0.002
		c-0.07-0.001-0.135-0.002-0.191-0.002c-0.101,0-0.186,0-0.258-0.002c-0.072-0.001-0.141-0.005-0.208-0.009
		c0.005,0.076,0.009,0.152,0.01,0.229c0.002,0.077,0.002,0.148,0.002,0.216c0,0.151-0.004,0.301-0.012,0.454
		c0.06-0.006,0.123-0.009,0.194-0.012c0.069-0.002,0.154-0.004,0.251-0.004c0.099,0,0.184,0,0.255-0.002
		c0.071-0.001,0.13-0.001,0.177-0.001c0.019,0,0.027,0.011,0.027,0.034v0.237c0,0.021-0.009,0.031-0.027,0.031
		c-0.049,0-0.109-0.001-0.183-0.002c-0.073-0.002-0.158-0.002-0.256-0.002c-0.082,0-0.158-0.003-0.232-0.006
		c-0.073-0.005-0.142-0.009-0.206-0.014c0.008,0.174,0.012,0.34,0.012,0.501c0,0.184-0.004,0.363-0.012,0.539
		c0.046-0.003,0.09-0.004,0.133-0.005c0.043-0.002,0.089-0.003,0.136-0.004c0.05-0.001,0.102-0.002,0.156-0.002
		C49.394,72.677,49.457,72.677,49.528,72.677"/>
	<path fill="#70787D" d="M52.513,71.619c0.207,0,0.364-0.045,0.468-0.136c0.103-0.091,0.154-0.231,0.154-0.424
		c0-0.079-0.009-0.152-0.029-0.223c-0.022-0.07-0.053-0.13-0.099-0.18c-0.045-0.05-0.104-0.089-0.175-0.118
		c-0.071-0.028-0.16-0.044-0.262-0.044c-0.066,0-0.134-0.001-0.202-0.002c-0.069-0.001-0.136-0.005-0.203-0.01
		c0.003,0.037,0.006,0.079,0.006,0.126c0.002,0.048,0.003,0.098,0.004,0.148c0.002,0.052,0.003,0.102,0.003,0.152s0,0.094,0,0.134
		c0,0.045,0,0.093,0,0.145c0,0.05-0.001,0.103-0.003,0.157c-0.001,0.054-0.002,0.104-0.004,0.153c0,0.049-0.003,0.092-0.006,0.128
		c0.058-0.005,0.116-0.008,0.178-0.008S52.461,71.619,52.513,71.619 M52.539,71.915c-0.153,0-0.277-0.004-0.374-0.012
		c0.006,0.079,0.009,0.165,0.01,0.257c0.002,0.092,0.003,0.184,0.003,0.276v0.509c0,0.008-0.005,0.016-0.013,0.023
		s-0.014,0.011-0.021,0.011h-0.32c-0.01,0-0.018-0.003-0.024-0.011c-0.006-0.008-0.011-0.016-0.011-0.023v-2.697
		c0-0.014,0.005-0.025,0.013-0.037c0.008-0.01,0.016-0.016,0.022-0.016h0.758c0.166,0,0.312,0.023,0.434,0.071
		c0.121,0.048,0.222,0.11,0.3,0.19c0.079,0.078,0.137,0.17,0.176,0.276c0.037,0.104,0.059,0.215,0.059,0.33
		c0,0.129-0.022,0.246-0.064,0.35s-0.107,0.193-0.19,0.267c-0.084,0.077-0.189,0.135-0.316,0.174
		C52.853,71.896,52.706,71.915,52.539,71.915z"/>
	<path fill="#70787D" d="M55.08,70.235c0-0.026,0.012-0.04,0.034-0.04h0.323c0.008,0,0.016,0.005,0.023,0.013
		s0.012,0.017,0.012,0.027v1.744c0,0.224,0.064,0.396,0.195,0.518c0.128,0.122,0.308,0.184,0.539,0.184
		c0.242,0,0.427-0.056,0.556-0.168c0.131-0.111,0.196-0.283,0.196-0.515v-1.763c0-0.026,0.011-0.04,0.034-0.04h0.312
		c0.008,0,0.015,0.005,0.022,0.013c0.009,0.008,0.012,0.017,0.012,0.027v1.807c0,0.149-0.027,0.286-0.083,0.407
		c-0.055,0.123-0.131,0.227-0.23,0.312c-0.099,0.086-0.218,0.152-0.357,0.2c-0.14,0.047-0.295,0.07-0.463,0.07
		c-0.167,0-0.321-0.023-0.46-0.07c-0.138-0.048-0.256-0.115-0.355-0.202c-0.099-0.087-0.175-0.191-0.229-0.314
		c-0.055-0.124-0.081-0.263-0.081-0.416V70.235z"/>
	<path fill="#70787D" d="M59.806,71.379c0.217,0,0.373-0.042,0.47-0.126c0.099-0.085,0.147-0.192,0.147-0.323
		c0-0.147-0.044-0.258-0.131-0.331c-0.088-0.073-0.224-0.11-0.413-0.11c-0.065,0-0.136,0-0.211,0c-0.074,0-0.145-0.003-0.211-0.009
		c0.008,0.156,0.01,0.306,0.01,0.45c0,0.076,0,0.154-0.001,0.232c-0.001,0.079-0.004,0.156-0.009,0.229
		c0.056-0.006,0.114-0.009,0.173-0.011C59.688,71.38,59.748,71.379,59.806,71.379 M59.114,72.979c-0.01,0-0.019-0.003-0.024-0.011
		c-0.007-0.008-0.011-0.016-0.011-0.023v-2.71c0-0.026,0.011-0.04,0.035-0.04h0.823c0.175,0,0.319,0.021,0.433,0.062
		c0.114,0.041,0.206,0.094,0.273,0.156s0.116,0.134,0.144,0.212c0.026,0.076,0.039,0.152,0.039,0.227
		c0,0.083-0.016,0.159-0.048,0.229c-0.031,0.067-0.075,0.129-0.128,0.183c-0.055,0.054-0.117,0.1-0.187,0.134
		c-0.071,0.036-0.146,0.063-0.222,0.082c0.095,0.008,0.188,0.03,0.28,0.068s0.176,0.09,0.248,0.155
		c0.073,0.066,0.133,0.145,0.175,0.237c0.044,0.091,0.066,0.193,0.066,0.303c0,0.224-0.079,0.402-0.237,0.537
		c-0.157,0.134-0.378,0.2-0.659,0.2H59.114z M60.058,72.685c0.366,0,0.549-0.164,0.549-0.489c0-0.082-0.013-0.155-0.039-0.224
		c-0.027-0.066-0.068-0.124-0.124-0.171s-0.126-0.084-0.215-0.11s-0.194-0.039-0.317-0.039c-0.075,0-0.151,0-0.229-0.002
		c-0.077-0.001-0.153-0.004-0.225-0.01c0.008,0.171,0.01,0.345,0.01,0.521s-0.002,0.354-0.01,0.536
		c0.098-0.005,0.197-0.009,0.299-0.01C59.859,72.685,59.96,72.685,60.058,72.685z"/>
	<path fill="#70787D" d="M62.999,72.685c0.115-0.005,0.23-0.01,0.346-0.014s0.229-0.007,0.343-0.007c0.12,0,0.238,0,0.355-0.002
		c0.116,0,0.233,0,0.349,0c0.021,0,0.031,0.01,0.031,0.03l-0.028,0.253c0,0.023-0.01,0.034-0.03,0.034H62.66
		c-0.011,0-0.019-0.003-0.025-0.011c-0.006-0.008-0.01-0.016-0.01-0.023v-2.71c0-0.026,0.011-0.04,0.035-0.04h0.318
		c0.008,0,0.017,0.005,0.023,0.013c0.008,0.008,0.013,0.017,0.013,0.027v1.878c0,0.092-0.002,0.184-0.005,0.278
		C63.007,72.483,63.004,72.582,62.999,72.685"/>
	<path fill="#70787D" d="M66.235,72.945c0,0.008-0.003,0.016-0.011,0.023s-0.016,0.011-0.023,0.011h-0.318
		c-0.012,0-0.021-0.003-0.026-0.011c-0.007-0.008-0.011-0.016-0.011-0.023v-2.71c0-0.026,0.013-0.04,0.037-0.04h0.318
		c0.008,0,0.016,0.005,0.023,0.013s0.011,0.017,0.011,0.027V72.945z"/>
	<path fill="#70787D" d="M68.399,72.945c0,0.008-0.003,0.016-0.011,0.023s-0.016,0.011-0.023,0.011h-0.319
		c-0.01,0-0.019-0.003-0.025-0.011s-0.01-0.016-0.01-0.023v-2.71c0-0.026,0.012-0.04,0.035-0.04h0.319
		c0.008,0,0.016,0.005,0.023,0.013s0.011,0.017,0.011,0.027v0.647c0,0.084,0,0.167-0.002,0.25c-0.001,0.083-0.004,0.161-0.009,0.238
		h0.062c0.036,0,0.104-0.051,0.206-0.15c0.101-0.1,0.225-0.231,0.37-0.398c0.083-0.091,0.17-0.189,0.263-0.294
		c0.092-0.106,0.186-0.206,0.281-0.3c0.02-0.022,0.042-0.033,0.064-0.033h0.385c0.021,0,0.031,0.014,0.031,0.04
		c0,0.021-0.008,0.035-0.022,0.044c-0.029,0.016-0.067,0.044-0.115,0.088c-0.05,0.044-0.106,0.097-0.171,0.161
		c-0.063,0.063-0.133,0.134-0.211,0.214c-0.077,0.08-0.158,0.165-0.242,0.255c-0.105,0.107-0.204,0.206-0.295,0.293
		c-0.091,0.089-0.157,0.146-0.202,0.171c0.021,0.01,0.05,0.029,0.088,0.063c0.035,0.032,0.08,0.074,0.13,0.124
		c0.05,0.051,0.106,0.108,0.167,0.174c0.062,0.065,0.127,0.134,0.196,0.207c0.085,0.093,0.171,0.186,0.258,0.277
		s0.171,0.177,0.25,0.255c0.08,0.077,0.15,0.143,0.213,0.198c0.061,0.056,0.106,0.092,0.139,0.106
		c0.02,0.011,0.029,0.03,0.029,0.056c0,0.04-0.01,0.059-0.029,0.059h-0.409c-0.013,0-0.025-0.003-0.039-0.01
		c-0.016-0.007-0.028-0.014-0.037-0.021c-0.11-0.104-0.225-0.22-0.341-0.347c-0.117-0.127-0.229-0.252-0.333-0.378
		c-0.071-0.085-0.139-0.163-0.205-0.235c-0.063-0.072-0.123-0.136-0.176-0.188c-0.055-0.053-0.103-0.093-0.142-0.123
		c-0.042-0.028-0.074-0.043-0.098-0.043h-0.068c0.004,0.082,0.009,0.17,0.012,0.265c0.002,0.096,0.003,0.188,0.003,0.28V72.945z"/>
	<path fill="#70787D" d="M72.846,72.945c0,0.008-0.003,0.016-0.012,0.023c-0.008,0.008-0.016,0.011-0.023,0.011h-0.319
		c-0.01,0-0.018-0.003-0.024-0.011c-0.006-0.008-0.009-0.016-0.009-0.023v-1.18l-1.103-1.507c-0.013-0.016-0.017-0.029-0.016-0.043
		c0.003-0.013,0.015-0.021,0.036-0.021h0.357c0.029,0,0.05,0.016,0.065,0.045l0.627,0.854c0.046,0.063,0.09,0.128,0.13,0.193
		c0.039,0.067,0.074,0.135,0.104,0.206c0.039-0.076,0.079-0.147,0.119-0.21c0.038-0.063,0.08-0.125,0.125-0.186l0.63-0.858
		c0.013-0.02,0.025-0.031,0.039-0.037c0.013-0.005,0.027-0.008,0.042-0.008h0.323c0.02,0,0.032,0.008,0.036,0.021
		c0.002,0.014-0.004,0.027-0.017,0.043l-1.112,1.507V72.945z"/>
</g>
<rect fill="none" width="100" height="100"/>
</svg>
