<?xml version="1.0" encoding="utf-8"?>
<!-- Generator: Adobe Illustrator 16.0.0, SVG Export Plug-In . SVG Version: 6.00 Build 0)  -->
<!DOCTYPE svg PUBLIC "-//W3C//DTD SVG 1.1//EN" "http://www.w3.org/Graphics/SVG/1.1/DTD/svg11.dtd">
<svg version="1.1" id="Vrstva_1" xmlns="http://www.w3.org/2000/svg" xmlns:xlink="http://www.w3.org/1999/xlink" x="0px" y="0px"
	 width="100px" height="100px" viewBox="0 0 100 100" enable-background="new 0 0 100 100" xml:space="preserve">
<g>
	<path fill-rule="evenodd" clip-rule="evenodd" fill="#FFFFFF" d="M49.974,19.954c15.696,0,28.427,12.715,28.427,28.392
		c0,15.678-12.73,28.393-28.427,28.393c-15.697,0-28.427-12.715-28.427-28.393C21.547,32.669,34.276,19.954,49.974,19.954"/>
	<path fill-rule="evenodd" clip-rule="evenodd" fill="#231F20" d="M49.974,19.669c15.845,0,28.696,12.834,28.696,28.661
		c0,15.826-12.852,28.662-28.696,28.662c-15.848,0-28.697-12.836-28.697-28.662C21.276,32.504,34.126,19.669,49.974,19.669
		 M49.987,20.141c15.595,0,28.244,12.632,28.244,28.207S65.582,76.553,49.987,76.553c-15.597,0-28.245-12.631-28.245-28.206
		S34.391,20.141,49.987,20.141z"/>
	<path fill-rule="evenodd" clip-rule="evenodd" fill="#231F20" d="M71.772,50.294c3.565-11.132-2.223-23.158-13.289-27.358
		c-10.333-3.923-21.756,0.368-27.077,9.658c-1.91,0.13-2.888,0.159-3.662,0.35c0.813,0.943,2.05,2.132,2.29,2.551l-0.139,0.275
		c-4.348,11.434,1.406,24.224,12.845,28.568c9.209,3.496,19.294,0.455,25.148-6.822c0.178-0.219,0.239-0.221,0.407-0.449
		c3.741-0.697,5.318,0.77,6.751,1.502c0.084,0.043,0.311-0.803,0.401-0.771C75.215,56.963,74.052,53.205,71.772,50.294
		 M49.882,21.196c15.016,0,27.193,12.178,27.193,27.193c0,15.016-12.177,27.193-27.193,27.193
		c-15.016,0-27.193-12.178-27.193-27.193C22.688,33.374,34.866,21.196,49.882,21.196z"/>
	<path fill="#FBBA00" d="M59.64,32.702c1.68-4.414-0.542-9.354-4.962-11.033c-4.418-1.677-9.362,0.541-11.042,4.958
		c-1.678,4.414,0.542,9.354,4.964,11.033C53.017,39.338,57.963,37.116,59.64,32.702"/>
	<path fill-rule="evenodd" clip-rule="evenodd" fill="#231F20" d="M46.84,55.197c0.835,0.498,1.681,0.408,2.515-0.088
		c1.417-0.527,2.715-2.188,3.943-4.553c0.182-0.389,0.607-0.077,0.418,0.252c-0.326,0.609-0.836,1.443-1.698,2.781
		c-0.572,0.809-1.431,1.574-3.074,2.23c-0.937,0.34-1.78,0.273-2.484-0.385c-0.889-1.465-0.686-2.453-0.307-3.419
		c0.647-1.258,1.424-2.377,2.265-3.328l0.687-0.747c0.311-0.335,0.75-0.023,0.242,0.46l-0.614,0.719
		c-1.049,1.126-1.774,2.271-2.251,3.361C46.231,53.354,46.247,54.248,46.84,55.197 M43.884,55.893l0.942-0.775
		c0.103-0.105,0.638-0.549,0.823-0.295c0.188,0.25-0.624,0.734-0.892,0.957c-0.268,0.221-0.993,0.795-1.191,0.58
		C43.361,56.139,43.755,55.963,43.884,55.893z M47.391,56.43c0.062,0.07,0.382,0.006-0.396,1.633l-0.729,1.588
		c-0.073,0.195-0.146,0.23-0.231,0.178l0.005-0.383l1.089-2.807L47.391,56.43z M50.429,56.229l-0.062-0.369l0.134-0.252
		c0.094-0.025,0.206-0.061,0.272,0.246c0.065,0.309,0.289,1.162,0.28,1.506c-0.009,0.34-0.094,0.773-0.091,0.877l-0.018,0.477
		l-0.099,0.309c-0.148-0.037-0.187-0.254-0.226-0.473c-0.04-0.217,0.132-0.881,0.048-1.137C50.58,57.158,50.51,56.379,50.429,56.229
		z M53.886,51.375l0.279-0.326c0.172,0.033,2.673,0.056,3.438-0.334c0.769-0.388,2.046-1.141,2.484-1.409
		c0.443-0.266,3.21-2.336,4.25-2.375c1.037-0.041,2.728,0.478,4.248,1.767c1.522,1.29,2.562,2.707,2.894,3.143
		c0.33,0.432,1.251,1.836,1.121,1.939c-0.135,0.104-1.808-2.418-2.581-3.238c-0.77-0.816-2.151-1.99-2.813-2.367
		c-0.659-0.375-1.695-0.827-1.695-0.827s1.29,2.623,1.392,3.342c0.096,0.717,0.135,2.494,0.062,3.086
		c-0.07,0.592-0.209,1.775-0.345,1.723c-0.133-0.053,0.012-3.368-0.268-4.588c-0.279-1.216-0.919-2.79-1.163-3.038
		c-0.248-0.248-0.901-0.807-1.378,0.525c-0.479,1.339-1.017,2.837-1.515,3.821c-0.498,0.986-2.242,3.941-2.459,3.705
		c-0.221-0.238,1.902-3.547,2.234-4.254c0.331-0.709,1.456-3.748,1.456-3.748l-3.482,1.988c0,0-1.727,1.046-2.383,1.228
		c-0.659,0.185-2.268,0.502-2.825,0.507C54.277,51.647,54.043,51.619,53.886,51.375z M52.387,42.792
		c0.533-0.196,1.193-0.073,2.143,0.372c0.45,0.205,0.462,0.443,0.481,0.767c0.009,0.494-0.314,0.831-0.481,1.075
		c-0.093,0.096-0.127,0.177-0.242,0.158l0.101-0.614c0.274-0.607,0.251-0.617,0.116-0.85c-0.302-0.45-1.078-0.781-1.95-0.771
		l-0.209-0.08C52.331,42.838,52.345,42.811,52.387,42.792z M55.586,45.944c0.079-0.209-0.024-0.441-0.232-0.522
		c-0.208-0.077-0.44,0.026-0.523,0.236c-0.077,0.209,0.027,0.442,0.237,0.52C55.274,46.258,55.509,46.153,55.586,45.944z
		 M30.782,33.772c-0.142-0.194,4.565-0.124,5.481,0.069c0.918,0.195,4.959,0.801,6.517,2.074c1.56,1.273,1.87,3.06,2.11,4.543
		c0.242,1.483,0.734,4.424,1.156,5.265c0.425,0.841,1.314,2.077,1.434,2.245l0.267,0.445c-0.124,0.164-0.451,0.134-0.87-0.24
		c-0.409-0.375-1.748-2.645-2.227-5.704c-0.477-3.057-0.637-4.263-0.958-4.878c-0.321-0.618-1.035-1.349-1.035-1.349
		s-1.533,2.972-1.833,3.757c-0.297,0.782-0.918,2.991-1.048,3.498c-0.135,0.504-0.449,1.992-0.639,1.92
		c-0.189-0.07,0.722-4.178,1.104-5.022c0.385-0.845,1.945-4.301,1.945-4.301s-3.875,0.907-5.071,1.537
		c-1.199,0.626-4.653,2.625-4.925,2.769c-0.27,0.146-0.388,0.132-0.438,0.02c-0.052-0.113,4.161-2.719,5.123-3.222
		c0.965-0.498,2.681-1.022,3.189-1.139c0.507-0.118,1.482-0.396,1.482-0.396s-2.894-0.942-3.9-1.141
		c-1.01-0.196-4.256-0.531-4.878-0.521C32.145,34.013,30.901,33.942,30.782,33.772z M47.154,45.396
		c0.999,1.86,2.869,1.652,3.905,0.695c1.105-1.02,1.278-2.883-1.282-3.755c1.496-0.163,2.892-0.167,4.124,0.076
		c1.573,0.312,1.756,1.052,1.674,1.599c-0.33,1.074,0.245,1.012,0.34,0.838c1.082-1.286,2.258-1.683,3.527-1.189
		C58,44.207,57.606,44.667,57.34,45.47l-0.013,0.265l0.465-0.022l0.45,0.279l-0.172,0.531l-0.624,0.854l-0.157-0.425
		c-0.108-0.097-0.346-0.22-0.563-0.28c-0.232-0.062-0.219-0.009-0.954-0.06c-0.127,0.01-0.196,0.039-0.237,0.15l-0.344,0.771
		c-0.026,0.092,0.131,0.121,0.192,0.14c0.318,0.077,0.629,0.129,0.934,0.123c0.351,0.017,0.294-0.309,0.021-0.366
		c-0.214-0.036-0.396,0.04-0.519-0.102l0.163-0.356l0.403,0.088l0.176-0.001l0.119,0.202l0.354-0.188l0.073,0.359l-0.182,0.264
		c-0.037,0.253-0.069,0.425-0.5,0.564c-0.51,0.158-0.583,0.194-1.324,0.156l-0.467,0.198c-0.123,0.342-0.232,0.669-0.311,0.956
		c-0.154,0.72,0.087,0.735,0.914,0.875c3.438-0.14,5.316-3.325,8.417-4.103c0.38-0.078,0.423-0.057,0.4-0.405
		c-0.004-0.786-0.065-0.901,0.454-0.89c0.396,0.009,0.611,0.208,0.802,0.431l-0.377-0.084l-0.506,0.045l0.027,0.611l0.383,0.204
		c5.88-0.032,9.172,8.835,10.225,11.802c-3.229-2.354-6.562-2.197-8.928-0.322c-0.446-2.697-3.815-2.297-7.095-0.148
		c-0.896-2.615-5.583-1.766-7.663,1.18l-0.005,0.26l0.819,0.246l0.4,0.348l-0.109,0.207c-0.121-0.277-0.846-0.488-0.904-0.203
		l-0.027,0.539l-0.357,0.373l-0.088-0.232l0.141-0.424L50.996,59.5l-0.408,0.266l-0.505,0.588l0.031-0.367l0.268-0.654
		c-1.745-0.178-3.515,0.467-5.299,1.729c-0.12-2.426-0.868-3.662-1.97-4.232l-0.524,0.945l-0.205,0.139l0.066-0.414l0.174-0.451
		l-0.104-0.24l-0.527,0.176l-0.271,0.377l-0.227-0.006l0.353-0.691l0.377-0.123l0.163-0.24l-0.359-0.049l-0.309,0.283l-0.399,0.256
		l0.432-0.625l0.639-0.459l0.735,0.371c1.725-6.362-1.233-10.352-5.401-7.345c2.388-4.34-2.718-8.407-7.691-7.581
		c2.62-2.747,1.18-5.464-1.819-8.033c5.952-0.577,11.615,0.21,14.541,1.982l0.659,0.317c0.803,0.27,0.854-0.179,0.174-0.596
		c0.696,0.005,1.497,0.362,0.646,1.301C46.154,39.182,45.593,42.488,47.154,45.396z"/>
	<path fill="#FEFEFE" d="M72.962,59.955c0.234,0.174,0.378,0.383,0.429,0.621c0.054,0.242,0.009,0.492-0.133,0.75
		c-0.168,0.311-0.405,0.508-0.71,0.588c-0.308,0.08-0.626,0.031-0.957-0.148c-0.345-0.186-0.566-0.432-0.667-0.736
		c-0.1-0.305-0.061-0.619,0.115-0.945c0.138-0.258,0.321-0.432,0.545-0.521c0.225-0.09,0.46-0.082,0.707,0.021l-0.277,0.512
		c-0.115-0.029-0.217-0.023-0.306,0.018c-0.09,0.043-0.164,0.119-0.228,0.232c-0.081,0.152-0.086,0.305-0.014,0.461
		c0.071,0.15,0.212,0.285,0.42,0.398c0.207,0.113,0.393,0.158,0.553,0.135c0.16-0.021,0.281-0.107,0.364-0.258
		c0.065-0.125,0.089-0.238,0.069-0.342c-0.021-0.107-0.082-0.199-0.186-0.279L72.962,59.955z M72.083,63.084l-1.996-1.357
		l0.347-0.512l1.997,1.359L72.083,63.084z M70.93,64.672l-1.927-1.457l0.374-0.498l1.512,1.145l0.704-0.934l0.419,0.316
		L70.93,64.672z M69.41,66.506l-1.85-1.555l0.754-0.898c0.179-0.215,0.352-0.34,0.516-0.379c0.163-0.037,0.323,0.014,0.485,0.146
		c0.1,0.084,0.163,0.174,0.188,0.273c0.028,0.102,0.02,0.213-0.025,0.338c0.12-0.086,0.235-0.125,0.356-0.123
		c0.12,0.004,0.232,0.051,0.339,0.139c0.104,0.088,0.178,0.189,0.224,0.307c0.044,0.117,0.053,0.24,0.026,0.363
		c-0.016,0.086-0.052,0.176-0.107,0.268c-0.057,0.092-0.155,0.227-0.298,0.396L69.41,66.506z M69.423,65.742l0.3-0.357
		c0.097-0.113,0.146-0.205,0.152-0.277c0.007-0.072-0.026-0.141-0.102-0.203c-0.068-0.057-0.137-0.076-0.207-0.062
		c-0.069,0.016-0.141,0.066-0.212,0.15l-0.341,0.406L69.423,65.742z M68.662,65.105l0.321-0.381c0.066-0.08,0.102-0.154,0.105-0.217
		c0.003-0.064-0.024-0.121-0.085-0.172c-0.055-0.049-0.114-0.066-0.174-0.053s-0.12,0.055-0.18,0.127l-0.338,0.402L68.662,65.105z
		 M65.979,66.416l0.436-0.424l1.053,1.078c0.116,0.119,0.223,0.182,0.316,0.188c0.096,0.008,0.193-0.039,0.298-0.143
		c0.104-0.1,0.152-0.195,0.147-0.291c-0.005-0.094-0.064-0.201-0.181-0.318l-1.055-1.08l0.441-0.428l1.001,1.025
		c0.143,0.145,0.241,0.271,0.297,0.387c0.055,0.113,0.08,0.23,0.072,0.355c-0.008,0.129-0.042,0.252-0.102,0.371
		s-0.146,0.234-0.261,0.346c-0.112,0.109-0.23,0.193-0.351,0.252c-0.121,0.057-0.245,0.086-0.374,0.094
		c-0.124,0.002-0.243-0.025-0.356-0.08c-0.112-0.061-0.239-0.162-0.38-0.305L65.979,66.416z M65.94,69.527l-1.512-1.885l0.865-0.691
		c0.217-0.174,0.425-0.256,0.619-0.246c0.196,0.008,0.369,0.107,0.523,0.301c0.16,0.199,0.228,0.398,0.201,0.596
		c-0.028,0.197-0.146,0.381-0.359,0.551l-0.393,0.314l0.54,0.674L65.94,69.527z M65.581,68.086L65.9,67.83
		c0.087-0.07,0.138-0.141,0.149-0.209c0.011-0.07-0.015-0.145-0.078-0.223c-0.059-0.074-0.124-0.113-0.199-0.115
		c-0.071-0.004-0.151,0.029-0.237,0.1l-0.316,0.252L65.581,68.086z M64.167,70.723l-1.319-2.023l1.537-1.002l0.271,0.414
		l-1.021,0.664l0.235,0.357l0.931-0.607l0.263,0.406l-0.931,0.607l0.283,0.434l1.053-0.688l0.269,0.414L64.167,70.723z
		 M62.068,71.889l-1.118-2.143l1.024-0.535c0.271-0.141,0.494-0.199,0.675-0.168c0.179,0.029,0.321,0.146,0.428,0.35
		c0.062,0.121,0.089,0.236,0.08,0.352c-0.01,0.115-0.059,0.23-0.144,0.35c0.114-0.014,0.204,0,0.275,0.043
		c0.07,0.041,0.15,0.137,0.237,0.289c0.025,0.043,0.061,0.1,0.102,0.172c0.096,0.168,0.179,0.254,0.244,0.254l0.038,0.072
		l-0.572,0.301c-0.067-0.061-0.139-0.156-0.21-0.287c-0.073-0.127-0.122-0.209-0.144-0.24c-0.052-0.08-0.111-0.127-0.179-0.141
		c-0.068-0.014-0.148,0.004-0.244,0.053l-0.367,0.193l0.419,0.799L62.068,71.889z M61.975,70.379l0.408-0.213
		c0.11-0.059,0.18-0.123,0.212-0.189c0.029-0.066,0.021-0.146-0.024-0.234c-0.042-0.08-0.098-0.123-0.166-0.137
		c-0.072-0.012-0.159,0.01-0.263,0.064l-0.424,0.221L61.975,70.379z M58.825,73.285l-0.91-2.238l0.575-0.234l0.323,0.793
		l0.784-0.318l-0.322-0.793l0.574-0.234l0.912,2.238l-0.578,0.232l-0.381-0.941l-0.785,0.318l0.383,0.943L58.825,73.285z
		 M58.296,72.553c0.043,0.289-0.002,0.537-0.135,0.744c-0.133,0.205-0.341,0.352-0.624,0.438c-0.338,0.102-0.644,0.072-0.918-0.088
		c-0.273-0.158-0.464-0.42-0.572-0.777c-0.112-0.377-0.097-0.709,0.048-0.994c0.146-0.287,0.395-0.484,0.748-0.59
		c0.28-0.082,0.532-0.076,0.755,0.016c0.222,0.096,0.384,0.268,0.484,0.516l-0.556,0.166c-0.062-0.102-0.138-0.17-0.23-0.205
		c-0.092-0.033-0.201-0.029-0.324,0.006c-0.166,0.051-0.276,0.156-0.334,0.314c-0.058,0.16-0.053,0.354,0.017,0.582
		c0.067,0.227,0.165,0.389,0.294,0.486c0.129,0.096,0.275,0.121,0.44,0.07c0.133-0.037,0.23-0.104,0.291-0.191
		s0.082-0.197,0.064-0.328L58.296,72.553z M54.368,74.404l-0.469-2.371l1.801-0.357l0.096,0.486l-1.193,0.234l0.082,0.422
		l1.091-0.219l0.095,0.477l-1.092,0.215l0.101,0.508l1.232-0.242l0.097,0.482L54.368,74.404z M52.173,74.641l-0.047-0.48L53.21,72.6
		l-1.18,0.117l-0.049-0.482l1.942-0.195l0.048,0.484l-1.084,1.561l1.228-0.123l0.048,0.482L52.173,74.641z M51.994,73.818
		c-0.026,0.293-0.129,0.521-0.307,0.691c-0.179,0.17-0.414,0.262-0.709,0.277c-0.354,0.018-0.645-0.084-0.873-0.303
		c-0.228-0.219-0.351-0.518-0.37-0.895c-0.02-0.391,0.074-0.709,0.282-0.951c0.208-0.244,0.498-0.375,0.866-0.395
		c0.293-0.016,0.536,0.049,0.729,0.195c0.193,0.145,0.309,0.348,0.35,0.613l-0.581,0.029c-0.035-0.113-0.093-0.197-0.175-0.252
		c-0.081-0.055-0.188-0.078-0.316-0.072c-0.173,0.01-0.306,0.084-0.399,0.227c-0.093,0.141-0.134,0.33-0.122,0.568
		c0.012,0.236,0.069,0.414,0.171,0.541c0.103,0.125,0.238,0.184,0.41,0.174c0.141-0.006,0.249-0.043,0.33-0.117
		c0.08-0.07,0.126-0.172,0.141-0.303L51.994,73.818z M46.66,74.508l0.23-2.408l1.826,0.176l-0.047,0.492l-1.211-0.115l-0.041,0.424
		l1.106,0.105l-0.046,0.482l-1.106-0.107l-0.05,0.516l1.251,0.121l-0.047,0.492L46.66,74.508z M44.212,74.061l0.466-2.371
		l0.61,0.119l-0.166,0.84l0.832,0.164l0.165-0.84l0.61,0.119l-0.467,2.369l-0.61-0.117l0.197-1l-0.831-0.162l-0.196,0.998
		L44.212,74.061z M42.791,73.65l0.559-1.842l-0.662-0.201l0.143-0.471l1.917,0.582l-0.143,0.471l-0.662-0.201l-0.559,1.842
		L42.791,73.65z M39.485,72.459l0.93-2.23l1.6,0.668l-0.192,0.463l-1.033-0.43l-0.191,0.461l0.896,0.375L41.3,72.227l-0.896-0.375
		l-0.351,0.844L39.485,72.459z M37.616,70.162c0.188-0.348,0.431-0.568,0.729-0.664c0.299-0.098,0.613-0.059,0.939,0.121
		c0.329,0.174,0.535,0.416,0.618,0.723c0.084,0.305,0.032,0.631-0.153,0.975c-0.187,0.346-0.431,0.564-0.732,0.662
		c-0.301,0.098-0.616,0.055-0.944-0.121c-0.327-0.178-0.531-0.42-0.614-0.721C37.377,70.832,37.431,70.508,37.616,70.162z
		 M38.168,70.461c-0.116,0.215-0.162,0.404-0.137,0.568s0.121,0.289,0.285,0.379s0.324,0.102,0.475,0.033
		c0.152-0.068,0.287-0.209,0.403-0.426c0.117-0.215,0.162-0.406,0.135-0.568c-0.024-0.164-0.121-0.291-0.286-0.381
		c-0.166-0.09-0.322-0.1-0.472-0.031C38.419,70.102,38.286,70.244,38.168,70.461z M34.157,69.34l1.359-1.998l0.553,0.377
		l-0.068,0.912c-0.014,0.148-0.026,0.295-0.042,0.438c-0.016,0.141-0.035,0.281-0.055,0.416c0.096-0.156,0.187-0.301,0.271-0.436
		c0.087-0.135,0.163-0.252,0.232-0.352l0.348-0.514l0.494,0.338l-1.358,1.998l-0.553-0.375l0.067-0.943
		c0.009-0.111,0.019-0.234,0.032-0.371c0.012-0.137,0.027-0.283,0.046-0.436c-0.08,0.135-0.154,0.262-0.226,0.377
		c-0.073,0.115-0.138,0.215-0.196,0.303l-0.41,0.604L34.157,69.34z M32.838,66.691c0.253-0.301,0.536-0.469,0.848-0.504
		c0.314-0.035,0.612,0.066,0.897,0.305c0.287,0.24,0.439,0.518,0.461,0.834c0.021,0.316-0.094,0.623-0.347,0.924
		c-0.25,0.301-0.534,0.469-0.85,0.502c-0.314,0.035-0.614-0.068-0.899-0.309c-0.286-0.238-0.438-0.514-0.458-0.83
		C32.47,67.301,32.587,66.992,32.838,66.691z M33.32,67.096c-0.157,0.188-0.241,0.365-0.249,0.529
		c-0.007,0.166,0.061,0.309,0.204,0.428c0.144,0.121,0.297,0.164,0.459,0.129s0.321-0.148,0.48-0.336
		c0.156-0.188,0.24-0.365,0.246-0.531c0.007-0.166-0.062-0.309-0.206-0.432c-0.143-0.119-0.295-0.16-0.455-0.125
		C33.638,66.793,33.479,66.906,33.32,67.096z M31.438,66.936l1.729-1.688l0.432,0.439l-1.729,1.689L31.438,66.936z M30.4,65.852
		l1.442-1.277l-0.46-0.518l0.369-0.326l1.326,1.502l-0.368,0.324l-0.458-0.518l-1.442,1.275L30.4,65.852z M30.968,62.764
		l0.423,0.529l-1.353,2.174l-0.415-0.518l0.254-0.391l-0.505-0.631l-0.433,0.17l-0.401-0.502L30.968,62.764z M29.855,63.73
		l0.329,0.41l0.483-0.729L29.855,63.73z M27.399,61.809l2.022-1.318l0.632,0.967c0.168,0.258,0.245,0.479,0.232,0.658
		c-0.012,0.18-0.114,0.334-0.307,0.461c-0.114,0.072-0.228,0.109-0.343,0.111c-0.115,0-0.235-0.035-0.361-0.107
		c0.024,0.111,0.02,0.203-0.016,0.279c-0.034,0.072-0.122,0.16-0.266,0.262c-0.039,0.029-0.092,0.068-0.16,0.117
		c-0.159,0.113-0.234,0.201-0.229,0.27l-0.069,0.045l-0.354-0.543c0.054-0.072,0.142-0.15,0.265-0.238
		c0.122-0.084,0.198-0.141,0.228-0.164c0.073-0.059,0.114-0.123,0.121-0.193c0.007-0.066-0.019-0.146-0.077-0.236l-0.226-0.346
		l-0.757,0.492L27.399,61.809z M28.892,61.57l0.252,0.387c0.067,0.104,0.137,0.168,0.208,0.191c0.07,0.023,0.147,0.01,0.231-0.045
		c0.075-0.051,0.114-0.109,0.119-0.182c0.005-0.07-0.024-0.154-0.088-0.252l-0.262-0.398L28.892,61.57z M26.602,60.338l1.707-0.893
		l-0.321-0.613l0.435-0.227l0.929,1.773l-0.436,0.229l-0.32-0.613l-1.706,0.893L26.602,60.338z M26.197,57.457l0.225,0.551
		c-0.127,0.059-0.208,0.135-0.243,0.23c-0.037,0.098-0.026,0.215,0.029,0.352c0.048,0.117,0.104,0.199,0.168,0.246
		c0.064,0.049,0.132,0.059,0.202,0.031c0.036-0.014,0.063-0.035,0.087-0.062c0.021-0.025,0.034-0.055,0.036-0.09
		c0.006-0.051,0-0.166-0.019-0.348c-0.018-0.182-0.028-0.336-0.028-0.467c-0.002-0.188,0.032-0.344,0.104-0.471
		c0.071-0.125,0.176-0.217,0.316-0.271c0.214-0.09,0.416-0.076,0.607,0.031c0.191,0.109,0.344,0.301,0.454,0.576
		c0.109,0.27,0.131,0.51,0.062,0.721c-0.068,0.213-0.216,0.365-0.441,0.457l-0.22-0.539c0.1-0.053,0.161-0.123,0.186-0.205
		c0.025-0.08,0.014-0.18-0.033-0.295c-0.037-0.092-0.087-0.158-0.148-0.201s-0.121-0.051-0.18-0.027
		c-0.1,0.039-0.138,0.215-0.113,0.525c0.004,0.057,0.007,0.1,0.01,0.129l0.002,0.027c0.022,0.32,0.02,0.527-0.008,0.621
		c-0.029,0.096-0.076,0.178-0.141,0.25c-0.064,0.068-0.146,0.123-0.242,0.162c-0.224,0.092-0.432,0.076-0.625-0.045
		c-0.194-0.121-0.354-0.334-0.479-0.643c-0.118-0.291-0.142-0.539-0.07-0.746C25.766,57.752,25.934,57.586,26.197,57.457z
		 M25.164,56.912l2.279-0.803l0.205,0.584l-2.279,0.803L25.164,56.912z M24.414,54.547l2.313-0.693l0.192,0.643l-0.63,0.664
		c-0.103,0.107-0.204,0.211-0.307,0.312c-0.104,0.1-0.205,0.197-0.306,0.289c0.172-0.061,0.333-0.117,0.485-0.168
		c0.152-0.049,0.286-0.09,0.402-0.125l0.592-0.178l0.172,0.572l-2.314,0.693l-0.192-0.641l0.646-0.688
		c0.077-0.082,0.163-0.172,0.259-0.268c0.096-0.1,0.2-0.203,0.312-0.311c-0.147,0.055-0.285,0.105-0.414,0.148
		c-0.129,0.045-0.242,0.084-0.344,0.113l-0.697,0.207L24.414,54.547z M24.235,53.527l2.37-0.469l0.12,0.607l-2.37,0.469
		L24.235,53.527z M23.733,50.559l2.39-0.355l0.125,0.843l-1.117,0.486c-0.099,0.043-0.194,0.084-0.288,0.119
		c-0.093,0.038-0.185,0.072-0.273,0.104c0.1,0.006,0.205,0.014,0.315,0.023c0.11,0.012,0.229,0.023,0.357,0.039l1.141,0.135
		l0.124,0.84l-2.39,0.355l-0.082-0.559l1.059-0.156c0.074-0.012,0.18-0.025,0.314-0.041c0.136-0.018,0.292-0.035,0.47-0.053
		l-1.908-0.188l-0.09-0.605l1.773-0.725c-0.211,0.04-0.401,0.074-0.569,0.104c-0.169,0.03-0.301,0.051-0.396,0.065l-0.871,0.129
		L23.733,50.559z M23.669,48.142l2.412-0.124l0.054,1.031c0.018,0.357-0.073,0.636-0.271,0.837
		c-0.198,0.201-0.493,0.312-0.883,0.332c-0.403,0.021-0.709-0.063-0.919-0.249c-0.209-0.188-0.325-0.48-0.346-0.877L23.669,48.142z
		 M24.207,48.737l0.017,0.335c0.01,0.191,0.074,0.328,0.19,0.412c0.117,0.084,0.296,0.12,0.536,0.107
		c0.241-0.012,0.416-0.066,0.523-0.161s0.156-0.237,0.146-0.429l-0.018-0.336L24.207,48.737z M26.173,46.565l-0.031,0.676
		l-2.452,0.74l0.03-0.664l0.449-0.127l0.038-0.806l-0.438-0.158l0.03-0.641L26.173,46.565z M24.7,46.554l-0.024,0.528l0.844-0.23
		L24.7,46.554z M24.281,42.627l2.371,0.466l-0.354,1.802l-0.484-0.096l0.234-1.193l-0.419-0.083l-0.214,1.092l-0.476-0.094
		l0.216-1.091l-0.509-0.099l-0.243,1.232l-0.484-0.096L24.281,42.627z M24.646,41.142l2.546-0.221l-0.159,0.637l-1.287,0.03
		c-0.021,0-0.057,0.001-0.105,0.002c-0.153,0.004-0.282,0.004-0.385,0.002c0.044,0.023,0.097,0.05,0.157,0.083
		s0.14,0.079,0.237,0.137l1.157,0.654l-0.158,0.632l-2.143-1.394L24.646,41.142z M27.591,39.894l-0.229,0.636L24.8,40.517
		l0.225-0.625l0.468,0.011l0.272-0.759l-0.371-0.281l0.217-0.604L27.591,39.894z M26.186,39.451l-0.178,0.498l0.875,0.028
		L26.186,39.451z M26.395,38.589c-0.245-0.162-0.398-0.361-0.462-0.599c-0.063-0.237-0.031-0.489,0.096-0.755
		c0.151-0.318,0.379-0.526,0.681-0.622s0.622-0.063,0.962,0.1c0.354,0.168,0.588,0.403,0.703,0.702
		c0.115,0.299,0.094,0.616-0.065,0.95c-0.127,0.265-0.3,0.447-0.519,0.547c-0.22,0.1-0.455,0.104-0.708,0.015l0.251-0.524
		c0.117,0.024,0.218,0.013,0.306-0.033c0.087-0.046,0.158-0.127,0.214-0.244c0.074-0.157,0.072-0.309-0.009-0.459
		c-0.079-0.148-0.227-0.274-0.44-0.378c-0.213-0.101-0.399-0.138-0.558-0.108c-0.159,0.03-0.275,0.123-0.351,0.278
		c-0.061,0.125-0.077,0.241-0.052,0.346c0.024,0.104,0.091,0.194,0.198,0.269L26.395,38.589z"/>
</g>
</svg>
