<?xml version="1.0" encoding="utf-8"?>
<!-- Generator: Adobe Illustrator 16.0.0, SVG Export Plug-In . SVG Version: 6.00 Build 0)  -->
<!DOCTYPE svg PUBLIC "-//W3C//DTD SVG 1.1//EN" "http://www.w3.org/Graphics/SVG/1.1/DTD/svg11.dtd">
<svg version="1.1" id="Vrstva_1" xmlns="http://www.w3.org/2000/svg" xmlns:xlink="http://www.w3.org/1999/xlink" x="0px" y="0px"
	 width="100px" height="100px" viewBox="0 0 100 100" enable-background="new 0 0 100 100" xml:space="preserve">
<g>
	<path fill="#5D9969" d="M31.66,57.871c0,2.402,0,4.805,0,7.208c0,1.151,0,2.304,0,3.455c0,0.329,0.121,0.225,0.437,0.225
		c4.575,0,9.149,0,13.725,0c6.159,0,12.319,0,18.479,0c1.61,0,3.221,0,4.831,0c0.384,0,0.347,0.042,0.347-0.364
		c0-1.233,0-2.466,0-3.699c0-0.467,0.006-6.824-0.006-6.824c-1.111,0-2.223,0-3.333,0c-5.855,0-11.71,0-17.564,0
		C42.937,57.871,37.298,57.871,31.66,57.871z"/>
	<path fill="#5D9969" d="M31.66,68.777c-0.084-0.46-0.023-1.021-0.023-1.502c0-1.254,0-2.508,0-3.762c0-1.881,0-3.762,0-5.643
		c0.183,0.328,0.042,1.21,0.042,1.627c0,1.272,0,2.545,0,3.816C31.679,65.073,31.92,67.047,31.66,68.777z M69.499,68.759
		c-0.947,0.151-2.044,0.019-3.01,0.019c-2.531,0-5.062,0-7.594,0c-6.366,0-12.733,0-19.1,0c-2.712,0-5.423,0-8.135,0
		c0.744-0.28,2.161-0.034,2.989-0.034c2.531,0,5.062,0,7.594,0c6.367,0,12.734,0,19.101,0c1.966,0,3.932,0,5.898,0
		C67.975,68.743,68.777,68.663,69.499,68.759z M69.479,57.852c0.268,1.656,0.021,3.579,0.021,5.266c0,1.881,0,3.762,0,5.643
		c-0.172-0.353-0.038-1.194-0.038-1.627c0-1.272,0-2.545,0-3.817C69.461,61.547,69.239,59.597,69.479,57.852z M31.637,57.871
		c0.944-0.158,2.049-0.02,3.012-0.02c2.531,0,5.062,0,7.594,0c6.367,0,12.734,0,19.101,0c2.711,0,5.423,0,8.135,0
		c-0.731,0.286-2.17,0.035-2.989,0.035c-2.531,0-5.062,0-7.594,0c-6.366,0-12.733,0-19.1,0c-1.966,0-3.933,0-5.898,0
		C33.162,57.887,32.361,57.967,31.637,57.871z"/>
	<path fill="#5D9969" d="M50.561,46.984c8.776-0.216,16.421-5.741,18.525-14.412c0.293-1.207,0.361-2.462,0.393-3.698
		c-4.977,0-9.954,0-14.931,0c-1.079,0-2.158,0-3.237,0c-0.29,0-0.748-0.162-0.748,0.181c0,2.297-0.001,4.594-0.001,6.891
		C50.562,39.625,50.561,43.305,50.561,46.984z"/>
	<path fill="#FFFFFF" d="M50.42,46.984c-8.561-0.212-16.542-5.711-18.38-14.361c-0.254-1.198-0.351-2.402-0.38-3.624
		c4.975,0,9.949,0,14.924,0c1.055,0,2.111,0,3.166,0c0.357,0,0.67-0.159,0.67,0.229c0,2.358,0,4.716,0,7.074
		C50.42,39.862,50.42,43.423,50.42,46.984z"/>
	<path fill="#5D9969" d="M31.502,28.999c0.481-0.144,0.333,0.9,0.359,1.259c0.034,0.469,0.089,0.935,0.16,1.4
		c0.138,0.914,0.36,1.817,0.647,2.696c0.569,1.74,1.426,3.346,2.482,4.836c2.135,3.012,5.277,5.224,8.713,6.503
		c1.799,0.669,3.742,1.043,5.659,1.12c0.239,0.01,0.478,0.019,0.717,0.019c0.135,0,0.35,0.132,0.181,0.301
		c-0.045,0.045-0.359-0.003-0.428-0.004c-0.503-0.012-1.006-0.037-1.507-0.087c-0.979-0.099-1.953-0.265-2.907-0.507
		c-3.661-0.929-7.019-2.934-9.539-5.751c-2.491-2.785-4.081-6.324-4.451-10.045C31.53,30.161,31.495,29.579,31.502,28.999z"/>
	<path fill="#FFFFFF" d="M48.67,57.871c0,2.402,0,4.805,0,7.208c0,1.151,0,2.304,0,3.455c0,0.51,2.119,0.225,2.571,0.225
		c0.076,0,1.224,0.005,1.224-0.005c0-0.279,0-0.56,0-0.839c0-1.4,0-2.802,0-4.202c0-1.499,0-2.999,0-4.498c0-0.393,0-0.785,0-1.178
		c0-0.3-0.287-0.166-0.557-0.166C50.829,57.871,49.75,57.871,48.67,57.871z"/>
	<path fill="#FFFFFF" d="M48.67,68.907c-0.362-0.248-0.156-1.258-0.156-1.631c0-1.254,0-2.509,0-3.763
		c0-0.456-0.089-5.643,0.082-5.643c0.46,0,0.232,1.098,0.232,1.482c0,1.32,0,2.641,0,3.961c0,1.272,0,2.545,0,3.817
		C48.828,67.521,49.051,68.652,48.67,68.907z M52.624,68.759c-0.331,0.419-3.954,0.085-3.954,0.071c0-0.454,1.41-0.221,1.799-0.221
		C50.932,68.609,52.303,68.349,52.624,68.759z M52.465,57.721c0.367,0.246,0.159,1.259,0.159,1.633c0,1.254,0,2.509,0,3.763
		c0,0.457,0.089,5.643-0.082,5.643c-0.462,0-0.233-1.097-0.233-1.482c0-1.32,0-2.641,0-3.962c0-1.271,0-2.544,0-3.816
		C52.309,59.106,52.086,57.982,52.465,57.721z M48.514,57.871c0.324-0.425,3.951-0.085,3.951-0.073c0,0.455-1.408,0.222-1.8,0.222
		C50.207,58.02,48.831,58.279,48.514,57.871z"/>
	<path fill="#FFFFFF" d="M52.45,59.684c3.458,0.039,7.021,0.479,10.236,1.82c3.055,1.276,6.717,3.53,6.792,7.255
		c-4.886,0-9.772,0-14.658,0c-0.753,0-1.506,0-2.259,0c-0.251,0-0.108-1.456-0.109-1.686C52.452,64.61,52.451,62.146,52.45,59.684z"
		/>
	<path fill="#5D9969" d="M52.577,63.443c3.064-0.003,7.377,1.659,7.421,5.3c-2.337,0-4.673,0-7.01,0
		c-0.228,0-0.411,0.098-0.411-0.148c0-0.572,0-1.145,0-1.717C52.577,65.732,52.577,64.588,52.577,63.443z"/>
	<path fill="#5D9969" d="M60.154,68.607c-0.439,0.132-0.323-0.407-0.383-0.713c-0.052-0.267-0.134-0.525-0.24-0.775
		c-0.241-0.565-0.607-1.066-1.042-1.501c-0.921-0.921-2.183-1.56-3.444-1.856c-0.42-0.099-0.838-0.185-1.266-0.234
		c-0.349-0.041-1.336,0.082-1.202-0.373c2.663,0.047,5.813,1.019,7.11,3.566C59.985,67.306,60.154,67.949,60.154,68.607z"/>
	<path fill="#FFFFFF" d="M48.688,59.684c-3.453,0.038-7.031,0.47-10.239,1.82c-3.062,1.29-6.702,3.52-6.789,7.255
		c4.886,0,9.772,0,14.659,0c0.753,0,1.505,0,2.258,0c0.251,0,0.109-1.456,0.109-1.686C48.687,64.61,48.688,62.146,48.688,59.684z"/>
	<path fill="#5D9969" d="M48.529,63.443c-3.066,0.002-7.374,1.657-7.42,5.3c2.336,0,4.672,0,7.009,0
		c0.228,0,0.411,0.098,0.411-0.148c0-0.572,0-1.145,0-1.717C48.529,65.732,48.529,64.588,48.529,63.443z"/>
	<path fill="#5D9969" d="M41.267,68.607c-0.091,0.027-0.217,0-0.313,0c0.018-2.72,2.591-4.497,4.982-5.123
		c0.85-0.223,1.716-0.314,2.593-0.33c0.134,0.454-0.689,0.32-1.02,0.354c-0.369,0.037-0.748,0.082-1.108,0.173
		c-0.684,0.173-1.351,0.369-1.986,0.683c-1.089,0.537-2.106,1.339-2.684,2.427C41.436,67.346,41.261,67.976,41.267,68.607z"/>
	<path fill="#5D9969" d="M31.502,41.833c0.464-0.134,0.349,0.767,0.409,1.119c0.071,0.413,0.183,0.816,0.328,1.21
		c0.211,0.576,0.496,1.124,0.837,1.635c0.696,1.041,1.599,1.922,2.598,2.671c2.427,1.819,5.398,2.863,8.365,3.378
		c0.744,0.129,1.495,0.223,2.248,0.285c0.387,0.032,0.775,0.058,1.164,0.073c0.336,0.014,1.209-0.146,1.078,0.321
		c-3.369-0.049-6.737-0.58-9.833-1.959c-2.422-1.079-4.791-2.703-6.153-5.035C31.894,44.419,31.484,43.129,31.502,41.833z"/>
	<path fill="#5D9969" d="M46.919,37.8c-0.45,0.135-0.371-0.86-0.455-1.216c-0.109-0.459-0.274-0.898-0.488-1.319
		c-0.447-0.881-1.095-1.643-1.828-2.299c-0.931-0.833-2.014-1.514-3.149-2.035c-2.635-1.209-5.509-1.8-8.401-1.891
		c-0.192-0.006-0.383-0.014-0.575-0.014c-0.34,0-0.339-0.31,0.003-0.3c0.401,0.012,0.802,0.019,1.203,0.042
		c0.777,0.044,1.553,0.121,2.322,0.241c1.433,0.223,2.853,0.566,4.211,1.076c2.543,0.955,5.172,2.511,6.47,4.996
		C46.668,35.915,46.93,36.854,46.919,37.8z"/>
	<path fill="#FFFFFF" d="M54.482,37.8c-0.487,0.146-0.327-0.883-0.348-1.24c-0.026-0.449-0.071-0.896-0.121-1.343
		c-0.091-0.812-0.25-1.626-0.474-2.412c-0.34-1.196-0.848-2.692-1.91-3.442c-0.29-0.205-1.053-0.284-0.942-0.639
		c2.616,0.031,3.393,4.518,3.631,6.404C54.431,36.014,54.482,36.907,54.482,37.8z"/>
	<path fill="#FFFFFF" d="M54.499,37.8c-0.091,0.027-0.217,0-0.313,0c-0.012-3.261,2.768-5.64,5.455-6.985
		c2.595-1.298,5.516-1.915,8.4-2.06c0.4-0.02,0.802-0.031,1.203-0.031c0.17,0,0,0.27-0.049,0.302
		c-0.058,0.038-0.216-0.012-0.286,0.003c-0.188,0.041-0.425,0.011-0.618,0.017c-0.772,0.024-1.543,0.101-2.309,0.201
		c-1.429,0.187-2.833,0.529-4.196,0.992c-2.61,0.887-5.418,2.525-6.683,5.078C54.722,36.087,54.494,36.936,54.499,37.8z"/>
	<path fill="#FFFFFF" d="M63.65,34.462c0.482-0.14,0.309,0.582,0.285,0.902c-0.024,0.335-0.068,0.669-0.117,1.001
		c-0.096,0.652-0.255,1.3-0.461,1.926c-0.402,1.224-0.988,2.426-1.768,3.457c-1.604,2.121-3.701,3.725-6.203,4.646
		c-0.752,0.277-1.533,0.477-2.322,0.612c-0.399,0.068-0.799,0.106-1.201,0.154c-0.332,0.04-1.28,0.227-1.145-0.255
		c2.648,0.021,5.302-0.799,7.486-2.293c2.099-1.436,3.754-3.491,4.66-5.87C63.384,37.381,63.658,35.921,63.65,34.462z"/>
	<path fill="#5D9969" d="M35.28,34.462c0.462-0.136,0.326,0.551,0.353,0.877c0.027,0.325,0.055,0.66,0.126,0.979
		c0.141,0.636,0.274,1.268,0.514,1.877c0.488,1.245,1.158,2.317,1.97,3.374c1.699,2.214,4.329,3.671,6.926,4.542
		c1.658,0.556,3.475,0.816,5.222,0.795c0.141,0.483-0.742,0.29-1.067,0.271c-0.396-0.023-0.792-0.058-1.186-0.108
		c-0.769-0.1-1.531-0.245-2.281-0.442c-1.406-0.372-2.865-0.91-4.095-1.698c-2.312-1.483-4.427-3.375-5.513-5.967
		C35.641,37.51,35.304,36.038,35.28,34.462z"/>
	<path fill="#5D9969" d="M46.999,41.395c-0.45,0.136-0.346-0.627-0.419-0.958c-0.08-0.361-0.205-0.711-0.366-1.044
		c-0.346-0.716-0.854-1.348-1.439-1.885c-1.408-1.294-3.275-2.144-5.128-2.566c-1.246-0.284-2.519-0.479-3.8-0.479
		c-0.224,0-0.419-0.143-0.181-0.3c0.079-0.052,0.377,0.004,0.475,0.007c0.3,0.008,0.6,0.024,0.898,0.049
		c0.602,0.05,1.203,0.128,1.797,0.239c3.173,0.593,7.143,2.333,8.018,5.78C46.95,40.615,47,41.005,46.999,41.395z"/>
	<path fill="#5D9969" d="M46.938,41.395c-0.492,0.146-0.304-0.674-0.28-1c0.027-0.363,0.064-0.728,0.124-1.087
		c0.109-0.665,0.263-1.317,0.482-1.955c0.43-1.248,1.237-2.75,2.604-3.116c0.18-0.048,0.364-0.076,0.551-0.075
		c0.125,0.409-0.218,0.274-0.468,0.364c-0.234,0.083-0.441,0.169-0.65,0.31c-0.714,0.479-1.179,1.273-1.515,2.046
		c-0.531,1.221-0.776,2.561-0.836,3.886C46.942,40.977,46.935,41.186,46.938,41.395z"/>
	<path fill="#5D9969" d="M46.938,39.611c-0.521,0.149-0.296-1.133-0.28-1.507c0.024-0.545,0.064-1.092,0.124-1.635
		c0.109-0.989,0.253-1.975,0.479-2.945c0.32-1.376,0.76-2.941,1.722-4.023c0.372-0.418,0.855-0.771,1.436-0.776
		c0.104,0.33-0.678,0.484-0.952,0.722c-0.425,0.37-0.696,0.875-0.96,1.364c-0.796,1.473-1.124,3.305-1.327,4.946
		C47.022,37.035,46.929,38.322,46.938,39.611z"/>
	<path fill="#FFFFFF" d="M54.516,41.395c-0.477,0.143-0.325-0.648-0.35-0.981c-0.026-0.355-0.067-0.71-0.121-1.062
		c-0.099-0.644-0.246-1.292-0.472-1.904c-0.519-1.405-1.208-2.315-2.536-2.954c-0.206-0.099-0.447,0.089-0.318-0.331
		c2.826-0.006,3.665,4.375,3.774,6.501C54.506,40.907,54.512,41.151,54.516,41.395z"/>
	<path fill="#FFFFFF" d="M54.499,41.425c-0.092,0.027-0.217,0-0.313,0c-0.042-3.491,3.146-5.961,6.225-6.825
		c0.838-0.235,2.003-0.571,2.878-0.432c0.312,0.049,0.572,0.11,0.185,0.294c-0.174,0.083-0.562,0.022-0.76,0.037
		c-0.474,0.037-0.944,0.099-1.41,0.194c-1.688,0.342-3.329,1.066-4.621,2.218C55.394,38.061,54.496,39.67,54.499,41.425z"/>
	<path fill="#5D9969" d="M69.324,41.758c0.091-0.028,0.218,0,0.314,0c-0.045,2.49-1.334,4.656-3.164,6.282
		c-2.245,1.995-5.127,3.205-8.026,3.88c-1.698,0.396-3.442,0.6-5.185,0.643c-0.107,0.003-0.582,0.076-0.654,0.008
		c-0.351-0.328,0.426-0.303,0.539-0.305c0.443-0.009,0.891-0.02,1.332-0.061c0.861-0.08,1.711-0.211,2.568-0.311
		c2.967-0.346,5.979-1.666,8.383-3.398c2.067-1.49,3.889-3.922,3.889-6.569C69.32,41.871,69.323,41.814,69.324,41.758z"/>
	<path fill="#5D9969" d="M31.502,50.746c0.397-0.131,0.287,0.188,0.449,0.408c0.146,0.197,0.325,0.352,0.525,0.492
		c0.643,0.453,1.426,0.699,2.167,0.938c2.491,0.802,5.211,1.095,7.808,1.29c1.032,0.077,2.064,0.143,3.099,0.18
		c0.526,0.02,1.052,0.039,1.578,0.044c0.362,0.003,1.541-0.183,1.401,0.314c-3.278-0.052-6.542-0.178-9.79-0.652
		c-2.026-0.296-4.334-0.634-6.135-1.678C32.114,51.799,31.509,51.377,31.502,50.746z"/>
	<path fill="#5D9969" d="M69.324,50.771c0.092-0.026,0.218,0,0.314,0c-0.03,1.315-2.268,1.889-3.227,2.166
		c-2.588,0.75-5.311,1.056-7.989,1.261c-1.937,0.148-3.872,0.185-5.813,0.215c-0.135-0.482,0.648-0.306,0.973-0.309
		c0.461-0.004,0.921-0.016,1.381-0.028c0.853-0.024,1.702-0.075,2.553-0.117c1.528-0.074,3.076-0.216,4.588-0.453
		c2.051-0.321,4.314-0.601,6.168-1.605C68.701,51.667,69.294,51.32,69.324,50.771z"/>
	<path fill="#5D9969" d="M48.67,46.996c0,2.403,0,4.806,0,7.208c0,1.152,0,2.304,0,3.456c0,0.51,2.119,0.225,2.571,0.225
		c0.076,0,1.224,0.005,1.224-0.005c0-0.279,0-0.56,0-0.839c0-1.401,0-2.802,0-4.202c0-1.5,0-3,0-4.499c0-0.393,0-0.785,0-1.177
		c0-0.3-0.287-0.167-0.557-0.167C50.829,46.996,49.75,46.996,48.67,46.996z"/>
	<path fill="#5D9969" d="M48.67,58.036c-0.362-0.253-0.156-1.258-0.156-1.634c0-1.255,0-2.509,0-3.763
		c0-0.457-0.089-5.644,0.082-5.644c0.46,0,0.232,1.098,0.232,1.483c0,1.32,0,2.641,0,3.961c0,1.272,0,2.545,0,3.817
		C48.828,56.649,49.051,57.776,48.67,58.036z M52.624,57.885c-0.327,0.426-3.954,0.087-3.954,0.073c0-0.456,1.408-0.222,1.799-0.222
		C50.933,57.736,52.301,57.477,52.624,57.885z M52.465,46.847c0.367,0.244,0.159,1.259,0.159,1.632c0,1.254,0,2.508,0,3.762
		c0,0.457,0.089,5.644-0.082,5.644c-0.462,0-0.233-1.097-0.233-1.482c0-1.321,0-2.642,0-3.962c0-1.272,0-2.545,0-3.817
		C52.309,48.233,52.086,47.106,52.465,46.847z M48.514,46.996c0.326-0.422,3.951-0.084,3.951-0.071c0,0.458-1.407,0.223-1.8,0.223
		C50.209,47.148,48.824,47.409,48.514,46.996z"/>
	<path fill="#5D9969" d="M31.502,50.623c0-1.307,0-2.615,0-3.922c0-0.815,0-1.629,0-2.444c0-0.081-0.119-1.286,0.313-0.885
		c0.12,0.111,0,1.015,0,1.17c0,0.917,0,1.834,0,2.751c0,0.815,0,1.629,0,2.444C31.815,50.042,32.015,50.79,31.502,50.623z"/>
	<path fill="#5D9969" d="M69.309,50.623c0-1.307,0-2.615,0-3.922c0-0.815,0-1.629,0-2.444c0-0.081-0.119-1.286,0.313-0.885
		c0.12,0.111,0,1.015,0,1.17c0,0.917,0,1.834,0,2.751c0,0.815,0,1.629,0,2.444C69.622,50.042,69.822,50.791,69.309,50.623z"/>
	<path fill="#5D9969" d="M29.61,70.557c0-9.636,0-19.272,0-28.908c0-4.582,0-9.163,0-13.745c0-0.279,0-0.558,0-0.836
		c0,0.032,0.315-0.098,0.315,0.054c0,0.136,0,0.272,0,0.409c0,1.553,0,3.105,0,4.658c0,11.621,0,23.243,0,34.864
		c0,0.888,0,1.775,0,2.663C29.925,70.012,30.116,70.73,29.61,70.557z"/>
	<path fill="#5D9969" d="M71.354,70.706c-9.786,0-19.571,0-29.357,0c-4.017,0-8.033,0-12.05,0c-0.25,0-0.3-0.302-0.054-0.302
		c0.442,0,0.885,0,1.327,0c2.042,0,4.083,0,6.125,0c11.042,0,22.085,0,33.127,0C70.764,70.404,71.52,70.21,71.354,70.706z"/>
	<path fill="#5D9969" d="M71.514,27.063c0,9.636,0,19.272,0,28.908c0,4.582,0,9.164,0,13.745c0,0.278,0,0.558,0,0.836
		c0-0.032-0.315,0.098-0.315-0.054c0-0.137,0-0.273,0-0.409c0-1.553,0-3.105,0-4.658c0-11.621,0-23.243,0-34.864
		c0-0.888,0-1.775,0-2.663C71.198,27.607,71.007,26.889,71.514,27.063z"/>
	<path fill="#5D9969" d="M29.767,26.912c9.786,0,19.571,0,29.357,0c4.017,0,8.033,0,12.05,0c0.25,0,0.3,0.3,0.055,0.3
		c-0.442,0-0.885,0-1.327,0c-2.042,0-4.084,0-6.126,0c-11.043,0-22.085,0-33.128,0C30.351,27.212,29.61,27.407,29.767,26.912z"/>
	<path fill="#5D9969" d="M27.562,72.368c0-9.375,0-18.75,0-28.125c0-5.346,0-10.692,0-16.038c0-0.979,0-1.958,0-2.937
		c0-0.025,0.632-0.179,0.632,0.262c0,0.49,0,0.979,0,1.469c0,11.344,0,22.687,0,34.031c0,2.794,0,5.589,0,8.383
		c0,0.762,0,1.522,0,2.283C28.194,72.376,28.334,72.368,27.562,72.368z"/>
	<path fill="#5D9969" d="M73.247,72.67c-9.505,0-19.01,0-28.514,0c-5.016,0-10.031,0-15.047,0c-0.507,0-1.013,0-1.52,0
		c-0.434,0-0.314-0.605-0.272-0.605c1.012,0,2.023,0,3.035,0c11.655,0,23.31,0,34.965,0c1.848,0,3.695,0,5.543,0
		c0.48,0,0.962,0,1.443,0C73.373,72.064,73.247,72.089,73.247,72.67z"/>
	<path fill="#5D9969" d="M73.562,25.25c0,9.375,0,18.75,0,28.125c0,5.347,0,10.692,0,16.038c0,0.979,0,1.958,0,2.938
		c0,0.024-0.633,0.18-0.633-0.263c0-0.489,0-0.979,0-1.47c0-11.343,0-22.687,0-34.03c0-2.794,0-5.589,0-8.383
		c0-0.761,0-1.522,0-2.283C72.93,25.242,72.79,25.25,73.562,25.25z"/>
	<path fill="#5D9969" d="M27.876,24.949c9.505,0,19.01,0,28.515,0c5.016,0,10.031,0,15.047,0c0.506,0,1.013,0,1.52,0
		c0.434,0,0.314,0.605,0.271,0.605c-1.012,0-2.023,0-3.034,0c-11.655,0-23.311,0-34.965,0c-1.848,0-3.695,0-5.543,0
		c-0.481,0-0.963,0-1.444,0C27.75,25.554,27.876,25.53,27.876,24.949z"/>
</g>
<rect fill="none" width="100" height="100"/>
</svg>
