<?xml version="1.0" encoding="utf-8"?>
<!-- Generator: Adobe Illustrator 13.0.1, SVG Export Plug-In . SVG Version: 6.00 Build 14948)  -->
<!DOCTYPE svg PUBLIC "-//W3C//DTD SVG 1.1//EN" "http://www.w3.org/Graphics/SVG/1.1/DTD/svg11.dtd">
<svg version="1.1" id="Vrstva_1" xmlns="http://www.w3.org/2000/svg" xmlns:xlink="http://www.w3.org/1999/xlink" x="0px" y="0px"
	 width="100px" height="100px" viewBox="0 0 100 100" enable-background="new 0 0 100 100" xml:space="preserve">
<g>
	<rect x="30.275" y="48.946" fill="#007387" width="40" height="2.031"/>
	<rect x="30.275" y="70.125" fill="#57AA27" width="40" height="2.031"/>
	<rect x="30.275" y="27.797" fill="#00B0E5" width="40" height="2.032"/>
	<g>
		<path fill="#1A171B" d="M48.89,62.497h4.175c-0.088,1.126-0.573,2.474-1.393,3.29c-0.883,0.862-1.898,1.016-2.871,1.016
			c-1.127,0-2.297-0.196-3.314-1.191c-1.146-1.126-1.699-3.069-1.699-4.925c0-1.612,0.463-3.822,1.723-5.103
			c0.994-1.017,2.21-1.281,3.313-1.281c0.907,0,1.636,0.176,2.432,0.551c0.286,0.133,0.927,0.465,1.61,1.062l1.238-1.457
			c-0.663-0.62-1.458-1.128-2.231-1.438c-1.235-0.508-2.54-0.552-3.182-0.552c-1.899,0-3.533,0.486-5.012,2.076
			c-1.326,1.414-2.144,3.402-2.144,6.053c0,3.048,1.127,5.059,2.253,6.205c1.502,1.504,3.203,1.836,4.881,1.836
			c1.416,0,3.115-0.267,4.485-1.568c1.767-1.701,2.118-4.596,2.142-6.341H48.89V62.497z"/>
		<polygon fill="#1A171B" points="30.306,54.654 34.791,54.654 34.791,68.285 36.912,68.285 36.912,54.654 41.396,54.654 
			41.396,52.822 30.306,52.822 		"/>
		<polygon fill="#1A171B" points="67.298,52.822 63.455,62.497 59.567,52.822 56.696,52.822 56.696,68.285 58.817,68.285 
			58.817,55.517 62.814,65.479 64.074,65.479 68.027,55.517 68.027,68.285 70.148,68.285 70.148,52.822 		"/>
		<polygon fill="#1A171B" points="64.807,47.097 70.115,31.673 67.869,31.673 63.947,43.374 60.025,31.673 57.778,31.673 
			63.088,47.097 		"/>
		<path fill="#1A171B" d="M53.922,41.104c0,1.211,0.044,2.709-0.838,3.591c-0.593,0.595-1.607,0.882-2.799,0.882
			c-1.211,0-2.226-0.287-2.818-0.882c-0.882-0.882-0.838-2.38-0.838-3.591v-9.431h-2.115v9.497c0,1.674,0.044,3.503,1.344,4.825
			c1.343,1.344,3.393,1.454,4.407,1.454c1.036,0,3.085-0.11,4.429-1.454c1.3-1.322,1.344-3.151,1.344-4.825v-9.497h-2.115V41.104z"
			/>
		<polygon fill="#1A171B" points="37.463,47.097 42.772,31.673 40.525,31.673 36.604,43.374 32.682,31.673 30.435,31.673 
			35.744,47.097 		"/>
		
			<rect x="49.372" y="31.314" transform="matrix(0.4995 0.8663 -0.8663 0.4995 53.7121 -27.0599)" fill="#1A171B" width="1.806" height="3.284"/>
	</g>
</g>
<rect fill="none" width="100" height="100"/>
</svg>
