<svg xmlns="http://www.w3.org/2000/svg" width="192" height="13" viewBox="0 0 192 13"><linearGradient id="a" gradientUnits="userSpaceOnUse" x1=".09" y1="6.543" x2="191.91" y2="6.543"><stop offset="0" stop-color="#FEFEFE"/><stop offset=".5" stop-color="#DBDBDB"/><stop offset="1" stop-color="#FEFEFE"/></linearGradient><path fill="url(#a)" d="M15.86.086C12.046 4.106 7.455 7.388 2.753 10.28c-.88.543-1.77 1.07-2.664 1.59.403-.05.687-.4 0 0 19.947-2.416 39.93-4.007 59.994-4.99 20.383-.695 40.765-.978 61.148-.083 20.115.688 40.22 2.454 60.197 4.856 3.495.42 6.99.87 10.478 1.347-5.218-3.086-10.342-6.593-14.616-10.92-.64-.638-1.263-1.302-1.862-1.99"/></svg>