<?xml version="1.0" encoding="utf-8"?>
<!DOCTYPE svg PUBLIC "-//W3C//DTD SVG 1.1//EN" "http://www.w3.org/Graphics/SVG/1.1/DTD/svg11.dtd">
<svg version="1.1"
	 id="svg2759" xmlns:sodipodi="http://sodipodi.sourceforge.net/DTD/sodipodi-0.dtd" xmlns:svg="http://www.w3.org/2000/svg" xmlns:rdf="http://www.w3.org/1999/02/22-rdf-syntax-ns#" xmlns:dc="http://purl.org/dc/elements/1.1/" xmlns:cc="http://web.resource.org/cc/" xmlns:inkscape="http://www.inkscape.org/namespaces/inkscape" sodipodi:version="0.32" inkscape:version="0.45+devel" inkscape:output_extension="org.inkscape.output.svg.inkscape" sodipodi:docname="by-nc-nd.svg"
	 xmlns="http://www.w3.org/2000/svg" xmlns:xlink="http://www.w3.org/1999/xlink" x="0px" y="0px" width="120px" height="42px"
	 viewBox="0 0 120 42" enable-background="new 0 0 120 42" xml:space="preserve">
<sodipodi:namedview  height="42px" width="120px" id="base" inkscape:cy="89.569904" inkscape:zoom="1" borderopacity="1" bordercolor="#8b8b8b" pagecolor="#ffffff" objecttolerance="10" gridtolerance="10000" guidetolerance="10" inkscape:cx="179" inkscape:showpageshadow="false" inkscape:window-height="624" inkscape:window-y="401" inkscape:window-x="488" inkscape:window-width="1198" inkscape:current-layer="layer1" inkscape:document-units="px" inkscape:pageshadow="2" inkscape:pageopacity="0.0">
	</sodipodi:namedview>
<g id="g361" transform="matrix(0.9937728,0,0,0.9936696,-437.11979,0)" inkscape:export-xdpi="300.23013" inkscape:export-ydpi="300.23013" inkscape:export-filename="/mnt/hgfs/Bov/Documents/Work/2007/cc/identity/srr buttons/big/by-nc-nd.png">
	<path id="path3817_4_" fill="#AAB2AB" d="M443.289,0.449l114.064,0.203c1.593,0,3.018-0.237,3.018,3.18l-0.14,37.567H440.411V3.692
		C440.411,2.008,440.574,0.449,443.289,0.449z"/>
	<path id="path364" d="M558.351,0H442.12c-1.247,0-2.262,1.015-2.262,2.261v39.496c0,0.282,0.228,0.51,0.511,0.51H560.1
		c0.283,0,0.511-0.228,0.511-0.51V2.261C560.611,1.015,559.597,0,558.351,0z M442.12,1.022h116.23c0.683,0,1.238,0.556,1.238,1.24
		c0,0,0,15.891,0,27.387h-83.072c-3.045,5.506-8.912,9.244-15.645,9.244c-6.734,0-12.599-3.735-15.642-9.244h-4.349
		c0-11.496,0-27.387,0-27.387C440.88,1.578,441.437,1.022,442.12,1.022z"/>
	<g id="g5908_4_" transform="matrix(0.872921,0,0,0.872921,50.12536,143.2144)">
		<path id="path5906_4_" fill="#FFFFFF" d="M486.267-141.531c0.006,8.68-7.028,15.721-15.708,15.727
			c-8.68,0.006-15.721-7.028-15.727-15.708c0-0.007,0-0.013,0-0.019c-0.006-8.681,7.028-15.722,15.708-15.727
			c8.681-0.005,15.723,7.028,15.727,15.708C486.267-141.544,486.267-141.537,486.267-141.531z"/>
		<g id="g5706_4_" transform="translate(-289.6157,99.0653)">
			<path id="path5708_4_" d="M772.943-253.398c3.485,3.485,5.228,7.753,5.228,12.802c0,5.049-1.713,9.271-5.138,12.668
				c-3.636,3.576-7.932,5.364-12.89,5.364c-4.898,0-9.12-1.772-12.664-5.32c-3.546-3.545-5.318-7.783-5.318-12.712
				c0-4.928,1.772-9.196,5.318-12.802c3.455-3.487,7.677-5.23,12.664-5.23C765.191-258.628,769.457-256.885,772.943-253.398z
				 M749.824-251.054c-2.947,2.977-4.42,6.463-4.42,10.463c0,3.999,1.459,7.455,4.375,10.371c2.917,2.916,6.389,4.374,10.418,4.374
				c4.028,0,7.53-1.473,10.507-4.419c2.826-2.736,4.239-6.176,4.239-10.326c0-4.118-1.436-7.614-4.308-10.485
				c-2.871-2.871-6.35-4.307-10.438-4.307C756.108-255.383,752.649-253.939,749.824-251.054z M757.578-242.35
				c-0.45-0.982-1.123-1.472-2.023-1.472c-1.588,0-2.383,1.069-2.383,3.208c0,2.14,0.794,3.209,2.383,3.209
				c1.05,0,1.799-0.521,2.249-1.565l2.203,1.173c-1.05,1.864-2.626,2.799-4.726,2.799c-1.62,0-2.917-0.498-3.892-1.49
				c-0.975-0.994-1.463-2.363-1.463-4.108c0-1.716,0.503-3.077,1.508-4.086c1.005-1.008,2.258-1.512,3.758-1.512
				c2.221,0,3.81,0.875,4.771,2.623L757.578-242.35z M767.942-242.35c-0.451-0.982-1.112-1.472-1.982-1.472
				c-1.621,0-2.432,1.069-2.432,3.208c0,2.14,0.811,3.209,2.432,3.209c1.051,0,1.788-0.521,2.207-1.565l2.252,1.173
				c-1.048,1.864-2.621,2.799-4.718,2.799c-1.618,0-2.912-0.498-3.886-1.49c-0.973-0.994-1.46-2.363-1.46-4.108
				c0-1.716,0.494-3.077,1.483-4.086c0.988-1.008,2.245-1.512,3.774-1.512c2.216,0,3.803,0.875,4.761,2.623L767.942-242.35z"/>
		</g>
	</g>
	<g id="g370" enable-background="new    ">
		<path id="path372" fill="#FFFFFF" d="M488.253,32.957c0.317,0,0.608,0.028,0.87,0.084c0.261,0.056,0.485,0.147,0.673,0.275
			c0.187,0.127,0.331,0.297,0.435,0.508c0.102,0.212,0.154,0.472,0.154,0.784c0,0.336-0.076,0.615-0.229,0.838
			c-0.152,0.225-0.378,0.408-0.678,0.551c0.412,0.118,0.72,0.324,0.923,0.621c0.203,0.295,0.305,0.653,0.305,1.069
			c0,0.336-0.066,0.627-0.197,0.873c-0.131,0.246-0.308,0.446-0.528,0.601c-0.222,0.156-0.475,0.271-0.758,0.346
			c-0.284,0.075-0.575,0.112-0.875,0.112h-3.236v-6.663H488.253L488.253,32.957z M488.067,35.651c0.261,0,0.477-0.063,0.645-0.187
			c0.168-0.124,0.252-0.325,0.252-0.604c0-0.155-0.029-0.283-0.084-0.382c-0.057-0.099-0.131-0.177-0.225-0.233
			s-0.201-0.095-0.322-0.116c-0.121-0.022-0.248-0.032-0.379-0.032h-1.373v1.555H488.067z M488.152,38.48
			c0.143,0,0.281-0.014,0.411-0.042c0.131-0.028,0.246-0.076,0.347-0.14c0.099-0.066,0.178-0.154,0.238-0.266
			c0.059-0.112,0.088-0.256,0.088-0.429c0-0.341-0.096-0.586-0.29-0.732c-0.193-0.145-0.448-0.218-0.767-0.218h-1.6v1.828H488.152z"
			/>
		<path id="path374" fill="#FFFFFF" d="M490.964,32.957h1.644l1.561,2.632l1.551-2.632h1.634l-2.474,4.106v2.557h-1.469v-2.595
			L490.964,32.957z"/>
	</g>
	<g id="g376" enable-background="new    ">
		<path id="path378" fill="#FFFFFF" d="M512.831,32.957l2.784,4.47h0.016v-4.47h1.375v6.663h-1.466l-2.773-4.462h-0.019v4.462
			h-1.375v-6.663H512.831z"/>
		<path id="path380" fill="#FFFFFF" d="M522.569,34.732c-0.087-0.141-0.197-0.263-0.327-0.37c-0.131-0.105-0.278-0.189-0.443-0.247
			c-0.165-0.06-0.338-0.089-0.518-0.089c-0.33,0-0.61,0.064-0.841,0.192c-0.231,0.127-0.417,0.298-0.559,0.513
			c-0.143,0.215-0.248,0.459-0.313,0.732c-0.066,0.273-0.097,0.556-0.097,0.849c0,0.28,0.031,0.552,0.097,0.816
			c0.066,0.265,0.17,0.503,0.313,0.714c0.143,0.212,0.328,0.381,0.559,0.509c0.231,0.128,0.511,0.192,0.841,0.192
			c0.447,0,0.798-0.137,1.049-0.411c0.253-0.274,0.406-0.635,0.462-1.083h1.419c-0.036,0.417-0.134,0.793-0.289,1.129
			c-0.155,0.338-0.361,0.623-0.616,0.861c-0.255,0.238-0.554,0.418-0.896,0.542c-0.342,0.126-0.719,0.188-1.129,0.188
			c-0.511,0-0.97-0.088-1.379-0.266c-0.407-0.177-0.751-0.423-1.032-0.733c-0.281-0.311-0.495-0.677-0.645-1.097
			c-0.149-0.421-0.225-0.873-0.225-1.36c0-0.497,0.076-0.959,0.225-1.386c0.149-0.427,0.364-0.799,0.645-1.116
			s0.625-0.566,1.032-0.747c0.409-0.181,0.868-0.271,1.379-0.271c0.367,0,0.714,0.053,1.041,0.159
			c0.326,0.106,0.619,0.259,0.877,0.464c0.259,0.201,0.472,0.452,0.641,0.751c0.167,0.299,0.273,0.643,0.316,1.028h-1.419
			C522.713,35.025,522.656,34.871,522.569,34.732z"/>
	</g>
	<g id="g382" enable-background="new    ">
		<path id="path384" fill="#FFFFFF" d="M538.831,32.957l2.784,4.47h0.016v-4.47h1.375v6.663h-1.466l-2.773-4.462h-0.018v4.462
			h-1.376v-6.663H538.831z"/>
		<path id="path386" fill="#FFFFFF" d="M547.168,32.957c0.43,0,0.829,0.068,1.201,0.204c0.371,0.137,0.692,0.343,0.963,0.616
			c0.27,0.274,0.482,0.616,0.635,1.027c0.153,0.411,0.23,0.892,0.23,1.447c0,0.485-0.063,0.933-0.187,1.344
			c-0.126,0.409-0.314,0.765-0.566,1.063c-0.253,0.299-0.567,0.534-0.943,0.705c-0.377,0.171-0.822,0.257-1.333,0.257h-2.878v-6.663
			H547.168L547.168,32.957z M547.065,38.386c0.211,0,0.417-0.033,0.615-0.102c0.2-0.069,0.377-0.182,0.533-0.341
			c0.155-0.158,0.281-0.365,0.374-0.619c0.092-0.255,0.14-0.567,0.14-0.933c0-0.336-0.032-0.639-0.097-0.909
			c-0.066-0.27-0.173-0.502-0.322-0.695c-0.149-0.193-0.347-0.34-0.594-0.442c-0.246-0.103-0.549-0.153-0.91-0.153h-1.046v4.195
			H547.065L547.065,38.386z"/>
	</g>
	<g id="g6370_1_" transform="translate(286.1464,208.0498)">
		<g id="g7610_1_" transform="matrix(1.146822,0,0,1.146822,-67.14005,-41.89676)">
			<path id="path6372_1_" fill="#FFFFFF" d="M269.618-131.735c0.005,4.827-3.906,8.742-8.733,8.745
				c-4.826,0.003-8.742-3.906-8.745-8.733c0-0.005,0-0.009,0-0.012c-0.003-4.828,3.907-8.742,8.733-8.746
				c4.828-0.003,8.742,3.907,8.745,8.733C269.618-131.744,269.618-131.739,269.618-131.735z"/>
			<path id="path6374_1_" d="M260.865-141.91c2.853,0,5.264,0.983,7.234,2.95c1.969,1.968,2.954,4.376,2.954,7.225
				c0,2.848-0.968,5.231-2.903,7.148c-2.055,2.018-4.484,3.027-7.285,3.027c-2.767,0-5.153-1.001-7.157-3.002
				c-2.003-2-3.005-4.392-3.005-7.173c0-2.782,1.002-5.19,3.005-7.225C255.661-140.926,258.048-141.91,260.865-141.91z
				 M252.993-134.469c-0.303,0.859-0.456,1.77-0.456,2.734c0,2.255,0.824,4.205,2.471,5.85c1.647,1.644,3.608,2.466,5.883,2.466
				c2.275,0,4.254-0.83,5.934-2.492c0.563-0.544,1.027-1.137,1.391-1.78l-3.836-1.708c-0.26,1.291-1.41,2.162-2.799,2.264v1.569
				h-1.169v-1.569c-1.141-0.013-2.245-0.48-3.088-1.218l1.402-1.413c0.674,0.635,1.349,0.92,2.271,0.92
				c0.596,0,1.258-0.234,1.258-1.011c0-0.276-0.106-0.467-0.274-0.611l-0.97-0.431l-1.208-0.539
				c-0.597-0.267-1.104-0.491-1.612-0.717L252.993-134.469z M260.891-140.078c-2.31,0-4.262,0.814-5.858,2.442
				c-0.435,0.439-0.813,0.896-1.133,1.375l3.888,1.732c0.351-1.079,1.377-1.734,2.622-1.806v-1.569h1.169v1.569
				c0.804,0.039,1.686,0.259,2.556,0.933l-1.338,1.375c-0.493-0.35-1.116-0.596-1.739-0.596c-0.506,0-1.22,0.155-1.22,0.791
				c0,0.096,0.033,0.182,0.092,0.258l1.302,0.578l0.88,0.393c0.564,0.252,1.102,0.49,1.633,0.727l5.215,2.321
				c0.171-0.683,0.259-1.409,0.259-2.178c0-2.324-0.816-4.291-2.446-5.902C265.162-139.265,263.201-140.078,260.891-140.078z"/>
		</g>
	</g>
	<g id="g6394_1_" transform="matrix(0.624995,0,0,0.624995,312.8511,316.9328)">
		<path id="path6396_1_" fill="#FFFFFF" d="M387.834-482.973c0.009,9.41-7.616,17.047-17.028,17.053s-17.048-7.617-17.055-17.031
			c0-0.007,0-0.017,0-0.023c-0.006-9.412,7.618-17.048,17.03-17.055c9.412-0.008,17.047,7.617,17.053,17.029
			C387.834-482.99,387.834-482.983,387.834-482.973z"/>
		<g id="g6398_1_" transform="translate(-23.9521,-87.92102)">
			<path id="path6400_1_" d="M394.478-413.723c-5.171,0-9.55,1.803-13.132,5.413c-3.676,3.734-5.516,8.152-5.516,13.257
				c0,5.103,1.84,9.49,5.516,13.162c3.674,3.672,8.053,5.508,13.132,5.508c5.141,0,9.596-1.852,13.366-5.554
				c3.55-3.517,5.329-7.89,5.329-13.116c0-5.23-1.808-9.647-5.421-13.257C404.137-411.92,399.71-413.723,394.478-413.723z
				 M394.523-410.365c4.237,0,7.836,1.495,10.797,4.483c2.991,2.955,4.484,6.564,4.484,10.83c0,4.294-1.462,7.856-4.39,10.688
				c-3.086,3.049-6.717,4.573-10.891,4.573c-4.174,0-7.773-1.51-10.795-4.529c-3.022-3.017-4.533-6.596-4.533-10.732
				c0-4.141,1.527-7.75,4.582-10.83C386.704-408.87,390.286-410.365,394.523-410.365z"/>
			<g id="g6402_1_">
				<path id="path6404_1_" d="M401.555-399.479h-13.571v3.215h13.571V-399.479z M401.555-393.477h-13.571v3.214h13.571V-393.477z"/>
			</g>
		</g>
	</g>
	<g id="g398">
		
			<circle id="circle400" sodipodi:cx="491.9473" sodipodi:cy="15.31396" sodipodi:ry="10.80615" sodipodi:rx="10.80615" fill="#FFFFFF" cx="491.947" cy="15.314" r="10.805">
		</circle>
		<g id="g402">
			<path id="path404" d="M495.075,12.187c0-0.417-0.338-0.753-0.754-0.753h-4.773c-0.416,0-0.754,0.337-0.754,0.753v4.773h1.331
				v5.652h3.617V16.96h1.332V12.187L495.075,12.187z"/>
			
				<circle id="circle406" sodipodi:cx="491.9346" sodipodi:cy="9.1723604" sodipodi:ry="1.63232" sodipodi:rx="1.63232" cx="491.935" cy="9.172" r="1.632">
			</circle>
		</g>
		<path id="path408" d="M491.919,3.408c-3.232,0-5.968,1.127-8.207,3.384c-2.298,2.333-3.446,5.095-3.446,8.284
			c0,3.189,1.148,5.932,3.446,8.227c2.298,2.295,5.034,3.442,8.207,3.442c3.213,0,5.998-1.157,8.355-3.472
			c2.219-2.196,3.329-4.929,3.329-8.196c0-3.268-1.129-6.028-3.388-8.284C497.956,4.535,495.192,3.408,491.919,3.408z M491.95,5.508
			c2.648,0,4.896,0.934,6.746,2.8c1.87,1.847,2.805,4.104,2.805,6.768c0,2.683-0.915,4.911-2.746,6.681
			c-1.928,1.905-4.196,2.858-6.805,2.858c-2.61,0-4.859-0.943-6.748-2.828c-1.889-1.887-2.833-4.124-2.833-6.71
			s0.954-4.843,2.863-6.768C487.062,6.441,489.301,5.508,491.95,5.508z"/>
	</g>
</g>
</svg>
