<svg xmlns="http://www.w3.org/2000/svg" width="120" height="42" viewBox="0 0 120 42"><g><path fill="#AAB2AB" d="M3.41.446L116.76.648c1.584 0 3-.236 3 3.16l-.14 37.33H.55V3.667C.55 1.996.71.447 3.41.447z"/><path d="M117.754 0H2.247C1.007 0 0 1.01 0 2.247v39.246c0 .28.226.506.507.506h118.985c.282 0 .508-.227.508-.507V2.247C120 1.01 118.992 0 117.754 0zm325.09 1.016H558.35c.68 0 1.23.552 1.23 1.232V29.46h-82.554c-3.026 5.472-8.857 9.187-15.548 9.187-6.692 0-12.52-3.712-15.545-9.186h-4.32V2.25c0-.68.552-1.232 1.23-1.232z"/><g><path fill="#fff" d="M34.286 19.6c.006 7.526-6.093 13.63-13.618 13.636-7.526.005-13.63-6.093-13.636-13.62v-.015c-.005-7.526 6.094-13.63 13.62-13.635 7.526-.004 13.63 6.094 13.634 13.62v.016z"/><path d="M31.738 8.502c3.02 3.02 4.532 6.722 4.532 11.1 0 4.377-1.485 8.037-4.454 10.982-3.153 3.1-6.877 4.65-11.176 4.65-4.247 0-7.907-1.535-10.98-4.61-3.074-3.075-4.61-6.75-4.61-11.023 0-4.27 1.536-7.972 4.61-11.098 2.996-3.023 6.656-4.534 10.98-4.534 4.377 0 8.075 1.51 11.098 4.534zm721.16-259.868c-2.554 2.58-3.83 5.604-3.83 9.072 0 3.467 1.264 6.463 3.792 8.99 2.53 2.53 5.54 3.794 9.032 3.794s6.53-1.278 9.11-3.832c2.45-2.372 3.675-5.354 3.675-8.952 0-3.57-1.245-6.602-3.735-9.09-2.49-2.49-5.505-3.735-9.05-3.735-3.545 0-6.544 1.253-8.993 3.754zm3.65 7.858c-.39-.85-.975-1.276-1.755-1.276-1.377 0-2.066.927-2.066 2.78 0 1.857.688 2.784 2.066 2.784.91 0 1.56-.452 1.95-1.357l1.91 1.017c-.91 1.616-2.277 2.427-4.098 2.427-1.404 0-2.53-.432-3.374-1.292-.844-.862-1.268-2.05-1.268-3.562 0-1.488.437-2.668 1.308-3.542.87-.873 1.958-1.31 3.258-1.31 1.926 0 3.303.758 4.137 2.274l-2.068 1.058zm10.016 1.158c-.39-.85-.965-1.276-1.72-1.276-1.404 0-2.107.927-2.107 2.78 0 1.856.703 2.783 2.108 2.783.91 0 1.55-.45 1.914-1.357l1.95 1.017c-.907 1.617-2.27 2.427-4.09 2.427-1.402 0-2.524-.432-3.37-1.292-.842-.86-1.264-2.048-1.264-3.56 0-1.49.428-2.67 1.285-3.544.858-.874 1.948-1.31 3.273-1.31 1.922 0 3.298.758 4.128 2.273l-2.106 1.06z"/></g><g enable-background="new" fill="#fff"><path d="M48.093 32.748c.315 0 .604.028.864.084.26.055.482.146.67.273.185.126.328.295.43.505.103.21.154.47.154.78 0 .333-.074.61-.226.832-.15.223-.376.405-.674.547.41.116.716.32.917.616.202.293.303.65.303 1.062 0 .334-.065.623-.195.868-.13.244-.306.443-.525.597-.22.155-.472.27-.753.344-.283.074-.572.11-.87.11H44.97v-6.62h3.123zm439.975 2.886c.26 0 .474-.063.64-.186.168-.123.252-.323.252-.6 0-.154-.03-.28-.084-.38-.057-.098-.13-.176-.224-.23s-.2-.096-.32-.116c-.12-.022-.246-.032-.376-.032h-1.365v1.545h1.478zm.083 2.828c.144 0 .28-.014.41-.042.13-.027.244-.075.345-.14.098-.064.177-.152.236-.263.06-.11.09-.254.09-.426 0-.338-.097-.582-.29-.727-.19-.144-.445-.216-.762-.216h-1.59v1.816h1.563z"/><path d="M50.787 32.748h1.634l1.552 2.616 1.54-2.616h1.625l-2.46 4.08v2.54H53.22v-2.577l-2.433-4.042z"/></g><g enable-background="new" fill="#fff"><path d="M72.518 32.748l2.766 4.442h.016v-4.442h1.367v6.62H75.21l-2.756-4.433h-.02v4.434H71.07v-6.622h1.448z"/><path d="M82.195 34.512c-.086-.14-.196-.26-.325-.368-.13-.104-.276-.187-.44-.245-.164-.06-.336-.09-.515-.09-.328 0-.606.064-.836.19-.23.128-.415.297-.556.51-.142.215-.247.457-.31.73-.067.27-.098.55-.098.842 0 .278.03.55.097.81.065.264.17.5.31.71.143.21.327.38.556.506.23.127.507.19.835.19.444 0 .793-.135 1.043-.407.25-.272.403-.63.46-1.076h1.41c-.037.415-.134.788-.288 1.122-.154.336-.36.62-.613.856s-.55.415-.89.538c-.34.126-.714.187-1.122.187-.508 0-.964-.087-1.37-.264-.405-.176-.747-.42-1.026-.728-.28-.31-.493-.673-.642-1.09-.148-.42-.223-.868-.223-1.352 0-.494.075-.953.223-1.377.148-.424.362-.794.64-1.11s.622-.56 1.027-.74c.406-.18.862-.27 1.37-.27.365 0 .71.052 1.035.157.324.106.615.258.87.46.26.2.47.45.638.748.166.298.27.64.314 1.022h-1.41c-.024-.17-.08-.322-.167-.46z"/></g><g enable-background="new" fill="#fff"><path d="M98.356 32.748l2.766 4.442h.016v-4.442h1.367v6.62h-1.457l-2.756-4.433h-.018v4.434h-1.367v-6.622h1.45z"/><path d="M106.64 32.748c.428 0 .825.068 1.194.203.37.137.688.342.957.613.27.272.48.612.632 1.02.153.41.23.887.23 1.44 0 .48-.064.926-.187 1.334-.125.406-.312.76-.562 1.056-.252.297-.564.53-.937.7-.375.17-.817.256-1.325.256h-2.86v-6.622h2.86zm440.426 5.604c.21 0 .414-.033.61-.102.2-.068.375-.18.53-.34.155-.156.28-.36.372-.614.092-.253.14-.563.14-.927 0-.335-.033-.636-.097-.904-.065-.268-.17-.5-.32-.69-.147-.192-.344-.338-.59-.44-.244-.102-.545-.152-.904-.152h-1.04v4.17h1.3v-.002z"/></g><g><path fill="#fff" d="M87.873 14.91c.005 5.503-4.453 9.966-9.956 9.97-5.502.003-9.966-4.453-9.97-9.956v-.014c-.003-5.504 4.455-9.966 9.956-9.97 5.504-.004 9.966 4.454 9.97 9.955v.015z"/><path d="M77.894 3.31c3.253 0 6 1.12 8.247 3.364 2.246 2.243 3.368 4.988 3.368 8.236 0 3.247-1.103 5.963-3.31 8.15-2.342 2.3-5.11 3.45-8.304 3.45-3.154 0-5.874-1.142-8.16-3.423-2.282-2.28-3.425-5.007-3.425-8.177s1.142-5.916 3.425-8.236c2.227-2.242 4.948-3.363 8.16-3.363zm173.997-136.737c-.344.98-.52 2.018-.52 3.117 0 2.57.94 4.793 2.818 6.67 1.878 1.873 4.113 2.81 6.707 2.81 2.593 0 4.85-.946 6.764-2.84.64-.62 1.17-1.297 1.585-2.03l-4.373-1.947c-.296 1.47-1.607 2.464-3.19 2.58v1.79h-1.333v-1.79c-1.302-.014-2.56-.547-3.522-1.388l1.6-1.61c.767.723 1.536 1.048 2.587 1.048.68 0 1.435-.267 1.435-1.153 0-.314-.12-.532-.313-.696l-1.106-.49-1.376-.616c-.68-.304-1.258-.56-1.837-.817l-5.926-2.637zm10.107-7.436c-2.634 0-4.86.928-6.678 2.784-.497.5-.928 1.022-1.293 1.568l4.432 1.975c.4-1.23 1.57-1.977 2.988-2.06v-1.788h1.333v1.79c.918.043 1.923.294 2.915 1.062l-1.525 1.568c-.562-.4-1.273-.68-1.983-.68-.577 0-1.39.177-1.39.902 0 .11.037.208.104.294l1.485.66 1.004.448c.642.288 1.255.56 1.86.83l5.945 2.645c.195-.78.296-1.606.296-2.483 0-2.65-.93-4.892-2.788-6.728-1.836-1.858-4.072-2.785-6.705-2.785z"/></g><g><path fill="#fff" d="M114.628 15c.006 5.843-4.73 10.586-10.574 10.59s-10.587-4.73-10.592-10.577V15c-.003-5.846 4.73-10.588 10.576-10.592 5.845-.005 10.586 4.73 10.59 10.575V15z"/><g><path d="M103.88 3.405c-3.21 0-5.93 1.12-8.155 3.36C93.442 9.086 92.3 11.83 92.3 15c0 3.168 1.142 5.892 3.425 8.173 2.28 2.28 5 3.42 8.155 3.42 3.192 0 5.96-1.15 8.3-3.45 2.205-2.183 3.31-4.9 3.31-8.144 0-3.25-1.123-5.992-3.367-8.234-2.245-2.24-4.994-3.36-8.243-3.36zm290.626-415.043c2.63 0 4.866.93 6.705 2.784 1.858 1.835 2.785 4.077 2.785 6.726 0 2.666-.907 4.878-2.726 6.637-1.917 1.892-4.172 2.84-6.764 2.84-2.592 0-4.827-.94-6.704-2.814-1.876-1.873-2.815-4.096-2.815-6.664 0-2.572.95-4.813 2.846-6.726 1.817-1.855 4.042-2.784 6.673-2.784z"/><path d="M108.275 12.25h-8.428v1.997h8.428V12.25zm293.28-408.002h-8.428v1.996h8.428v-1.996z"/></g></g><g transform="matrix(.994 0 0 .994 -437.12 0)"><circle fill="#fff" cx="491.947" cy="15.314" r="10.805"/><g><path d="M495.075 12.187c0-.417-.338-.753-.754-.753h-4.772c-.416 0-.754.337-.754.753v4.773h1.33v5.652h3.618V16.96h1.332v-4.773z"/><circle cx="491.935" cy="9.172" r="1.632"/></g><path d="M491.92 3.408c-3.233 0-5.97 1.127-8.208 3.384-2.298 2.333-3.446 5.095-3.446 8.284 0 3.19 1.148 5.932 3.446 8.227s5.034 3.442 8.207 3.442c3.212 0 5.997-1.157 8.354-3.472 2.22-2.196 3.33-4.93 3.33-8.196 0-3.268-1.13-6.028-3.39-8.284-2.258-2.258-5.022-3.385-8.295-3.385zm.03 2.1c2.648 0 4.896.934 6.746 2.8 1.87 1.847 2.805 4.104 2.805 6.768 0 2.683-.914 4.91-2.745 6.68-1.928 1.906-4.196 2.86-6.805 2.86-2.61 0-4.86-.944-6.748-2.83-1.89-1.886-2.833-4.123-2.833-6.71s.953-4.842 2.862-6.767c1.83-1.87 4.07-2.802 6.718-2.802z"/></g></g></svg>