<svg xmlns="http://www.w3.org/2000/svg" width="120" viewBox="-0.001 0 120.001 42" enable-background="new -0.001 0 120.001 42"><path fill="#aab2ab" d="m3.409.446l113.35.202c1.583 0 2.999-.235 2.999 3.16l-.139 37.33h-119.07v-37.469c0-1.673.162-3.222 2.86-3.222"/><path d="m117.75 0h-115.51c-1.239 0-2.248 1.01-2.248 2.247v39.25c0 .281.227.508.508.508h118.98c.281 0 .508-.227.508-.508v-39.25c0-1.238-1.01-2.247-2.246-2.247m-115.51 1.016h115.51c.678 0 1.229.552 1.229 1.232 0 0 0 15.791 0 27.21h-82.55c-3.03 5.472-8.856 9.186-15.547 9.186-6.692 0-12.521-3.711-15.544-9.186h-4.323c0-11.423 0-27.21 0-27.21 0-.68.553-1.232 1.232-1.232"/><g transform="matrix(.87292 0 0 .87292 50.13 143.21)"><path fill="#fff" d="m-17.874-141.67c.006 8.625-6.984 15.621-15.61 15.627-8.626.007-15.623-6.983-15.629-15.608 0-.007 0-.013 0-.019-.006-8.626 6.984-15.622 15.61-15.628 8.627-.005 15.625 6.984 15.629 15.609 0 .006 0 .013 0 .019"/><path d="m268.82-253.46c3.464 3.463 5.195 7.704 5.195 12.721 0 5.02-1.702 9.212-5.106 12.588-3.613 3.553-7.883 5.33-12.809 5.33-4.868 0-9.06-1.761-12.585-5.286-3.524-3.523-5.285-7.734-5.285-12.632 0-4.897 1.761-9.138 5.285-12.721 3.433-3.465 7.629-5.197 12.585-5.197 5.02 0 9.256 1.733 12.72 5.197m-22.974 2.33c-2.929 2.958-4.393 6.422-4.393 10.397 0 3.973 1.45 7.408 4.348 10.305 2.899 2.898 6.349 4.346 10.353 4.346 4 0 7.483-1.464 10.441-4.391 2.809-2.719 4.213-6.137 4.213-10.261 0-4.092-1.427-7.565-4.281-10.418-2.853-2.853-6.311-4.28-10.373-4.28-4.064 0-7.501 1.435-10.308 4.302m7.705 8.649c-.447-.976-1.116-1.463-2.01-1.463-1.578 0-2.368 1.062-2.368 3.188 0 2.126.789 3.188 2.368 3.188 1.044 0 1.788-.517 2.235-1.555l2.189 1.166c-1.043 1.853-2.609 2.781-4.696 2.781-1.61 0-2.899-.494-3.868-1.481-.969-.987-1.454-2.347-1.454-4.081 0-1.706.5-3.057 1.499-4.06.998-1 2.244-1.502 3.735-1.502 2.207 0 3.786.87 4.741 2.607l-2.37 1.212m10.299 0c-.448-.976-1.105-1.463-1.97-1.463-1.611 0-2.416 1.062-2.416 3.188 0 2.126.806 3.188 2.416 3.188 1.045 0 1.777-.517 2.193-1.555l2.238 1.166c-1.042 1.853-2.604 2.781-4.689 2.781-1.608 0-2.894-.494-3.862-1.481-.967-.987-1.451-2.347-1.451-4.081 0-1.706.491-3.057 1.474-4.06.982-1 2.231-1.502 3.751-1.502 2.202 0 3.779.87 4.731 2.607l-2.415 1.212" transform="translate(-289.62 99.07)"/></g><g enable-background="new    " fill="#fff"><path d="m48.09 32.748c.315 0 .604.028.865.084.259.056.482.146.668.273.186.126.329.295.433.504.101.211.153.47.153.779 0 .334-.076.611-.228.833-.151.224-.375.405-.674.548.41.117.716.321.917.617.202.293.303.648.303 1.062 0 .334-.065.623-.195.868-.13.244-.306.443-.525.597-.221.155-.472.27-.753.344-.282.075-.571.111-.87.111h-3.216v-6.62h3.122m-.185 2.678c.259 0 .474-.062.641-.187.167-.123.25-.323.25-.601 0-.153-.029-.281-.083-.379-.057-.099-.13-.176-.224-.231s-.2-.095-.32-.115c-.12-.022-.247-.032-.376-.032h-1.365v1.545h1.477m.084 2.81c.143 0 .279-.014.409-.041.13-.028.245-.076.345-.14.099-.065.177-.153.237-.265.059-.111.087-.254.087-.426 0-.339-.096-.582-.289-.728-.191-.144-.445-.217-.762-.217h-1.59v1.816h1.563"/><path d="m50.787 32.748h1.634l1.551 2.615 1.541-2.615h1.624l-2.458 4.08v2.541h-1.46v-2.578l-2.432-4.04"/></g><g fill="#fff" enable-background="new    "><path d="m72.52 32.748l2.767 4.441h.017v-4.441h1.366v6.621h-1.458l-2.756-4.434h-.019v4.434h-1.367v-6.621h1.45"/><path d="m82.19 34.512c-.087-.14-.196-.261-.325-.367-.13-.104-.276-.188-.44-.246s-.336-.088-.515-.088c-.328 0-.606.063-.836.191-.229.125-.414.295-.556.51-.142.213-.246.455-.311.727-.066.271-.097.553-.097.844 0 .278.03.549.097.811.065.264.169.5.311.71.143.21.326.378.556.506.229.127.508.19.836.19.444 0 .793-.136 1.042-.408.252-.272.404-.631.459-1.076h1.41c-.035.414-.133.788-.287 1.122-.153.335-.358.618-.611.855-.254.236-.551.415-.891.538-.34.125-.715.188-1.122.188-.508 0-.964-.088-1.37-.265-.404-.176-.746-.421-1.025-.729-.279-.31-.492-.673-.642-1.09-.147-.419-.224-.868-.224-1.352 0-.493.076-.952.224-1.377s.362-.794.642-1.108c.279-.315.621-.562 1.025-.743.406-.18.862-.269 1.37-.269.364 0 .71.053 1.034.157.324.105.615.258.872.462.257.199.469.449.637.746.166.297.271.639.313 1.021h-1.41c-.023-.169-.08-.322-.166-.46"/><path d="m98.36 32.748l2.768 4.441h.016v-4.441h1.366v6.621h-1.457l-2.756-4.434h-.018v4.434h-1.368v-6.621h1.449"/><path d="m106.64 32.748c.428 0 .824.068 1.193.203.369.137.688.341.957.611.269.273.479.613.631 1.021.152.408.229.887.229 1.438 0 .482-.062.928-.186 1.336-.125.406-.312.76-.562 1.056-.251.298-.562.53-.937.7-.375.17-.817.256-1.325.256h-2.859v-6.621h2.859m-.102 5.395c.209 0 .414-.032.611-.102.198-.068.374-.18.529-.338.154-.157.279-.363.371-.615.092-.254.14-.563.14-.928 0-.334-.032-.635-.097-.902-.065-.269-.172-.499-.32-.691-.147-.191-.344-.338-.59-.439-.244-.102-.545-.151-.904-.151h-1.039v4.169h1.299v-.003"/></g><g transform="matrix(1.14682 0 0 1.14682 219.01 166.15)"><path fill="#fff" d="m-114.41-131.82c.005 4.796-3.881 8.687-8.679 8.69-4.796.003-8.687-3.881-8.69-8.678 0-.005 0-.009 0-.012-.003-4.798 3.882-8.687 8.678-8.69 4.798-.003 8.688 3.882 8.691 8.678 0 .003 0 .008 0 .012"/><path d="m-123.11-141.93c2.835 0 5.23.977 7.189 2.931 1.957 1.956 2.935 4.348 2.935 7.179 0 2.83-.961 5.198-2.885 7.103-2.042 2-4.456 3.01-7.239 3.01-2.75 0-5.121-.995-7.113-2.983-1.99-1.987-2.986-4.364-2.986-7.128 0-2.765.996-5.157 2.986-7.179 1.941-1.953 4.314-2.931 7.113-2.931m-7.823 7.394c-.301.854-.453 1.759-.453 2.717 0 2.241.819 4.178 2.456 5.813 1.637 1.634 3.585 2.45 5.847 2.45 2.26 0 4.227-.824 5.897-2.476.559-.54 1.021-1.129 1.382-1.768l-3.811-1.697c-.259 1.283-1.402 2.148-2.782 2.25v1.559h-1.162v-1.559c-1.133-.013-2.231-.477-3.068-1.21l1.393-1.404c.67.631 1.341.915 2.257.915.592 0 1.25-.232 1.25-1 0-.274-.106-.464-.272-.607l-.964-.428-1.201-.536c-.594-.265-1.097-.488-1.603-.712l-5.166-2.302m7.849-5.573c-2.296 0-4.236.809-5.822 2.426-.432.436-.808.89-1.126 1.366l3.863 1.721c.349-1.072 1.369-1.723 2.606-1.794v-1.559h1.161v1.559c.8.038 1.676.257 2.541.927l-1.33 1.366c-.49-.348-1.109-.592-1.729-.592-.502 0-1.212.154-1.212.786 0 .095.033.181.091.256l1.294.574.874.39c.561.251 1.095.487 1.623.723l5.182 2.306c.17-.679.258-1.4.258-2.164 0-2.309-.812-4.264-2.431-5.865-1.599-1.619-3.547-2.426-5.843-2.426"/></g><g transform="matrix(.625 0 0 .625 312.85 316.93)"><path fill="#fff" d="m-317.1-483.13c.009 9.351-7.569 16.939-16.922 16.945-9.353.006-16.941-7.569-16.949-16.924 0-.006 0-.016 0-.023-.006-9.352 7.57-16.94 16.924-16.947 9.353-.008 16.941 7.569 16.947 16.921 0 .012 0 .019 0 .028"/><g transform="translate(-23.952-87.92)"><path d="m-310.34-413.76c-5.139 0-9.491 1.791-13.05 5.379-3.653 3.71-5.481 8.1-5.481 13.173 0 5.071 1.828 9.43 5.481 13.08 3.65 3.648 8 5.473 13.05 5.473 5.109 0 9.536-1.841 13.283-5.519 3.527-3.495 5.295-7.841 5.295-13.03 0-5.197-1.797-9.586-5.388-13.173-3.591-3.587-7.99-5.378-13.19-5.378m.044 3.336c4.213 0 7.788 1.485 10.731 4.455 2.972 2.936 4.456 6.522 4.456 10.761 0 4.267-1.453 7.806-4.363 10.62-3.069 3.03-6.675 4.544-10.825 4.544-4.147 0-7.723-1.5-10.727-4.5-3-2.998-4.505-6.554-4.505-10.664 0-4.114 1.517-7.701 4.553-10.761 2.911-2.97 6.471-4.455 10.68-4.455"/><path d="m-303.31-399.6h-13.486v3.195h13.486v-3.195m0 5.964h-13.486v3.193h13.486v-3.193"/></g></g><circle fill="#fff" cx="51.764" cy="15.217" r="10.736"/><path d="m54.873 12.11c0-.415-.336-.748-.75-.748h-4.743c-.414 0-.75.334-.75.748v4.743h1.323v5.616h3.595v-5.616h1.323v-4.743h.002"/><circle cx="51.752" cy="9.114" r="1.622"/><path d="m51.736 3.386c-3.212 0-5.931 1.12-8.156 3.363-2.284 2.318-3.425 5.062-3.425 8.231s1.141 5.895 3.425 8.175 5 3.421 8.156 3.421c3.193 0 5.961-1.15 8.303-3.451 2.205-2.182 3.309-4.897 3.309-8.144 0-3.247-1.123-5.99-3.367-8.231-2.246-2.244-4.992-3.364-8.245-3.364m.031 2.087c2.632 0 4.866.928 6.704 2.782 1.858 1.835 2.787 4.078 2.787 6.725 0 2.666-.909 4.88-2.729 6.639-1.916 1.893-4.17 2.84-6.763 2.84-2.594 0-4.829-.938-6.706-2.811-1.877-1.875-2.815-4.097-2.815-6.667 0-2.569.948-4.812 2.845-6.725 1.819-1.856 4.04-2.783 6.677-2.783"/></svg>