<?xml version="1.0" encoding="utf-8"?>
<!-- Generator: Adobe Illustrator 16.0.0, SVG Export Plug-In . SVG Version: 6.00 Build 0)  -->
<!DOCTYPE svg PUBLIC "-//W3C//DTD SVG 1.1//EN" "http://www.w3.org/Graphics/SVG/1.1/DTD/svg11.dtd">
<svg version="1.1" id="Layer_1" xmlns="http://www.w3.org/2000/svg" xmlns:xlink="http://www.w3.org/1999/xlink" x="0px" y="0px"
	 width="200px" height="237.333px" viewBox="0 0 200 237.333" enable-background="new 0 0 200 237.333" xml:space="preserve">
<g>
	<polyline fill="none" points="338.724,3 -139.696,3 -139.696,375.675 	"/>
	<path fill="#CDE4B7" d="M118.44,5.271c-2.581,0.831-3.836,3.678-3.836,3.678s-0.834-0.624-1.827-0.624
		c-1.025,0-2.116,0.743-2.059,2.277c0,2.35,1.964,2.87,2.599,3.224c0.628,0.35,0.045,1.496-0.894,1.109
		c-0.941-0.391-2.677-1.41-2.871-1.671l-0.8-0.07c-0.224,0.164-2.106,0.982-2.775,1.206c-0.661,0.223-1.391-0.907-0.169-1.219
		c2.78-0.69,2.711-2.928,2.711-2.928c0-2.323-1.479-2.556-3.388-2.593c-0.079-1.095-0.899-4.691-3.101-4.691
		c-2.693,0-3.903,5.055-3.903,5.055s-0.366-0.177-1.373-0.177c-0.994,0-1.802,1.102-1.802,2.649c0,1.539,1.375,2.506,2.314,2.838
		c0.924,0.332,0.811,0.83,0.713,1.021c-0.099,0.184-0.65,0.462-1.652,0.244c-0.989-0.211-1.827-1.141-2.147-1.531
		c-0.331-0.387-0.688-0.039-0.688-0.039c-0.254,0.22-1.223,0.726-1.923,1.411c-1.208,1.186-2.013,0.667-1.859,0.197
		c0.103-0.292,0.272-0.67,0.775-1.279c0.866-1.021,2.615-1.216,2.615-3.026c0-1.802-2.22-1.711-3.585-1.711
		c-0.554-1.22-1.177-1.991-2.293-2.608c-1.469-0.807-1.534,0.292-1.196,0.68c2.859,3.205,3.398,13.413,3.398,13.413h25.477
		c0-0.888,0.036-1.575,0.146-2.478h-14.442c-1.772,0-1.577-0.918-0.343-0.918c1.048,0,12.029,0,14.895-0.021
		c0.729-5.092,2.785-9.914,3.732-10.958C119.198,5.287,118.846,5.12,118.44,5.271"/>
	<path fill="#CDE4B7" d="M82.965,39.233c0,0,1.021-0.685,2.093-0.986c-0.041,2.054-0.206,3.652-0.152,3.652
		C84.958,41.899,83.634,40.141,82.965,39.233"/>
	<path fill="#CDE4B7" d="M86.019,44.046v2.373l2.532-0.02C88.551,46.399,86.439,44.698,86.019,44.046"/>
	<path fill="#CDE4B7" d="M84.495,46.306c0,0-5.449,0.894-7.896,0.894c-2.471,0-10.095-0.801-10.095-6.17
		c0-3.025,0.746-4.202,1.78-4.202c-0.065,0.366-0.086,2.444,1.441,4.272c1.69,1.889,4.611,3.073,7.684,3.073
		c5.012,0,7.11-0.253,7.087-0.312V46.306z"/>
	<path fill="#CDE4B7" d="M87.814,43.896c0,0,1.112-0.128,2.754,0.412c1.65,0.537,1.915,0.681,2.023,0.882
		c0.111,0.202,0.13,0.854-0.407,1.095c-0.535,0.239-0.983,0.276-1.259,0.223l-3.112-2.279V43.896z"/>
	<path fill="#CDE4B7" d="M117.087,36.635c0.777-0.179,2.58-0.477,4.32,0.334c1.74,0.816,2.432,1.594,4.189,1.559
		c1.738-0.039,3.326-0.498,3.811-0.945c0,4.998-2.808,5.696-3.843,5.696c-1.018,0-3.19-1.779-4.02-2.311
		c-0.839-0.524-2.34-0.03-0.503,1.116c4.105,2.918,6.162,4.248,5.666,9.416c-2.69-2.946-4.279-4.106-5.552-5.083
		c-1.277-0.975-2.927-0.386-0.528,1.358c2.387,1.753,3.773,3.419,4.813,5.805c1.044,2.391,1.151,4.353,0.979,6.484
		c-1.444-3.171-4.225-5.612-5.214-6.17c0.782-1.167,0.824-1.645,0.536-2.242c-0.954,0.518-2.304,0.412-3.266-0.197
		c-0.955-0.618-1.447-1.112-1.61-1.469c-0.164-0.346-0.092-0.885,0.257-1.644c0.359-0.758,1.207-2.263,1.207-5.823
		C118.33,38.974,117.087,36.635,117.087,36.635"/>
	<path fill="#CDE4B7" d="M113.034,54.918c0,0,1.538,0.922,3.988,0.922c2.439,0,2.864-1.089,2.864-1.089s2.908,2.214,4.8,5.653
		c1.885,3.421,1.456,4.236,3.072,7.756c1.615,3.518,3.149,5.739,3.149,5.739s-4.692-0.037-6.945-2.337
		c-2.263-2.293-3.393-4.551-5.152-6.351c-1.753-1.79-2.837-2.518-3.708-3.275c-0.868-0.762-3.314-1.75-0.73,1.218
		c2.567,2.963,4.573,4.964,5.515,6.934c0.943,1.955,1.484,5.199,1.484,8.53c0,3.335-1.594,7.985-2.985,9.834
		c-0.627-8.699-3.581-11.835-6.83-16.252c-1.759-2.357-2.528-1.524-0.962,0.779c0,0,2.396,3.777,3.722,7.811
		c1.313,4.03,1.487,7.828,3.019,11.941c1.511,4.106,2.879,5.908,3.872,6.559c-4.877,0-6.454-1.665-8.172-3.317
		c-1.717-1.651-3.156-3.742-3.256-4.389c-0.12-0.647,0-4.607,0-6.124c0-1.528-1.101-1.783-1.101,0.068
		c0,1.848-1.031,7.113-1.567,8.942c-0.535,1.837-2.221,6.693-2.3,9.055c-1.364,0-5.362-7.865-5.362-10.303
		c0-2.449-0.147-6.34,1.001-8.1c2.825,0,6.858,0.258,8.492-3.74c0.168-0.44,0.357-0.872-1.415-1.135
		c-1.749-0.252-3.442-1.663-4.11-4.27c-0.064-0.32,1.094-1.018,2.161-3.5c1.046-2.486,2.069-4.132,3.813-6.521
		c1.743-2.395,2.499-2.958,3.066-5.591C113.034,57.73,113.034,54.918,113.034,54.918"/>
	<path fill="#CDE4B7" d="M184.003,102.536c-1.31,0.831-2.137,1.181-2.636,1.193c-0.303,0-0.484-0.195-0.492-0.445
		c0.011-0.745,1.23-2.191,2.927-3.219c3.101-1.835,6.273-4.388,7.373-5.773c0.91-1.177,2.451-3.166,2.451-7.012
		c0-0.539-0.016-1.166-0.016-1.767l-0.082-0.736c-2.889,4.433-6.682,6.362-8.627,7.905c-0.492,0.375-0.907,0.549-1.223,0.549
		c-0.439,0-0.659-0.36-0.67-0.778c0.011-0.505,0.272-1.121,0.817-1.558c1.263-1.04,5.056-3.838,6.521-5.202
		c1.323-1.231,3.006-3.791,3.006-7.933l0.037-0.796l0.004-0.417c-0.811,1.109-2.404,2.129-4.646,3.717
		c-1.873,1.336-5.453,4.322-6.786,5.327l-0.452,0.38l0.013-0.076l-0.092,0.06c-0.009,0,0.032-0.331,0.032-0.977
		c0-2.127-0.539-7.787-5.287-16.518c-3.123-5.732-5.858-9.213-8.394-12.052c0,0.007-1.295,0.806-2.813,2.291
		c-1.445,1.415-2.68,2.837-2.805,2.85c1.137,0.92,2.249,2.029,3.31,3.416c4.348,5.708,7.749,12.1,7.749,25.723
		c0,13.63-4.135,30.152-5.396,34.457c-1.263,4.292-1.331,4.299-1.554,5.105c-0.143,0.432-0.485,1.016-0.857,1.047
		c-0.27-0.027-0.38-0.295-0.38-0.854c0-0.36,0.045-0.845,0.17-1.486c0.306-1.87,0.811-4.718,0.811-7.726
		c0-2.061-0.243-4.181-0.853-6.142c-0.195-0.515-0.398-1.013-0.655-1.499c-0.096,0.777-0.525,4.316-1.125,6.075
		c-0.67,1.962-1.479,4.847-1.587,6.794c-0.066,0.955-0.323,1.436-0.708,1.458c-0.388-0.022-0.636-0.526-0.646-1.314l0.01-0.085
		c0.04-1.652,1.001-5.646,1.635-7.402c0.558-1.562,1.009-3.847,1.009-5.625l-0.016-0.556c-0.102-1.549-0.387-2.295-1.213-3.25
		l-0.495-0.486c-0.655,2.712-0.551,3.741-1.543,6.353c-1.013,2.65-2.267,4.467-2.49,6.281c-0.138,1.191-0.238,2.766-0.238,4.072
		c0,0.708,0.029,1.348,0.101,1.795c0.191,1.294,0.221,1.457,0.518,2.046l0.051,0.252c-0.005,0.406-0.389,0.763-0.876,0.769
		l-0.776-0.358l-0.327-0.724l-0.067-0.148c-0.265-0.709-0.39-1.57-0.39-2.652c0-0.343,0-0.701,0.008-1.062v-0.23
		c0-1.878-0.442-2.978-1.408-5.477c-0.988-2.575-4.106-8.508-5.917-14.447c-1.263-4.097-1.877-7.708-1.877-11.827
		c0-1.876,0.134-3.849,0.381-6.024c0.834-6.999,6.199-18.22,9.176-21.912c0.017,0,8.218-9.619,10.691-11.167
		c2.133-1.334,4.233-2.538,6.481-2.538c0.319,0,0.629,0.034,0.963,0.08c2.549,0.414,4.368,1.091,5.605,2.936
		c1.161,1.721,1.195,2.694,1.133,3.374v0.136c2.134-0.463,2.591-3.399,2.627-5.08v-0.062c0-1.664-1.742-4.417-4.715-4.479
		c-1.711,0-2.705-0.042-2.804-0.125l-0.014-0.123c-0.007-0.358,0.217-1.391,2.072-1.443c0.388-0.017,0.741-0.051,1.023-0.017
		c3.441,0.334,4.841,1.562,7.289-4.489c0.26-0.616,0.242-1.011,0.326-1.655c-2.21,1.408-2.99,2.23-3.914,2.999
		c-0.952,0.792-2.066,1.142-2.979,1.178l-0.029-0.009c-0.465,0-0.848-0.222-0.862-0.607c0.015-0.357,0.321-0.735,1.026-1.117
		c1.502-0.816,2.889-1.677,5.421-4.461c2.507-2.784,2.748-3.502,2.978-6.058c0.13-1.568,0.156-2.302,0.156-2.684v-0.183
		l-0.141,0.269c-0.191,0.321-0.456,0.78-0.765,1.283c-0.622,1.024-1.427,2.266-2.209,3.136c-1.548,1.741-2.938,2.884-3.994,3.534
		l-0.602,0.218l-0.425-0.474c0.02-0.387,0.251-0.955,0.732-1.621c1.035-1.452,3.224-3.963,4.891-6.295
		c1.653-2.337,2.422-3.595,2.542-6.475v-0.582c0-2.04-0.407-3.503-0.782-4.561l-0.29-0.602c-0.663,2.829-1.101,4.11-2.573,5.927
		c-1.508,1.833-1.727,2.029-3.048,3.523c-0.635,0.693-1.252,1.169-1.644,1.171l-0.31-0.361c0-0.346,0.231-0.917,0.771-1.85
		c1.635-2.826,4.121-5.678,4.636-8.526c0.187-1.139,0.365-2.472,0.365-3.829c0-1.066-0.125-2.135-0.325-3.172l-0.231-0.874
		c-1.966,4.234-2.632,4.75-4.215,7.497c-1.588,2.767-3.374,6.473-3.623,8.263c-0.249,1.823-0.589,3.188-0.731,3.832l-0.339,0.434
		c-0.257-0.043-0.302-0.321-0.314-0.847l0.013-0.438l0.02-0.424c0-1.78-0.669-6.152-4.601-6.161l-0.385,0.019
		c-3.963,0.292-4.677,2.02-4.877,2.522l-0.042,0.133l0.05-0.005c0.498,0.014,3.554,0.095,4.791,2.471
		c0.799,1.535,1.559,3.384,1.559,5.569c0,1.369-0.296,2.871-1.07,4.512c-3.374,7.173-7.365,9.516-11.351,13.847
		c-0.012,0.003-6.098,6.703-9.096,11.356c-3.005,4.66-6.693,12.192-6.693,12.207c-2.152,4.248-2.913,8.067-2.913,9.947
		c0,0.398,0.041,0.704,0.105,0.911l0.078,0.501c0,0.368-0.234,0.56-0.48,0.56l-0.592-0.315c-0.223-0.372-0.406-0.618-1.181-1.585
		c-0.752-0.931-3.566-2.495-5.599-3.458c-1.773-0.836-2.85-1.716-3.021-1.983l-0.044-0.029c-0.182,1.047-0.251,1.989-0.251,2.831
		c0,3.695,1.547,5.533,3.328,6.427c2.063,1.024,5.101,3.236,5.088,3.236c0.553,0.294,0.778,0.604,0.781,0.908
		c-0.009,0.465-0.518,0.743-0.847,0.806l-0.39,0.032c-0.359,0-0.805-0.125-1.686-0.59c-1.065-0.569-2.295-1.288-4.784-2.948
		c-0.27-0.167-0.479-0.301-0.785-0.495c-0.211,0.766-0.299,1.504-0.299,2.209c0,2.875,1.604,5.041,3.807,6.131
		c2.772,1.37,4.087,2.033,4.729,3.104c0.194,0.326,0.292,0.681,0.292,0.996c0,0.482-0.215,0.906-0.632,0.913l-0.6-0.284
		c-0.375-0.354-0.435-0.435-1.142-0.919c-1.099-0.753-2.013-0.676-4.307-2.398l-0.774-0.56c-0.128,0.491-0.179,0.975-0.179,1.447
		c0,2.396,1.393,4.354,3.078,5.635c2.02,1.554,3.111,1.642,4.185,2.404c1.044,0.757,2.242,2.092,2.442,3.4l0.015,0.38
		c0,0.461-0.177,0.707-0.458,0.707l-0.612-0.338c-0.385-0.457-0.302-0.45-1.054-1.117c-0.609-0.558-1.569-0.66-3.974-2.564
		c-0.38-0.288-0.795-0.605-1.243-0.975l-0.025,0.489c0.042,8.279,3.159,7.925,5.439,9.085c2.294,1.149,3.215,1.61,4.485,3.33
		c0.336,0.464,0.485,0.799,0.485,1.049c0,0.33-0.286,0.466-0.588,0.466c-0.354,0-0.821-0.141-1.168-0.34
		c-0.879-0.491-3.118-1.994-5.329-2.854l-0.065,0.218c0,0.528,0.484,1.886,1.676,4.477c0.684,1.529,3.479,2.956,4.949,3.356
		c1.512,0.412,2.361,1.665,3.168,2.543c0.325,0.332,0.468,0.672,0.468,0.945l-0.48,0.537l-0.627-0.231
		c-0.761-0.538-1.432-1.364-3.015-1.83c-0.286-0.072-0.558-0.146-0.914-0.187c1.4,3.536,4.188,5.873,5.53,6.185
		c1.401,0.322,6.136,1.104,14.537,1.104c8.4,0,10.448-0.813,12.072-1.329c1.604-0.504,3.345-2.164,4.212-2.831
		c0.813-0.659,3.026-2.739,3.094-5.192c-1.588,1.018-1.988,0.922-4.966,2.503c-0.667,0.327-1.111,0.435-1.446,0.435l-0.53-0.115
		l-0.088-0.189c0-0.445,0.757-1.492,1.626-2.221c1.615-1.307,2.931-1.572,6.213-2.973c0.973-0.416,3.933-3.497,3.921-5.985
		l0.021-0.498v-0.12c-1.777,0.447-6.062,3.71-6.062,3.722c-0.643,0.461-1.146,0.656-1.538,0.656c-0.438,0-0.71-0.292-0.71-0.688
		c0-0.555,0.443-1.306,1.376-2.008c2.201-1.627,5.087-3.257,7.371-4.919c1.502-1.246,3.414-4.442,3.41-8.007l0.067-0.518
		l-0.009-0.287c-1.678,1.216-3.73,3.095-7.24,5.56c-1.042,0.722-1.744,1.016-2.177,1.022c-0.326,0-0.522-0.206-0.522-0.497
		c0-0.641,0.727-1.704,1.892-2.608c2.332-1.812,6.227-4.482,7.292-5.512c1.012-0.991,3.45-4.379,3.45-8.421v-0.007
		C190.704,98.991,188.516,99.604,184.003,102.536 M186.596,117.597l-0.076,0.037l0.076-0.031V117.597z"/>
	<path fill="#CDE4B7" d="M153.054,34.643c-0.124-0.735-0.193-1.417-0.193-2.057c0-1.665,0.423-3.074,1.43-4.591
		c0.534-0.82,2.078-1.95,4.225-1.95l0.078,0.007c-1.253-1.443-2.576-2.064-3.932-2.064c-1.312,0-2.669,0.566-4.02,1.574
		c-2.189,1.603-2.623,3.826-2.623,5.466c0,0.435,0.031,0.839,0.062,1.191l0.056,0.687c-0.018,0.426-0.031,0.703-0.293,0.743
		c-0.271-0.033-0.44-0.411-0.713-1.179c-1.344-4.812-1.83-7.893-2.922-11.061c-0.926-2.631-1.006-3.93-1.187-7.652
		c-0.059-0.753-0.114-1.585-0.198-2.578c-1.49,2.248-2.183,5.931-2.183,9.422c0,3.528,1.369,7.68,2.105,9.072
		c0.321,0.587,0.49,1.029,0.495,1.313l-0.316,0.33c-0.188,0-0.427-0.101-0.759-0.287c-0.746-0.442-1.26-0.961-2.665-3.798
		c-0.947-1.883-1.099-4.996-1.099-6.913c0-0.665,0.023-1.178,0.092-1.443c-0.897,1.229-1.754,3.52-1.754,5.9
		c0,0.901,0.119,1.826,0.425,2.71c1.085,3.356,4.656,8.781,5.514,9.401l0.424,0.685c0,0.336-0.31,0.564-0.694,0.564l-0.655-0.199
		c-0.958-0.567-2.668-2.163-3.536-3.703c-0.735-1.283-1.872-3.14-2.118-3.708l-0.11-0.18c-0.119,0.242-0.672,1.488-0.672,3
		c-0.016,1.658,1.213,4.357,2.9,5.696c1.683,1.369,3.496,2.625,4.653,3.396c0.443,0.303,0.647,0.644,0.664,0.97
		c-0.017,0.426-0.421,0.713-0.998,0.713l-0.534-0.059c-1.256-0.309-2.671-1.569-4.415-2.699l-0.65-0.377
		c-0.068,0.372-0.104,0.741-0.104,1.093c-0.008,4.268,4.624,6.845,6.241,7.009c0.966,0.109,1.455,0.373,1.492,0.727
		c-0.037,0.295-0.381,0.433-0.906,0.437h-0.226c-0.293-0.028-0.696-0.051-1.167-0.051c-1.895,0.005-4.696,0.423-4.696,3.33v0.097
		c0.063,3.404,1.535,4.518,1.765,4.776l0.062,0.039c0.025-0.262,0.374-2.214,1.858-3.553c1.285-1.146,2.15-1.579,3.604-1.579
		c0.301,0,0.638,0.018,1.019,0.065c2.134,0.19,3.938,0.789,6.734,2.832c0,0,1.896-2.028,3.763-4.289
		c1.657-1.996,3.083-3.394,3.41-3.699C154.381,41.984,153.451,37.278,153.054,34.643 M139.484,58.493l0.008-0.084l-0.026,0.074
		L139.484,58.493z"/>
	<path fill="#CDE4B7" d="M160.944,138.298c-5.401,0-9.992-0.577-10.674-0.671l-0.023,0.323c-0.013,1.617,1.424,3.169,2.505,4.405
		c1.131,1.29,3.782,1.913,4.894,2.073c0.274,0.027,1.059,0.049,2.073,0.049c2.927,0,7.78-0.136,8.333-0.216
		c0.72-0.095,1.846-1.078,3.452-2.696c1.394-1.39,2.296-3.524,2.618-4.017l0.053-0.107c-0.515,0.08-5.897,0.744-11.986,0.846
		C161.757,138.287,161.347,138.298,160.944,138.298"/>
	<path fill="#CDE4B7" d="M130.039,212.196c0.331-1.036,1.981-1.201,2.786-0.448c0.696,0.648,1.364,1.83,0.963,4.228
		c-0.253,0.972-0.504,0.624-0.596,0.381c-0.504-1.13-0.699-1.553-1.57-1.915C130.624,214.022,129.595,213.578,130.039,212.196"/>
	<path fill="#D9E5BA" d="M115.241,226.834c1.413,0,2.477,1.313,2.155,2.418c-0.607,2.161-1.937,3.305-2.519,4.383
		c-0.585,1.088-1.423-2.361-1.534-3.894C113.234,228.215,113.344,226.834,115.241,226.834"/>
	<path fill="#D9E5BA" d="M98.903,226.972c0.939,0.011,1.867,1.049,1.95,1.745c0.073,0.698-0.05,1.334-0.943,1.644
		c-0.884,0.307-2.313,1.331-2.73,1.922c-0.417,0.573-0.388,0.573-0.772,1.381c-0.39,0.809-1.567-0.747-0.621-3.278
		C96.301,228.668,96.987,226.933,98.903,226.972"/>
	<path fill="#CDE4B7" d="M90.926,213.329c1.571-0.662,2.894-1.612,4.094-1.774c1.201-0.161,2.187-0.161,2.481,0.549
		c0.269,0.729,0.404,2.479-1.2,3.003c-1.612,0.531-1.812,0.109-3.086-0.328c-1.284-0.449-1.982-0.756-2.394-0.78
		C90.41,213.973,90.216,213.631,90.926,213.329"/>
	<path fill="#CDE4B7" d="M16.709,98.086c-0.979-0.417-0.787-0.86,1.251-0.806c1.792,0.043,2.585,0.915,3.184,1.606
		c0.613,0.697,1.201,1.67,0.613,2.448c-0.579,0.782-1.359,0.883-2.408,0.5c-1.052-0.387-1.389-1.223-1.437-2.052
		C17.913,99.783,18.163,98.704,16.709,98.086"/>
	<path fill="#CDE4B7" d="M5.898,117.384c0.802-1.022,1.476-2.41,2.754-3.273c1.278-0.857,2.527-1.192,3.306-1.03
		c0.781,0.173,1.753,0.916,1.827,1.926c0.093,0.997-0.292,2.025-1.168,2.298c-0.853,0.276-1.747,0.058-2.908,0.175
		c-0.359,0.019-1.893,0.214-3.116,0.581C5.374,118.413,5.013,118.526,5.898,117.384"/>
	<path fill="#CDE4B7" d="M21.681,124.942c1.501,0.057,2.061,1.163,1.831,2.227c-0.224,1.052-1.92,1.856-2.636,3.302
		c-0.72,1.447-0.829,1.029-1.161-0.25c-0.345-1.279-0.454-1.832-0.253-3.281C19.648,125.498,20.178,124.886,21.681,124.942"/>
	<path fill="#CDE4B7" d="M45.346,120.467c0.944-0.013,1.644,0.832,1.718,1.64c0.091,0.804-0.637,2.667-1.855,3.977
		c-1.227,1.305-0.924,0.273-0.774-0.643c0.137-0.911-0.03-2.136-0.282-2.83C43.908,121.916,43.662,120.504,45.346,120.467"/>
	<path fill="#CDE4B7" d="M101.36,131.217c0.434,0.422,0.914,0.852,1.271,1.264C102.24,132.059,101.828,131.639,101.36,131.217
		 M107.875,149.358L107.875,149.358l0.067-0.248L107.875,149.358z M127.992,182.521l-0.004,0.004L127.992,182.521z M178.02,166.322
		c-2.989-0.583-3.991-1.511-6.43-2.17c-2.424-0.664-4.02-0.697-4.873-0.697c-0.758,0-1.91-0.161-2.762-0.841l-0.418-0.342
		c0.51-0.306,1.379-0.654,3.427-1.012c2.014-0.355,4.54-1.365,6.996-2.452c2.393-1.069,3.777-3.777,4.747-5.647
		c0.38-0.722,0.494-1.115,0.494-1.271l-0.032-0.085l-0.303,0.161c-0.251,0.184-0.389,0.488-2.248,1.713
		c-1.886,1.236-4.462,1.527-6.774,2.293c-2.331,0.749-3.279,1.465-5.335,2.889c-0.837,0.584-1.331,0.86-1.611,0.865l-0.229-0.226
		c0.021-0.281,0.329-0.769,0.868-1.511c3.111-4.714,3.247-10.516,3.247-11.497v-0.061l-8.113-0.023l-0.607,0.012v0.613
		c0,5.734-3.019,8.358-6.072,8.363c-3.2-0.01-8.094-4.509-11.528-9.998c-3.416-5.469-6.07-10.417-10.093-18.363
		c-4.025-7.939-4.668-9.834-6.132-13.113c-1.475-3.282-1.989-5.373-3.068-7.636c-1.071-2.271-2.101-3.46-2.866-5.306
		c-0.797-0.178-2.011-0.731-2.385-1.007l-0.005-0.004c0.854,1.245,3.219,5.896,4.185,8.071c1.001,2.256,1.283,3.402,2.499,5.464
		c0.372,0.627,0.509,1.033,0.509,1.28l-0.109,0.143l-0.022,0.028l-0.144,0.162c-0.357-0.017-0.86-0.438-1.286-1.068
		c-0.854-1.254-2.446-4.454-4.312-8.433c-1.571-3.333-2.967-5.277-5.979-8.646c-0.577-0.606-1.192-1.256-1.883-1.966
		c-0.289,1.831-1.634,4.722-1.902,6.089c-0.126,0.643-0.287,1.295-0.287,2.21c0,0.936,0.179,2.173,0.646,4.013
		c0.1,0.303,0.177,0.593,0.296,0.933l-0.062-0.024l0.046,0.118c-3.577-1.283-8.312-6.068-9.892-12.04
		c-0.348-1.237-0.608-2.504-0.647-3.82c-1.028,2.123-3.97,4.621-5.764,5.579c-1.821,0.94-4.215,1.642-6.281,1.665
		c-1.472,1.663-5.758,3.88-7.82,4.449c-0.407,0.104-0.765,0.146-1.089,0.146c-0.706,0-1.187-0.271-1.21-0.771
		c0.024-0.377,0.295-0.831,0.897-1.32c2.761-2.774,3.526-6.87,3.851-11.703c0.014-0.422,0.033-0.849,0.052-1.283
		c-0.13,0.053-2.415,1.438-4.406,2.176c-1.939,0.717-4.51,0.943-6.564,0.943l-0.335,0.01c-2.119-0.032-3.454-0.261-3.396-0.268
		c-0.021,0.007-10.056,5.197-12.777,6.668c-0.723,0.387-1.179,0.54-1.479,0.54l-0.414-0.352c0.016-0.464,0.592-1.181,1.233-1.599
		c0.968-0.649,5.315-3.025,8.826-4.504c0.678-0.313,1.338-0.598,1.923-0.829l-0.834-0.025c-1.41,0-2.802,0.15-4.67,0.613
		c-2.288,0.546-7.645,4.411-14.033,8.132c-6.389,3.731-9.746,4.476-11.64,4.517l-0.159-0.009c-1.853,0-3.534-0.481-4.495-1.297
		c-1.025-0.909-0.823-3.155-3.104-3.155c-0.086,2.094-2.073,2.899-3.351,3.064l-0.591,0.035c-0.977,0-1.706-0.466-3.411-2.068
		c-1.62,0.688-2.045,2.712-2.147,3.613l-0.021,0.305c0,0.738,0.313,1.275,0.808,1.275l0.061,0.006l0.439-0.011
		c0.73,0,1.779,0.095,2.733,0.38c1.052,0.31,1.985,0.62,2.33,0.609h0.077c0.193-0.013,1.049-0.922,1.463-1.441
		c0.021,0.491,0.364,1.022,0.629,1.058h0.074c0.298,0.005,0.88-0.341,1.973-0.781c0.968-0.387,1.194-0.787,2.052-0.797l0.5,0.042
		c0.636,0.094,0.972,0.215,0.993,0.502c-0.014,0.262-0.299,0.429-0.723,0.623c-0.854,0.361-1.896,0.95-3.11,1.584
		c-1.176,0.632-1.613,1.114-2.746,1.293c-0.556,0.074-1.2,0.099-1.726,0.099c-0.398,0-0.649-0.034-0.801-0.06l0.042,0.227
		c-0.042,0.429-0.566,0.725-0.603,0.748c-0.753-0.977-2.294-2.119-3.022-2.272l-0.517-0.044c-1.115,0.009-3.152,0.465-3.555,2.375
		l-0.017,0.07c3.209,0.657,3.928,2.126,4.139,4.06l0.021,0.377c0,1.765-1.482,2.833-3.561,3.727c0.599,1.193,2.022,2.05,3.727,2.05
		l0.218,0.095c0.084-1.256,1.658-3.009,2.655-3.736l0.453-0.364c-0.368-0.12-0.482-0.363-0.537-0.85l-0.003-0.088
		c0-0.327,0.28-0.5,0.524-0.5l0.461,0.241l0.755,0.459h0.098c0.338-0.049,1.305-0.681,2.791-1.76
		c1.493-1.069,2.908-2.577,5.358-4.555c0.843-0.681,1.323-0.933,1.675-0.933l0.408,0.454c-0.007,0.313-0.155,0.664-0.274,0.861
		c-0.341,0.445-0.261,0.293-0.977,1.118c-0.727,0.839-3.081,3.356-4.032,3.91c-0.799,0.43-1.969,1.058-1.918,1.186l0.05,0.023
		c0.996,0.305,0.915,1.23,0.915,1.269c-0.377-0.149-0.873-0.218-1.355-0.218c-0.69,0-1.362,0.127-1.718,0.35
		c-0.644,0.384-1.538,1.162-2.237,1.769c-0.971,0.829-1.617,2.196-1.617,3.333c0,0.338,0.058,0.643,0.162,0.922l0.468,0.702
		c0.906-1.531,1.953-2.089,2.988-2.089c0.898,0,1.771,0.406,2.559,0.895c1.345,0.809,1.53,1.9,1.53,3.393
		c0,0.35-0.03,0.731-0.115,1.056v0.007c5.746-0.064,6.561-3.741,6.729-4.857l0.046-0.739c0.009-0.916-0.25-1.821-0.549-1.969
		c-0.38-0.229-0.679-0.562-0.679-0.924l0.116-0.331c0.164-0.231,0.492-0.344,0.805-0.344c0.307,0,0.636,0.082,0.87,0.323
		c0.475,0.48,0.494,0.899,1.373,1.059l0.503,0.037c1.006,0.018,2.573-0.382,2.89-1.014c0.348-0.653,0.917-1.589,1.731-1.89
		l0.687-0.192c-0.052,0.014-0.254,0.356-0.254,0.711c0,1.121,1.059,3.221,2.32,3.836l0.587,0.145l-0.086-0.801
		c0.019-1.858,1.244-2.854,3.176-2.854c1.915,0,2.731,1.452,2.999,2.949l0.169,0.726c1.042-1.056,1.467-1.938,1.573-2.922
		l0.021-0.366c0-0.867-0.361-1.712-1.267-2.496c-0.334-0.295-0.472-0.551-0.49-0.778c0.032-0.461,0.542-0.642,0.919-0.642
		l0.215,0.032c0.551,0.116,0.848,0.414,2.717,0.552l0.238,0.011c1.61,0.007,2.425-1.265,4.346-1.274l0.077,0.009
		c1.84,0.019,2.339,1.109,2.753,2.413l0.172,0.422c1.512-1.23,2.623-2.513,2.623-5.094l0.011-0.082l-0.011-0.125
		c0.024-1.147,0.179-1.651,0.56-1.689c0.426,0.032,0.774,0.698,0.966,1.454c0.169,0.714,0.237,1.737,0.237,2.745
		c0,0.949-0.068,1.88-0.113,2.504c-0.047,0.319-0.074,0.719-0.074,1.171c0,0.985,0.178,2.21,0.75,3.319
		c0.222,0.38,0.491,0.75,0.857,1.077v-0.945c0-1.29,0.004-2.385,0.378-4.31c0.485-2.473,1.348-3.613,1.7-4.917
		c0.363-1.327,0.382-2.812,0.479-2.918c1.116,0,1.545,0.746,1.545,1.772c0,1.177-0.507,2.761-1.158,4.291
		c-0.149,0.393-0.295,0.783-0.443,1.16c1.103-0.868,2.46-1.913,3.205-3.332c0.77-1.479,1.103-3.419,1.149-4.655
		c0.024-0.659,0.313-1.012,0.646-1.012c0.302,0,0.562,0.285,0.583,0.712c0.008,0.505,0.168,1.389,0.168,2.46
		c0,0.516-0.035,1.084-0.151,1.666c-0.102,0.534-0.206,1.088-0.206,1.661c0.008,1.157,0.466,2.404,2.024,3.718l0.594,0.417
		c-0.195-1.024-0.288-1.837-0.288-2.571c0-1.295,0.271-2.358,0.691-3.963c0.66-2.55,0.612-2.83,1.341-5.193
		c0.377-1.175,0.569-1.621,0.875-1.678c0.335,0.074,0.335,0.562,0.368,1.174c0,0.962-0.056,2.143-0.458,3.995
		c-0.069,0.426-0.148,0.882-0.25,1.397c1.746-1.702,4.474-4.562,4.953-7.215c0.242-1.206,0.364-1.672,0.693-1.729
		c0.38,0.079,0.457,0.804,0.577,1.625c0.148,1.348,3.087,5.584,3.867,6.332c0.364,0.355,0.593,0.735,0.596,1.019l-0.337,0.295
		c-0.197,0-0.494-0.098-0.891-0.327c-1.183-0.697-2.295-2.115-3.15-3.865c-0.205-0.375-0.405-0.748-0.588-1.14
		c-0.214,0.711-1.613,3.115-2.619,4.757c0.672,1.017,4.51,4.232,12.066,9.032c7.561,4.809,13.589,12.061,14.412,13.268
		c0.207,0.334,0.308,0.6,0.313,0.818c-0.006,0.309-0.244,0.487-0.505,0.487l-0.86-0.429c-0.574-0.606-1.686-2.109-4.399-3.312
		c-0.655-0.275-1.4-0.516-2.261-0.726c4.833,3.963,5.913,7.812,6.02,9.496l0.018,0.227c-0.018,1.611-1.062,3.061-1.172,4.264
		l-0.028,0.445c-0.004,1.139,0.408,2.861,1.576,3.921c0.266,0.233,0.521,0.471,0.873,0.614c0.567-1.88,2.773-10.814,3.027-12.591
		c0.198-1.454,0.246-5.63,0.246-7.705c0-0.484-0.003-0.86-0.003-1.029v-0.119c0.017-0.579,0.077-1.004,0.397-1.053
		c0.201,0.021,0.341,0.199,0.499,0.548c0.439,0.902,0.856,2.495,1.024,6.557v0.726c0,3.954-1.202,8.866-1.952,11.867
		c-0.815,3.171-3.288,10.445-3.837,12.852c-0.556,2.414-2.717,12.524-3.279,14.301c-0.572,1.832-3.349,4.747-6.196,5.654
		c-0.72,0.232-1.362,0.313-1.924,0.313c-1.195,0-1.969-0.407-2.235-0.665c0.746,1.569,2.688,3.422,4.733,3.414
		c2.17,0,3.919-1.042,4.787-1.967c0.371-0.382,0.628-0.55,0.834-0.557l0.241,0.271l-0.203,0.524
		c-0.403,0.511-0.986,1.514-2.103,3.08c-0.975,1.358-2.128,5.026-2.128,8.746l-0.04,0.859v0.12c0.599-1.838,3.295-6.955,4.118-8.554
		c0.355-0.718,0.773-1.039,1.112-1.039c0.283,0,0.469,0.243,0.475,0.571c0,0.236-0.091,0.506-0.249,0.824
		c-0.729,1.242-3.731,7.39-4.355,8.904c-0.217,0.517-0.365,1.207-0.365,1.993c0,1.02,0.253,2.17,0.757,3.3
		c0.21,0.438,0.464,0.858,0.799,1.271l-0.023-0.426c0-1.932,0.696-3.931,1.532-5.916c0.927-2.218,2.876-4.196,4.309-6.547
		c1.435-2.345,2.556-5.364,2.773-6.744c0.226-1.39,0.84-3.607,1.254-4.845c0.207-0.622,0.479-0.873,0.747-0.887l0.487,0.461
		c0.033,0.191,0.047,0.559,0.047,1.076c0,0.507-0.014,1.161-0.061,1.917c-0.132,1.515-0.71,2.968-0.811,4.005l-0.013,0.062
		c-0.011,1.034,2.186,3.986,3.647,5.339c1.476,1.352,2.5,3.167,2.5,4.941v0.148c-0.055,1.777-0.307,2.988-1.658,5.039
		c-1.329,2.042-3.048,4.534-5.688,7.607c-2.627,3.072-4.306,3.522-5.221,3.818c-0.915,0.289-1.404,0.137-1.515,0.25l-0.161,0.714
		c-1.144-0.038-1.354-0.799-2.019-1.042c-0.322-0.122-0.698-0.192-1.149-0.192c-0.489,0-1.066,0.084-1.685,0.271
		c-0.525,0.155-0.663,0.376-0.663,0.642c-0.009,0.348,0.276,0.823,0.529,1.267c0.172,0.338,0.222,0.728,0.222,1.101
		c0,0.546-0.112,1.011-0.112,1.004c-0.169,1.679-1.078,2.739-2.399,3.029c-0.78,0.181-0.972,0.646-0.975,1.131l0.155,0.774
		c0.151,0.4,0.618,0.665,1.163,0.665l0.417-0.053c0.698-0.173,1.173-0.472,2.427-1.2c1.22-0.704,1.354-1.302,1.836-2.713
		c1.072-0.028,1.387-0.158,1.615-0.57c0.258-0.504,2.181-3.003,2.181-3.003c0.353-0.569,0.746-0.833,1.084-0.842
		c0.386,0,0.637,0.356,0.637,0.816c0,0.265-0.061,0.546-0.232,0.867c-0.609,1.14-2.83,4.269-4.148,5.87l-0.463,0.596
		c0.496,0.095,0.697,0.33,0.691,0.604l-0.151,0.419v0.014h-0.016l-0.022,0.096c-0.322-0.127-0.543-0.369-1.53-0.443l-0.091-0.012
		c-1.95,0.012-5.586,2.901-5.59,5.785L95.807,226l0.037,0.407c1.287-1.03,2.193-1.624,3.146-1.636c0.788,0,1.584,0.419,2.583,1.31
		c1.111,0.961,1.459,1.914,1.459,2.735c0,0.822-0.366,1.478-0.625,1.797c-0.301,0.356-0.628,0.747-0.604,0.976
		c0,0.12,0.077,0.233,0.463,0.328l0.54,0.021c2.23,0.01,4.583-1.788,5.042-2.437c0.273-0.397,0.56-0.981,0.56-1.699
		c0-0.582-0.195-1.264-0.75-2.003c-0.395-0.546-0.567-0.916-0.579-1.187c0.012-0.316,0.255-0.443,0.543-0.443
		c0.307,0,0.676,0.109,0.957,0.338l0.069,0.021c0.339-1.688,1.528-3.83,1.506-3.81c0.344-1.646,1.153-3.005,1.549-6.359
		c0.188-1.274,0.39-1.764,0.778-1.809c0.567,0.06,0.921,1.221,1.058,1.797l0.015,0.321c0,1.122-0.536,3.794-0.944,5.759l-0.109,0.63
		l0.128-0.019c0.654,0.025,0.965,0.142,1.02,0.381l-0.094,0.141c-0.151,0.084-1.319,0.598-2.19,1.581
		c-0.411,0.454-0.709,1.365-0.709,2.396c0,0.792,0.243,1.615,0.587,2.386l0.393,0.669c0.181-1.56,1.648-3.741,3.329-3.759
		c1.501,0,3.83,1.138,4.212,3.438l0.102,0.774c3.061-1.474,3.92-3.122,4.226-5.435l0.031-0.697c0-1.76-0.968-2.41-2.197-2.89
		c-0.83-0.334-1.137-0.742-1.137-1.099l0.363-0.492c0.375-0.119,0.48-0.119,1.559-0.376c0.85-0.215,1.298-0.764,1.298-1.756
		l-0.068-0.766l-0.065-0.582c0-0.501,0.192-0.824,0.531-0.824c0.33,0.007,0.717,0.273,1.104,0.776
		c0.618,0.771,1.496,1.356,3.122,1.366c0.463,0,1.062-0.062,1.644-0.115l0.633-0.103c-1.245-1.13-2.175-2.358-2.175-3.734
		c0-0.324,0.06-0.647,0.168-0.979c0.38-1.234,1.272-1.616,2.468-1.604c0.46,0,0.962,0.069,1.464,0.226l0.268,0.03
		c-0.472-0.696-1.071-0.988-2.659-1.418c-0.659-0.187-0.969-0.485-0.969-0.855c0.021-0.5,0.588-0.93,1.138-0.996l0.314-0.028
		c0.714,0,1.545,0.223,2.349,0.223l0.481-0.022c1.122-0.139,2.107-0.316,2.966-1.229c-0.112-0.27-0.672-0.54-1.409-0.615
		c-0.741-0.066-1.227-0.105-3.379-0.591c-0.847-0.194-1.204-0.437-1.222-0.774c0.043-0.493,0.788-0.799,1.305-0.853l0.604-0.042
		c0.619,0,1.461,0.084,3.938,0.271h0.518c2.444,0,3.447-1.203,3.735-1.453l0.036-0.066l-0.394,0.014
		c-0.273,0-0.612-0.025-0.923-0.057c-0.64-0.077-1.285-0.661-2.117-1.14c-0.838-0.465-1.822-0.684-3.126-0.684
		c-0.711,0-1.005-0.38-1.005-0.774c0-0.391,0.233-0.783,0.56-0.845c0.489-0.07,0.843-0.145,3.938-0.264
		c2.629-0.084,3.513-1.745,3.818-2.189l0.055-0.118c-0.297,0.08-1.764,0.481-3.571,0.481c-0.365,0-0.75-0.028-1.144-0.061
		c-0.924-0.095-1.329-0.31-1.352-0.651c0.039-0.535,1.007-0.947,1.827-1.006c1.094-0.046,6.47-0.246,7.806-1.704l0.249-0.488
		c-0.399-0.061-0.839-0.074-1.312-0.074c-2.132,0-4.733,0.443-6.861,0.481H136.6c-0.944,0-1.388-0.239-1.404-0.636
		c0.03-0.596,0.986-1.229,1.989-1.424c3.114-0.699,5.583-1.467,6.796-2.893c0.229-0.288,0.452-0.584,0.585-0.954
		c-1.382,0.419-3.205,0.979-4.871,0.979l-0.754-0.035c-0.718-0.085-1.077-0.377-1.077-0.738c0.021-0.547,0.723-1.07,1.497-1.073
		l0.612,0.017c1.261,0,3.102-0.123,4.868-0.725c1.89-0.637,2.161-2.273,2.29-2.418v-0.021c-0.262,0.024-2.959,0.264-4.694,0.264
		c-1.882-0.014-3.573-1.894-6.542-4.586c-2.969-2.709-4.985-4.514-7.479-6.046c0.562-4.34,0.768-11.964,0.768-17.046
		c0-1.38-0.03-2.556-0.038-3.438c-0.139-4.201-0.468-5.729-0.825-7.743c-0.332-2.006-1.47-5.099-2.585-8.244
		c-0.294-0.86-0.425-1.418-0.425-1.765l0.291-0.487c0.416,0.027,0.953,0.706,1.406,1.622c0.861,1.709,1.148,2.042,1.951,4.769
		c0.794,2.734,0.734,3.433,3.808,8.722c3.028,5.269,10.123,10.417,13.713,13.33c3.599,2.914,7.293,6.496,9.911,11.011
		c2.163,3.715,2.716,5.599,2.904,9.614c0.059,0.817,0.123,1.695,0.165,2.734c2.036-2.481,3.405-6.181,3.487-7.888
		c0.043-0.718,0.087-1.479,0.087-2.293c0-1.213-0.114-2.524-0.535-3.967c-0.742-2.446-2.472-4.824-3.039-6.132l-0.199-0.766
		c0-0.394,0.199-0.676,0.5-0.676c0.29,0,0.582,0.248,0.816,0.742c1.685,3.232,4.104,5.499,9.556,5.666l0.723,0.014
		c4.042,0,7.312-1.038,9.916-2.2c0.604-0.296,1.205-0.593,1.712-0.907l-0.525,0.022C181.188,166.871,180.232,166.752,178.02,166.322
		 M60.628,105.11l-0.01,0.02c-0.246,0.256-1.468,0.755-2.448,1.111l-0.583,0.148l-0.19-0.151c0.036-0.208,0.278-0.396,0.704-0.729
		c0.669-0.525,1.306-1.218,1.844-1.24l0.215,0.052l0.545,0.582L60.628,105.11z M64.008,103.137H63.99
		c-0.369,0.141-1.068,0.586-1.671,0.958l-0.553,0.213l-0.532-0.329l-0.188-0.319l0.503-0.454c0.463-0.204,0.449-0.178,1.03-0.66
		l0.756-0.363l0.541,0.151l0.438,0.45L64.008,103.137z M74.766,97.129c0,0-0.241,0.251-0.241,0.693
		c-0.007,0.415,0.151,0.897,0.167,1.49l-0.016,0.259c0.016,0.775-0.044,1.413-0.859,2.177c-0.912,0.829-1.209,0.681-2.235,0.721
		l-0.084-0.011c-1.009-0.007-1.448-0.904-2.121-0.881L69.27,101.6c-0.809,0.091-1.063,0.463-1.675,0.777
		c-0.454,0.236-1.014,0.351-1.449,0.351l-0.394-0.037l-0.547-0.613c0-0.239,0.232-0.417,0.649-0.417
		c0.875-0.062,1.245-0.491,1.604-0.799c0.272-0.251,0.487-0.672,1.359-0.672l0.345,0.023c1.145,0.106,1.524,0.416,2.153,0.482
		c0.301,0.018,0.668,0.102,0.983,0.102c0.412-0.017,0.692-0.102,0.76-0.577l0.006-0.295c0-0.764-0.234-1.687-0.243-2.301
		l0.022-0.271c0.128-0.602,0.412-1.374,1.358-1.422l0.145-0.011c0.451,0,0.753,0.179,0.753,0.499L74.766,97.129z M127.112,197.308
		c-0.256,0.302-0.646,1.26-0.881,1.975c-0.13,0.33-0.275,0.548-0.501,0.576c-0.231-0.035-0.317-0.268-0.317-0.644l0.02-0.166
		c0.055-0.953,0.169-2.591,0.407-2.998c0.178-0.342,0.163-0.605,0.576-0.616c0.39-0.011,0.674,0.616,0.844,0.94l0.114,0.383
		L127.112,197.308z M127.812,196.106l-0.255-0.183c-0.381-0.542-1.104-1.263-1.109-1.897l0.006-0.117l0.349-0.454l0.387,0.223
		c0.326,0.328,0.683,0.8,0.799,1.212l0.058,0.644L127.812,196.106z M129.227,194.121v0.015l-0.401,0.353l-0.421-0.233
		c-0.179-0.235-0.455-0.503-0.913-0.933l-0.351-0.566l0.205-0.426c0.087-0.138,0.298-0.271,0.604-0.282
		c0.321-0.003,0.528,0.443,0.843,0.828c0.281,0.341,0.448,0.669,0.463,1.033L129.227,194.121z M128.022,182.419
		c0.493,0.066,0.566,0.315,0.881,1.009c0.301,0.687,0.651,0.512,1.222,0.573c0.847,0.078,1.973,0.113,2.666,1.109
		c0.53,0.769,0.854,1.258,0.854,1.961l-0.055,0.528c-0.17,1.003-0.665,1.918-1.442,2.46c-0.806,0.539-1.636,0.264-2.047,0.482
		c-0.449,0.222-0.438,0.604-0.686,0.978l-0.682,0.551c-0.226-0.011-0.33-0.236-0.33-0.624l0.009-0.039
		c0.013-1.034-0.009-1.9,0.865-2.175c0.823-0.246,1.804-0.105,2.253-0.394c0.396-0.239,0.617-0.663,0.617-1.261l-0.026-0.391
		c-0.133-0.8-0.381-1.573-2.102-1.763c-1.726-0.187-2.042-0.261-2.418-1.085l-0.215-0.915c0.003-0.511,0.17-0.989,0.558-1.025
		L128.022,182.419z M125.72,139.682c0.391,1.321,1.585,5.081,1.745,9.52c0.056,1.929,0.078,4.219,0.078,6.271
		c0,2.679-0.042,4.96-0.078,5.623c-0.074,0.618-0.321,1.082-0.662,1.108c-0.337-0.026-0.491-0.425-0.501-1.244
		c0-0.56,0.01-1.625,0.01-2.916c0-2.797-0.028-6.673-0.21-8.81c-0.288-3.136-1.034-7.65-1.488-9.242
		c-0.114-0.427-0.171-0.87-0.171-1.222c0.024-0.454,0.042-0.812,0.344-0.856C125.106,137.959,125.331,138.425,125.72,139.682
		 M109.299,94.92l-0.189,0.759l0.212-0.731L109.299,94.92z M12.224,119.439l0.133,0.16l-0.107-0.167L12.224,119.439z"/>
	<path fill="#CDE4B7" d="M34.039,180.676l-0.037-0.035l0.037,0.046V180.676z M31.46,170.664l-0.06-0.303l0.018,0.347L31.46,170.664z
		 M103.195,144.732c0-1.527,0.307-2.981,0.861-3.859l0.027-0.034c-0.734-0.258-7.705-1.369-12.448-1.369
		c-0.011,0-6.488,0.632-11.732,1.23c-1.566,0.168-2.835,0.246-3.875,0.246c-2.524,0-3.858-0.489-5.114-1.381
		c-1.401-0.979-2.362-1.757-2.351-3.727c0-0.552,0.072-1.201,0.301-1.854l-0.399-0.038c-1.237,0.005-1.755,0.917-1.76,2.142
		c0,0.81,0.238,1.729,0.678,2.543c0.299,0.574,0.436,0.973,0.436,1.25l-0.414,0.442c-0.366-0.007-0.841-0.333-1.144-0.744
		c-0.503-0.729-0.972-1.37-0.957-3.246l0.137-0.848v-0.119c-1.147,0.292-2.05,1.95-2.467,2.937l-0.138,0.7
		c0,0.927,0.486,2.136,0.595,3.182v0.127c0,0.325-0.187,0.511-0.466,0.511c-0.642-0.004-1.817-0.729-3.247-1.018
		c-0.627-0.133-1.404-0.229-2.256-0.229c-0.967,0-2,0.123-2.999,0.395l-0.297,0.088c-0.363,0.107-0.706,0.254-1.049,0.406
		c-0.543,0.279-1.057,0.61-1.501,1.051c4.02,0.086,8.648,1.021,10.535,1.1c0.958,0.036,1.366,0.276,1.373,0.63
		c-0.007,0.331-0.384,0.547-0.855,0.554v-0.007l-0.046,0.028c-0.897-0.041-1.41-0.115-4.263-0.413
		c-2.446-0.257-4.607-0.592-6.438-0.592c-0.316,0-0.595,0-0.887,0.034c-1.629,0.123-3.146,0.454-4.878,2.058
		c-0.369,0.36-0.739,0.766-1.108,1.256c2.031-0.219,3.83-0.311,5.473-0.311c2.43,0,4.473,0.181,6.227,0.387
		c2.921,0.343,7.374,0.928,9.028,0.968h0.166c1.598,0,3.513-0.536,7.529-0.853c0.526-0.047,0.957-0.065,1.288-0.065
		c0.589,0.019,0.901,0.006,0.97,0.285c-0.097,0.484-1.931,1.002-4.377,1.633c-3.838,0.935-4.974,1.898-6.307,4.179
		c-1.329,2.264-2.696,7.789-3.245,10.929c-0.564,3.184-2.235,4.414-4.69,5.374c-2.072,0.807-4.966,1.271-7.884,1.271
		c-0.572,0-1.125-0.013-1.679-0.041c-3.473-0.214-4.377-1.705-4.791-2.573c-0.403-0.893-0.114-1.407-0.37-1.478l-0.297-0.077
		l-0.6,0.026l-0.014,0.009v-0.009l-0.092-0.001c0.029-0.951,0.386-1.163,0.93-1.472v-0.067c0-0.891-0.841-3.178-2.06-3.653
		l-0.345-0.074l0.005,0.124c0,1.056-0.964,2.771-2.947,3.373l-0.252,0.067c-0.288,0.063-0.535,0.191-0.872,0.208h-0.262
		c-2.646,0.017-2.448-1.727-3.052-2.131l-0.151-0.062c-0.375,0.007-0.892,1.093-0.892,1.851l0.11,0.487
		c0.411,0.602,1.826,1.463,2.811,1.854c0.461,0.188,0.898,0.236,1.241,0.236c0.355,0,0.584-0.039,0.599-0.039
		c0.046-0.021,1.052-0.613,1.483-0.619l0.216,0.181l-0.482,0.607l-0.209,0.231c0.453,0.07,0.755,0.136,2.87,0.769
		c0.799,0.256,1.195,0.446,1.218,0.752c-0.074,0.5-1.098,0.627-2.629,0.664H38.5c-2.288-0.028-4.562-0.854-5.762-1.485l-0.465-0.19
		c-0.018,0.335-0.053,0.706-0.524,1.091l-0.263,0.272l-0.003-0.064l-0.092,0.067c-0.051-0.467-0.188-1.158-0.775-2.304
		c-0.36-0.699-1.762-1.404-3.341-1.404c-0.651,0-1.333,0.138-1.999,0.332l-0.422,0.196c1.598,0.106,2.725,1.332,2.867,3.095
		l0.007,0.33c-0.004,1.627-0.964,2.676-1.533,3.086c-0.339,0.22-0.897,0.651-1.647,0.651c-0.373,0-0.771-0.171-1.168-0.447
		l-0.627-0.467l-0.042,0.574c0.011,3.027,2.361,4.543,3.844,4.543c0.561,0,3.34-0.03,4.187-2.072c0.104-0.276,0.16-0.584,0.177-0.93
		l0.034,0.03l0.037-0.106c0.498,0.42,0.581,0.875,0.549,1.819l0.014,0.042c2.339-0.147,7.384-1.814,9.679-2.26l0.729-0.079
		c0.616,0,0.901,0.259,0.901,0.601c-0.007,0.423-0.374,0.855-0.725,0.961c-0.624,0.15-1.37,0.369-2.668,0.777
		c-1.071,0.345-2.978,0.988-4.524,1.278c-0.306,0.08-0.608,0.15-0.878,0.201c0.172,0.192,0.366,0.48,0.366,0.861l-0.278,0.566
		l-0.047,0.074l-0.02-0.011l-0.062,0.066c-0.185-0.288-1.566-1.26-2.652-1.252c-1.066,0-3.621,1.59-3.726,4.185
		c0.384-0.338,1.079-1.063,3.229-1.13h0.128c2.416,0,3.305,2.225,3.319,3.329c0,1.057-0.169,3.422-2.55,3.482l-0.056,0.009
		c0.339,0.937,1.195,1.229,2.124,1.229c0.849,0,1.709-0.243,2.227-0.479c1.061-0.479,2.525-2.756,2.663-3.192l0.007-0.12
		c0.018-0.257-0.397-0.537-0.403-1.157l0.046-0.352c0.083-0.355,0.302-0.56,0.568-0.56c0.29,0.014,0.531,0.288,0.704,0.661
		c0.12,0.201,0.193,0.479,0.238,0.777c0.44-0.552,0.787-0.591,1.415-0.763l0.555-0.07c0.434,0,0.915,0.059,1.309,0.059l0.528-0.059
		c0.507-0.197,1.147-1.147,1.165-1.17l0.449-0.158c0.315,0,0.651,0.212,0.664,0.593l-0.159,0.443
		c-0.362,0.471-0.623,1.312-0.623,2.192c0,0.81,0.292,1.608,0.769,2.337l0.404,0.493c0.06-0.7,1.144-2.401,3.47-2.44l0.124-0.01
		c2.092-0.014,2.61,1.077,2.615,3.589c0.021,0.279,0.045,0.491,0.045,0.813c2.147-0.946,2.514-2.601,2.522-3.782
		c0-0.477-0.065-0.873-0.083-1.093c-0.091-0.562-0.197-0.78-0.206-1.068l0.086-0.427l0.348-0.284
		c0.345,0.006,0.755,0.421,1.373,1.02l0.768,0.415c0.299,0,0.542-0.26,0.542-0.791l-0.032-0.338l-0.026-0.292
		c0-0.454,0.289-0.726,0.653-0.726c0.399,0,0.89,0.327,1.182,0.961c0.454,0.94,1.289,3.073,3.654,5.248
		c0.591,0.511,1.246,1.014,2.038,1.499c-1.224-2.367-2.172-4.808-3.09-7.392c-0.271-0.78-0.372-1.348-0.372-1.752
		c0-0.638,0.262-0.93,0.544-0.937l0.387,0.232c0.218,0.395,0.493,0.765,1.616,2.467c0.896,1.37,2.096,2.981,4.076,3.946
		c0.449,0.192,0.922,0.369,1.457,0.482c-1.612-1.76-3.743-6.667-4.216-7.874l-0.151-0.669c0-0.408,0.235-0.662,0.517-0.662
		l0.623,0.387c0.414,0.635,1.33,2.296,1.855,3.147c0.31,0.503,1.167,0.975,1.879,0.975c0.34,0,0.606-0.134,0.832-0.277l0.081-0.06
		c-1.258-0.644-1.615-1.624-2.256-2.562l-0.185-0.465c0-0.365,0.362-0.535,0.72-0.535c0.38,0,0.834,0.17,1.07,0.562
		c0.459,0.743,1.829,1.792,2.763,2.446c0.507,0.384,1.256,0.732,2.014,0.732c0.429,0,0.857-0.145,1.267-0.365l0.31-0.19
		c-1.429-0.736-2.054-1.369-2.865-3.091c-0.159-0.352-0.241-0.644-0.241-0.88c0-0.493,0.357-0.696,0.709-0.696
		c0.316,0,0.649,0.147,0.801,0.395c0.319,0.491,2.024,2.432,2.944,3.048c0.568,0.384,1.069,0.679,1.989,0.679
		c0.415,0,0.957-0.071,1.569-0.133l0.591-0.125c-2.222-1.34-3.175-3.855-3.367-6.358l-0.012-0.497c0-2.468,1.213-5.395,1.348-6.85
		c0.145-1.556,0.78-4.027,0.78-5.844v-0.146l-0.014-0.255c-0.037-1.598,0.449-1.659,0.945-1.659l0.222-0.006
		c0.545,0,1.89,0.03,3.555,0.03c1.587,0,3.479-0.026,5.223-0.165c3.914-0.336,9.88-1.895,11.887-2.304
		c1.795-0.375,2.098-0.905,2.126-2.096l0.073-0.246v-0.048c-3.827,1.707-11.023,2.583-13.248,2.729l-0.477,0.012
		c-0.983-0.024-1.625-0.164-1.685-0.544c0.06-0.364,0.618-0.516,1.93-0.614c2.867-0.188,10.481-2.031,10.49-2.031
		c2.704-0.935,4.336-1.852,4.591-4.932C104.21,150.5,103.195,147.497,103.195,144.732 M60.309,177.945v0.027l-0.711,0.419
		c-0.066,0.032-1.425,0.426-1.981,0.701l-0.418,0.108l-0.363-0.345c0-0.262,0.195-0.573,0.592-0.827
		c0.79-0.521,1.72-0.816,2.238-1.033l0.204-0.058c0.371,0.014,0.471,0.415,0.471,0.718L60.309,177.945z M64.12,175.723v0.009
		c-0.112,0.365-0.246,1.032-0.799,1.221c-0.443,0.138-1.017,0.569-1.583,0.874l-0.486,0.146l-0.384-0.339
		c0.003-0.178,0.109-0.744,0.539-1.217c0.44-0.47,1.237-0.613,1.612-0.833l0.764-0.218l0.359,0.257L64.12,175.723z M72.462,176.226
		l-0.06-0.072l0.06,0.074c-0.552,0.436-1.527,1.011-2.476,1.02c-0.362,0-0.72-0.087-1.031-0.275c-0.798-0.477-1.714-0.87-2.411-0.87
		c-0.302,0-0.558,0.069-0.75,0.242l-0.923,0.348l-0.482-0.364c0-0.207,0.155-0.456,0.468-0.797c0.566-0.618,1.083-0.936,2.02-0.926
		l0.351,0.009c1.185,0.081,1.371,0.653,2.159,0.781c0.398,0.065,0.746,0.118,1.061,0.118c0.347,0,0.6-0.074,0.778-0.271l0.137-0.633
		c0-0.579-0.195-1.389-0.392-2.019l-0.056-0.494c0-0.842,0.62-1.555,1.306-1.841l0.329-0.092l0.372,0.513
		c0,0.302-0.092,0.683-0.162,1.094l-0.084,0.73c0,0.524,0.127,0.997,0.341,1.541l0.172,0.82
		C73.188,175.362,72.958,175.817,72.462,176.226 M32.173,169.45l0.024-0.063l-0.015-0.006L32.173,169.45z M104.115,140.755
		l-0.237-0.055l0.231,0.07L104.115,140.755z M22.661,173.861l0.014-0.054l-0.014-0.021V173.861z"/>
	<path fill="#CDE4B7" d="M47.779,194.932c0.397-0.649,0.621-1.335,0.475-2.666c-0.137-1.329,0.215-3.033,1.668-2.818
		c1.45,0.226,1.496,1.562,1.11,2.71c-0.361,1.145-2.271,3.179-2.814,3.481C47.659,195.932,47.361,195.6,47.779,194.932"/>
	<path fill="#CDE4B7" d="M27.362,188.046c0.458-1.555,1.085-2.78,2.269-3.29c1.175-0.529,1.661-0.385,2.293,0.175
		c0.627,0.561,0.918,1.588,0.072,2.7c-0.849,1.116-2.038,0.746-2.848,1.003c-0.82,0.262-1.035,0.813-1.295,0.969
		C27.587,189.747,26.891,189.673,27.362,188.046"/>
	<path fill="#CDE4B7" d="M19.434,169.826c1.001-0.334,3.271-0.814,4.535-0.552c1.245,0.249,2.364,1.143,2.131,2.253
		c-0.217,1.114-1.028,1.596-1.872,1.52c-0.866-0.073-1.271-1.258-2.71-1.776c-1.445-0.521-1.777-0.521-2.256-0.521
		C18.777,170.75,18.113,170.27,19.434,169.826"/>
	<path fill="#CDE4B7" d="M34.002,158.79c-0.229-0.669-0.266-1.93,1.102-0.746c1.373,1.189,2.149,2.264,2.455,3.186
		c0.294,0.931,0.251,2.003-0.083,2.485c-0.331,0.481-0.669,1.26-1.621,1.14c-0.966-0.109-1.598-0.51-1.635-2.064
		C34.18,161.229,34.474,160.235,34.002,158.79"/>
	<path fill="#CDE4B7" d="M26.251,51.418c0.562,0.056,1.447-0.814,2.042-1.521c0.602-0.701,1.633-1.26,2.296-1.11
		c0.668,0.149,1.297,0.702,1.146,1.706c-0.148,0.998-0.883,2.076-1.925,2.369c-1.042,0.292-3.255-0.368-3.78-0.701
		C25.516,51.821,25.255,51.311,26.251,51.418"/>
	<path fill="#CDE4B7" d="M15.106,28.638c0.832-0.682,2.588-1.888,3.961-1.63c1.373,0.263,2.265,1.557,2.265,2.816
		c0,1.261-1.112,2-2.518,1.667c-1.411-0.336-3.15-1.894-3.64-2.112C14.888,29.267,14.707,28.975,15.106,28.638"/>
	<path fill="#CDE4B7" d="M25.109,11.342c-0.562-0.438-0.333-1.035,0.842-0.599c1.195,0.446,2.899,1.452,3.78,2.341
		c0.891,0.887,2.007,2.375,0.299,3.255c-2.29,1.188-2.811-0.556-3.407-2.44C26.029,12.006,25.445,11.597,25.109,11.342"/>
	<path fill="#CDE4B7" d="M46.258,16.339c0.26-0.447,1.227-1.784,1.186,0.063c-0.063,1.86-0.405,3.011-0.894,3.742
		c-0.49,0.739-1.588,1.668-2.71,0.614c-1.13-1.056-0.106-2.444,0.938-3.085C45.827,17.032,45.951,16.839,46.258,16.339"/>
	<path fill="#CDE4B7" d="M70.4,67.041c0-0.774,0.147-1.598,0.404-2.453c-1.023-1.013-9.028-9.837-10.5-11.255
		c-0.56-0.53-0.795-0.98-0.802-1.316c0.007-0.306,0.215-0.505,0.512-0.505c0.299,0,0.677,0.164,1.04,0.541
		c1.126,1.078,7.603,8.038,9.345,10.184c0.493,0.614,0.823,0.829,0.89,0.813l0.059-0.183c0.011-0.41-0.333-1.336-0.689-1.8
		c-0.695-0.964-4.439-5.78-7.952-9.518c-3.511-3.727-9.664-8.618-12.928-12.001c-3.128-3.24-4.366-6.778-4.383-8.025l0.018-0.153
		c0.102-0.907,0.538-1.499,0.533-2.034l-0.051-0.301c-0.164-0.61-0.526-0.38-0.56-1.014l0.102-0.188c1.052,0,1.922-0.887,2.446-1.76
		c0.215-0.389,0.425-1.034,0.411-1.676c0-0.713-0.272-1.375-0.841-1.844L47.282,22.4c-0.166,0.303-0.623,0.558-1.478,0.558
		c-0.577,0-1.355-0.124-2.351-0.412c-1.468-0.461-1.954-1.605-1.947-2.64c0-0.813,0.264-1.574,0.609-1.84
		c-0.202-0.232-0.564-0.378-1.306-0.68l-0.38-0.066c-0.726,0-1.693,0.557-1.97,1.346c-0.1,0.263-0.16,0.658-0.16,1.113
		c0,1.2,0.377,2.823,1.186,3.489c0.696,0.562,1.135,0.886,1.154,1.235c-0.019,0.266-0.308,0.349-0.725,0.33l-0.007,0.007
		c0.123,0.54,2.316,3.67,2.984,4.782c0.183,0.305,0.261,0.583,0.261,0.819c0,0.399-0.284,0.641-0.65,0.641l-0.702-0.222
		c-0.922-0.565-1.37-1.485-1.971-2.699c-0.568-1.195-2.26-2.611-2.52-4.66c-0.187-1.404-0.599-2.28-0.801-2.616l-0.005-0.032
		c-0.109,0.168-0.334,0.362-0.667,0.672l-0.512,0.206l-0.45-0.328l0.033-0.108c0.122-0.199,1.42-1.721,1.429-2.777
		c0.026-1.06-1.105-4.437-3.62-4.249c0.188,0.402,0.281,0.784,0.281,1.142c-0.014,1.749-1.993,2.797-3.627,3.021
		c-0.306,0.038-0.609,0.062-0.892,0.062c-1.066,0.009-2.339,0.025-3.186-2.249c-1.066,1.058-1.869,2.258-1.883,4.43
		c0,0.517,0.06,1.104,0.097,1.701l0.037,0.315c0.366-0.067,0.726-0.1,1.066-0.1c1.718,0,3.108,0.762,4.065,1.976
		c0.475-0.459,0.852-0.642,1.126-0.648c0.324,0,0.486,0.272,0.486,0.554l-0.408,0.798l-0.289,0.23
		c3.728,4.477,8.571,7.614,10.014,8.656c0.531,0.38,0.764,0.68,0.777,0.95c-0.013,0.285-0.306,0.387-0.64,0.387
		c-0.257,0-0.566-0.062-0.898-0.174c-1.204-0.455-3.646-2.191-6.226-3.744c-2.379-1.435-2.89-2.377-3.188-2.722l-0.262,0.584
		l-0.103,0.539l-0.044,0.164l-0.19-0.718c-0.536-1.727-1.799-3.611-2.997-4.256c-0.639-0.353-1.772-0.679-2.859-0.679
		c-0.99,0-1.898,0.283-2.493,0.932l-0.276,0.411l0.041-0.004c1.611,0.004,3.026,1.656,3.026,3.633c0,1.828-0.814,3.709-4.188,3.72
		l-0.769-0.125L18.3,33.189c0,0.923,0.34,2.466,2.017,3.965c0.933,0.834,2.297,1.056,3.423,1.056c0.945,0,1.731-0.167,1.887-0.222
		c0.294-0.107,0.737-0.914,0.903-1.462c0.158-0.567,0.401-0.637,0.97-0.649l0.097-0.016c0.454,0,0.623,0.283,0.623,0.558
		l-0.024,0.235l-0.018,0.215c0,0.331,0.169,0.95,1.114,2.231c1.167,1.554,2.811,2.034,3.881,2.325
		c0.454,0.126,0.668,0.292,0.683,0.533l-0.577,0.541c-0.401,0.123-0.789,0.039-1.781,0.301c-0.925,0.239-2.568,1.336-2.568,4.104
		l0.009,0.241c0.512-0.146,0.912-0.203,1.352-0.203c1.418-0.016,2.45,0.727,2.96,1.952c0.211,0.55,0.336,1.038,0.336,1.519
		c-0.011,0.706-0.38,1.429-0.98,2.239l-0.444,0.642c0.531,0.227,0.986,0.324,1.392,0.324c0.772,0,1.335-0.364,1.738-0.826
		c0.632-0.737,1.576-1.566,1.572-2.542v-0.051l-0.005-0.092c0.005-0.612,0.269-0.91,0.589-0.91l0.592,0.347
		c0.288,0.429,1.245,1.663,2.47,2.838c1.237,1.209,1.765,2.971,1.765,4.812c0.018,1.633-0.463,2.696-2.767,3.211
		c-0.255,0.072-0.565,0.139-0.878,0.206c1.236,1.748,3.104,2.177,4.189,2.249c0.435,0.03,0.915,0.072,1.362,0.072
		c0.694,0,1.325-0.114,1.668-0.477c0.299-0.315,0.572-0.45,0.805-0.45l0.504,0.521v0.048c-0.012,0.491-0.461,0.703-1.161,1.038
		c-0.771,0.342-1.906,0.411-3.073,0.966c-1.012,0.456-2.894,2.278-2.885,4.261c0,0.174-0.009,0.428,0.013,0.766
		c0.72-0.626,1.337-0.704,2.337-0.704c0.282,0,0.585,0.01,0.947,0.01c1.644-0.007,1.819-0.459,2.344-0.746
		c0.44-0.234,0.933-0.931,3.238-1.441c0.416-0.107,0.718-0.144,0.933-0.144l0.444,0.261c-0.032,0.359-0.635,0.775-0.973,1.01
		c-0.541,0.315-1.466,1.214-2.511,1.775c-1.057,0.53-2.151,0.651-2.087,0.749c0,0.406,0.957,1.048,2.752,1.072h0.257
		c1.702,0,3.361-0.365,4.368-0.876l0.63-0.199l0.454,0.41l-0.422,0.75c-0.668,0.509-2.175,1.566-5.635,1.566
		c0.568,0.862,1.369,1.177,2.885,1.366c0.372,0.041,0.742,0.049,1.126,0.049c1.237,0,2.55-0.166,4.125-0.166
		c1.008,0.004,1.465,0.209,1.502,0.578c-0.03,0.331-0.454,0.528-1.012,0.54l-0.053,0.007c-3.326,0.065-4.751,2.712-4.755,5.709
		l-0.049,0.767l0.021,0.262c1.441-1.897,3.48-1.637,4.47-1.774c1.011-0.149,3.022-1.04,5.393-1.669
		c0.56-0.149,0.985-0.229,1.267-0.229l0.519,0.299c-0.047,0.442-0.829,1.063-2.522,2.071c-2.312,1.338-3.298,4.034-3.298,6.881
		c0,0.876,0.091,1.738,0.174,2.545l0.022,0.16c2.875-1.017,4.745-3.872,6.075-6.419c1.236-2.362,5.896-8.881,8.881-11.767
		l0.774-0.758C71.28,70.72,70.4,69.072,70.4,67.041 M56.787,63.253l-0.078-0.045l0.078,0.052l-0.544,0.464l-0.454-0.355
		c-0.416-0.667-0.444-1.473-0.698-1.887l-0.126-0.352l0.197-0.218l0.498,0.271c0.005,0.019,1.246,0.841,1.26,1.659L56.787,63.253z
		 M59.376,67.281l-0.247-0.111c-0.345-0.348-0.922-1.605-1.297-2.108l-0.273-0.764l0.354-0.489l0.167,0.049
		c0.501,0.187,1.316,1.013,1.524,1.3l0.503,0.875v0.039h-0.097l0.086,0.025l-0.25,0.538C59.773,66.834,59.7,67.249,59.376,67.281
		 M66.453,74.35l-0.562,0.26l-0.565-0.26l-0.283-0.166c-0.12-0.007-0.294,0.162-0.624,0.327c-0.297,0.138-0.81,0.268-1.369,0.268
		c-0.366,0-0.746-0.065-1.093-0.211c-0.837-0.39-1.976-1.339-1.983-2.655l0.007-0.129c0.063-1.003,0.268-2.146,0.268-2.8
		l-0.063-0.429l-0.151-0.544l0.426-0.67l0.36-0.13c0.351,0,0.549,0.298,0.632,0.505c0.12,0.278,0.202,0.933,0.202,1.647
		c0,0.382-0.037,0.778-0.092,1.126l-0.068,0.732c0,0.667,0.183,1.275,0.549,1.635c0.334,0.316,0.958,0.507,1.501,0.507l0.688-0.097
		c0.353-0.146,0.659-0.232,0.939-0.232l0.79,0.262c0.394,0.241,0.616,0.507,0.616,0.766L66.453,74.35z M71.859,70.678
		c0.255,0.313,0.543,0.584,0.875,0.813h0.003C72.394,71.287,72.131,70.979,71.859,70.678 M32.105,53.382l0.114,0.03l-0.1-0.049
		L32.105,53.382z"/>
	<path fill="#CDE4B7" d="M122.195,23.512c-0.504-2.133-1.14-1.908-1.648-1.818c-0.499,0.09-2.069,0.685-3.349,1.074
		c-1.27,0.39-2.868,2.458-3.863,3.326c-0.357-0.613-1.827-2.23-2.127-2.625c-0.313-0.398,0.38-0.705,0.604-0.58
		c0.22,0.125,0.998,0.697,1.409,1.06c0.293-0.49,1.503-1.871,1.503-1.871H89.333c-0.581,0-1.71,1.004-2.9,1.838
		c-1.192,0.834-1.478,2.333-2.75,3.085c-1.277,0.749-6.638,4.083-6.638,4.083c-1.665,1.054-0.417,2.358,0.92,1.277
		c0.854-0.53,1.551-0.114,0.44,0.63C77.284,33.752,77.434,35,77.434,35c0,1.391,0.912,2.5,2.744,2.5
		c3.057,0,4.199-1.915,8.451-1.915c4.251,0,5.168,3.469,5.168,3.469l0.165,3.006c1.256,1.885,0.864,3.604,0.41,4.497
		c-0.438,0.887-1.466,1.637-2.273,1.637c-0.802,0-6.043-0.05-6.488-0.05c-0.443,0-3.36,2.887-3.36,6.367
		c1.528,0,3.09-2.185,3.842-2.664c0.744-0.482,1.021-0.039,0.744,0.238c-0.598,0.626-0.676,1.853-0.676,1.853
		c2.267,0,2.078-1.554,3.319-2.446c1.24-0.887,1.123,0.261,0.609,0.818c-0.521,0.553-1.141,0.68-1.141,2.388
		c0.883-0.021,1.927-0.393,2.738-1.987c0.81-1.591,1.61-1.31,1.61-1.31s-0.498,0.947-0.361,3.124
		c-0.045,0.698,0.719,2.758,1.735,2.758c-0.022-0.834,0.169-2.701,0.624-3.555c0.443-0.866,0.946-0.906,0.946-2.795
		c0.06-1.325,0.387-1.667,0.789-1.667c0.397,0,0.644,0.667,0.644,1.845c0,1.182-0.493,1.973-0.493,1.973
		c1.221-0.166,1.95-1.137,2.033-1.92c0.086-0.776,0.146-1.922-0.583-2.879c-1.097-1.471-1.118-2.367,0.798-1.147
		c0.814,0.473,1.209,0.81,2.056,2.471c0.863,1.667,3.499,2.226,3.499,2.226s-0.641-0.755-1.189-2.17
		c-0.556-1.417-0.165-3.163-0.278-4c-0.115-0.831-1.97-3.145-3.886-3.332c-1.919-0.191-1.429-0.968,0.018-0.968
		c1.455,0,1.784-0.058,4.613,2.58c-0.309-3.334-3.623-4.78-5.324-5.191c-1.703-0.417-1.001-0.973-0.475-1.082
		c0.525-0.115,1.277-0.171,2.354,0.248c1.086,0.417,1.861,1.055,2.789,1.081c0.904,0.03,3.935-1.081,1.1-1.415
		c-2.825-0.333-1.304-1.919-6.027-2.862c-4.716-0.947-1.324-1.443,0.971-1.251c2.32,0.196,3.054,1.169,4.435,2.223
		c1.35,1.056,1.729,0.665,1.729,0.665s1.123-1.888,1.621-0.497c0.132,0.691,0.215,1.251-0.06,2.057
		c-0.275,0.81-1.086,1.396-2.773,2.279c0.503,0.661,1.189,2.244,1.189,3.305c0,1.055-0.555,1.997-0.578,3.582
		c-0.034,1.583,0.386,3.327,1.635,4.026c1.26,0.696,1.192,1.056,0.971,1.388c-0.215,0.336-1.104,1.114-3.7,0.727
		c-2.571-0.391-3.265-1.977-3.265-1.977s-0.586,0.917-1.448,2.251c-0.861,1.332-2.114,1.024-2.72,1.169
		c-0.609,0.137-0.833,2.136-0.145,3.692c0.694,1.558-0.615,1.804-2.052,1.17c-1.441-0.642-2.499-2.195-2.802-3.615
		c-1.2,0.667-2.834,2.167-4.97,4.222c-2.145,2.056-4.298,4.502-6.846,4.502c-2.548,0-4.241-0.521-4.241-3.466
		c-0.778,0.11-3.094,2.688-3.094,5.391s1.221,3.988,3.978,3.988c2.77,0,3.325-0.656,6.001-2.094c2.692-1.45,1.855-0.343,0.531,0.716
		c-1.309,1.051-2.791,2.464-3.999,2.555c-2.96,0.24-3.607,0.745-5.899,2.28c-2.295,1.538-6.53,8.37-10.767,15.517
		c6.994-1.55,11.688-6.922,14.265-8.872c2.566-1.943,2.024-0.177,1.034,0.873c-0.989,1.054-9.368,8.275-9.368,8.275
		c12.407,1.392,16.557-9.148,16.557-9.148c1.552-2.332,2.387-0.904-0.489,3.649c-1.127,1.798-1.975,2.483-1.975,3.597
		c-0.018,5.277-2.373,12.851-2.373,12.851c8.043-3.915,8.141-9.169,10.215-13.021c0.862-1.72,2.006-1.13,1.402-0.016
		c-0.32,0.571-2.153,3.868-3.507,9.276c9.757-3.368,9.949-12.428,9.949-12.428c-2.688-0.595-4.308-3.459-5.609-5.292
		c-1.295-1.834-2.925-4.297-4.152-5.429c-1.218-1.135-0.517-1.405,0.188-1.018c3.406,2.188,3.869,3.254,5.614,5.926
		c1.738,2.667,2.772,4.924,8.146,4.924c3.568,0,4.719-2.069,4.719-2.069c-0.461,0.02-2.045-0.385-3.666-2.168
		c-2.331-2.522-0.85-4.964-3.669-9.185c-2.809-4.223-3.048-4.536-3.667-6.35c-0.609-1.816,0.198-2.208,0.815-0.377
		c0.631,1.833,2.784,2.148,5.867,9.781c1.156-2.112,3.896-4.666,3.896-8.572c0-3.909-1.796-6.538-3.198-8.776
		c-1.372-2.242-0.089-1.723,0.357-1.299c3.613,3.225,4.351,6.776,4.351,10.515c1.321-1.715,3.534-4.348,3.534-7.53
		c0-3.188-1.753-4.86-2.865-6.896c-1.109-2.032-0.077-2.294,0.233-1.645c3.556,6.908,10.188,4.516,10.188,4.516
		s-1.155-0.354-3.349-2.181c-2.176-1.834-1.56-3.724-2.591-6.246c-1.011-2.518-2.457-3.907-3.09-4.677
		c-0.629-0.781,0.478-1.281,0.796-0.913c3.283,3.113,4.245,6.147,4.898,8.553c0.135-0.294,0.85-1.755,0.85-4.925
		c0-6.386-3.326-9.31-3.326-9.31c-0.735-0.892,0.084-1.65,0.634-1.133c0.274,0.256,0.506,0.479,1.131,1.043
		c0.608,0.552,1.424,0.866,2.622,0.866c1.177,0,3.186-1.058,4.322-3.411C123.198,28.933,122.717,25.642,122.195,23.512
		 M80.049,36.295c-0.414,0.25-0.846,0.257-1.022,0.03c-0.178-0.234-0.178-0.502,0.143-0.691l0.971-0.154
		C80.305,35.665,80.451,36.047,80.049,36.295 M81.229,34.027l-0.686,0.393c-0.208-0.09-0.234-0.293-0.171-0.63l0.555-0.334
		L81.229,34.027z M82.768,35.803c-0.297,0.189-0.5,0.189-0.704,0.054l0.078-0.752l0.644,0.021L82.768,35.803z M101.297,27.119
		c-2.463,0.355-3.689,0.355-3.689,0.355s0.022,3.517-3.202,3.517c-0.022,0.76-1.909,0.688-1.854,0.074
		c-0.815,0-1.832-0.188-2.27-0.794c-0.45-0.616-0.713-1.482-0.765-1.742c-0.05-0.261-0.142-0.338-0.522-0.019
		c-0.366,0.313-1.915,0.625-1.689-0.332c0.071-0.366,1.197-1.018,1.754-1.315c0.552-0.297,1.719-1.757,2.063-2.094
		c0.358-0.333,0.769-0.833,1.148-0.833c0.396,0,0.743,0.491,1.518,0.865c0.783,0.367,1.95,1.068,3.617,1.182
		c1.662,0.105,3.596,0.045,4.667,0.045C103.139,26.028,103.753,26.768,101.297,27.119 M120.236,25.795
		c0-1.288-1.992-1.335-1.992,2.365c0,3.693,1.067,2.99,1.652,2.28c0.591-0.723,1.586-0.382,0.362,1.285
		c-1.206,1.662-3.502,1.481-3.502-0.891c0-1.375,0.364-1.854,0.364-2.637c-0.003-0.854-0.369-2.103-0.063-2.813
		c0.305-0.706,1.878-2.114,2.801-2.114c0.93,0,1.184,1.473,1.184,2.67C121.042,27.152,120.236,27.086,120.236,25.795 M92.163,25.358
		c-0.833,0.562-1.571,1.353-1.708,2.318c-0.165,0.961,1.543,2.56,3.087,2.514c1.687-0.052,2.771-0.875,2.866-2.917l-1.873-0.619
		C93.528,26.401,93.068,25.92,92.163,25.358 M95.277,27.676c0.166-0.202,1.075-0.02,0.406,0.853
		c-0.663,0.872-1.371,1.037-2.275,1.037c-0.911,0-1.555-0.375-1.678-1.816c-0.094-0.978,0.489-1.83,1.01-1.613
		c0.517,0.222,0.718,0.428,0.668,1.226c-0.06,0.797,0.147,1.147,0.998,0.905L95.277,27.676z"/>
</g>
</svg>
