<svg xmlns="http://www.w3.org/2000/svg" width="262" height="66" viewBox="0 0 262 66"><path fill="#CDE4B7" d="M0 0h85.406v6.234H0z"/><path fill="#7BC043" d="M88.296 0h85.407v6.233H88.296z"/><path fill="#467A26" d="M176.6 0H262v6.233h-85.4z"/><path fill="#231F20" d="M40.877 28.17c-.113-1.988-.22-4.2-.155-5.9h-.09c-.335 1.676-.737 3.464-1.208 5.23l-1.856 7.06h-1.093l-1.768-6.77c-.492-1.923-.938-3.778-1.228-5.52h-.07c0 1.763-.087 3.863-.177 6.01l-.29 6.37H31.4l.894-15.063h1.856l1.763 6.884c.516 1.99.894 3.463 1.207 5.185h.07c.288-1.722.626-3.15 1.115-5.184l1.7-6.883h1.922L42.8 34.65h-1.61l-.313-6.48zM47.27 21.04c.023.67-.402 1.12-1.05 1.12-.558 0-.984-.45-.984-1.12 0-.67.448-1.117 1.006-1.117.626 0 1.028.447 1.028 1.117m-1.855 2.794h1.722V34.65h-1.722V23.834zM49.864 26.627c0-1.273-.066-1.923-.09-2.793h1.496l.09 1.295h.045c.47-.872 1.34-1.477 2.48-1.477 1.498 0 2.616 1.118 2.616 3.734v7.263h-1.718v-6.974c0-1.272-.25-2.57-1.5-2.57-.715 0-1.406.603-1.632 1.766-.043.27-.066.603-.066.96v6.818h-1.72v-8.023zM61.108 21.04c.02.67-.406 1.12-1.052 1.12-.56 0-.984-.45-.984-1.12 0-.67.446-1.117 1.007-1.117.623 0 1.028.447 1.028 1.117m-1.856 2.794h1.723V34.65h-1.723V23.834zM63.41 32.864c.38.246 1.048.558 1.745.558.98 0 1.585-.604 1.585-1.564 0-.826-.29-1.386-1.387-2.122-1.405-.917-2.165-1.835-2.165-3.086 0-1.743 1.293-2.995 2.97-2.995.85 0 1.498.292 1.946.56l-.47 1.296c-.4-.267-.87-.468-1.43-.468-.94 0-1.407.67-1.407 1.363 0 .74.266 1.14 1.338 1.878 1.252.806 2.236 1.788 2.236 3.285 0 2.168-1.474 3.217-3.238 3.217-.806 0-1.68-.245-2.148-.625l.427-1.296zM72.595 21.31v2.524h2.077v1.317h-2.077v6.416c0 1.405.514 1.788 1.138 1.788.27 0 .494-.02.696-.067l.065 1.32c-.316.108-.718.176-1.275.176-.672 0-1.275-.176-1.698-.646-.425-.492-.65-1.23-.65-2.727v-6.26h-1.315v-1.316h1.315V22l1.723-.69zM76.507 26.627c0-.917-.065-1.99-.088-2.793h1.543l.088 1.7h.043c.36-1.03 1.273-1.88 2.28-1.88.134 0 .247.02.358.02v1.768c-.11-.023-.223-.023-.356-.023-1.094 0-1.898 1.006-2.08 2.257-.045.29-.065.625-.065.984v5.99h-1.723v-8.023zM83.88 23.834l1.433 6.21c.2.85.313 1.567.45 2.236h.04c.113-.603.293-1.43.47-2.21l1.273-6.236h1.7l-1.768 6.95c-.67 2.727-1.406 5.342-2.68 6.973-.76.96-1.565 1.474-1.942 1.654l-.627-1.476c.49-.268 1.027-.734 1.516-1.364.448-.556.805-1.294.984-1.81.09-.267.112-.378.112-.537 0-.134 0-.268-.043-.4l-2.728-9.99h1.81zM101.54 29.242c0 4.18-1.945 5.587-3.6 5.587-1.943 0-3.508-1.764-3.508-5.565 0-3.956 1.767-5.61 3.62-5.61 1.922 0 3.488 1.81 3.488 5.587m-5.386 0c0 1.79.312 4.226 1.876 4.226 1.476 0 1.767-2.548 1.767-4.226 0-1.653-.29-4.2-1.812-4.2-1.543 0-1.83 2.546-1.83 4.2"/><path fill="#231F20" d="M104.152 34.65v-9.498h-1.36v-1.317h1.36v-.648c0-1.163.182-2.37.962-3.264.627-.692 1.497-.916 2.17-.916.578 0 1.027.11 1.337.268l-.285 1.342c-.2-.09-.495-.18-.94-.18-1.23 0-1.52 1.317-1.52 2.73v.67h1.965v1.316h-1.965v9.5h-1.723zM115.174 21.31v2.524h2.08v1.317h-2.08v6.416c0 1.405.513 1.788 1.14 1.788.27 0 .493-.02.693-.067l.066 1.32c-.313.108-.715.176-1.272.176-.67 0-1.272-.176-1.696-.646-.427-.492-.653-1.23-.653-2.727v-6.26h-1.312v-1.316h1.313V22l1.724-.69zM119.107 19.186h1.724v5.81h.042c.225-.38.562-.716.896-.938.4-.245.826-.403 1.454-.403 1.36 0 2.524 1.094 2.524 3.82v7.177h-1.72v-6.975c0-1.316-.29-2.568-1.454-2.568-.805 0-1.407.582-1.676 1.72-.044.245-.065.56-.065.827v6.995h-1.723V19.186zM129.703 29.4c.024 3.306 1.32 4.02 2.572 4.02.738 0 1.362-.177 1.787-.426l.27 1.276c-.606.333-1.524.513-2.373.513-2.59 0-3.932-2.123-3.932-5.43 0-3.51 1.473-5.7 3.64-5.7 2.215 0 3.085 2.325 3.085 4.783 0 .402 0 .694-.022.963h-5.027zm3.4-1.275c.043-2.17-.786-3.13-1.61-3.13-1.12 0-1.697 1.653-1.765 3.13h3.374zM146.42 27.5h-3.775v5.653h4.292v1.498h-6.015V19.59h5.743v1.497h-4.02v4.96h3.776zM148.95 26.627c0-1.273-.068-1.923-.09-2.793h1.495l.093 1.295h.043c.47-.872 1.343-1.477 2.48-1.477 1.496 0 2.617 1.118 2.617 3.734v7.263h-1.72v-6.974c0-1.272-.25-2.57-1.5-2.57-.716 0-1.407.603-1.632 1.766-.042.27-.064.603-.064.96v6.818h-1.72v-8.023zM159.008 23.834l1.36 6.077c.158.738.338 1.7.47 2.64h.068c.113-.896.29-1.81.446-2.64l1.344-6.076h1.694l-2.815 10.816h-1.542l-2.816-10.816h1.79zM168.084 21.04c.02.67-.405 1.12-1.053 1.12-.558 0-.98-.45-.98-1.12 0-.67.447-1.117 1.005-1.117.624 0 1.03.447 1.03 1.117m-1.856 2.794h1.72V34.65h-1.72V23.834zM170.65 26.627c0-.917-.066-1.99-.088-2.793h1.543l.088 1.7h.045c.358-1.03 1.272-1.88 2.28-1.88.134 0 .246.02.358.02v1.768c-.112-.023-.225-.023-.357-.023-1.098 0-1.902 1.006-2.083 2.257-.04.29-.062.625-.062.984v5.99h-1.724v-8.023zM182.877 29.242c0 4.18-1.943 5.587-3.598 5.587-1.944 0-3.512-1.764-3.512-5.565 0-3.956 1.766-5.61 3.623-5.61 1.923 0 3.487 1.81 3.487 5.587m-5.386 0c0 1.79.313 4.226 1.88 4.226 1.476 0 1.763-2.548 1.763-4.226 0-1.653-.287-4.2-1.808-4.2-1.543 0-1.834 2.546-1.834 4.2"/><path fill="#231F20" d="M185.135 26.627c0-1.273-.066-1.923-.086-2.793h1.495l.09 1.295h.044c.468-.872 1.34-1.477 2.478-1.477 1.5 0 2.616 1.118 2.616 3.734v7.263h-1.722v-6.974c0-1.272-.243-2.57-1.496-2.57-.715 0-1.41.603-1.632 1.766-.045.27-.068.603-.068.96v6.818h-1.722v-8.023zM194.522 26.627c0-1.273-.066-1.923-.09-2.793h1.5l.09 1.34h.044c.47-.873 1.296-1.52 2.435-1.52 1.006 0 1.857.493 2.26 1.652h.043c.293-.535.67-.958 1.075-1.23.424-.29.938-.424 1.497-.424 1.454 0 2.593 1.075 2.593 3.82v7.177h-1.7v-6.774c0-1.406-.202-2.77-1.52-2.77-.717 0-1.34.603-1.586 1.61-.044.29-.066.626-.066.98v6.953h-1.7v-7.086c0-1.206-.225-2.46-1.496-2.46-.694 0-1.407.604-1.61 1.745-.044.29-.065.603-.065.938v6.86h-1.7v-8.02zM209.924 29.4c.02 3.306 1.32 4.02 2.57 4.02.74 0 1.364-.177 1.79-.426l.27 1.276c-.606.333-1.52.513-2.37.513-2.593 0-3.935-2.123-3.935-5.43 0-3.51 1.474-5.7 3.645-5.7 2.208 0 3.08 2.325 3.08 4.783 0 .402 0 .694-.02.963h-5.03zm3.397-1.275c.047-2.17-.78-3.13-1.606-3.13-1.117 0-1.7 1.653-1.77 3.13h3.377zM217.167 26.627c0-1.273-.07-1.923-.09-2.793h1.497l.09 1.295h.043c.47-.872 1.345-1.477 2.48-1.477 1.497 0 2.618 1.118 2.618 3.734v7.263h-1.723v-6.974c0-1.272-.245-2.57-1.5-2.57-.713 0-1.405.603-1.63 1.766-.04.27-.065.603-.065.96v6.818h-1.72v-8.023zM228.52 21.31v2.524h2.08v1.317h-2.08v6.416c0 1.405.516 1.788 1.14 1.788.27 0 .49-.02.693-.067l.066 1.32c-.313.108-.715.176-1.274.176-.67 0-1.272-.176-1.696-.646-.425-.492-.653-1.23-.653-2.727v-6.26h-1.314v-1.316h1.314V22l1.724-.69zM62.514 56.063c0 4.18-1.947 5.588-3.6 5.588-1.944 0-3.51-1.762-3.51-5.564 0-3.954 1.77-5.607 3.623-5.607 1.92-.002 3.487 1.808 3.487 5.583m-5.386 0c0 1.79.312 4.224 1.875 4.224 1.478 0 1.768-2.546 1.768-4.224 0-1.653-.29-4.2-1.813-4.2-1.54 0-1.83 2.547-1.83 4.2"/><path fill="#231F20" d="M65.13 61.474v-9.5h-1.363V50.66h1.362v-.652c0-1.16.177-2.367.96-3.262.627-.694 1.497-.915 2.167-.915.58 0 1.03.11 1.34.27l-.29 1.337c-.2-.087-.493-.176-.94-.176-1.227 0-1.52 1.317-1.52 2.727v.673h1.967v1.316h-1.966v9.5h-1.72zM76.15 48.13v2.528h2.078v1.316h-2.08v6.413c0 1.407.514 1.79 1.14 1.79.27 0 .492-.02.693-.068l.07 1.32c-.316.11-.72.176-1.275.176-.67 0-1.273-.177-1.7-.647-.423-.492-.65-1.234-.65-2.73v-6.256H73.11v-1.316h1.316v-1.833l1.723-.694zM80.083 46.007h1.722v5.81h.046c.22-.38.56-.713.893-.937.404-.246.828-.402 1.452-.402 1.365 0 2.526 1.093 2.526 3.82v7.176H85V54.5c0-1.316-.29-2.568-1.453-2.568-.805 0-1.408.58-1.674 1.722-.046.243-.068.557-.068.825v6.994h-1.722V46.007zM90.678 56.22c.024 3.31 1.317 4.023 2.57 4.023.74 0 1.363-.177 1.787-.425l.27 1.276c-.604.333-1.52.512-2.37.512-2.59 0-3.935-2.12-3.935-5.43 0-3.51 1.476-5.7 3.644-5.7 2.213 0 3.084 2.323 3.084 4.782 0 .4 0 .696-.02.962h-5.03zm3.397-1.27c.044-2.17-.784-3.133-1.61-3.133-1.118 0-1.696 1.656-1.763 3.133h3.373zM108.47 61.206c-.472.248-1.206.4-2.147.4-2.948 0-5.05-2.368-5.05-7.485 0-5.94 2.95-7.844 5.317-7.844.916 0 1.567.18 1.88.38l-.38 1.453c-.357-.16-.737-.315-1.518-.315-1.612 0-3.49 1.566-3.49 6.17s1.7 6.126 3.53 6.126c.65 0 1.23-.158 1.59-.337l.267 1.453zM109.876 60.422l3.42-6.682c.292-.557.624-1.117.872-1.61v-.043H110.3v-1.43h5.766v1.14l-3.375 6.59c-.29.562-.622 1.12-.867 1.61v.044h4.243v1.434h-6.19v-1.052zM119 56.22c.02 3.31 1.316 4.023 2.567 4.023.738 0 1.365-.177 1.79-.425l.27 1.276c-.608.333-1.522.512-2.37.512-2.593 0-3.938-2.12-3.938-5.43 0-3.51 1.478-5.7 3.646-5.7 2.21 0 3.083 2.323 3.083 4.782 0 .4 0 .696-.023.962H119zm3.396-1.27c.043-2.17-.78-3.133-1.61-3.133-1.116 0-1.698 1.656-1.765 3.133h3.376zM131.515 61.206c-.38.223-1.03.4-1.79.4-2.368 0-3.954-1.9-3.954-5.475 0-3.104 1.565-5.63 4.268-5.63.583 0 1.21.156 1.52.336l-.334 1.407c-.224-.112-.672-.29-1.23-.29-1.72 0-2.5 2.055-2.5 4.178 0 2.526.958 4.05 2.544 4.05.472 0 .85-.113 1.252-.292l.225 1.318zM133.327 46.007h1.72v5.81h.043c.224-.38.558-.713.893-.937.402-.246.83-.402 1.458-.402 1.36 0 2.524 1.093 2.524 3.82v7.176h-1.72V54.5c0-1.316-.295-2.568-1.454-2.568-.808 0-1.407.58-1.68 1.722-.042.243-.063.557-.063.825v6.994h-1.72V46.007zM146.693 46.633c.734-.202 1.63-.29 2.48-.29 1.494 0 2.612.313 3.396 1.07.735.76 1.05 1.77 1.05 2.952 0 1.922-.896 3.177-2.416 3.867v.044c1.118.335 1.7 1.41 2.033 3.375.336 2.075.65 3.353.852 3.823h-1.744c-.223-.448-.516-1.878-.805-3.733-.336-2.055-.98-2.84-2.458-2.84h-.67v6.573h-1.72v-14.84zm1.72 6.952h.715c1.654 0 2.746-1.208 2.746-3.02 0-1.74-.714-2.814-2.566-2.837-.336 0-.673.022-.896.09v5.767zM157.242 56.22c.024 3.31 1.32 4.023 2.57 4.023.74 0 1.363-.177 1.788-.425l.27 1.276c-.605.333-1.523.512-2.372.512-2.59 0-3.933-2.12-3.933-5.43 0-3.51 1.475-5.7 3.645-5.7 2.212 0 3.082 2.323 3.082 4.782 0 .4 0 .696-.02.962h-5.03zm3.4-1.27c.042-2.17-.784-3.133-1.615-3.133-1.114 0-1.692 1.656-1.76 3.133h3.375zM164.46 54.03c0-1.652-.063-2.615-.087-3.37h1.54l.09 1.385h.043c.582-1.164 1.43-1.566 2.282-1.566 1.875 0 3.127 2.01 3.127 5.563 0 4.004-1.652 5.608-3.353 5.608-1.002 0-1.587-.646-1.875-1.25h-.046v5.365h-1.72V54.03zm1.722 3.466c0 .335 0 .647.068.893.335 1.542 1.116 1.834 1.585 1.834 1.432 0 1.877-1.968 1.877-4.16 0-2.23-.534-4.112-1.898-4.112-.782 0-1.475.984-1.586 1.968-.046.27-.046.537-.046.83v2.746zM180.217 58.524c0 1.202.07 2.146.09 2.95h-1.498l-.112-1.14h-.045c-.332.536-1.16 1.316-2.323 1.316-1.9 0-2.637-1.474-2.637-4.155v-6.837h1.72v6.59c0 1.7.27 2.95 1.454 2.95 1.006 0 1.454-.938 1.54-1.43.068-.288.09-.624.09-.984v-7.126h1.72v7.866zM182.944 46.007h1.724v5.922h.045c.56-1.07 1.362-1.452 2.276-1.452 1.677 0 2.95 1.946 2.95 5.478 0 3.91-1.608 5.695-3.284 5.695-1.14 0-1.723-.667-2.142-1.583h-.07l-.113 1.407h-1.473c.02-.624.087-1.855.087-2.592V46.007zm1.724 11.645c0 .245 0 .49.066.673.4 1.606 1.14 1.898 1.606 1.898 1.39 0 1.88-1.878 1.88-4.18 0-2.168-.514-4.09-1.9-4.09-.805 0-1.474 1.006-1.607 1.922-.045.245-.045.514-.045.76v3.017zM192.224 46.007h1.72v15.467h-1.72zM198.684 47.864c.023.672-.402 1.116-1.054 1.116-.556 0-.98-.444-.98-1.116 0-.67.445-1.118 1.002-1.118.63 0 1.032.45 1.032 1.118m-1.858 2.795h1.722v10.814h-1.722V50.66zM206.55 61.206c-.382.223-1.028.4-1.79.4-2.367 0-3.955-1.9-3.955-5.475 0-3.104 1.566-5.63 4.27-5.63.582 0 1.207.156 1.52.336l-.335 1.407c-.226-.112-.668-.29-1.23-.29-1.72 0-2.503 2.055-2.503 4.178 0 2.526.962 4.05 2.55 4.05.468 0 .848-.113 1.25-.292l.222 1.318z"/></svg>