<?xml version="1.0" encoding="utf-8"?>
<!DOCTYPE svg PUBLIC "-//W3C//DTD SVG 1.1//EN" "http://www.w3.org/Graphics/SVG/1.1/DTD/svg11.dtd">
<svg version="1.1" id="Layer_1" xmlns="http://www.w3.org/2000/svg" xmlns:xlink="http://www.w3.org/1999/xlink" x="0px" y="0px"
	 width="262px" height="40px" viewBox="0 0 262 40" enable-background="new 0 0 262 40" xml:space="preserve">
<rect x="176.604" fill="#467A26" width="85.396" height="6.233"/>
<rect fill="#CDE4B7" width="85.406" height="6.233"/>
<rect x="88.306" fill="#7BC043" width="85.399" height="6.233"/>
<path fill="#231F20" d="M27.321,28.463c-0.113-2-0.227-4.225-0.159-5.931h-0.09c-0.337,1.684-0.743,3.481-1.214,5.255l-1.864,7.1
	h-1.102l-1.774-6.807c-0.495-1.932-0.944-3.797-1.236-5.548h-0.069c0,1.774-0.087,3.887-0.179,6.041l-0.292,6.404h-1.55
	l0.899-15.139h1.864l1.776,6.916c0.517,2.001,0.899,3.482,1.212,5.213h0.068c0.292-1.731,0.629-3.168,1.124-5.213l1.707-6.916h1.932
	l0.876,15.139h-1.619L27.321,28.463z"/>
<path fill="#231F20" d="M33.699,21.296c0.022,0.674-0.404,1.123-1.055,1.123c-0.563,0-0.989-0.449-0.989-1.123
	c0-0.675,0.451-1.125,1.011-1.125C33.295,20.172,33.699,20.621,33.699,21.296 M31.834,24.104h1.731v10.873h-1.731V24.104z"/>
<path fill="#231F20" d="M36.262,26.913c0-1.282-0.068-1.933-0.09-2.808h1.505l0.089,1.304h0.045
	c0.472-0.876,1.347-1.484,2.493-1.484c1.506,0,2.629,1.123,2.629,3.75v7.302h-1.731v-7.009c0-1.279-0.246-2.583-1.504-2.583
	c-0.719,0-1.415,0.605-1.64,1.773c-0.044,0.27-0.066,0.607-0.066,0.967v6.852h-1.729V26.913z"/>
<path fill="#231F20" d="M47.516,21.296c0.022,0.674-0.406,1.123-1.055,1.123c-0.563,0-0.99-0.449-0.99-1.123
	c0-0.675,0.45-1.125,1.013-1.125C47.11,20.172,47.516,20.621,47.516,21.296 M45.652,24.104h1.729v10.873h-1.729V24.104z"/>
<path fill="#231F20" d="M49.784,33.18c0.384,0.247,1.057,0.562,1.753,0.562c0.987,0,1.596-0.606,1.596-1.572
	c0-0.831-0.293-1.394-1.394-2.134c-1.415-0.921-2.179-1.843-2.179-3.1c0-1.752,1.304-3.011,2.987-3.011
	c0.854,0,1.505,0.292,1.954,0.562l-0.469,1.301c-0.404-0.269-0.876-0.471-1.439-0.471c-0.943,0-1.415,0.673-1.415,1.371
	c0,0.74,0.27,1.144,1.347,1.886c1.26,0.81,2.249,1.797,2.249,3.303c0,2.18-1.484,3.234-3.257,3.234c-0.81,0-1.689-0.246-2.158-0.63
	L49.784,33.18z"/>
<path fill="#231F20" d="M58.973,21.566v2.538h2.09v1.325h-2.09v6.448c0,1.415,0.517,1.799,1.145,1.799
	c0.271,0,0.495-0.024,0.697-0.069l0.066,1.326c-0.312,0.111-0.718,0.179-1.281,0.179c-0.671,0-1.278-0.179-1.707-0.651
	c-0.427-0.493-0.651-1.236-0.651-2.74V25.43h-1.327v-1.325h1.327v-1.843L58.973,21.566z"/>
<path fill="#231F20" d="M63.915,29.698c0.023,3.323,1.325,4.043,2.584,4.043c0.742,0,1.372-0.18,1.796-0.427l0.271,1.281
	c-0.609,0.338-1.527,0.517-2.381,0.517c-2.606,0-3.956-2.134-3.956-5.459c0-3.527,1.484-5.729,3.662-5.729
	c2.225,0,3.101,2.336,3.101,4.808c0,0.403,0,0.696-0.022,0.966H63.915z M67.33,28.418c0.046-2.18-0.786-3.146-1.617-3.146
	c-1.122,0-1.707,1.663-1.774,3.146H67.33z"/>
<path fill="#231F20" d="M71.129,26.913c0-0.922-0.068-2.001-0.091-2.808h1.549l0.092,1.707h0.045
	c0.359-1.035,1.279-1.887,2.29-1.887c0.136,0,0.248,0.023,0.359,0.023v1.773c-0.111-0.021-0.224-0.021-0.359-0.021
	c-1.1,0-1.91,1.012-2.089,2.269c-0.043,0.293-0.066,0.628-0.066,0.988v6.021h-1.729V26.913z"/>
<path fill="#231F20" d="M76.721,33.18c0.382,0.247,1.056,0.562,1.752,0.562c0.988,0,1.596-0.606,1.596-1.572
	c0-0.831-0.292-1.394-1.394-2.134c-1.414-0.921-2.18-1.843-2.18-3.1c0-1.752,1.302-3.011,2.99-3.011
	c0.853,0,1.504,0.292,1.954,0.562l-0.472,1.301c-0.403-0.269-0.876-0.471-1.437-0.471c-0.943,0-1.417,0.673-1.417,1.371
	c0,0.74,0.271,1.144,1.348,1.886c1.259,0.81,2.248,1.797,2.248,3.303c0,2.18-1.482,3.234-3.258,3.234
	c-0.809,0-1.686-0.246-2.155-0.63L76.721,33.18z"/>
<path fill="#231F20" d="M85.91,21.566v2.538h2.089v1.325H85.91v6.448c0,1.415,0.516,1.799,1.146,1.799
	c0.268,0,0.493-0.024,0.696-0.069l0.067,1.326c-0.315,0.111-0.718,0.179-1.281,0.179c-0.673,0-1.281-0.179-1.709-0.651
	c-0.424-0.493-0.649-1.236-0.649-2.74V25.43h-1.327v-1.325h1.327v-1.843L85.91,21.566z"/>
<path fill="#231F20" d="M90.921,24.104l1.369,6.11c0.158,0.741,0.338,1.709,0.471,2.651h0.067c0.113-0.898,0.292-1.819,0.451-2.651
	l1.348-6.11h1.707l-2.83,10.873h-1.551l-2.831-10.873H90.921z"/>
<path fill="#231F20" d="M104.514,29.542c0,4.2-1.955,5.615-3.619,5.615c-1.954,0-3.527-1.773-3.527-5.593
	c0-3.976,1.774-5.639,3.641-5.639C102.94,23.924,104.514,25.743,104.514,29.542 M99.097,29.542c0,1.797,0.316,4.245,1.886,4.245
	c1.485,0,1.778-2.56,1.778-4.245c0-1.663-0.293-4.224-1.819-4.224C99.39,25.317,99.097,27.878,99.097,29.542"/>
<path fill="#231F20" d="M109.702,33.922l3.438-6.718c0.292-0.562,0.629-1.123,0.876-1.617v-0.045h-3.887v-1.438h5.797v1.145
	l-3.393,6.628c-0.293,0.562-0.629,1.122-0.876,1.616v0.046h4.269v1.438h-6.224V33.922z M112.468,22.688l-1.777-3.032h1.304
	l1.034,1.954h0.045l1.057-1.954h1.3l-1.772,3.032H112.468z"/>
<path fill="#231F20" d="M119.745,21.296c0.022,0.674-0.405,1.123-1.057,1.123c-0.563,0-0.989-0.449-0.989-1.123
	c0-0.675,0.45-1.125,1.012-1.125C119.339,20.172,119.745,20.621,119.745,21.296 M117.878,24.104h1.731v10.873h-1.731V24.104z"/>
<path fill="#231F20" d="M123.182,24.104l1.369,6.11c0.157,0.741,0.337,1.709,0.472,2.651h0.069c0.111-0.898,0.291-1.819,0.448-2.651
	l1.35-6.11h1.707l-2.833,10.873h-1.548l-2.831-10.873H123.182z"/>
<path fill="#231F20" d="M136.775,29.542c0,4.2-1.955,5.615-3.617,5.615c-1.956,0-3.528-1.773-3.528-5.593
	c0-3.976,1.774-5.639,3.641-5.639C135.203,23.924,136.775,25.743,136.775,29.542 M131.359,29.542c0,1.797,0.313,4.245,1.887,4.245
	c1.484,0,1.777-2.56,1.777-4.245c0-1.663-0.293-4.224-1.819-4.224C131.651,25.317,131.359,27.878,131.359,29.542"/>
<path fill="#231F20" d="M141.111,21.566v2.538h2.088v1.325h-2.088v6.448c0,1.415,0.515,1.799,1.145,1.799
	c0.27,0,0.494-0.024,0.696-0.069l0.069,1.326c-0.316,0.111-0.72,0.179-1.282,0.179c-0.674,0-1.279-0.179-1.707-0.651
	c-0.427-0.493-0.651-1.236-0.651-2.74V25.43h-1.325v-1.325h1.325v-1.843L141.111,21.566z"/>
<path fill="#231F20" d="M145.019,26.913c0-1.282-0.066-1.933-0.088-2.808h1.506l0.089,1.304h0.043
	c0.476-0.876,1.347-1.484,2.495-1.484c1.503,0,2.628,1.123,2.628,3.75v7.302h-1.729v-7.009c0-1.279-0.247-2.583-1.506-2.583
	c-0.72,0-1.412,0.605-1.639,1.773c-0.047,0.27-0.068,0.607-0.068,0.967v6.852h-1.732V26.913z"/>
<path fill="#231F20" d="M157.916,19.655l-2.361,3.034h-1.146l1.729-3.034H157.916z M154.409,24.104h1.729v10.873h-1.729V24.104z"/>
<path fill="#231F20" d="M158.835,19.431h1.732v5.841h0.045c0.221-0.382,0.562-0.719,0.894-0.944
	c0.408-0.246,0.833-0.404,1.463-0.404c1.368,0,2.538,1.1,2.538,3.841v7.211h-1.728v-7.009c0-1.325-0.295-2.584-1.461-2.584
	c-0.812,0-1.413,0.584-1.684,1.729c-0.047,0.247-0.067,0.562-0.067,0.832v7.032h-1.732V19.431z"/>
<path fill="#231F20" d="M174.9,29.542c0,4.2-1.957,5.615-3.616,5.615c-1.956,0-3.528-1.773-3.528-5.593
	c0-3.976,1.774-5.639,3.64-5.639C173.325,23.924,174.9,25.743,174.9,29.542 M169.485,29.542c0,1.797,0.314,4.245,1.886,4.245
	c1.483,0,1.775-2.56,1.775-4.245c0-1.663-0.292-4.224-1.819-4.224C169.776,25.317,169.485,27.878,169.485,29.542"/>
<path fill="#231F20" d="M180.921,27.496c0-1.662-0.066-2.628-0.091-3.392h1.551l0.089,1.393h0.048
	c0.583-1.169,1.437-1.573,2.288-1.573c1.889,0,3.147,2.021,3.147,5.594c0,4.021-1.664,5.638-3.371,5.638
	c-1.012,0-1.594-0.651-1.887-1.256h-0.045v5.391h-1.729V27.496z M182.65,30.978c0,0.338,0,0.651,0.067,0.899
	c0.34,1.548,1.122,1.844,1.596,1.844c1.438,0,1.89-1.979,1.89-4.18c0-2.249-0.541-4.133-1.911-4.133
	c-0.786,0-1.484,0.986-1.597,1.974c-0.045,0.271-0.045,0.542-0.045,0.833V30.978z"/>
<path fill="#231F20" d="M190.177,26.913c0-0.922-0.069-2.001-0.09-2.808h1.549l0.091,1.707h0.045
	c0.358-1.035,1.281-1.887,2.293-1.887c0.132,0,0.244,0.023,0.356,0.023v1.773c-0.112-0.021-0.225-0.021-0.356-0.021
	c-1.101,0-1.913,1.012-2.091,2.269c-0.045,0.293-0.069,0.628-0.069,0.988v6.021h-1.728V26.913z"/>
<path fill="#231F20" d="M202.421,29.542c0,4.2-1.956,5.615-3.617,5.615c-1.958,0-3.529-1.773-3.529-5.593
	c0-3.976,1.774-5.639,3.64-5.639C200.849,23.924,202.421,25.743,202.421,29.542 M197.004,29.542c0,1.797,0.316,4.245,1.886,4.245
	c1.485,0,1.777-2.56,1.777-4.245c0-1.663-0.292-4.224-1.818-4.224C197.297,25.317,197.004,27.878,197.004,29.542"/>
<path fill="#231F20" d="M204.351,33.18c0.382,0.247,1.06,0.562,1.753,0.562c0.987,0,1.597-0.606,1.597-1.572
	c0-0.831-0.293-1.394-1.395-2.134c-1.413-0.921-2.179-1.843-2.179-3.1c0-1.752,1.304-3.011,2.988-3.011
	c0.853,0,1.504,0.292,1.954,0.562l-0.474,1.301c-0.401-0.269-0.874-0.471-1.437-0.471c-0.943,0-1.415,0.673-1.415,1.371
	c0,0.74,0.27,1.144,1.347,1.886c1.262,0.81,2.248,1.797,2.248,3.303c0,2.18-1.483,3.234-3.256,3.234
	c-0.811,0-1.688-0.246-2.156-0.63L204.351,33.18z"/>
<path fill="#231F20" d="M213.542,21.566v2.538h2.087v1.325h-2.087v6.448c0,1.415,0.514,1.799,1.144,1.799
	c0.271,0,0.492-0.024,0.697-0.069l0.064,1.326c-0.312,0.111-0.715,0.179-1.279,0.179c-0.673,0-1.279-0.179-1.706-0.651
	c-0.428-0.493-0.652-1.236-0.652-2.74V25.43h-1.325v-1.325h1.325v-1.843L213.542,21.566z"/>
<path fill="#231F20" d="M218.685,22.688l-1.773-3.032h1.3l1.036,1.954h0.045l1.053-1.954h1.304l-1.771,3.032H218.685z
	 M217.426,26.913c0-0.922-0.066-2.001-0.091-2.808h1.553l0.091,1.707h0.044c0.359-1.035,1.28-1.887,2.291-1.887
	c0.133,0,0.245,0.023,0.36,0.023v1.773c-0.115-0.021-0.228-0.021-0.36-0.021c-1.101,0-1.907,1.012-2.089,2.269
	c-0.047,0.293-0.071,0.628-0.071,0.988v6.021h-1.728V26.913z"/>
<path fill="#231F20" d="M224.21,29.698c0.021,3.323,1.326,4.043,2.582,4.043c0.74,0,1.372-0.18,1.799-0.427l0.271,1.281
	c-0.606,0.338-1.529,0.517-2.382,0.517c-2.607,0-3.953-2.134-3.953-5.459c0-3.527,1.479-5.729,3.661-5.729
	c2.224,0,3.101,2.336,3.101,4.808c0,0.403,0,0.696-0.022,0.966H224.21z M227.625,28.418c0.044-2.18-0.788-3.146-1.618-3.146
	c-1.122,0-1.708,1.663-1.775,3.146H227.625z"/>
<path fill="#231F20" d="M237.982,19.433v12.938c0,0.741,0.069,1.977,0.09,2.606h-1.481l-0.114-1.37h-0.067
	c-0.357,0.786-1.123,1.549-2.269,1.549c-1.842,0-3.169-2-3.169-5.571c0-3.865,1.596-5.661,3.283-5.661
	c0.784,0,1.549,0.382,1.975,1.302h0.045v-5.794H237.982z M236.274,28.238c0-0.225,0-0.472-0.021-0.72
	c-0.112-1.123-0.789-2.109-1.618-2.109c-1.437,0-1.931,1.998-1.931,4.177c0,2.292,0.583,4.136,1.84,4.136
	c0.54,0,1.281-0.294,1.663-1.867c0.046-0.204,0.067-0.449,0.067-0.718V28.238z"/>
<path fill="#231F20" d="M244.206,19.655l-2.358,3.034h-1.146l1.729-3.034H244.206z M240.701,24.104h1.729v10.873h-1.729V24.104z"/>
<g>
</g>
<g>
</g>
<g>
</g>
<g>
</g>
<g>
</g>
<g>
</g>
</svg>
