<?xml version="1.0" encoding="utf-8"?>
<!-- Generator: Adobe Illustrator 16.0.0, SVG Export Plug-In . SVG Version: 6.00 Build 0)  -->
<!DOCTYPE svg PUBLIC "-//W3C//DTD SVG 1.1//EN" "http://www.w3.org/Graphics/SVG/1.1/DTD/svg11.dtd">
<svg version="1.1" id="Layer_1" xmlns="http://www.w3.org/2000/svg" xmlns:xlink="http://www.w3.org/1999/xlink" x="0px" y="0px"
	 width="262px" height="66px" viewBox="0 0 262 66" enable-background="new 0 0 262 66" xml:space="preserve">
<rect fill="#CDE4B7" width="85.406" height="6.234"/>
<rect x="88.296" y="0.001" fill="#7BC043" width="85.407" height="6.232"/>
<rect x="176.601" y="0.001" fill="#467A26" width="85.399" height="6.232"/>
<path fill="#231F20" d="M40.877,28.17c-0.113-1.988-0.221-4.201-0.155-5.9h-0.09c-0.335,1.676-0.737,3.464-1.208,5.231l-1.856,7.059
	h-1.093l-1.768-6.77c-0.492-1.923-0.938-3.778-1.228-5.521h-0.069c0,1.764-0.087,3.864-0.177,6.01l-0.289,6.371h-1.544l0.894-15.063
	h1.856l1.763,6.884c0.516,1.989,0.894,3.462,1.207,5.184h0.069c0.289-1.722,0.627-3.15,1.116-5.184l1.7-6.884h1.922L42.8,34.651
	h-1.611L40.877,28.17z"/>
<path fill="#231F20" d="M47.27,21.04c0.023,0.67-0.402,1.119-1.05,1.119c-0.558,0-0.984-0.449-0.984-1.119
	c0-0.669,0.448-1.117,1.006-1.117C46.868,19.922,47.27,20.37,47.27,21.04 M45.415,23.834h1.722v10.816h-1.722V23.834z"/>
<path fill="#231F20" d="M49.864,26.627c0-1.273-0.066-1.923-0.091-2.793h1.497l0.089,1.295h0.046
	c0.471-0.871,1.341-1.476,2.481-1.476c1.497,0,2.615,1.118,2.615,3.734v7.263h-1.719v-6.974c0-1.272-0.249-2.571-1.5-2.571
	c-0.715,0-1.406,0.604-1.632,1.767c-0.043,0.269-0.066,0.603-0.066,0.961v6.817h-1.72V26.627z"/>
<path fill="#231F20" d="M61.108,21.04c0.021,0.67-0.406,1.119-1.052,1.119c-0.559,0-0.984-0.449-0.984-1.119
	c0-0.669,0.446-1.117,1.007-1.117C60.703,19.922,61.108,20.37,61.108,21.04 M59.252,23.834h1.723v10.816h-1.723V23.834z"/>
<path fill="#231F20" d="M63.411,32.864c0.378,0.246,1.047,0.558,1.744,0.558c0.981,0,1.585-0.604,1.585-1.564
	c0-0.826-0.289-1.386-1.387-2.122c-1.405-0.917-2.165-1.835-2.165-3.086c0-1.743,1.293-2.995,2.969-2.995
	c0.851,0,1.499,0.292,1.947,0.559l-0.471,1.297c-0.4-0.268-0.87-0.469-1.43-0.469c-0.939,0-1.406,0.67-1.406,1.363
	c0,0.739,0.266,1.141,1.338,1.878c1.252,0.806,2.236,1.788,2.236,3.285c0,2.168-1.475,3.217-3.239,3.217
	c-0.806,0-1.68-0.245-2.148-0.625L63.411,32.864z"/>
<path fill="#231F20" d="M72.595,21.31v2.524h2.077v1.317h-2.077v6.415c0,1.405,0.514,1.788,1.138,1.788
	c0.27,0,0.494-0.021,0.696-0.067l0.066,1.32c-0.316,0.108-0.718,0.176-1.275,0.176c-0.672,0-1.275-0.176-1.698-0.646
	c-0.425-0.492-0.65-1.229-0.65-2.727v-6.259h-1.315v-1.317h1.315v-1.833L72.595,21.31z"/>
<path fill="#231F20" d="M76.507,26.627c0-0.917-0.065-1.989-0.088-2.793h1.544l0.088,1.699h0.042c0.36-1.03,1.273-1.88,2.281-1.88
	c0.133,0,0.246,0.022,0.357,0.022v1.767c-0.111-0.023-0.224-0.023-0.357-0.023c-1.094,0-1.898,1.007-2.08,2.258
	c-0.045,0.291-0.065,0.625-0.065,0.984v5.989h-1.722V26.627z"/>
<path fill="#231F20" d="M83.881,23.834l1.432,6.211c0.201,0.85,0.313,1.566,0.449,2.235h0.042c0.112-0.603,0.292-1.431,0.468-2.211
	l1.274-6.235h1.7l-1.768,6.949c-0.669,2.728-1.406,5.343-2.679,6.974c-0.762,0.959-1.566,1.474-1.943,1.654l-0.627-1.477
	c0.491-0.268,1.028-0.734,1.517-1.364c0.448-0.556,0.805-1.294,0.984-1.809c0.091-0.268,0.112-0.379,0.112-0.538
	c0-0.134,0-0.268-0.043-0.4l-2.727-9.989H83.881z"/>
<path fill="#231F20" d="M101.54,29.242c0,4.18-1.945,5.587-3.6,5.587c-1.943,0-3.508-1.763-3.508-5.564
	c0-3.956,1.767-5.61,3.619-5.61C99.974,23.654,101.54,25.465,101.54,29.242 M96.154,29.242c0,1.789,0.312,4.226,1.876,4.226
	c1.476,0,1.767-2.548,1.767-4.226c0-1.653-0.291-4.201-1.812-4.201C96.442,25.041,96.154,27.588,96.154,29.242"/>
<path fill="#231F20" d="M104.152,34.651v-9.499h-1.361v-1.317h1.361v-0.648c0-1.163,0.182-2.369,0.962-3.264
	c0.627-0.692,1.497-0.916,2.169-0.916c0.579,0,1.028,0.111,1.338,0.268l-0.286,1.342c-0.201-0.089-0.495-0.179-0.94-0.179
	c-1.229,0-1.52,1.316-1.52,2.728v0.67h1.965v1.317h-1.965v9.499H104.152z"/>
<path fill="#231F20" d="M115.174,21.31v2.524h2.079v1.317h-2.079v6.415c0,1.405,0.513,1.788,1.139,1.788
	c0.27,0,0.494-0.021,0.694-0.067l0.066,1.32c-0.313,0.108-0.715,0.176-1.272,0.176c-0.672,0-1.273-0.176-1.697-0.646
	c-0.427-0.492-0.653-1.229-0.653-2.727v-6.259h-1.313v-1.317h1.313v-1.833L115.174,21.31z"/>
<path fill="#231F20" d="M119.107,19.186h1.724v5.811h0.041c0.225-0.382,0.562-0.717,0.896-0.939
	c0.401-0.245,0.826-0.403,1.454-0.403c1.361,0,2.524,1.094,2.524,3.821v7.176h-1.721v-6.975c0-1.316-0.29-2.568-1.453-2.568
	c-0.805,0-1.407,0.583-1.676,1.722c-0.044,0.244-0.065,0.558-0.065,0.826v6.995h-1.724V19.186z"/>
<path fill="#231F20" d="M129.703,29.4c0.024,3.306,1.321,4.021,2.572,4.021c0.738,0,1.362-0.178,1.787-0.427l0.271,1.276
	c-0.607,0.333-1.525,0.513-2.374,0.513c-2.589,0-3.931-2.123-3.931-5.429c0-3.511,1.473-5.701,3.641-5.701
	c2.214,0,3.084,2.325,3.084,4.783c0,0.402,0,0.694-0.022,0.963H129.703z M133.102,28.125c0.044-2.169-0.785-3.129-1.61-3.129
	c-1.118,0-1.696,1.652-1.764,3.129H133.102z"/>
<polygon fill="#231F20" points="146.421,27.499 142.645,27.499 142.645,33.153 146.937,33.153 146.937,34.651 140.922,34.651 
	140.922,19.588 146.665,19.588 146.665,21.085 142.645,21.085 142.645,26.045 146.421,26.045 "/>
<path fill="#231F20" d="M148.95,26.627c0-1.273-0.068-1.923-0.09-2.793h1.495l0.093,1.295h0.043
	c0.469-0.871,1.342-1.476,2.479-1.476c1.496,0,2.617,1.118,2.617,3.734v7.263h-1.72v-6.974c0-1.272-0.251-2.571-1.5-2.571
	c-0.716,0-1.407,0.604-1.632,1.767c-0.042,0.269-0.064,0.603-0.064,0.961v6.817h-1.721V26.627z"/>
<path fill="#231F20" d="M159.008,23.834l1.361,6.077c0.157,0.737,0.337,1.7,0.469,2.639h0.068c0.113-0.896,0.289-1.811,0.446-2.639
	l1.344-6.077h1.694l-2.815,10.816h-1.542l-2.816-10.816H159.008z"/>
<path fill="#231F20" d="M168.084,21.04c0.02,0.67-0.405,1.119-1.053,1.119c-0.559,0-0.982-0.449-0.982-1.119
	c0-0.669,0.448-1.117,1.006-1.117C167.679,19.922,168.084,20.37,168.084,21.04 M166.229,23.834h1.721v10.816h-1.721V23.834z"/>
<path fill="#231F20" d="M170.651,26.627c0-0.917-0.067-1.989-0.089-2.793h1.543l0.088,1.699h0.045c0.358-1.03,1.272-1.88,2.281-1.88
	c0.133,0,0.245,0.022,0.357,0.022v1.767c-0.112-0.023-0.225-0.023-0.357-0.023c-1.097,0-1.901,1.007-2.082,2.258
	c-0.041,0.291-0.062,0.625-0.062,0.984v5.989h-1.724V26.627z"/>
<path fill="#231F20" d="M182.877,29.242c0,4.18-1.943,5.587-3.598,5.587c-1.943,0-3.511-1.763-3.511-5.564
	c0-3.956,1.766-5.61,3.623-5.61C181.313,23.654,182.877,25.465,182.877,29.242 M177.491,29.242c0,1.789,0.312,4.226,1.879,4.226
	c1.476,0,1.763-2.548,1.763-4.226c0-1.653-0.287-4.201-1.808-4.201C177.782,25.041,177.491,27.588,177.491,29.242"/>
<path fill="#231F20" d="M185.135,26.627c0-1.273-0.066-1.923-0.086-2.793h1.496l0.091,1.295h0.043
	c0.469-0.871,1.341-1.476,2.479-1.476c1.501,0,2.616,1.118,2.616,3.734v7.263h-1.722v-6.974c0-1.272-0.243-2.571-1.496-2.571
	c-0.715,0-1.409,0.604-1.632,1.767c-0.045,0.269-0.068,0.603-0.068,0.961v6.817h-1.722V26.627z"/>
<path fill="#231F20" d="M194.522,26.627c0-1.273-0.066-1.923-0.089-2.793h1.498l0.09,1.34h0.045c0.47-0.873,1.296-1.521,2.435-1.521
	c1.005,0,1.856,0.494,2.258,1.653h0.044c0.293-0.535,0.671-0.958,1.075-1.229c0.424-0.29,0.938-0.425,1.497-0.425
	c1.454,0,2.593,1.075,2.593,3.821v7.176h-1.701v-6.773c0-1.406-0.201-2.771-1.518-2.771c-0.718,0-1.342,0.604-1.587,1.612
	c-0.044,0.289-0.066,0.625-0.066,0.979v6.953h-1.7v-7.085c0-1.206-0.225-2.46-1.496-2.46c-0.694,0-1.407,0.604-1.611,1.745
	c-0.043,0.29-0.064,0.604-0.064,0.939v6.86h-1.701V26.627z"/>
<path fill="#231F20" d="M209.924,29.4c0.021,3.306,1.32,4.021,2.571,4.021c0.738,0,1.363-0.178,1.788-0.427l0.271,1.276
	c-0.606,0.333-1.521,0.513-2.371,0.513c-2.592,0-3.934-2.123-3.934-5.429c0-3.511,1.475-5.701,3.646-5.701
	c2.208,0,3.08,2.325,3.08,4.783c0,0.402,0,0.694-0.021,0.963H209.924z M213.321,28.125c0.046-2.169-0.781-3.129-1.607-3.129
	c-1.117,0-1.699,1.652-1.769,3.129H213.321z"/>
<path fill="#231F20" d="M217.167,26.627c0-1.273-0.069-1.923-0.09-2.793h1.497l0.09,1.295h0.043c0.471-0.871,1.345-1.476,2.48-1.476
	c1.497,0,2.618,1.118,2.618,3.734v7.263h-1.723v-6.974c0-1.272-0.245-2.571-1.499-2.571c-0.714,0-1.406,0.604-1.63,1.767
	c-0.042,0.269-0.066,0.603-0.066,0.961v6.817h-1.721V26.627z"/>
<path fill="#231F20" d="M228.521,21.31v2.524h2.078v1.317h-2.078v6.415c0,1.405,0.515,1.788,1.139,1.788
	c0.269,0,0.491-0.021,0.693-0.067l0.066,1.32c-0.312,0.108-0.714,0.176-1.273,0.176c-0.671,0-1.272-0.176-1.696-0.646
	c-0.425-0.492-0.653-1.229-0.653-2.727v-6.259h-1.314v-1.317h1.314v-1.833L228.521,21.31z"/>
<path fill="#231F20" d="M62.514,56.063c0,4.181-1.947,5.588-3.6,5.588c-1.944,0-3.509-1.763-3.509-5.565
	c0-3.954,1.768-5.607,3.622-5.607C60.948,50.478,62.514,52.288,62.514,56.063 M57.128,56.063c0,1.791,0.312,4.224,1.875,4.224
	c1.478,0,1.768-2.546,1.768-4.224c0-1.653-0.29-4.199-1.814-4.199C57.418,51.864,57.128,54.41,57.128,56.063"/>
<path fill="#231F20" d="M65.129,61.474v-9.499h-1.362v-1.316h1.362v-0.651c0-1.16,0.178-2.367,0.961-3.262
	c0.627-0.694,1.497-0.915,2.167-0.915c0.581,0,1.029,0.109,1.339,0.268l-0.288,1.338c-0.2-0.087-0.494-0.176-0.94-0.176
	c-1.228,0-1.52,1.316-1.52,2.726v0.673h1.966v1.316h-1.966v9.499H65.129z"/>
<path fill="#231F20" d="M76.149,48.131v2.527h2.079v1.316h-2.079v6.413c0,1.407,0.513,1.791,1.139,1.791
	c0.27,0,0.492-0.022,0.693-0.069l0.068,1.32c-0.315,0.11-0.718,0.177-1.274,0.177c-0.671,0-1.273-0.177-1.699-0.647
	c-0.424-0.491-0.65-1.233-0.65-2.728v-6.257h-1.316v-1.316h1.316v-1.833L76.149,48.131z"/>
<path fill="#231F20" d="M80.083,46.007h1.722v5.81h0.046c0.22-0.38,0.559-0.713,0.892-0.937c0.404-0.246,0.828-0.402,1.452-0.402
	c1.365,0,2.526,1.093,2.526,3.819v7.177H85v-6.973c0-1.317-0.289-2.569-1.453-2.569c-0.805,0-1.408,0.579-1.674,1.722
	c-0.046,0.243-0.068,0.557-0.068,0.825v6.995h-1.722V46.007z"/>
<path fill="#231F20" d="M90.678,56.221c0.024,3.309,1.317,4.022,2.57,4.022c0.739,0,1.363-0.177,1.787-0.425l0.271,1.276
	c-0.605,0.333-1.521,0.512-2.372,0.512c-2.589,0-3.934-2.121-3.934-5.429c0-3.511,1.476-5.7,3.644-5.7
	c2.213,0,3.084,2.322,3.084,4.781c0,0.401,0,0.696-0.021,0.962H90.678z M94.075,54.95c0.044-2.171-0.784-3.133-1.609-3.133
	c-1.119,0-1.697,1.656-1.764,3.133H94.075z"/>
<path fill="#231F20" d="M108.469,61.206c-0.471,0.248-1.205,0.401-2.146,0.401c-2.948,0-5.051-2.369-5.051-7.486
	c0-5.942,2.951-7.845,5.318-7.845c0.916,0,1.567,0.181,1.879,0.38l-0.378,1.453c-0.358-0.158-0.738-0.314-1.519-0.314
	c-1.612,0-3.489,1.566-3.489,6.17s1.698,6.126,3.528,6.126c0.652,0,1.232-0.159,1.59-0.338L108.469,61.206z"/>
<path fill="#231F20" d="M109.876,60.422l3.42-6.682c0.292-0.557,0.624-1.117,0.872-1.609v-0.044H110.3v-1.429h5.766v1.14
	l-3.375,6.59c-0.29,0.561-0.623,1.118-0.868,1.609v0.044h4.243v1.433h-6.189V60.422z"/>
<path fill="#231F20" d="M118.999,56.221c0.021,3.309,1.317,4.022,2.568,4.022c0.738,0,1.365-0.177,1.79-0.425l0.269,1.276
	c-0.607,0.333-1.521,0.512-2.369,0.512c-2.593,0-3.938-2.121-3.938-5.429c0-3.511,1.479-5.7,3.647-5.7
	c2.209,0,3.083,2.322,3.083,4.781c0,0.401,0,0.696-0.022,0.962H118.999z M122.396,54.95c0.043-2.171-0.781-3.133-1.609-3.133
	c-1.117,0-1.699,1.656-1.766,3.133H122.396z"/>
<path fill="#231F20" d="M131.515,61.206c-0.379,0.223-1.029,0.401-1.789,0.401c-2.369,0-3.955-1.9-3.955-5.476
	c0-3.105,1.564-5.631,4.267-5.631c0.583,0,1.21,0.156,1.521,0.336l-0.335,1.407c-0.224-0.112-0.672-0.29-1.23-0.29
	c-1.72,0-2.5,2.055-2.5,4.178c0,2.525,0.958,4.048,2.544,4.048c0.472,0,0.849-0.112,1.252-0.291L131.515,61.206z"/>
<path fill="#231F20" d="M133.327,46.007h1.72v5.81h0.043c0.224-0.38,0.558-0.713,0.893-0.937c0.402-0.246,0.829-0.402,1.458-0.402
	c1.359,0,2.523,1.093,2.523,3.819v7.177h-1.721v-6.973c0-1.317-0.294-2.569-1.453-2.569c-0.808,0-1.407,0.579-1.679,1.722
	c-0.043,0.243-0.064,0.557-0.064,0.825v6.995h-1.72V46.007z"/>
<path fill="#231F20" d="M146.693,46.633c0.734-0.202,1.63-0.289,2.479-0.289c1.495,0,2.613,0.312,3.397,1.07
	c0.736,0.76,1.052,1.77,1.052,2.951c0,1.922-0.897,3.177-2.417,3.867v0.044c1.118,0.335,1.701,1.409,2.033,3.375
	c0.336,2.074,0.649,3.352,0.852,3.822h-1.743c-0.223-0.448-0.516-1.878-0.805-3.733c-0.337-2.055-0.982-2.84-2.459-2.84h-0.671
	v6.573h-1.719V46.633z M148.412,53.585h0.716c1.654,0,2.746-1.208,2.746-3.02c0-1.74-0.714-2.814-2.566-2.837
	c-0.336,0-0.673,0.022-0.896,0.091V53.585z"/>
<path fill="#231F20" d="M157.242,56.221c0.024,3.309,1.32,4.022,2.571,4.022c0.738,0,1.362-0.177,1.787-0.425l0.269,1.276
	c-0.604,0.333-1.522,0.512-2.371,0.512c-2.591,0-3.933-2.121-3.933-5.429c0-3.511,1.475-5.7,3.645-5.7
	c2.212,0,3.082,2.322,3.082,4.781c0,0.401,0,0.696-0.021,0.962H157.242z M160.642,54.95c0.042-2.171-0.784-3.133-1.615-3.133
	c-1.114,0-1.692,1.656-1.76,3.133H160.642z"/>
<path fill="#231F20" d="M164.461,54.031c0-1.653-0.064-2.616-0.088-3.372h1.54l0.091,1.386h0.042
	c0.582-1.164,1.431-1.566,2.282-1.566c1.875,0,3.127,2.012,3.127,5.564c0,4.004-1.652,5.608-3.353,5.608
	c-1.002,0-1.587-0.647-1.875-1.251h-0.046v5.365h-1.721V54.031z M166.182,57.496c0,0.335,0,0.647,0.068,0.893
	c0.335,1.543,1.116,1.835,1.585,1.835c1.432,0,1.877-1.968,1.877-4.16c0-2.231-0.534-4.112-1.898-4.112
	c-0.782,0-1.475,0.984-1.586,1.968c-0.046,0.271-0.046,0.537-0.046,0.829V57.496z"/>
<path fill="#231F20" d="M180.217,58.524c0,1.202,0.069,2.146,0.09,2.95h-1.498l-0.111-1.139h-0.045
	c-0.332,0.535-1.16,1.315-2.323,1.315c-1.9,0-2.637-1.474-2.637-4.155v-6.837h1.721v6.591c0,1.699,0.269,2.948,1.453,2.948
	c1.006,0,1.454-0.937,1.541-1.428c0.067-0.289,0.089-0.625,0.089-0.985v-7.126h1.721V58.524z"/>
<path fill="#231F20" d="M182.944,46.007h1.724v5.922h0.045c0.559-1.07,1.362-1.451,2.276-1.451c1.678,0,2.952,1.946,2.952,5.478
	c0,3.909-1.609,5.695-3.285,5.695c-1.141,0-1.723-0.668-2.142-1.584h-0.069l-0.114,1.407h-1.474
	c0.021-0.624,0.087-1.855,0.087-2.592V46.007z M184.668,57.652c0,0.245,0,0.491,0.066,0.673c0.401,1.606,1.139,1.898,1.606,1.898
	c1.389,0,1.88-1.878,1.88-4.181c0-2.167-0.514-4.089-1.901-4.089c-0.804,0-1.473,1.006-1.606,1.922
	c-0.045,0.245-0.045,0.514-0.045,0.76V57.652z"/>
<rect x="192.224" y="46.007" fill="#231F20" width="1.721" height="15.467"/>
<path fill="#231F20" d="M198.684,47.864c0.023,0.672-0.402,1.116-1.054,1.116c-0.556,0-0.979-0.444-0.979-1.116
	c0-0.669,0.444-1.118,1.001-1.118C198.281,46.746,198.684,47.195,198.684,47.864 M196.826,50.659h1.722v10.815h-1.722V50.659z"/>
<path fill="#231F20" d="M206.549,61.206c-0.381,0.223-1.027,0.401-1.788,0.401c-2.368,0-3.956-1.9-3.956-5.476
	c0-3.105,1.566-5.631,4.271-5.631c0.581,0,1.206,0.156,1.518,0.336l-0.334,1.407c-0.226-0.112-0.668-0.29-1.231-0.29
	c-1.72,0-2.502,2.055-2.502,4.178c0,2.525,0.962,4.048,2.55,4.048c0.468,0,0.848-0.112,1.251-0.291L206.549,61.206z"/>
<g>
</g>
<g>
</g>
<g>
</g>
<g>
</g>
<g>
</g>
<g>
</g>
</svg>
