<svg xmlns="http://www.w3.org/2000/svg" width="262" height="40" viewBox="0 0 262 40"><path fill="#467A26" d="M176.604 0H262v6.233h-85.396z"/><path fill="#CDE4B7" d="M0 0h85.406v6.233H0z"/><path fill="#7BC043" d="M88.306 0h85.4v6.233h-85.4z"/><path fill="#231F20" d="M27.32 28.463c-.112-2-.226-4.225-.158-5.93h-.09c-.337 1.683-.743 3.48-1.214 5.254l-1.864 7.1h-1.102l-1.774-6.807c-.495-1.932-.944-3.797-1.236-5.548h-.07c0 1.774-.086 3.887-.178 6.04l-.292 6.405h-1.55l.9-15.14h1.863l1.776 6.917c.518 2 .9 3.482 1.213 5.213h.068c.293-1.73.63-3.168 1.125-5.213l1.707-6.916h1.932l.876 15.14h-1.62l-.31-6.515zM33.7 21.296c.02.674-.405 1.123-1.056 1.123-.563 0-.99-.45-.99-1.124 0-.675.452-1.125 1.012-1.125.63.002 1.033.45 1.033 1.126m-1.866 2.808h1.73v10.873h-1.73V24.104zM36.262 26.913c0-1.282-.068-1.933-.09-2.808h1.505l.09 1.304h.044c.473-.877 1.348-1.485 2.494-1.485 1.506 0 2.63 1.123 2.63 3.75v7.302H41.2v-7.01c0-1.278-.246-2.582-1.504-2.582-.72 0-1.415.605-1.64 1.773-.044.27-.066.607-.066.967v6.852h-1.73v-8.064zM47.516 21.296c.022.674-.406 1.123-1.055 1.123-.562 0-.99-.45-.99-1.124 0-.675.45-1.125 1.014-1.125.626.002 1.032.45 1.032 1.126m-1.864 2.808h1.73v10.873h-1.73V24.104zM49.784 33.18c.384.247 1.057.562 1.753.562.987 0 1.596-.606 1.596-1.572 0-.83-.293-1.394-1.394-2.134-1.416-.92-2.18-1.843-2.18-3.1 0-1.752 1.304-3.01 2.987-3.01.854 0 1.505.29 1.954.56l-.468 1.302c-.404-.27-.876-.47-1.44-.47-.942 0-1.414.672-1.414 1.37 0 .74.27 1.144 1.347 1.886 1.26.81 2.25 1.797 2.25 3.303 0 2.18-1.485 3.234-3.258 3.234-.81 0-1.69-.245-2.158-.63l.424-1.3zM58.973 21.566v2.538h2.09v1.325h-2.09v6.447c0 1.415.517 1.8 1.145 1.8.27 0 .495-.025.697-.07l.066 1.326c-.31.11-.717.18-1.28.18-.67 0-1.278-.18-1.707-.652-.427-.492-.65-1.235-.65-2.74v-6.29h-1.328v-1.325h1.327v-1.843l1.73-.696zM63.915 29.698c.023 3.323 1.325 4.043 2.584 4.043.74 0 1.37-.18 1.795-.426l.27 1.28c-.608.34-1.526.518-2.38.518-2.606 0-3.956-2.134-3.956-5.46 0-3.526 1.483-5.728 3.66-5.728 2.226 0 3.102 2.336 3.102 4.808 0 .403 0 .696-.022.966h-5.055zm3.415-1.28c.046-2.18-.786-3.146-1.617-3.146-1.122 0-1.707 1.663-1.774 3.146h3.39zM71.13 26.913c0-.922-.07-2-.092-2.808h1.55l.09 1.707h.046c.36-1.035 1.28-1.887 2.29-1.887.136 0 .248.023.36.023v1.773c-.112-.02-.225-.02-.36-.02-1.1 0-1.91 1.012-2.09 2.27-.042.292-.065.627-.065.987v6.02h-1.73v-8.064zM76.72 33.18c.383.247 1.057.562 1.753.562.988 0 1.596-.606 1.596-1.572 0-.83-.293-1.394-1.395-2.134-1.414-.92-2.18-1.843-2.18-3.1 0-1.752 1.302-3.01 2.99-3.01.853 0 1.504.29 1.954.56l-.473 1.302c-.403-.27-.876-.47-1.437-.47-.943 0-1.417.672-1.417 1.37 0 .74.27 1.144 1.348 1.886 1.26.81 2.25 1.797 2.25 3.303 0 2.18-1.483 3.234-3.26 3.234-.808 0-1.685-.245-2.154-.63l.425-1.3zM85.91 21.566v2.538H88v1.325h-2.09v6.447c0 1.415.516 1.8 1.146 1.8.268 0 .493-.025.696-.07l.067 1.326c-.316.11-.72.18-1.282.18-.673 0-1.28-.18-1.71-.652-.423-.492-.648-1.235-.648-2.74v-6.29h-1.327v-1.325h1.327v-1.843l1.73-.696zM90.92 24.104l1.37 6.11c.158.74.338 1.71.47 2.65h.068c.113-.897.292-1.818.45-2.65l1.35-6.11h1.706l-2.83 10.873h-1.55L89.12 24.104h1.8zM104.514 29.542c0 4.2-1.955 5.615-3.62 5.615-1.953 0-3.526-1.773-3.526-5.593 0-3.976 1.774-5.64 3.64-5.64 1.932 0 3.506 1.82 3.506 5.618m-5.417 0c0 1.797.316 4.245 1.886 4.245 1.485 0 1.778-2.56 1.778-4.245 0-1.663-.292-4.224-1.818-4.224-1.552 0-1.845 2.56-1.845 4.224"/><path fill="#231F20" d="M109.702 33.922l3.438-6.718c.292-.562.63-1.123.876-1.617v-.045h-3.887v-1.438h5.796v1.145l-3.393 6.627c-.293.562-.63 1.122-.876 1.616v.046h4.27v1.437H109.7v-1.055zm2.766-11.234l-1.777-3.032h1.305l1.034 1.954h.044l1.057-1.954h1.3l-1.77 3.032h-1.192zM119.745 21.296c.022.674-.405 1.123-1.057 1.123-.563 0-.99-.45-.99-1.124 0-.675.45-1.125 1.013-1.125.63.002 1.035.45 1.035 1.126m-1.867 2.808h1.73v10.873h-1.73V24.104zM123.182 24.104l1.37 6.11c.156.74.336 1.71.47 2.65h.07c.11-.897.29-1.818.448-2.65l1.35-6.11h1.707l-2.833 10.873h-1.548l-2.83-10.873h1.796zM136.775 29.542c0 4.2-1.955 5.615-3.617 5.615-1.956 0-3.528-1.773-3.528-5.593 0-3.976 1.774-5.64 3.64-5.64 1.933 0 3.505 1.82 3.505 5.618m-5.416 0c0 1.797.312 4.245 1.886 4.245 1.484 0 1.777-2.56 1.777-4.245 0-1.663-.293-4.224-1.82-4.224-1.552 0-1.844 2.56-1.844 4.224"/><path fill="#231F20" d="M141.11 21.566v2.538h2.09v1.325h-2.09v6.447c0 1.415.516 1.8 1.146 1.8.27 0 .494-.025.696-.07l.07 1.326c-.317.11-.72.18-1.283.18-.675 0-1.28-.18-1.708-.652-.427-.492-.65-1.235-.65-2.74v-6.29h-1.326v-1.325h1.325v-1.843l1.73-.696zM145.02 26.913c0-1.282-.067-1.933-.09-2.808h1.507l.09 1.304h.042c.475-.877 1.346-1.485 2.494-1.485 1.503 0 2.628 1.123 2.628 3.75v7.302h-1.73v-7.01c0-1.278-.246-2.582-1.505-2.582-.72 0-1.412.605-1.64 1.773-.046.27-.067.607-.067.967v6.852h-1.732v-8.064zM157.916 19.655l-2.36 3.034h-1.147l1.728-3.035h1.778zm-3.507 4.45h1.728v10.872h-1.73V24.104zM158.835 19.43h1.732v5.842h.045c.22-.382.562-.72.894-.944.408-.246.833-.404 1.463-.404 1.367 0 2.537 1.1 2.537 3.84v7.212h-1.728v-7.01c0-1.324-.296-2.583-1.462-2.583-.812 0-1.413.584-1.684 1.73-.047.246-.067.56-.067.83v7.033h-1.732V19.43zM174.9 29.542c0 4.2-1.957 5.615-3.616 5.615-1.956 0-3.528-1.773-3.528-5.593 0-3.976 1.774-5.64 3.64-5.64 1.93 0 3.504 1.82 3.504 5.618m-5.415 0c0 1.797.314 4.245 1.886 4.245 1.484 0 1.776-2.56 1.776-4.245 0-1.663-.292-4.224-1.82-4.224-1.55 0-1.84 2.56-1.84 4.224"/><path fill="#231F20" d="M180.92 27.496c0-1.662-.065-2.628-.09-3.392h1.55l.09 1.393h.048c.583-1.17 1.437-1.573 2.288-1.573 1.89 0 3.147 2.02 3.147 5.594 0 4.02-1.664 5.638-3.37 5.638-1.013 0-1.595-.65-1.888-1.256h-.045v5.39h-1.73V27.497zm1.73 3.482c0 .338 0 .65.067.9.34 1.547 1.122 1.843 1.596 1.843 1.438 0 1.89-1.978 1.89-4.18 0-2.248-.54-4.132-1.91-4.132-.787 0-1.485.986-1.598 1.974-.045.27-.045.542-.045.833v2.763zM190.177 26.913c0-.922-.07-2-.09-2.808h1.55l.09 1.707h.045c.358-1.035 1.28-1.887 2.293-1.887.132 0 .244.023.356.023v1.773c-.11-.02-.224-.02-.355-.02-1.1 0-1.913 1.012-2.09 2.27-.046.292-.07.627-.07.987v6.02h-1.728v-8.064zM202.42 29.542c0 4.2-1.955 5.615-3.616 5.615-1.958 0-3.53-1.773-3.53-5.593 0-3.976 1.775-5.64 3.64-5.64 1.935 0 3.507 1.82 3.507 5.618m-5.416 0c0 1.797.316 4.245 1.886 4.245 1.485 0 1.777-2.56 1.777-4.245 0-1.663-.292-4.224-1.818-4.224-1.553 0-1.846 2.56-1.846 4.224"/><path fill="#231F20" d="M204.35 33.18c.383.247 1.06.562 1.754.562.987 0 1.597-.606 1.597-1.572 0-.83-.292-1.394-1.394-2.134-1.413-.92-2.18-1.843-2.18-3.1 0-1.752 1.305-3.01 2.99-3.01.852 0 1.503.29 1.953.56l-.475 1.302c-.4-.27-.874-.47-1.437-.47-.943 0-1.415.672-1.415 1.37 0 .74.27 1.144 1.347 1.886 1.262.81 2.248 1.797 2.248 3.303 0 2.18-1.483 3.234-3.256 3.234-.81 0-1.688-.245-2.156-.63l.425-1.3zM213.542 21.566v2.538h2.087v1.325h-2.088v6.447c0 1.415.514 1.8 1.144 1.8.27 0 .492-.025.697-.07l.064 1.326c-.312.11-.715.18-1.28.18-.672 0-1.278-.18-1.705-.652-.428-.492-.652-1.235-.652-2.74v-6.29h-1.325v-1.325h1.325v-1.843l1.732-.696zM218.685 22.688l-1.773-3.032h1.3l1.036 1.954h.045l1.053-1.954h1.304l-1.77 3.032h-1.195zm-1.26 4.225c0-.922-.065-2-.09-2.808h1.553l.09 1.707h.045c.36-1.035 1.28-1.887 2.29-1.887.134 0 .246.023.36.023v1.773c-.114-.02-.227-.02-.36-.02-1.1 0-1.906 1.012-2.088 2.27-.047.292-.07.627-.07.987v6.02h-1.73v-8.064zM224.21 29.698c.02 3.323 1.326 4.043 2.582 4.043.74 0 1.372-.18 1.8-.426l.27 1.28c-.606.34-1.53.518-2.382.518-2.607 0-3.953-2.134-3.953-5.46 0-3.526 1.48-5.728 3.66-5.728 2.225 0 3.102 2.336 3.102 4.808 0 .403 0 .696-.023.966h-5.057zm3.415-1.28c.044-2.18-.788-3.146-1.618-3.146-1.122 0-1.708 1.663-1.775 3.146h3.393zM237.982 19.433V32.37c0 .742.07 1.978.09 2.607h-1.48l-.115-1.37h-.067c-.357.786-1.123 1.55-2.27 1.55-1.84 0-3.168-2-3.168-5.572 0-3.865 1.596-5.66 3.283-5.66.784 0 1.55.38 1.975 1.3h.045v-5.793h1.707zm-1.708 8.805c0-.225 0-.472-.02-.72-.113-1.123-.79-2.11-1.62-2.11-1.436 0-1.93 2-1.93 4.178 0 2.292.583 4.136 1.84 4.136.54 0 1.28-.294 1.663-1.867.046-.204.067-.45.067-.718v-2.9zM244.206 19.655l-2.358 3.034h-1.146l1.73-3.035h1.774zm-3.505 4.45h1.73v10.872h-1.73V24.104z"/></svg>