<?xml version="1.0" encoding="utf-8"?>
<!-- Generator: Adobe Illustrator 13.0.1, SVG Export Plug-In . SVG Version: 6.00 Build 14948)  -->
<!DOCTYPE svg PUBLIC "-//W3C//DTD SVG 1.1//EN" "http://www.w3.org/Graphics/SVG/1.1/DTD/svg11.dtd">
<svg version="1.1" id="Vrstva_1" xmlns="http://www.w3.org/2000/svg" xmlns:xlink="http://www.w3.org/1999/xlink" x="0px" y="0px"
	 width="100px" height="100px" viewBox="0 0 100 100" enable-background="new 0 0 100 100" xml:space="preserve">
<g>
	<g>
		<g>
			<g>
				<path fill="#006444" d="M46.583,31.414c-4.92-0.579-15.789,2.478-15.187,17.076c0,0-4.7,0.264-7.316-0.823v2.476
					c3.75,0.996,7.316,0.719,7.316,0.719v7.569h2.199v-7.833C33.596,50.598,49.2,47.504,46.583,31.414z M33.596,48.172
					c-0.56-9.429,5.238-14.025,10.974-14.559C44.708,35.401,44.865,45.35,33.596,48.172z"/>
			</g>
		</g>
		<path fill="#006444" d="M31.116,42.97c-0.255-1.986-1.361-5.77-4.677-8.982l4.677-5.302l4.65,5.536
			C33.675,36.189,31.544,39.665,31.116,42.97z"/>
		<g>
			<g>
				<path fill="#006444" d="M15.299,30.85c-1.725,5.59,1.465,17.309,15.371,16.947C31.36,34.223,20.915,30.503,15.299,30.85z
					 M28.377,45.342c-3.64,0-11.331-2.719-11.065-12.129C27.621,34.322,28.601,44.938,28.377,45.342z"/>
			</g>
		</g>
		<circle fill="#006444" cx="42.139" cy="36.71" r="0.967"/>
	</g>
	<path fill="#006444" d="M38.114,65.923c-0.005-0.392-0.139-0.758-0.592-0.758c-0.583,0-0.64,0.765-0.64,1.189
		c0,0.485,0.057,1.109,0.681,1.109c0.387,0,0.567-0.326,0.613-0.664l0.805,0.051c-0.088,0.81-0.645,1.29-1.459,1.29
		c-1.051,0-1.562-0.858-1.562-1.82c0-0.98,0.526-1.819,1.587-1.819c0.887,0,1.34,0.516,1.434,1.364L38.114,65.923z M37.537,64.223
		l-0.995-0.609h0.551l0.444,0.206l0.438-0.206h0.53L37.537,64.223z"/>
	<path fill="#006444" d="M40.175,65.239v0.716h1.341v0.664h-1.341v0.783h1.702v0.687h-2.526v-3.536h2.526v0.687H40.175z"/>
	<path fill="#006444" d="M44.144,65.561c-0.104-0.296-0.295-0.414-0.609-0.414c-0.222,0-0.49,0.055-0.49,0.327
		c0,0.26,0.31,0.319,0.511,0.357c0.289,0.062,0.675,0.132,0.922,0.298c0.289,0.191,0.464,0.485,0.464,0.837
		c0,0.342-0.164,0.674-0.438,0.886c-0.282,0.221-0.67,0.289-1.025,0.289c-0.665,0-1.268-0.289-1.428-0.979l0.763-0.177
		c0.103,0.371,0.37,0.5,0.737,0.5c0.237,0,0.552-0.089,0.552-0.381c0-0.293-0.403-0.351-0.618-0.397
		c-0.63-0.128-1.248-0.314-1.248-1.087c0-0.328,0.128-0.618,0.381-0.831c0.259-0.215,0.562-0.287,0.887-0.287
		c0.617,0,1.123,0.217,1.34,0.828L44.144,65.561z"/>
	<path fill="#006444" d="M46.188,66.218l1.109-1.666h0.793l-0.85,1.263l1.062,2.274H47.39l-0.701-1.531l-0.501,0.717v0.814h-0.803
		v-3.537h0.803V66.218z"/>
	<path fill="#006444" d="M49.414,65.239v0.716h1.341v0.664h-1.341v0.783h1.703v0.687h-2.528v-3.537h2.528v0.688H49.414z
		 M50.414,63.907l-0.912,0.32l-0.133-0.32l0.876-0.438L50.414,63.907z"/>
	<path fill="#006444" d="M53.811,68.089h-0.825v-3.537h1.489c0.315,0,0.635,0.007,0.908,0.181c0.288,0.189,0.447,0.534,0.447,0.882
		c0,0.402-0.23,0.773-0.611,0.912l0.654,1.563h-0.918l-0.542-1.398h-0.603V68.089z M53.811,66.085h0.453
		c0.17,0,0.356,0.015,0.506-0.075c0.134-0.08,0.206-0.246,0.206-0.401c0-0.139-0.083-0.288-0.2-0.36
		c-0.141-0.089-0.377-0.068-0.532-0.068h-0.433V66.085z"/>
	<path fill="#006444" d="M57.119,65.239v0.716h1.34v0.664h-1.34v0.783h1.701v0.687h-2.526v-3.537h2.526v0.688H57.119z"/>
	<path fill="#006444" d="M60.031,68.089h-0.826v-3.537h1.332c0.344,0,0.658,0,0.952,0.202c0.3,0.212,0.46,0.513,0.46,0.88
		c0,0.336-0.12,0.677-0.383,0.897c-0.304,0.254-0.629,0.249-1.004,0.249h-0.531V68.089z M60.494,66.136c0.196,0,0.361,0,0.506-0.155
		c0.077-0.088,0.113-0.202,0.113-0.315c0-0.141-0.057-0.283-0.17-0.37c-0.129-0.1-0.299-0.1-0.454-0.1h-0.458v0.94H60.494z"/>
	<path fill="#006444" d="M65.097,66.69c0,0.388,0.005,0.79-0.288,1.077c-0.283,0.283-0.701,0.373-1.088,0.373
		c-0.372,0-0.799-0.058-1.082-0.304c-0.352-0.305-0.367-0.712-0.367-1.146v-2.139h0.896v2.139c0,0.167-0.004,0.403,0.079,0.546
		c0.106,0.187,0.329,0.237,0.53,0.237c0.164,0,0.408-0.051,0.511-0.191c0.114-0.157,0.097-0.405,0.097-0.592v-2.139h0.712V66.69z"/>
	<path fill="#006444" d="M67.244,64.552c0.279,0,0.568,0,0.811,0.155c0.283,0.182,0.433,0.439,0.433,0.773
		c0,0.401-0.269,0.668-0.64,0.764v0.011c0.439,0.085,0.738,0.421,0.738,0.881c0,0.309-0.187,0.581-0.434,0.762
		c-0.257,0.191-0.604,0.191-0.908,0.191h-1.581v-3.537H67.244z M66.487,65.955h0.562c0.145,0,0.314,0.008,0.439-0.084
		c0.096-0.071,0.148-0.201,0.148-0.319c0-0.13-0.062-0.25-0.176-0.321c-0.117-0.065-0.334-0.051-0.474-0.051h-0.5V65.955z
		 M66.487,67.432h0.573c0.148,0,0.34,0.013,0.469-0.076c0.118-0.077,0.185-0.22,0.185-0.366c0-0.132-0.082-0.272-0.2-0.341
		c-0.119-0.065-0.284-0.065-0.418-0.065h-0.608V67.432z"/>
	<path fill="#006444" d="M71.197,67.388v0.701h-2.246v-3.537h0.823v2.836H71.197z"/>
	<path fill="#006444" d="M72.311,68.089h-0.824v-3.537h0.824V68.089z"/>
	<path fill="#006444" d="M73.76,66.218l1.107-1.666h0.794l-0.851,1.263l1.062,2.274h-0.913l-0.7-1.531l-0.499,0.717v0.814h-0.805
		v-3.537h0.805V66.218z"/>
	<path fill="#006444" d="M77.805,66.598v1.491h-0.826v-1.491l-1.118-2.046h0.959l0.681,1.345l0.67-1.345h0.742L77.805,66.598z"/>
	<path fill="#006444" d="M39.162,55.574h-0.893l-0.217-0.725h-1.145l-0.221,0.725h-0.727l1.134-3.535h0.959L39.162,55.574z
		 M37.862,54.201l-0.376-1.244l-0.376,1.244H37.862z"/>
	<path fill="#006444" d="M40.696,54.344v-0.661h1.452v1.892h-0.375l-0.12-0.406c-0.263,0.32-0.551,0.46-0.963,0.46
		c-1.036,0-1.464-0.861-1.464-1.79c0-0.958,0.468-1.85,1.537-1.85c0.762,0,1.277,0.464,1.385,1.211l-0.783,0.108
		c-0.036-0.355-0.227-0.655-0.624-0.655c-0.583,0-0.67,0.758-0.67,1.195c0,0.46,0.128,1.109,0.706,1.109
		c0.361,0,0.609-0.253,0.588-0.613H40.696z"/>
	<path fill="#006444" d="M43.541,52.725v0.716h1.34v0.665h-1.34v0.785h1.7v0.684h-2.526v-3.535h2.526v0.686H43.541z"/>
	<path fill="#006444" d="M48.35,55.574h-0.707l-1.355-2.375h-0.021v2.375h-0.64v-3.535h0.893l1.182,2.078h0.009v-2.078h0.64V55.574z
		"/>
	<path fill="#006444" d="M51.307,52.741H50.42v2.833h-0.826v-2.833h-0.896v-0.702h2.609V52.741z"/>
	<path fill="#006444" d="M54.43,54.178c0,0.388,0.004,0.79-0.289,1.079c-0.283,0.283-0.701,0.371-1.088,0.371
		c-0.371,0-0.799-0.058-1.081-0.306c-0.352-0.306-0.367-0.711-0.367-1.145v-2.139h0.897v2.139c0,0.166-0.006,0.402,0.077,0.548
		c0.108,0.185,0.33,0.236,0.531,0.236c0.164,0,0.407-0.052,0.51-0.19c0.113-0.16,0.099-0.408,0.099-0.594v-2.139h0.711V54.178z"/>
	<path fill="#006444" d="M55.82,55.574h-0.825v-3.535h1.489c0.316,0,0.635,0.004,0.908,0.182c0.288,0.188,0.449,0.534,0.449,0.882
		c0,0.399-0.232,0.772-0.614,0.909l0.654,1.563h-0.917l-0.541-1.396H55.82V55.574z M55.82,53.569h0.453
		c0.171,0,0.355,0.017,0.506-0.072c0.135-0.083,0.205-0.246,0.205-0.399c0-0.141-0.082-0.29-0.201-0.363
		c-0.139-0.086-0.375-0.066-0.529-0.066H55.82V53.569z"/>
	<path fill="#006444" d="M61.217,55.574h-0.892l-0.217-0.725h-1.145l-0.222,0.725h-0.727l1.135-3.535h0.958L61.217,55.574z
		 M59.918,54.201l-0.377-1.244l-0.375,1.244H59.918z"/>
	<path fill="#006444" d="M62.502,55.071c-0.26-0.367-0.372-0.825-0.372-1.269c0-0.939,0.469-1.814,1.517-1.814
		c0.469,0,0.84,0.154,1.123,0.54c0.252,0.345,0.382,0.845,0.382,1.274c0,0.401-0.108,0.891-0.335,1.226
		c-0.273,0.401-0.691,0.6-1.17,0.6C63.167,55.628,62.779,55.462,62.502,55.071z M63.11,53.065c-0.083,0.212-0.114,0.516-0.114,0.737
		c0,0.443,0.067,1.148,0.65,1.148c0.283,0,0.438-0.14,0.531-0.402c0.081-0.216,0.107-0.509,0.107-0.741
		c0-0.259-0.026-0.562-0.129-0.798c-0.104-0.238-0.253-0.347-0.51-0.347C63.362,52.663,63.207,52.808,63.11,53.065z"/>
	<path fill="#006444" d="M67.599,53.41c-0.005-0.391-0.14-0.758-0.593-0.758c-0.583,0-0.64,0.762-0.64,1.191
		c0,0.484,0.057,1.107,0.681,1.107c0.387,0,0.566-0.325,0.613-0.665l0.805,0.051c-0.088,0.811-0.645,1.291-1.459,1.291
		c-1.051,0-1.563-0.856-1.563-1.82c0-0.979,0.525-1.819,1.588-1.819c0.887,0,1.34,0.514,1.434,1.366L67.599,53.41z"/>
	<path fill="#006444" d="M71.66,55.574h-0.825v-1.457h-1.093v1.457h-0.825v-3.535h0.825v1.382h1.093v-1.382h0.825V55.574z"/>
	<path fill="#006444" d="M73.092,55.574h-0.824v-3.535h1.49c0.313,0,0.633,0.004,0.906,0.182c0.288,0.188,0.447,0.534,0.447,0.882
		c0,0.399-0.231,0.772-0.613,0.909l0.654,1.563h-0.916l-0.541-1.396h-0.604V55.574z M73.092,53.569h0.453
		c0.17,0,0.355,0.017,0.505-0.072c0.134-0.083,0.206-0.246,0.206-0.399c0-0.141-0.082-0.29-0.201-0.363
		c-0.139-0.086-0.375-0.067-0.531-0.067h-0.432V53.569z"/>
	<path fill="#006444" d="M78.488,55.574h-0.893L77.38,54.85h-1.146l-0.221,0.725h-0.729l1.136-3.535h0.959L78.488,55.574z
		 M77.188,54.2l-0.375-1.243L76.436,54.2H77.188z"/>
	<path fill="#006444" d="M81.518,55.574h-0.706l-1.355-2.375h-0.021v2.375h-0.641v-3.535h0.893l1.182,2.078h0.01v-2.078h0.639
		V55.574z"/>
	<path fill="#006444" d="M83.764,54.086v1.488h-0.825v-1.488l-1.117-2.047h0.958l0.68,1.345l0.671-1.345h0.742L83.764,54.086z"/>
	<path fill="#006444" d="M36.784,61.858h-0.824v-3.536h1.33c0.345,0,0.659,0,0.954,0.2c0.299,0.213,0.458,0.517,0.458,0.881
		c0,0.337-0.118,0.676-0.381,0.898c-0.305,0.252-0.629,0.247-1.006,0.247h-0.531V61.858z M37.249,59.906c0.195,0,0.36,0,0.504-0.155
		c0.078-0.089,0.112-0.203,0.112-0.315c0-0.141-0.056-0.284-0.169-0.371c-0.129-0.097-0.299-0.097-0.454-0.097h-0.459v0.938H37.249z
		"/>
	<path fill="#006444" d="M39.917,61.858h-0.825v-3.536h1.49c0.313,0,0.634,0.006,0.907,0.181c0.289,0.189,0.449,0.536,0.449,0.881
		c0,0.403-0.232,0.774-0.613,0.912l0.654,1.563h-0.917l-0.542-1.398h-0.604V61.858z M40.376,57.993l-0.996-0.608h0.552l0.443,0.205
		l0.438-0.205h0.531L40.376,57.993z M39.917,59.854h0.454c0.17,0,0.355,0.014,0.505-0.072c0.135-0.082,0.207-0.248,0.207-0.401
		c0-0.141-0.083-0.29-0.201-0.36c-0.139-0.09-0.376-0.069-0.531-0.069h-0.433V59.854z"/>
	<path fill="#006444" d="M43.391,57.678l-0.912,0.32l-0.135-0.32l0.876-0.438L43.391,57.678z M43.241,61.858h-0.825v-3.536h0.825
		V61.858z"/>
	<path fill="#006444" d="M44.71,61.858h-0.825v-3.536h1.489c0.314,0,0.634,0.006,0.908,0.181c0.288,0.189,0.448,0.536,0.448,0.881
		c0,0.403-0.232,0.774-0.613,0.912l0.654,1.563h-0.917l-0.542-1.398H44.71V61.858z M44.71,59.854h0.454
		c0.17,0,0.355,0.014,0.505-0.072c0.134-0.082,0.207-0.248,0.207-0.401c0-0.141-0.084-0.29-0.203-0.36
		c-0.139-0.09-0.375-0.069-0.53-0.069H44.71V59.854z"/>
	<path fill="#006444" d="M47.363,61.354c-0.257-0.366-0.371-0.825-0.371-1.269c0-0.938,0.469-1.814,1.516-1.814
		c0.469,0,0.84,0.153,1.124,0.541c0.253,0.344,0.381,0.845,0.381,1.273c0,0.4-0.107,0.891-0.335,1.225
		c-0.272,0.404-0.69,0.601-1.169,0.601C48.029,61.91,47.641,61.744,47.363,61.354z M47.971,59.348
		c-0.082,0.211-0.112,0.517-0.112,0.737c0,0.443,0.066,1.148,0.649,1.148c0.283,0,0.438-0.138,0.53-0.401
		c0.083-0.216,0.109-0.51,0.109-0.741c0-0.26-0.026-0.563-0.13-0.8c-0.103-0.237-0.252-0.345-0.509-0.345
		C48.224,58.946,48.07,59.09,47.971,59.348z"/>
	<path fill="#006444" d="M51.481,58.322c0.511,0,0.948,0.03,1.335,0.396c0.381,0.36,0.547,0.851,0.547,1.36
		c0,0.475-0.145,0.934-0.459,1.289c-0.351,0.385-0.783,0.49-1.283,0.49h-1.166v-3.536H51.481z M51.28,61.193h0.278
		c0.346,0,0.566-0.068,0.758-0.376c0.139-0.228,0.196-0.501,0.196-0.765c0-0.275-0.083-0.577-0.253-0.799
		c-0.191-0.246-0.402-0.281-0.697-0.281H51.28V61.193z"/>
	<path fill="#006444" d="M55.228,60.368v1.49h-0.825v-1.49l-1.117-2.046h0.957l0.682,1.345l0.67-1.345h0.742L55.228,60.368z"/>
	<path fill="#006444" d="M60.711,61.858h-0.893l-0.216-0.728h-1.145l-0.222,0.728h-0.728l1.135-3.536h0.959L60.711,61.858z
		 M59.412,60.48l-0.377-1.241l-0.376,1.241H59.412z"/>
	<path fill="#006444" d="M63.307,59.986l1.109-1.664h0.794l-0.851,1.264l1.062,2.272h-0.913l-0.701-1.531l-0.5,0.718v0.813h-0.803
		v-3.536h0.803V59.986z"/>
	<path fill="#006444" d="M66.549,61.858h-0.824v-3.536h1.489c0.314,0,0.634,0.006,0.907,0.181c0.288,0.189,0.448,0.536,0.448,0.881
		c0,0.403-0.231,0.774-0.614,0.912l0.655,1.563h-0.917l-0.541-1.398h-0.604V61.858z M66.549,59.854h0.453
		c0.171,0,0.356,0.014,0.505-0.072c0.135-0.082,0.207-0.248,0.207-0.401c0-0.141-0.082-0.29-0.201-0.36
		c-0.138-0.09-0.376-0.069-0.53-0.069h-0.434V59.854z"/>
	<path fill="#006444" d="M71.945,61.858h-0.892l-0.217-0.728h-1.146l-0.221,0.728h-0.728l1.134-3.536h0.96L71.945,61.858z
		 M70.646,60.48l-0.377-1.241l-0.377,1.241H70.646z"/>
	<path fill="#006444" d="M73.791,60.776c0,0.793-0.309,1.134-1.107,1.134l-0.558-0.057v-0.686c0.135,0.02,0.269,0.04,0.402,0.04
		s0.278-0.029,0.366-0.145c0.077-0.098,0.072-0.271,0.072-0.391v-2.351h0.824V60.776z"/>
	<path fill="#006444" d="M75.193,61.858h-0.826v-3.536h0.826V61.858z"/>
	<path fill="#006444" d="M78.542,61.858h-0.706l-1.355-2.376H76.46v2.376h-0.64v-3.536h0.893l1.18,2.076h0.012v-2.076h0.638V61.858z
		"/>
	<path fill="#006444" d="M80.789,60.368v1.49h-0.825v-1.49l-1.118-2.046h0.959l0.68,1.345l0.67-1.345h0.744L80.789,60.368z"/>
</g>
<rect fill="none" width="100" height="100"/>
</svg>
