<?xml version="1.0" encoding="utf-8"?>
<!-- Generator: Adobe Illustrator 13.0.1, SVG Export Plug-In . SVG Version: 6.00 Build 14948)  -->
<!DOCTYPE svg PUBLIC "-//W3C//DTD SVG 1.1//EN" "http://www.w3.org/Graphics/SVG/1.1/DTD/svg11.dtd">
<svg version="1.1" id="Vrstva_1" xmlns="http://www.w3.org/2000/svg" xmlns:xlink="http://www.w3.org/1999/xlink" x="0px" y="0px"
	 width="100px" height="100px" viewBox="0 0 100 100" enable-background="new 0 0 100 100" xml:space="preserve">
<g>
	<path fill="#003871" d="M49.813,26.188c5.187,0,9.889,2.117,13.302,5.522c3.405,3.413,5.521,8.115,5.521,13.302
		c0,10.363-8.458,18.813-18.823,18.813v-0.37c10.162,0,18.453-8.283,18.453-18.443c0-5.082-2.072-9.694-5.416-13.037
		c-3.343-3.343-7.956-5.416-13.037-5.416V26.188z M49.813,63.825c-10.355,0-18.805-8.45-18.805-18.813
		c0-5.187,2.116-9.889,5.522-13.302c3.413-3.405,8.115-5.522,13.283-5.522v0.371c-5.072,0-9.685,2.073-13.019,5.416
		c-3.343,3.343-5.416,7.956-5.416,13.037c0,10.16,8.282,18.443,18.435,18.443V63.825z"/>
	<g>
		<path fill="#003871" d="M49.671,43.317l11.688,12.42l0.123,0.133l-0.141,0.132l-0.979,0.847l-0.123,0.113l-0.124-0.123
			L49.671,46.334v-0.512l10.585,10.639l0.696-0.617L49.671,43.855V43.317z M37.87,34.461l0.141-0.132l1.579-1.464l0.132-0.124
			l0.124,0.132l9.826,10.444v0.538l-9.967-10.603l-1.305,1.218l11.272,11.352v0.512l-11.669-11.74L37.87,34.461z"/>
		<path fill="#003871" d="M49.954,43.688l9.853-10.964l0.133-0.15l0.141,0.141l1.35,1.473l0.114,0.124l-0.114,0.123L51.277,45.1
			l-0.273-0.256l10.037-10.531l-1.094-1.2l-9.72,10.822L49.954,43.688L49.954,43.688z M43.762,52.949v-0.52l6.086-6.201l0.265,0.255
			L43.762,52.949L43.762,52.949z M43.762,50.842l5.178-5.513l-0.265-0.255l-4.913,5.23V50.842z M43.762,50.304v0.538l-4.922,5.23
			l-0.273-0.247L43.762,50.304L43.762,50.304z M43.762,52.43l-4.102,4.163l-1.076-0.777l-0.221,0.301l1.217,0.865l0.123,0.088
			l0.115-0.107l3.943-4.013V52.43z"/>
		<polygon fill-rule="evenodd" clip-rule="evenodd" fill="#003871" points="36.476,41.068 37.076,39.445 37.949,37.708 
			38.849,36.244 39.942,35.044 40.992,34.038 42.457,32.803 43.93,31.877 45.394,33.271 44.794,34.426 44.15,35.467 43.63,36.244 
			43.065,37.011 42.536,37.628 41.971,38.246 41.107,38.907 40.357,39.445 39.634,39.833 38.884,40.143 37.834,40.565 		"/>
		<polygon fill-rule="evenodd" clip-rule="evenodd" fill="#003871" points="54.029,33.262 55.493,31.648 56.438,32.256 
			57.451,32.917 58.766,33.8 59.631,34.656 60.494,35.538 61.13,36.464 61.924,37.813 62.639,39.321 63.123,40.513 63.389,41.174 
			62.188,40.627 60.908,39.975 59.551,39.242 58.651,38.704 57.416,37.734 56.552,36.852 55.493,35.653 		"/>
	</g>
	<path fill-rule="evenodd" clip-rule="evenodd" fill="#003871" d="M53.526,60.271v-0.617c0.123-0.018,0.229-0.106,0.327-0.266
		c0.096-0.175,0.148-0.447,0.148-0.828l-0.008-0.008c-0.106,0.185-0.256,0.29-0.468,0.316V58.26l0,0
		c0.123,0,0.229-0.053,0.317-0.167c0.098-0.106,0.141-0.273,0.141-0.486c0-0.229-0.043-0.405-0.123-0.528
		c-0.07-0.124-0.186-0.194-0.335-0.194v-0.636c0.317,0,0.565,0.124,0.724,0.354c0.168,0.237,0.264,0.495,0.309,0.785
		c0.035,0.281,0.062,0.573,0.062,0.873c0,0.706-0.114,1.217-0.335,1.534C54.082,60.095,53.826,60.253,53.526,60.271z M53.526,56.248
		v0.636c-0.009,0-0.009,0-0.019,0c-0.105,0-0.211,0.043-0.299,0.142c-0.098,0.097-0.142,0.273-0.142,0.521
		c0,0.273,0.044,0.458,0.124,0.564c0.088,0.097,0.203,0.149,0.335,0.149v0.608c-0.044,0.009-0.088,0.009-0.132,0.009
		c-0.195,0-0.362-0.053-0.504-0.158c-0.141-0.115-0.246-0.266-0.326-0.45c-0.079-0.193-0.114-0.396-0.114-0.608
		c0-0.309,0.044-0.574,0.132-0.785c0.098-0.212,0.221-0.37,0.38-0.469c0.159-0.104,0.344-0.158,0.556-0.158H53.526L53.526,56.248z
		 M53.526,59.653v0.617c-0.019,0-0.026,0-0.044,0c-0.177,0-0.336-0.044-0.477-0.123s-0.256-0.202-0.336-0.354
		c-0.088-0.149-0.141-0.325-0.158-0.538h0.609v0.01c0.035,0.256,0.158,0.388,0.361,0.388C53.5,59.653,53.508,59.653,53.526,59.653
		L53.526,59.653z M48.278,60.271v-0.617c0.115-0.018,0.221-0.106,0.309-0.266c0.105-0.175,0.149-0.447,0.149-0.828v-0.008
		c-0.105,0.185-0.255,0.29-0.458,0.316V58.26l0,0c0.115,0,0.221-0.053,0.309-0.167c0.088-0.106,0.141-0.273,0.141-0.486
		c0-0.229-0.044-0.405-0.124-0.528c-0.07-0.124-0.186-0.194-0.327-0.194v-0.636c0.309,0,0.547,0.124,0.715,0.354
		c0.159,0.237,0.264,0.495,0.3,0.785c0.043,0.281,0.062,0.573,0.062,0.873c0,0.706-0.106,1.217-0.326,1.534
		C48.825,60.095,48.569,60.253,48.278,60.271L48.278,60.271z M49.998,57.475v-0.548h0.08c0.273,0,0.467-0.069,0.582-0.202
		c0.115-0.14,0.177-0.291,0.185-0.477h0.512v3.918h-0.617v-2.691H49.998z M44.741,57.475v-0.548h0.088
		c0.265,0,0.458-0.069,0.582-0.202c0.115-0.14,0.177-0.291,0.186-0.477H46.1v3.918H45.49v-2.691H44.741L44.741,57.475z
		 M48.278,56.248v0.636c-0.009,0-0.009,0-0.018,0c-0.114,0-0.211,0.043-0.308,0.142c-0.088,0.097-0.132,0.273-0.132,0.521
		c0,0.273,0.035,0.458,0.123,0.564c0.089,0.097,0.194,0.149,0.335,0.149v0.608c-0.044,0.009-0.088,0.009-0.132,0.009
		c-0.194,0-0.362-0.053-0.503-0.158c-0.141-0.115-0.255-0.266-0.326-0.45c-0.079-0.193-0.115-0.396-0.115-0.608
		c0-0.309,0.044-0.574,0.133-0.785c0.097-0.212,0.221-0.37,0.379-0.469c0.159-0.104,0.344-0.158,0.556-0.158
		C48.269,56.248,48.269,56.248,48.278,56.248L48.278,56.248z M48.278,59.653v0.617c-0.018,0-0.036,0-0.044,0
		c-0.176,0-0.335-0.044-0.477-0.123c-0.141-0.079-0.255-0.202-0.344-0.354c-0.079-0.149-0.133-0.325-0.15-0.538h0.609v0.01
		c0.035,0.256,0.159,0.388,0.361,0.388C48.251,59.653,48.26,59.653,48.278,59.653z"/>
	<path fill="#003871" d="M49.804,25.227c10.902,0.009,19.785,8.9,19.785,19.802c0,0.573-0.035,1.182-0.097,1.773
		c-0.053,0.521-0.15,1.2-0.221,1.685l7.523,1.526l-0.018,0.097l0.026,0.009c-1.128,6.396-4.577,11.979-9.394,15.957
		c-4.816,3.987-11.008,6.378-17.606,6.378v-0.372c6.509,0,12.614-2.354,17.378-6.289c4.683-3.871,8.061-9.287,9.217-15.497
		l-7.577-1.535l0.079-0.361l0.018,0.008c0.063-0.476,0.159-1.146,0.213-1.64c0.052-0.583,0.096-1.165,0.096-1.738
		c0-10.7-8.723-19.423-19.423-19.44V25.227z M22.857,49.986l7.427-1.473c-0.07-0.476-0.141-1.244-0.194-1.791
		c-0.062-0.573-0.097-1.156-0.097-1.694c0-10.911,8.892-19.802,19.793-19.802c0.009,0,0.009,0,0.018,0v0.362
		c-0.008,0-0.008,0-0.018,0c-10.699,0-19.432,8.732-19.432,19.44c0,0.538,0.044,1.103,0.097,1.658
		c0.053,0.556,0.133,1.35,0.212,1.853l0,0l0.053,0.256l-7.488,1.482c1.164,6.236,4.507,11.644,9.173,15.515
		c4.746,3.943,10.849,6.289,17.395,6.289c0.008,0,0.008,0,0.008,0v0.372c0,0,0,0-0.008,0c-6.633,0-12.826-2.383-17.633-6.378
		c-4.807-3.996-8.238-9.605-9.359-16.063l0.063-0.018L22.857,49.986z"/>
	<g>
		<path fill-rule="evenodd" clip-rule="evenodd" fill="#003871" d="M28.723,53.206l-0.194-0.592
			c0.204-0.105,0.362-0.221,0.486-0.353c0.114-0.132,0.141-0.301,0.07-0.512c-0.036-0.105-0.115-0.203-0.239-0.273
			c-0.132-0.08-0.317-0.115-0.573-0.105c-0.255,0-0.582,0.069-0.961,0.194c-0.282,0.088-0.52,0.202-0.732,0.326
			c-0.211,0.124-0.371,0.256-0.477,0.406c-0.097,0.149-0.123,0.3-0.07,0.457c0.053,0.169,0.167,0.273,0.353,0.336
			c0.176,0.062,0.406,0.062,0.688,0.008l0.185,0.583c-0.335,0.071-0.644,0.089-0.926,0.071c-0.274-0.027-0.512-0.098-0.706-0.22
			c-0.194-0.124-0.326-0.303-0.397-0.53c-0.061-0.177-0.07-0.361-0.026-0.556c0.053-0.194,0.159-0.38,0.317-0.556
			c0.159-0.177,0.379-0.353,0.644-0.513c0.273-0.158,0.6-0.29,0.97-0.414c0.379-0.123,0.724-0.203,1.041-0.238
			c0.309-0.025,0.582-0.018,0.82,0.027c0.238,0.053,0.433,0.141,0.574,0.265c0.149,0.123,0.255,0.272,0.317,0.458
			c0.088,0.265,0.079,0.503-0.018,0.741c-0.106,0.229-0.265,0.433-0.477,0.6C29.181,52.984,28.96,53.118,28.723,53.206
			L28.723,53.206z M31.351,51.785l-1.05-0.15l-0.159-0.484l0.759-0.741l0.142,0.441l-0.424,0.414l0.591,0.08L31.351,51.785z"/>
		<polygon fill-rule="evenodd" clip-rule="evenodd" fill="#003871" points="31.228,54.863 30.469,55.199 29.834,53.771 
			28.943,54.167 29.525,55.481 28.775,55.815 28.185,54.512 27.082,54.997 27.744,56.486 26.994,56.822 26.085,54.784 
			30.346,52.889 		"/>
		<path fill-rule="evenodd" clip-rule="evenodd" fill="#003871" d="M28.484,56.637l0.3,0.512c-0.167,0.097-0.291,0.22-0.379,0.379
			c-0.088,0.159-0.08,0.335,0.044,0.538c0.203,0.353,0.476,0.433,0.829,0.229c0.141-0.088,0.229-0.185,0.247-0.291
			c0.027-0.115,0.018-0.265-0.017-0.468l-0.062-0.326c-0.026-0.168-0.044-0.309-0.053-0.415c0-0.113,0.018-0.229,0.053-0.353
			c0.044-0.124,0.115-0.246,0.229-0.37c0.114-0.124,0.273-0.238,0.485-0.36c0.124-0.071,0.265-0.143,0.424-0.194
			c0.159-0.054,0.317-0.081,0.494-0.089c0.167,0,0.335,0.035,0.485,0.123c0.159,0.08,0.292,0.221,0.406,0.414
			c0.141,0.238,0.186,0.468,0.132,0.697c-0.053,0.229-0.159,0.434-0.317,0.617c-0.168,0.177-0.344,0.326-0.539,0.434l-0.291-0.504
			c0.089-0.062,0.168-0.132,0.238-0.203c0.07-0.08,0.123-0.177,0.15-0.29c0.027-0.115-0.009-0.247-0.088-0.389
			c-0.07-0.114-0.167-0.194-0.3-0.238c-0.132-0.044-0.273-0.018-0.441,0.079c-0.141,0.079-0.221,0.159-0.247,0.237
			c-0.026,0.089-0.035,0.179-0.018,0.283l0.124,0.76c0.026,0.157,0.026,0.308,0.009,0.448c-0.027,0.142-0.088,0.291-0.203,0.434
			c-0.115,0.149-0.282,0.282-0.503,0.414c-0.361,0.211-0.679,0.317-0.943,0.309c-0.274-0.008-0.477-0.07-0.626-0.186
			c-0.15-0.114-0.265-0.238-0.335-0.361c-0.159-0.282-0.221-0.547-0.176-0.793c0.053-0.239,0.158-0.45,0.327-0.636
			C28.088,56.901,28.272,56.76,28.484,56.637z"/>
		<polygon fill-rule="evenodd" clip-rule="evenodd" fill="#003871" points="30.646,59.521 29.402,60.491 29.022,60.007 
			32.692,57.14 33.071,57.625 31.571,58.789 33.768,58.507 34.253,59.134 32.012,59.362 30.628,62.062 30.134,61.437 31.184,59.46 
					"/>
		<path fill-rule="evenodd" clip-rule="evenodd" fill="#003871" d="M35.312,60.183l0.053,0.053l-0.053,0.079V60.183L35.312,60.183z
			 M35.312,59.53v-0.07l0.882-0.388l0.458,0.432l-1.094,0.265L35.312,59.53z M33.6,60.563l1.253-0.821l0.458,0.441v0.132
			L33.6,63.119v-1.174l0.776-1.199l-0.009-0.008l-0.768,0.53V60.563L33.6,60.563z M35.312,59.46v0.07l-0.053-0.054L35.312,59.46z
			 M32.136,62.264l-0.812,0.547l-0.458-0.449l2.734-1.799v0.706l-0.776,0.529l0.538,0.52l0.238-0.372v1.174l-0.731,1.183
			l-0.477-0.458l0.529-0.819L32.136,62.264z"/>
		<path fill-rule="evenodd" clip-rule="evenodd" fill="#003871" d="M37.014,65.272l0.406-0.671l1.059,0.636l-1.297,2.143
			l-0.352-0.212l0.256-0.537c-0.133,0.08-0.256,0.141-0.362,0.193c-0.114,0.044-0.238,0.071-0.37,0.071
			c-0.141,0-0.283-0.044-0.423-0.124c-0.15-0.098-0.273-0.229-0.362-0.396c-0.088-0.177-0.132-0.38-0.132-0.618
			c-0.009-0.247,0.044-0.512,0.141-0.811c0.097-0.3,0.247-0.618,0.45-0.952c0.229-0.38,0.485-0.706,0.768-0.97
			c0.283-0.265,0.573-0.442,0.873-0.531c0.309-0.079,0.591-0.035,0.865,0.124c0.186,0.113,0.327,0.248,0.406,0.415
			c0.097,0.167,0.141,0.343,0.15,0.536c0,0.187-0.018,0.372-0.062,0.558c-0.053,0.185-0.115,0.352-0.194,0.502l-0.529-0.317
			c0.026-0.044,0.053-0.114,0.071-0.202c0.018-0.098,0.027-0.187,0.027-0.283c0-0.105-0.027-0.194-0.063-0.292
			c-0.035-0.087-0.106-0.158-0.194-0.21c-0.123-0.08-0.282-0.107-0.45-0.072c-0.167,0.037-0.353,0.143-0.547,0.317
			c-0.194,0.179-0.397,0.426-0.591,0.752c-0.3,0.502-0.44,0.9-0.423,1.182c0.008,0.29,0.123,0.504,0.334,0.626
			c0.106,0.061,0.265,0.08,0.459,0.034c0.203-0.044,0.423-0.229,0.679-0.537L37.014,65.272z"/>
		<polygon fill-rule="evenodd" clip-rule="evenodd" fill="#003871" points="41.909,64.478 41.548,65.229 40.145,64.54 
			39.713,65.423 41.01,66.04 40.648,66.781 39.351,66.153 38.822,67.24 40.295,67.954 39.934,68.695 37.923,67.717 39.969,63.533 		
			"/>
		<path fill-rule="evenodd" clip-rule="evenodd" fill="#003871" d="M42.563,64.884c0.026-0.008,0.053-0.018,0.07-0.018
			c0.247-0.062,0.45-0.062,0.626-0.009c0.123,0.035,0.255,0.106,0.379,0.202c0.132,0.097,0.247,0.256,0.343,0.45
			c0.097,0.202,0.15,0.477,0.15,0.83c0.009,0.353-0.062,0.775-0.211,1.262c-0.142,0.493-0.309,0.882-0.503,1.172
			c-0.194,0.291-0.388,0.494-0.582,0.609c-0.088,0.062-0.186,0.105-0.273,0.141v-0.838c0.061-0.035,0.123-0.07,0.185-0.122
			c0.22-0.194,0.423-0.574,0.583-1.14c0.087-0.291,0.141-0.556,0.158-0.776c0.009-0.22,0-0.405-0.044-0.537
			c-0.044-0.14-0.097-0.247-0.167-0.318c-0.08-0.08-0.159-0.123-0.248-0.15c-0.087-0.024-0.185-0.034-0.291-0.008
			c-0.053,0.008-0.115,0.035-0.176,0.07V64.884z M41.212,66.798c0.185-0.636,0.406-1.103,0.671-1.394
			c0.238-0.272,0.467-0.45,0.679-0.521v0.82c-0.044,0.027-0.089,0.063-0.142,0.107c-0.106,0.087-0.22,0.237-0.326,0.431
			c-0.106,0.186-0.203,0.432-0.291,0.733c-0.168,0.556-0.212,0.979-0.124,1.27c0.08,0.281,0.229,0.458,0.423,0.513
			c0.15,0.043,0.3,0.024,0.459-0.072v0.838c-0.089,0.035-0.177,0.053-0.256,0.063c-0.167,0.018-0.308,0.008-0.432-0.035
			c-0.185-0.055-0.353-0.168-0.52-0.344c-0.177-0.177-0.282-0.46-0.344-0.856C40.957,67.954,41.019,67.434,41.212,66.798z"/>
		<polygon fill-rule="evenodd" clip-rule="evenodd" fill="#003871" points="45.49,65.493 44.697,69.232 46.126,69.533 
			45.949,70.361 43.921,69.93 44.891,65.378 		"/>
		<path fill-rule="evenodd" clip-rule="evenodd" fill="#003871" d="M47.837,65.819c0.071-0.008,0.141-0.019,0.212-0.008
			c0.132,0.008,0.265,0.052,0.405,0.122c0.15,0.08,0.292,0.204,0.424,0.379c0.132,0.187,0.238,0.441,0.317,0.785
			c0.07,0.345,0.088,0.768,0.044,1.279c-0.044,0.513-0.132,0.927-0.265,1.252c-0.132,0.318-0.282,0.558-0.45,0.716
			c-0.15,0.148-0.317,0.254-0.476,0.3c-0.071,0.026-0.141,0.043-0.212,0.051v-0.827c0.15-0.027,0.3-0.133,0.441-0.317
			c0.176-0.229,0.292-0.646,0.344-1.227c0.026-0.309,0.026-0.573,0-0.793c-0.035-0.222-0.08-0.398-0.15-0.521
			c-0.07-0.124-0.141-0.222-0.22-0.274c-0.088-0.063-0.176-0.098-0.274-0.105c-0.043,0-0.097,0-0.141,0.008V65.819z M46.426,68.13
			c0.062-0.652,0.185-1.164,0.379-1.508c0.203-0.353,0.415-0.573,0.635-0.679c0.141-0.063,0.273-0.107,0.397-0.124v0.819
			c-0.044,0.009-0.097,0.027-0.141,0.044c-0.097,0.046-0.185,0.124-0.282,0.239c-0.088,0.113-0.168,0.273-0.229,0.485
			c-0.07,0.211-0.114,0.466-0.141,0.775c-0.053,0.583-0.009,1.007,0.133,1.271c0.141,0.265,0.308,0.406,0.52,0.424
			c0.044,0,0.097,0,0.141-0.009v0.827c-0.08,0.011-0.149,0.011-0.212,0c-0.185-0.008-0.379-0.086-0.582-0.229
			c-0.203-0.141-0.37-0.404-0.502-0.776C46.408,69.313,46.373,68.793,46.426,68.13z"/>
		<path fill-rule="evenodd" clip-rule="evenodd" fill="#003871" d="M51.154,68.925l-0.035-0.787l1.234-0.052l0.114,2.505
			l-0.405,0.019l-0.089-0.582c-0.07,0.14-0.132,0.256-0.202,0.354c-0.063,0.104-0.15,0.192-0.266,0.271
			c-0.114,0.079-0.256,0.124-0.423,0.124c-0.177,0.009-0.353-0.026-0.521-0.124c-0.167-0.097-0.318-0.246-0.45-0.441
			c-0.141-0.202-0.255-0.448-0.335-0.758c-0.088-0.31-0.141-0.652-0.159-1.041c-0.026-0.441,0.009-0.854,0.097-1.234
			c0.088-0.38,0.229-0.688,0.441-0.927c0.203-0.237,0.467-0.361,0.776-0.378c0.221-0.01,0.415,0.035,0.573,0.122
			c0.168,0.088,0.31,0.213,0.414,0.362c0.115,0.149,0.204,0.316,0.266,0.503c0.063,0.175,0.105,0.353,0.115,0.52l-0.609,0.027
			c-0.009-0.054-0.025-0.124-0.053-0.212c-0.035-0.08-0.08-0.168-0.141-0.247c-0.063-0.08-0.124-0.15-0.212-0.202
			c-0.08-0.054-0.177-0.08-0.274-0.072c-0.158,0.009-0.291,0.072-0.414,0.194c-0.123,0.124-0.22,0.31-0.282,0.565
			c-0.071,0.255-0.089,0.572-0.071,0.952c0.027,0.582,0.124,0.988,0.3,1.227c0.177,0.237,0.389,0.345,0.635,0.335
			c0.123-0.01,0.256-0.079,0.396-0.229c0.142-0.142,0.23-0.424,0.266-0.82L51.154,68.925z"/>
		
			<rect x="50.903" y="67.773" transform="matrix(-0.1608 -0.987 0.987 -0.1608 -5.3985 131.5731)" fill-rule="evenodd" clip-rule="evenodd" fill="#003871" width="4.663" height="0.616"/>
		<polygon fill-rule="evenodd" clip-rule="evenodd" fill="#003871" points="57.849,67.582 58.396,69.064 57.813,69.277 
			56.217,64.902 56.799,64.689 57.442,66.472 57.857,64.311 58.598,64.037 58.121,66.234 60.266,68.386 59.516,68.658 
			57.963,67.046 		"/>
		<path fill-rule="evenodd" clip-rule="evenodd" fill="#003871" d="M56.402,66.596l-0.6,0.133c-0.089-0.214-0.194-0.381-0.31-0.513
			c-0.124-0.133-0.291-0.167-0.503-0.123c-0.115,0.025-0.211,0.096-0.299,0.22c-0.089,0.115-0.142,0.31-0.159,0.556
			c-0.019,0.265,0.018,0.582,0.105,0.971c0.071,0.291,0.159,0.547,0.256,0.768c0.105,0.221,0.229,0.389,0.37,0.503
			c0.133,0.114,0.283,0.158,0.45,0.123c0.168-0.043,0.291-0.149,0.362-0.327c0.078-0.167,0.096-0.396,0.07-0.679l0.6-0.141
			c0.035,0.346,0.035,0.652-0.018,0.936c-0.045,0.272-0.141,0.502-0.283,0.679c-0.141,0.185-0.326,0.3-0.555,0.354
			c-0.195,0.043-0.379,0.035-0.564-0.037c-0.186-0.06-0.362-0.184-0.521-0.361c-0.167-0.175-0.317-0.404-0.449-0.688
			c-0.133-0.291-0.238-0.617-0.326-0.997c-0.088-0.389-0.142-0.739-0.142-1.058c0-0.317,0.036-0.593,0.106-0.82
			c0.07-0.229,0.176-0.416,0.309-0.548c0.141-0.132,0.3-0.22,0.494-0.265c0.264-0.06,0.502-0.035,0.723,0.09
			c0.221,0.114,0.406,0.29,0.557,0.52C56.226,66.11,56.331,66.348,56.402,66.596z"/>
		<path fill-rule="evenodd" clip-rule="evenodd" fill="#003871" d="M60.848,67.001l0.282,0.944l-0.477,0.265v-2.021l0.608-0.334
			l-0.608-0.714v-0.909l2.364,2.672l-0.591,0.328l-0.626-0.752L60.848,67.001z M60.653,68.21l-0.089,0.044l-1.332-4.578l0.627-0.345
			l0.794,0.9v0.909l-0.601-0.715l-0.008,0.008l0.556,1.782l0.053-0.027V68.21L60.653,68.21z M59.542,61.885l-0.07,1.129
			l-0.362,0.194l-0.123-1.014L59.542,61.885z"/>
		<path fill-rule="evenodd" clip-rule="evenodd" fill="#003871" d="M73.056,53.012l0.847,0.483l-0.194,0.619l-2.073-1.226V52.21
			l0.706,0.396l0.229-0.715l-0.936-0.115v-0.6l2.93,0.283l-0.203,0.634l-0.971-0.124L73.056,53.012z M71.635,52.889l-2.046-1.21
			L69.81,51l1.825,0.177v0.6l-0.926-0.105L70.7,51.679l0.935,0.531V52.889z"/>
		<path fill-rule="evenodd" clip-rule="evenodd" fill="#003871" d="M72.553,56.565l-0.803-0.404v-0.662l0.353,0.177l0.344-0.671
			c0.071-0.132,0.079-0.265,0.018-0.389s-0.202-0.237-0.405-0.343c-0.115-0.054-0.221-0.089-0.309-0.089v-0.636
			c0.203,0.019,0.424,0.098,0.68,0.222c0.113,0.061,0.211,0.123,0.309,0.193c0.087,0.071,0.167,0.141,0.246,0.221
			c0.071,0.079,0.133,0.168,0.186,0.247c0.053,0.106,0.098,0.192,0.115,0.283c0.025,0.088,0.025,0.185,0,0.308
			c-0.027,0.125-0.08,0.265-0.168,0.433L72.553,56.565z M71.75,56.161l-1.721-0.882v-0.663l0.265,0.143l0.327-0.654
			c0.062-0.115,0.07-0.221,0.026-0.334c-0.036-0.105-0.133-0.203-0.292-0.283c-0.123-0.07-0.237-0.097-0.326-0.088v-0.661
			c0.045,0.008,0.08,0.017,0.115,0.026c0.132,0.036,0.264,0.088,0.379,0.149c0.186,0.089,0.318,0.177,0.424,0.273
			c0.098,0.098,0.158,0.186,0.193,0.257c0.036,0.079,0.063,0.149,0.07,0.221c0.15-0.098,0.336-0.132,0.539-0.116v0.636
			c-0.045-0.009-0.088,0-0.133,0.01c-0.123,0.033-0.211,0.104-0.265,0.22L71,55.111l0.75,0.388V56.161z M70.029,55.279l-1.631-0.83
			l0.652-1.27c0.07-0.159,0.176-0.266,0.291-0.346c0.123-0.069,0.256-0.104,0.396-0.113c0.098-0.01,0.194,0,0.291,0.018v0.661
			c-0.018,0-0.043,0.01-0.061,0.018c-0.107,0.036-0.195,0.116-0.257,0.248l-0.325,0.625l0.643,0.326V55.279z"/>
		<path fill-rule="evenodd" clip-rule="evenodd" fill="#003871" d="M66.881,57.007l2.381,1.88c0.469,0.369,0.742,0.731,0.839,1.076
			c0.088,0.344,0.018,0.66-0.222,0.961c-0.254,0.326-0.59,0.45-1.021,0.389c-0.292-0.054-0.637-0.221-1.023-0.521l-2.426-1.932
			l0.388-0.484l2.372,1.878c0.248,0.194,0.459,0.3,0.635,0.318c0.187,0.027,0.328-0.027,0.424-0.151
			c0.248-0.308,0.142-0.651-0.326-1.013l-2.408-1.914L66.881,57.007z"/>
		<path fill-rule="evenodd" clip-rule="evenodd" fill="#003871" d="M71.574,56.752l0.705,0.423l-1.191,1.968l-0.705-0.424
			l-1.782-2.867l-0.767,1.271l-0.529-0.318v-0.423l0.979-1.613l0.662,0.396l1.825,2.911L71.574,56.752L71.574,56.752z
			 M67.305,55.489l0.193-0.309l-0.193-0.3V55.489z M67.305,56.804l-0.186-0.114l0.186-0.309V56.804L67.305,56.804z M67.305,54.881
			v0.608l-0.071,0.124l-1.058-0.088l0.237-0.396l0.591,0.052l-0.316-0.502l0.237-0.396L67.305,54.881z"/>
		<polygon fill-rule="evenodd" clip-rule="evenodd" fill="#003871" points="64.525,59.838 67.26,62.503 68.283,61.453 
			68.893,62.043 67.437,63.533 64.103,60.28 		"/>
		<path fill-rule="evenodd" clip-rule="evenodd" fill="#003871" d="M64.182,64.461l0.459-0.372c0.123,0.143,0.264,0.249,0.432,0.318
			c0.168,0.063,0.344,0.026,0.529-0.122c0.317-0.256,0.354-0.547,0.098-0.856c-0.105-0.133-0.212-0.194-0.326-0.202
			c-0.115-0.011-0.266,0.024-0.451,0.088l-0.316,0.106c-0.168,0.062-0.301,0.097-0.406,0.112c-0.105,0.027-0.221,0.027-0.354,0.011
			c-0.123-0.026-0.255-0.08-0.396-0.178c-0.141-0.097-0.281-0.229-0.432-0.414c-0.098-0.114-0.177-0.246-0.256-0.396
			c-0.08-0.142-0.133-0.3-0.159-0.467c-0.035-0.168-0.018-0.336,0.044-0.504c0.053-0.168,0.168-0.326,0.344-0.467
			c0.221-0.178,0.441-0.256,0.68-0.239c0.23,0.019,0.45,0.097,0.652,0.229c0.203,0.135,0.371,0.284,0.512,0.461l-0.458,0.369
			c-0.071-0.078-0.15-0.148-0.238-0.202c-0.089-0.062-0.186-0.097-0.31-0.107c-0.114-0.008-0.237,0.037-0.37,0.143
			c-0.105,0.089-0.167,0.194-0.194,0.334c-0.018,0.133,0.027,0.274,0.15,0.424c0.098,0.124,0.194,0.194,0.273,0.202
			c0.088,0.02,0.177,0.01,0.282-0.016l0.724-0.238c0.158-0.054,0.309-0.08,0.449-0.08c0.15,0,0.301,0.045,0.459,0.132
			c0.158,0.089,0.326,0.239,0.486,0.441c0.264,0.326,0.414,0.618,0.449,0.882c0.026,0.274,0,0.486-0.089,0.653
			c-0.097,0.158-0.194,0.29-0.3,0.379c-0.256,0.202-0.512,0.3-0.768,0.292c-0.246-0.01-0.467-0.09-0.67-0.222
			C64.508,64.814,64.332,64.646,64.182,64.461z"/>
	</g>
</g>
<rect fill="none" width="100" height="100"/>
</svg>
