<?xml version="1.0" encoding="utf-8"?>
<!-- Generator: Adobe Illustrator 13.0.1, SVG Export Plug-In . SVG Version: 6.00 Build 14948)  -->
<!DOCTYPE svg PUBLIC "-//W3C//DTD SVG 1.1//EN" "http://www.w3.org/Graphics/SVG/1.1/DTD/svg11.dtd">
<svg version="1.1" id="Vrstva_1" xmlns="http://www.w3.org/2000/svg" xmlns:xlink="http://www.w3.org/1999/xlink" x="0px" y="0px"
	 width="100px" height="100px" viewBox="0 0 100 100" enable-background="new 0 0 100 100" xml:space="preserve">
<g>
	<defs>
		<rect id="SVGID_1_" x="24.683" y="21.223" width="54" height="53.757"/>
	</defs>
	<clipPath id="SVGID_2_">
		<use xlink:href="#SVGID_1_"  overflow="visible"/>
	</clipPath>
	<path clip-path="url(#SVGID_2_)" fill-rule="evenodd" clip-rule="evenodd" fill="#FFD812" d="M51.229,21.895
		c14.445,0,26.162,11.716,26.162,26.162c0,14.448-11.717,26.162-26.162,26.162c-14.447,0-26.162-11.714-26.162-26.162
		C25.066,33.61,36.781,21.895,51.229,21.895"/>
	<path clip-path="url(#SVGID_2_)" fill-rule="evenodd" clip-rule="evenodd" fill="#00592F" d="M52.099,71.62
		c-0.379,0.178-0.95,0.271-1.284-0.015c-0.279-0.165-0.382-0.528-0.293-0.842c0.207-0.763,1.447-0.641,2.105-0.65
		C52.59,70.67,52.676,71.377,52.099,71.62 M54.498,68.149c0.71,0.003,1.454-0.098,1.784,0.472c0.09,0.156,0.052,0.381,0,0.514
		c-0.225,0.57-1.226,0.471-1.786,0.479L54.498,68.149z M76.934,48.056c0,14.197-11.51,25.705-25.705,25.705
		c-14.197,0-25.705-11.508-25.705-25.705c0-13.894,11.023-25.211,24.803-25.688l0,0l-0.004,0.004l-0.002,0.003l-0.002,0.001
		l-0.001,0.002l-0.003,0.003l-0.002,0.004l0,0l-0.004,0.003l-0.002,0.003l-0.001,0.001l-0.001,0.002L50.302,22.4l-0.003,0.003v0
		l-0.003,0.004l-0.002,0.003l-0.001,0.001l-0.002,0.002l-0.002,0.003l-0.002,0.003l-0.001,0l-0.003,0.004l-0.002,0.003l-0.003,0.003
		l-0.001,0.004l-0.002,0.002l-0.001,0l-0.002,0.004l-0.003,0.003v0.001l-0.002,0.002l-0.002,0.004l-0.002,0.002v0.001l-0.003,0.003
		l-0.002,0.003v0l-0.002,0.003l-0.003,0.004v0.001l-0.001,0.001l-0.003,0.004l-0.001,0.003l-0.002,0.003l-0.001,0.003l-0.002,0.002
		l-0.001,0.001l-0.002,0.003l-0.001,0.002v0L50.238,22.5l-0.001,0.003l-0.001,0.001l-0.004,0.007v0l-0.002,0.003l-0.002,0.002v0.001
		l-0.001,0.002l-0.001,0.003l-0.001,0.002l-0.001,0v0.003l-0.002,0.003v0l-0.004,0.007v0v0.003l-0.002,0.003l0,0l-0.001,0.002
		l-0.001,0.002v0.001v0.001l-0.001,0.005h-0.001v0.002v0.002v0.001l-0.002,0.001v0.002v0.001c-0.051,0.285-0.123,0.567-0.215,0.841
		c-0.178,0.523-0.543,0.925-0.893,1.341c-0.48,0.569-0.903,1.171-1.119,1.864c-0.094-0.241-0.188-0.5-0.303-0.712
		c-0.256-0.473-0.631-0.84-1.136-1.031c-0.61-0.231-1.282-0.321-1.912-0.485c-0.447-0.117-0.893-0.241-1.336-0.371
		c-0.18-0.052-0.401,0.304-0.306,0.455c0.436,0.68,0.863,1.381,1.191,2.121c0.506,1.143,0.768,2.465,0.874,3.705
		c0.004,0.058,0.009,0.116,0.013,0.174c-7.203,2.542-12.365,9.409-12.365,17.481c0,9.648,7.51,17.618,16.929,18.499l0.006,0.019
		h-1.615v0.545c0.812,0,1.723,0.004,1.729,0c-0.172,0.493-1.135,3.07-1.595,4.32c-0.422-1.171-0.986-2.485-1.449-3.656l-0.979,0.002
		l-0.002,4.551c0.188,0.002,0.383,0.002,0.61,0.002l-0.009-3.803c0.221,0.526,1.05,2.723,1.471,3.801l0.65,0.006
		c0.455-1.16,0.944-2.534,1.349-3.682c0,1.095-0.106,1.937,0.086,2.779c0.106,0.479,0.502,0.776,0.959,0.913
		c0.628,0.135,1.245,0.041,1.772-0.496c0.002,0.149,0.005,0.485,0.005,0.485h0.797c-0.154-0.626-0.123-1.506-0.123-2.126
		c0.132,0,0.311-0.004,0.469-0.002l-0.003,0.799v1.332c0.348,0,2.211,0.124,2.913-0.257c0.331-0.231,0.586-0.513,0.586-0.995
		c-0.019-0.804-1.015-1.136-1.015-1.136c0.443-0.137,0.765-0.399,0.771-0.903c-0.024-0.442-0.125-0.645-0.423-0.922
		c-0.158-0.148-0.58-0.298-0.929-0.33c-0.813-0.053-1.266-0.028-1.898-0.028l-0.006,1.942c-0.142,0-0.309,0-0.461,0
		c0-0.493,0.111-1.188-0.295-1.618c-0.408-0.515-1.182-0.504-1.643-0.365c-0.422,0.165-0.855,0.63-0.855,1.164
		c0.178,0.008,0.479,0.008,0.686,0.008c0.045-0.261,0.07-0.438,0.295-0.66c0.242-0.188,0.467-0.176,0.752-0.065
		c0.461,0.249,0.363,1.1,0.373,1.537c-0.962-0.034-1.827,0.033-2.193,0.392c0.008-1.201-0.012-1.888,0.031-2.988h1.633
		c0-0.186,0.002-0.372,0-0.549c1.24-0.055,2.449-0.232,3.615-0.52c3.193-0.775,6.271-2.459,8.713-4.904
		c3.783-3.784,5.42-8.758,5.404-13.166c-0.033-8.534-5.832-15.884-14.176-17.962c0.07-1.025,0.219-2.054,0.613-2.978
		c0.42-0.982,1.019-1.916,1.654-2.773c0.045-0.062,0.204-0.457-0.02-0.374c-0.492,0.182-1.008,0.312-1.512,0.459
		c-0.689,0.203-1.465,0.334-2.105,0.667c-0.717,0.374-1.103,1.03-1.381,1.744c-0.059-0.243-0.129-0.483-0.212-0.718
		c-0.219-0.616-0.673-1.086-1.103-1.564c-0.262-0.292-0.482-0.554-0.63-0.919L50.94,23.44l-0.001,0l-0.006-0.017v0l-0.006-0.016
		l-0.002-0.001L50.92,23.39v-0.001l-0.006-0.016l-0.001-0.001l-0.006-0.016l-0.001-0.002L50.9,23.34l-0.001-0.003l-0.005-0.015
		l-0.002-0.003l-0.006-0.013v-0.003l-0.005-0.014l-0.002-0.004l-0.005-0.013l-0.002-0.004l-0.004-0.013l-0.002-0.004l-0.004-0.013
		l-0.003-0.005l-0.005-0.012l-0.002-0.006l-0.004-0.012l-0.002-0.006l-0.004-0.011l-0.002-0.006l-0.004-0.011l-0.002-0.006
		l-0.006-0.011l-0.002-0.007l-0.002-0.01l-0.004-0.007l-0.004-0.01l-0.002-0.008l-0.004-0.009l-0.002-0.008l-0.004-0.009
		l-0.002-0.008l-0.004-0.009l-0.004-0.008l-0.002-0.009l-0.002-0.009l-0.004-0.008l-0.003-0.009l-0.003-0.008l-0.003-0.01
		l-0.003-0.007l-0.004-0.01l-0.002-0.007l-0.004-0.011l-0.002-0.006l-0.004-0.011l-0.002-0.006l-0.004-0.011l-0.002-0.006
		l-0.004-0.012l-0.002-0.006l-0.004-0.011l-0.002-0.005l-0.004-0.012l-0.002-0.006l-0.004-0.012l-0.002-0.004l-0.004-0.013
		l-0.002-0.005l-0.004-0.013l-0.002-0.004l-0.004-0.014l-0.002-0.004l-0.004-0.014v-0.003l-0.006-0.014v-0.003l-0.005-0.014
		l-0.001-0.003l-0.006-0.015v-0.001l-0.006-0.016v-0.001l-0.004-0.016l-0.001-0.001l-0.005-0.016v-0.001l-0.006-0.017l-0.001,0
		l-0.005-0.017l0,0l-0.005-0.018v0l-0.005-0.017l-0.002-0.001l-0.004-0.017l-0.001-0.001l-0.005-0.017l-0.006-0.016v-0.002
		l-0.005-0.015l-0.001-0.002l-0.005-0.016l-0.001-0.002l-0.005-0.014v-0.003l-0.005-0.014l-0.001-0.004l-0.005-0.014v-0.004
		l-0.004-0.013l-0.002-0.004l-0.01-0.03l-0.001-0.005l-0.004-0.012l-0.01-0.034v-0.001l-0.003-0.006l-0.003-0.011
		c0.218-0.005,0.436-0.008,0.655-0.008C65.424,22.352,76.934,33.86,76.934,48.056 M56.482,71.191
		c-0.122,0.343-0.4,0.457-0.743,0.536c-0.393,0.063-0.806,0.033-1.242,0.039v-1.649c0.874,0,1.454-0.063,1.887,0.369
		C56.548,70.692,56.532,70.914,56.482,71.191"/>
	<path clip-path="url(#SVGID_2_)" fill-rule="evenodd" clip-rule="evenodd" fill="#FFFFFF" d="M36.988,64.398
		c0.227-0.223,0.434-0.435,0.623-0.628l0.189-0.202c0.145-0.153,0.189-0.177,0.256-0.139c0.043,0.022,0.164,0.129,0.375,0.328
		c0.141,0.131,0.15,0.174,0.052,0.279c-0.433,0.459-0.799,0.834-1.983,2.007c-0.26,0.251-0.343,0.338-0.429,0.43l-0.141,0.149
		c-0.151,0.163-0.187,0.163-0.326,0.032l-0.172-0.161l-0.144-0.135c-0.133-0.124-0.133-0.124,0.033-0.3
		c0.098-0.105,0.531-0.532,1.043-1.033c-0.658,0.051-1.372,0.081-2.069,0.086l-0.218,0.002c-0.119,0.004-0.165-0.007-0.191-0.029
		c-0.018-0.018-0.084-0.212-0.117-0.342c-0.053-0.182-0.049-0.188-0.029-0.208c0.03-0.031,0.039-0.031,0.438-0.043
		c0.646-0.021,0.739-0.024,1.199-0.03c0.365-0.003,0.417-0.005,0.676-0.025c-0.196-1.074-0.342-2.591-0.259-2.677
		c0.033-0.036,0.131-0.034,0.379,0.009l0.141,0.024c0.107,0.02,0.142,0.026,0.159,0.042c0.035,0.033,0.061,0.174,0.095,0.594
		c0.098,1.081,0.119,1.235,0.26,2.133L36.988,64.398z"/>
	<path clip-path="url(#SVGID_2_)" fill-rule="evenodd" clip-rule="evenodd" fill="#FFFFFF" d="M34.138,60.937l0.266-0.176
		l0.249-0.169c0.209-0.143,0.387-0.255,0.422-0.259c0.061-0.028,0.116,0.008,0.199,0.124c0.049,0.069,0.183,0.255,0.207,0.281
		l0.049,0.069c0.074,0.101,0.054,0.123-0.441,0.476c-0.885,0.634-1.593,1.104-2.613,1.736c-0.23,0.142-0.261,0.119-0.61-0.37
		c-0.347-0.485-0.512-0.861-0.534-1.224c-0.023-0.426,0.162-0.84,0.494-1.077c0.388-0.276,0.916-0.271,1.422,0.013
		c0.176-0.975,0.353-1.731,0.416-1.776c0.034-0.024,0.034-0.024,0.315,0.101c0.265,0.122,0.284,0.13,0.319,0.179
		c0.018,0.023,0.021,0.058-0.002,0.119c-0.064,0.179-0.115,0.379-0.426,1.569l-0.061,0.214c0.104,0.094,0.145,0.141,0.183,0.192
		l0.034,0.049L34.138,60.937z M33.613,61.289c-0.197-0.214-0.336-0.314-0.553-0.381c-0.279-0.09-0.562-0.05-0.777,0.104
		c-0.357,0.255-0.419,0.707-0.146,1.089c0.021,0.028,0.053,0.073,0.099,0.128c0.622-0.422,1.151-0.778,1.187-0.803L33.613,61.289z"
		/>
	<path clip-path="url(#SVGID_2_)" fill-rule="evenodd" clip-rule="evenodd" fill="#FFFFFF" d="M31.801,57.64
		c0.297-0.12,0.567-0.234,0.816-0.341l0.252-0.112c0.193-0.088,0.244-0.09,0.291-0.032c0.03,0.039,0.103,0.186,0.221,0.448
		c0.079,0.174,0.072,0.219-0.06,0.277c-0.577,0.259-1.059,0.463-2.603,1.093c-0.336,0.129-0.447,0.18-0.562,0.232l-0.187,0.082
		c-0.203,0.092-0.234,0.081-0.314-0.096l-0.096-0.213l-0.082-0.183c-0.074-0.164-0.074-0.164,0.146-0.262
		c0.132-0.061,0.696-0.287,1.361-0.553c-0.627-0.207-1.298-0.452-1.944-0.715l-0.201-0.082c-0.111-0.043-0.151-0.069-0.166-0.104
		c-0.01-0.022,0.004-0.227,0.023-0.359c0.021-0.188,0.025-0.191,0.054-0.203c0.038-0.019,0.046-0.015,0.42,0.128
		c0.604,0.229,0.692,0.263,1.119,0.433c0.339,0.139,0.386,0.158,0.634,0.236c0.232-1.066,0.679-2.521,0.789-2.571
		c0.043-0.019,0.134,0.021,0.346,0.155l0.121,0.077c0.092,0.058,0.121,0.079,0.131,0.1c0.02,0.045-0.01,0.184-0.14,0.584
		c-0.325,1.037-0.364,1.187-0.581,2.067L31.801,57.64z"/>
	<path clip-path="url(#SVGID_2_)" fill-rule="evenodd" clip-rule="evenodd" fill="#FFFFFF" d="M29.02,50.289
		c0.62-0.125,1.25,0.018,1.749,0.396c0.444,0.347,0.71,0.784,0.826,1.361c0.135,0.673,0.018,1.28-0.351,1.77
		c-0.322,0.44-0.784,0.736-1.327,0.845c-0.696,0.14-1.353-0.072-1.857-0.604c-0.335-0.354-0.556-0.777-0.655-1.272
		C27.162,51.582,27.846,50.524,29.02,50.289 M29.778,53.786c0.819-0.165,1.316-0.84,1.163-1.595
		c-0.164-0.82-0.951-1.319-1.812-1.146c-0.809,0.163-1.265,0.825-1.108,1.603C28.183,53.451,28.959,53.951,29.778,53.786"/>
	<path clip-path="url(#SVGID_2_)" fill-rule="evenodd" clip-rule="evenodd" fill="#FFFFFF" d="M29.545,48.135
		c0.223,0.017,0.223,0.017,0.769,0.056c0.401,0.038,0.605,0.054,0.612,0.054c0.064,0.021,0.086,0.064,0.081,0.172l-0.017,0.204
		l-0.003,0.193c-0.007,0.144-0.013,0.144-0.392,0.125c-0.102-0.005-0.223-0.018-0.547-0.04l-0.851-0.066l-0.974-0.066
		c-0.732-0.048-1.175-0.094-1.223-0.132c-0.039-0.033-0.047-0.141-0.031-0.442c0.01-0.216,0.019-0.27,0.058-0.31
		c0.052-0.064,0.364-0.308,1.04-0.816c1.013-0.758,1.369-1.011,1.716-1.223c-0.786-0.063-1.596-0.127-2.43-0.187
		c-0.216-0.011-0.257-0.042-0.249-0.205c0.001-0.018,0.001-0.018,0.016-0.204l0.007-0.132c0.008-0.15,0.039-0.179,0.201-0.171
		c0.061,0.002,0.198,0.016,0.348,0.029l1.47,0.12c0.869,0.08,0.869,0.08,1.529,0.136l0.281,0.026
		c0.145,0.013,0.168,0.021,0.179,0.063c0.015,0.049,0.019,0.115,0.003,0.404c-0.008,0.174-0.008,0.174-0.375,0.415
		c-0.113,0.079-0.225,0.157-0.342,0.23c-0.195,0.146-0.395,0.288-0.595,0.434c-0.175,0.13-0.355,0.26-0.536,0.384
		c-0.182,0.129-0.088,0.062-0.275,0.191c-0.398,0.287-0.549,0.395-0.906,0.667L29.545,48.135z"/>
	<path clip-path="url(#SVGID_2_)" fill-rule="evenodd" clip-rule="evenodd" fill="#FFFFFF" d="M30.667,39.357
		c0.604,0.187,1.089,0.613,1.347,1.184c0.225,0.517,0.25,1.028,0.076,1.591c-0.203,0.655-0.596,1.132-1.152,1.388
		c-0.494,0.232-1.041,0.271-1.57,0.107c-0.678-0.209-1.153-0.709-1.344-1.416c-0.125-0.473-0.117-0.948,0.033-1.431
		C28.418,39.608,29.523,39.004,30.667,39.357 M29.662,42.793c0.801,0.247,1.559-0.111,1.786-0.846
		c0.247-0.799-0.207-1.612-1.047-1.872c-0.787-0.243-1.504,0.121-1.737,0.879C28.422,41.737,28.863,42.547,29.662,42.793"/>
	<path clip-path="url(#SVGID_2_)" fill-rule="evenodd" clip-rule="evenodd" fill="#FFFFFF" d="M29.822,36.1
		c-0.011,0.035-0.029,0.065-0.035,0.076c-0.041,0.074-0.051,0.082-0.207,0.125c-0.311,0.076-0.771,0.164-0.809,0.144
		c-0.047-0.026-0.004-0.154,0.168-0.464c0.076-0.137,0.076-0.137,0.521-0.193c0.026,0.001,0.075-0.013,0.144-0.023
		c-0.015-0.084-0.022-0.108-0.063-0.234c-0.013-0.041-0.023-0.082-0.027-0.125c-0.017-0.044-0.025-0.09-0.037-0.131l-0.033-0.101
		c-0.023-0.082-0.018-0.106,0.084-0.29c0.035-0.063,0.068-0.121,0.105-0.175l0.053-0.095c0.025-0.047,0.057-0.065,0.082-0.05
		c0.043,0.023,0.042,0.037,0.105,0.333l0.102,0.498c0.066,0.326,0.066,0.326,0.006,0.436l-0.043,0.079
		c-0.039,0.055-0.062,0.097-0.073,0.118L29.822,36.1z M32.668,38.958c0.039-0.06,0.176-0.28,0.255-0.422
		c0.271-0.49,0.249-0.921-0.05-1.088c-0.185-0.102-0.206-0.101-1.254,0.226c-0.574,0.177-0.854,0.187-1.139,0.029
		c-0.53-0.295-0.576-1.056-0.117-1.882c0.05-0.09,0.145-0.237,0.184-0.283c0.031-0.044,0.057-0.052,0.094-0.031
		c0.01,0.005,0.031,0.017,0.049,0.034c0.066,0.043,0.126,0.084,0.174,0.109c0.124,0.076,0.124,0.076,0.044,0.205
		c-0.183,0.317-0.252,0.479-0.263,0.637c-0.021,0.223,0.06,0.412,0.213,0.497c0.146,0.082,0.271,0.069,0.631-0.061
		c0.994-0.378,1.265-0.407,1.635-0.201c0.646,0.358,0.754,1.23,0.263,2.113c-0.09,0.164-0.239,0.383-0.313,0.453
		c-0.037,0.041-0.077,0.04-0.151-0.001c-0.037-0.021-0.209-0.13-0.254-0.162c-0.06-0.041-0.064-0.07-0.038-0.118
		C32.636,39.002,32.647,38.981,32.668,38.958"/>
	<path clip-path="url(#SVGID_2_)" fill-rule="evenodd" clip-rule="evenodd" fill="#FFFFFF" d="M34.281,36.218
		c0.05-0.053,0.218-0.25,0.316-0.378c0.344-0.442,0.389-0.872,0.117-1.083c-0.166-0.129-0.188-0.13-1.273,0.032
		c-0.594,0.087-0.873,0.054-1.129-0.145c-0.479-0.373-0.408-1.132,0.172-1.878c0.062-0.081,0.178-0.211,0.225-0.252
		c0.038-0.038,0.063-0.042,0.097-0.016c0.009,0.007,0.028,0.022,0.044,0.042c0.058,0.053,0.111,0.102,0.154,0.135
		c0.109,0.094,0.109,0.094,0.014,0.208c-0.23,0.286-0.323,0.435-0.359,0.589c-0.054,0.217-0.004,0.417,0.135,0.523
		c0.133,0.103,0.258,0.108,0.635,0.036c1.039-0.221,1.311-0.208,1.644,0.05c0.585,0.454,0.558,1.332-0.062,2.13
		c-0.113,0.147-0.296,0.342-0.378,0.399c-0.043,0.036-0.083,0.027-0.149-0.024c-0.033-0.026-0.188-0.161-0.227-0.198
		c-0.053-0.049-0.053-0.079-0.02-0.123C34.244,36.257,34.259,36.238,34.281,36.218"/>
	<path clip-path="url(#SVGID_2_)" fill-rule="evenodd" clip-rule="evenodd" fill="#FFFFFF" d="M36.266,32.393
		c0.203,0.247,0.395,0.47,0.572,0.675l0.184,0.206c0.141,0.157,0.159,0.205,0.117,0.267c-0.027,0.042-0.145,0.154-0.359,0.347
		c-0.145,0.127-0.187,0.134-0.283,0.026c-0.421-0.471-0.762-0.868-1.828-2.15c-0.227-0.281-0.307-0.371-0.392-0.465l-0.136-0.152
		c-0.149-0.166-0.147-0.2-0.004-0.328l0.175-0.157l0.147-0.132c0.135-0.12,0.135-0.12,0.295,0.059
		c0.098,0.107,0.484,0.576,0.939,1.129c0.006-0.66,0.037-1.374,0.093-2.07l0.017-0.216c0.006-0.119,0.021-0.165,0.049-0.189
		c0.018-0.016,0.216-0.064,0.35-0.086c0.186-0.037,0.189-0.033,0.209-0.01c0.027,0.032,0.027,0.04,0.006,0.439
		c-0.035,0.646-0.041,0.738-0.075,1.197c-0.027,0.365-0.03,0.416-0.032,0.675c1.087-0.102,2.609-0.116,2.689-0.025
		c0.031,0.036,0.022,0.133-0.043,0.376l-0.037,0.138c-0.027,0.105-0.037,0.138-0.056,0.155c-0.036,0.032-0.177,0.045-0.599,0.044
		c-1.086,0.004-1.24,0.012-2.146,0.073L36.266,32.393z"/>
	<path clip-path="url(#SVGID_2_)" fill-rule="evenodd" clip-rule="evenodd" fill="#FFFFFF" d="M40.517,26.322
		c0.073-0.03,0.116-0.027,0.138,0.009c0.029,0.052-0.012,1.179-0.097,2.506c0.172,0.304,0.224,0.392,0.49,0.856
		c0.257,0.45,0.341,0.629,0.33,0.692c-0.011,0.041-0.104,0.11-0.29,0.219c-0.326,0.192-0.363,0.201-0.438,0.076l-0.021-0.036
		c-0.217-0.395-0.383-0.688-0.588-1.036l-0.207-0.353c-0.878-0.377-1.467-0.631-1.768-0.775c-0.445-0.199-0.525-0.241-0.547-0.277
		c-0.021-0.037,0.002-0.079,0.075-0.143l0.126-0.108l0.124-0.108c0.143-0.126,0.193-0.17,0.224-0.188
		c0.053-0.03,0.078-0.024,0.285,0.056c0.534,0.208,0.74,0.297,1.389,0.606c0.07,0.036,0.146,0.068,0.221,0.101
		c0.011-0.718,0.021-1.317,0.039-1.81c0.008-0.116,0.021-0.152,0.063-0.177c0.012-0.006,0.119-0.035,0.324-0.079L40.517,26.322z
		 M38.673,26.973c-0.026,0.016-0.054,0.017-0.063,0.001c-0.009-0.015-0.014-0.047,0-0.083c0.003-0.043,0.013-0.085,0.019-0.123
		c0.053-0.408,0.125-0.855,0.147-0.889c0.026-0.05,0.026-0.05,0.575-0.374c0.037-0.021,0.059-0.02,0.074,0.006
		c0.018,0.031,0.011,0.078-0.022,0.188c-0.056,0.179-0.118,0.37-0.13,0.432l-0.088,0.303l-0.046,0.146
		c-0.038,0.126-0.056,0.143-0.185,0.22l-0.178,0.112L38.673,26.973z"/>
	<path clip-path="url(#SVGID_2_)" fill-rule="evenodd" clip-rule="evenodd" fill="#FFFFFF" d="M59.73,28.014
		c-0.104,0.198-0.104,0.198-0.354,0.685c-0.191,0.354-0.287,0.536-0.289,0.542c-0.045,0.052-0.094,0.055-0.191,0.007l-0.182-0.095
		l-0.176-0.079c-0.129-0.063-0.127-0.068,0.039-0.409c0.044-0.092,0.103-0.198,0.25-0.487l0.396-0.758l0.441-0.869
		c0.331-0.654,0.548-1.044,0.602-1.072c0.046-0.024,0.147,0.011,0.418,0.143c0.194,0.095,0.241,0.124,0.264,0.174
		c0.038,0.072,0.14,0.456,0.343,1.277c0.299,1.229,0.393,1.656,0.451,2.059c0.365-0.698,0.742-1.418,1.125-2.163
		c0.094-0.194,0.14-0.219,0.285-0.148c0.016,0.008,0.016,0.008,0.182,0.095l0.119,0.058c0.135,0.066,0.148,0.106,0.078,0.252
		c-0.025,0.054-0.094,0.176-0.164,0.309l-0.688,1.304c-0.414,0.769-0.414,0.769-0.725,1.354l-0.133,0.25
		c-0.068,0.126-0.086,0.146-0.129,0.139c-0.051-0.005-0.113-0.028-0.373-0.155c-0.156-0.076-0.156-0.076-0.233-0.509
		c-0.029-0.133-0.058-0.268-0.077-0.405c-0.061-0.236-0.111-0.475-0.168-0.716c-0.051-0.212-0.098-0.429-0.143-0.644
		c-0.047-0.217-0.021-0.105-0.066-0.328c-0.108-0.48-0.148-0.66-0.258-1.094L59.73,28.014z"/>
	<path clip-path="url(#SVGID_2_)" fill-rule="evenodd" clip-rule="evenodd" fill="#FFFFFF" d="M66.604,29.109
		c0.022,0.011,0.044,0.021,0.059,0.031c0.034,0.026,0.038,0.077,0.015,0.157c-0.027,0.093-0.051,0.182-0.075,0.27
		c-0.243,0.804-0.866,2.695-1.102,3.335c-0.016,0.049-0.031,0.099-0.051,0.152c-0.034,0.103-0.045,0.125-0.063,0.149
		c-0.041,0.052-0.086,0.041-0.301-0.054c-0.228-0.102-0.329-0.158-0.408-0.221c-0.063-0.049-0.061-0.078,0.01-0.275
		c0.053-0.135,0.105-0.27,0.152-0.408c0.051-0.151,0.105-0.3,0.161-0.448c0.04-0.09,0.073-0.18,0.104-0.269
		c-0.176-0.138-0.648-0.526-1.006-0.823c-0.486,0.238-0.6,0.294-0.859,0.411l-0.373,0.173c-0.15,0.074-0.195,0.084-0.243,0.046
		c-0.023-0.019-0.079-0.085-0.231-0.29c-0.103-0.142-0.113-0.158-0.083-0.196c0.033-0.042,0.341-0.199,1.167-0.589
		c0.15-0.073,0.23-0.109,2.233-1.067c0.437-0.215,0.517-0.229,0.795-0.124L66.604,29.109z M64.908,30.622
		c0.117,0.093,0.203,0.161,0.423,0.348c0.126-0.383,0.294-0.802,0.479-1.192c-0.232,0.147-0.842,0.485-1.162,0.647
		C64.846,30.574,64.846,30.574,64.908,30.622 M66.385,28.668c-0.023-0.018-0.035-0.043-0.025-0.057
		c0.012-0.014,0.039-0.03,0.078-0.03c0.042-0.014,0.084-0.019,0.122-0.027c0.399-0.099,0.841-0.195,0.882-0.186
		c0.056,0.005,0.056,0.005,0.557,0.4c0.033,0.026,0.039,0.047,0.021,0.07c-0.022,0.029-0.068,0.038-0.183,0.048
		c-0.187,0.014-0.387,0.024-0.45,0.036l-0.313,0.029l-0.153,0.01c-0.131,0.012-0.154,0.001-0.271-0.092l-0.17-0.125L66.385,28.668z"
		/>
	<path clip-path="url(#SVGID_2_)" fill-rule="evenodd" clip-rule="evenodd" fill="#FFFFFF" d="M67.105,33.577l-0.247,0.201
		l-0.231,0.193c-0.193,0.162-0.359,0.292-0.395,0.297c-0.059,0.034-0.115,0.005-0.211-0.104c-0.055-0.063-0.205-0.235-0.234-0.259
		l-0.055-0.063c-0.084-0.096-0.064-0.12,0.394-0.52c0.819-0.716,1.479-1.251,2.431-1.98c0.217-0.164,0.249-0.145,0.645,0.308
		c0.393,0.449,0.594,0.808,0.65,1.165c0.065,0.423-0.078,0.852-0.387,1.121c-0.357,0.313-0.885,0.358-1.416,0.125
		c-0.079,0.988-0.182,1.757-0.241,1.808c-0.032,0.028-0.032,0.028-0.323-0.068c-0.274-0.095-0.296-0.102-0.336-0.146
		c-0.019-0.023-0.025-0.058-0.009-0.121c0.047-0.185,0.077-0.387,0.271-1.602l0.04-0.219c-0.113-0.084-0.157-0.125-0.2-0.176
		l-0.04-0.045L67.105,33.577z M67.594,33.175c0.217,0.193,0.365,0.28,0.588,0.326c0.285,0.062,0.563-0.004,0.762-0.179
		c0.331-0.289,0.35-0.744,0.041-1.098c-0.024-0.026-0.06-0.067-0.112-0.118c-0.577,0.481-1.069,0.887-1.103,0.914L67.594,33.175z"/>
	<path clip-path="url(#SVGID_2_)" fill-rule="evenodd" clip-rule="evenodd" fill="#FFFFFF" d="M71.873,39.253
		c-0.553,0.307-1.197,0.36-1.787,0.15c-0.527-0.196-0.912-0.533-1.198-1.049c-0.331-0.6-0.403-1.213-0.2-1.792
		c0.174-0.516,0.525-0.937,1.01-1.205c0.621-0.344,1.311-0.34,1.953,0.013c0.428,0.238,0.764,0.574,1.009,1.016
		C73.252,37.46,72.922,38.675,71.873,39.253 M70.095,36.148c-0.731,0.404-1.001,1.199-0.629,1.873
		c0.404,0.732,1.306,0.97,2.075,0.544c0.721-0.398,0.955-1.168,0.571-1.863C71.717,35.986,70.826,35.743,70.095,36.148"/>
	<path clip-path="url(#SVGID_2_)" fill-rule="evenodd" clip-rule="evenodd" fill="#FFFFFF" d="M73.958,39.807
		c0.192-0.049,0.222-0.014,0.353,0.436c0.225,0.774,0.287,1.294,0.209,1.737c-0.067,0.37-0.232,0.731-0.475,1.04
		c-0.25,0.31-0.528,0.491-0.944,0.612c-0.739,0.213-1.429,0.038-1.944-0.507c-0.281-0.301-0.453-0.633-0.631-1.245
		c-0.091-0.313-0.207-0.755-0.235-0.897c-0.024-0.149-0.006-0.192,0.099-0.223c0.076-0.021,0.975-0.27,1.426-0.395
		c1.445-0.394,1.445-0.394,1.92-0.506L73.958,39.807z M71.009,41.452c0.046,0.224,0.055,0.254,0.074,0.323
		c0.24,0.826,0.999,1.258,1.79,1.027c0.502-0.146,0.908-0.558,1.034-1.033c0.065-0.25,0.055-0.523-0.029-0.812
		c-0.017-0.058-0.034-0.115-0.072-0.229C72.459,41.075,72.045,41.182,71.009,41.452"/>
	<path clip-path="url(#SVGID_2_)" fill-rule="evenodd" clip-rule="evenodd" fill="#FFFFFF" d="M72.876,45.378
		c-0.223,0.009-0.223,0.009-0.77,0.035c-0.403,0.01-0.608,0.018-0.613,0.018c-0.067-0.013-0.095-0.053-0.102-0.161l-0.009-0.205
		l-0.02-0.191c-0.01-0.144-0.004-0.145,0.374-0.171c0.103-0.007,0.223-0.01,0.547-0.026l0.854-0.035l0.974-0.049
		c0.733-0.039,1.179-0.046,1.229-0.014c0.044,0.027,0.063,0.134,0.084,0.435c0.016,0.216,0.013,0.271-0.02,0.314
		c-0.044,0.069-0.325,0.349-0.937,0.934c-0.916,0.872-1.239,1.165-1.559,1.417c0.787-0.03,1.599-0.063,2.435-0.104
		c0.216-0.015,0.26,0.012,0.271,0.174c0.001,0.018,0.001,0.018,0.009,0.205l0.009,0.131c0.01,0.151-0.018,0.183-0.179,0.194
		c-0.061,0.003-0.199,0.008-0.351,0.012l-1.473,0.055c-0.873,0.024-0.873,0.024-1.534,0.047L71.814,48.4
		c-0.145,0.004-0.169,0-0.184-0.042c-0.021-0.047-0.032-0.113-0.053-0.4c-0.012-0.173-0.012-0.173,0.324-0.456
		c0.103-0.092,0.205-0.184,0.313-0.27c0.176-0.169,0.357-0.333,0.539-0.501c0.158-0.15,0.322-0.301,0.486-0.445
		c0.164-0.15,0.08-0.072,0.25-0.223c0.363-0.332,0.499-0.456,0.822-0.768L72.876,45.378z"/>
	<path clip-path="url(#SVGID_2_)" fill-rule="evenodd" clip-rule="evenodd" fill="#FFFFFF" d="M75.393,50.682
		c-0.011,0.114-0.03,0.124-0.233,0.105c-0.06-0.006-0.692-0.089-1.899-0.244c-0.196-0.024-0.65-0.079-1.361-0.164
		c-0.449-0.054-0.449-0.054-0.469-0.092c-0.016-0.032-0.016-0.032,0.005-0.241c0.009-0.102,0.019-0.197,0.026-0.348l0.004-0.042
		c0.012-0.119,0.037-0.141,0.17-0.128c0.25,0.023,1.774,0.203,2.15,0.25c0.483,0.063,1.17,0.158,1.288,0.175
		c0.216,0.026,0.334,0.049,0.347,0.05c0.035,0.021,0.05,0.053,0.043,0.119c-0.002,0.024-0.018,0.125-0.044,0.28
		c-0.013,0.065-0.017,0.107-0.021,0.143c-0.002,0.025-0.004,0.054,0,0.084L75.393,50.682z M75.777,50.174
		c0.004-0.03,0.018-0.052,0.036-0.051c0.018,0.002,0.047,0.016,0.067,0.049c0.034,0.027,0.061,0.06,0.089,0.086
		c0.3,0.283,0.62,0.603,0.635,0.64c0.025,0.051,0.025,0.051-0.034,0.686c-0.004,0.041-0.018,0.059-0.047,0.056
		c-0.036-0.003-0.069-0.037-0.14-0.127c-0.113-0.149-0.229-0.313-0.274-0.358l-0.194-0.249l-0.091-0.123
		c-0.081-0.104-0.085-0.129-0.07-0.279l0.014-0.21L75.777,50.174z"/>
	<path clip-path="url(#SVGID_2_)" fill-rule="evenodd" clip-rule="evenodd" fill="#FFFFFF" d="M74.434,54.614
		c0.168,0.064,0.205,0.091,0.204,0.165c-0.001,0.045-0.03,0.148-0.144,0.485c-0.186,0.548-0.352,0.891-0.566,1.149
		c-0.346,0.422-0.879,0.571-1.403,0.396c-0.559-0.189-0.93-0.709-0.946-1.317c-0.008-0.255,0.045-0.523,0.195-0.97
		c-0.172-0.056-0.172-0.056-0.886-0.311l-0.13-0.051c-0.107-0.037-0.131-0.082-0.098-0.178c0.008-0.024,0.036-0.109,0.069-0.188
		l0.092-0.273c0.058-0.171,0.083-0.188,0.208-0.145c0.655,0.221,2.691,0.959,3.111,1.126L74.434,54.614z M73.607,55.201
		c-0.108-0.037-0.254-0.094-0.463-0.17c-0.463-0.175-0.525-0.197-0.869-0.324c-0.039,0.08-0.059,0.117-0.08,0.182
		c-0.169,0.502,0.086,1.006,0.593,1.177c0.508,0.173,0.899-0.051,1.093-0.62c0.009-0.028,0.026-0.079,0.042-0.145
		C73.783,55.26,73.67,55.222,73.607,55.201"/>
	<path clip-path="url(#SVGID_2_)" fill-rule="evenodd" clip-rule="evenodd" fill="#FFFFFF" d="M72.537,60.003
		c-0.007,0.024-0.013,0.047-0.021,0.064c-0.02,0.037-0.068,0.051-0.151,0.039c-0.097-0.012-0.188-0.019-0.278-0.028
		c-0.834-0.104-2.803-0.404-3.473-0.53c-0.052-0.008-0.102-0.015-0.158-0.024c-0.107-0.019-0.131-0.024-0.158-0.039
		c-0.059-0.032-0.053-0.077,0.004-0.306c0.063-0.24,0.101-0.349,0.15-0.438c0.037-0.069,0.066-0.073,0.271-0.036
		c0.143,0.028,0.284,0.059,0.428,0.083c0.16,0.024,0.314,0.054,0.469,0.082c0.097,0.026,0.191,0.043,0.284,0.061
		c0.106-0.195,0.41-0.728,0.643-1.131c-0.315-0.438-0.39-0.541-0.548-0.777l-0.232-0.34c-0.098-0.137-0.115-0.18-0.086-0.232
		c0.015-0.025,0.07-0.092,0.246-0.277c0.123-0.123,0.138-0.137,0.18-0.114c0.047,0.026,0.253,0.304,0.775,1.054
		c0.097,0.137,0.146,0.21,1.424,2.026c0.284,0.394,0.312,0.47,0.256,0.761L72.537,60.003z M70.763,58.583
		c-0.071,0.133-0.124,0.227-0.272,0.474c0.398,0.063,0.84,0.157,1.256,0.275c-0.184-0.204-0.62-0.749-0.832-1.038
		C70.801,58.514,70.801,58.514,70.763,58.583"/>
	<path clip-path="url(#SVGID_2_)" fill-rule="evenodd" clip-rule="evenodd" fill="#FFFFFF" d="M68.141,61.336l-0.237-0.214
		l-0.228-0.194c-0.191-0.167-0.346-0.312-0.357-0.346c-0.043-0.05-0.023-0.112,0.068-0.223c0.055-0.065,0.199-0.241,0.219-0.271
		l0.053-0.065c0.082-0.098,0.107-0.083,0.576,0.305c0.838,0.694,1.473,1.258,2.345,2.083c0.196,0.186,0.183,0.221-0.2,0.684
		c-0.381,0.46-0.703,0.716-1.047,0.831c-0.406,0.131-0.854,0.058-1.168-0.205c-0.365-0.302-0.495-0.815-0.352-1.375
		c-0.988,0.08-1.764,0.101-1.822,0.052c-0.033-0.027-0.033-0.027,0.014-0.329c0.051-0.289,0.053-0.31,0.092-0.356
		c0.02-0.022,0.053-0.034,0.117-0.028c0.189,0.017,0.395,0.015,1.625,0.01l0.223,0.005c0.064-0.125,0.098-0.176,0.14-0.227
		l0.038-0.047L68.141,61.336z M68.615,61.752c-0.156,0.246-0.218,0.405-0.227,0.632c-0.016,0.292,0.096,0.555,0.299,0.726
		c0.338,0.279,0.79,0.223,1.09-0.137c0.022-0.028,0.057-0.069,0.099-0.13c-0.567-0.493-1.047-0.914-1.079-0.94L68.615,61.752z"/>
	<path clip-path="url(#SVGID_2_)" fill-rule="evenodd" clip-rule="evenodd" fill="#FFFFFF" d="M65.64,64.361
		c-0.192-0.255-0.376-0.485-0.543-0.699l-0.175-0.214c-0.135-0.163-0.15-0.212-0.106-0.271c0.028-0.04,0.151-0.148,0.374-0.33
		c0.148-0.122,0.191-0.128,0.283-0.015c0.401,0.487,0.725,0.899,1.736,2.225c0.215,0.29,0.291,0.384,0.371,0.481l0.131,0.157
		c0.141,0.173,0.138,0.206-0.012,0.328l-0.181,0.148l-0.153,0.127c-0.14,0.114-0.14,0.114-0.293-0.071
		c-0.091-0.112-0.458-0.598-0.89-1.169c-0.034,0.659-0.096,1.372-0.18,2.065l-0.026,0.216c-0.011,0.117-0.028,0.162-0.057,0.186
		c-0.019,0.015-0.219,0.056-0.353,0.07c-0.188,0.03-0.19,0.024-0.21,0.002c-0.026-0.031-0.025-0.041,0.014-0.438
		c0.063-0.643,0.071-0.736,0.125-1.191c0.044-0.364,0.049-0.416,0.061-0.675c-1.09,0.056-2.611,0.005-2.688-0.089
		c-0.031-0.037-0.018-0.133,0.058-0.374l0.044-0.136c0.031-0.104,0.043-0.139,0.062-0.153c0.036-0.03,0.179-0.037,0.601-0.017
		c1.086,0.041,1.24,0.039,2.146,0.017L65.64,64.361z"/>
	<path clip-path="url(#SVGID_2_)" fill-rule="evenodd" clip-rule="evenodd" fill="#1FA12E" d="M51.129,55.25
		c0.021-1.085,0.207-1.503,0.612-2.2c0.376-0.645,0.651-0.853,0.651-0.853l0.014-0.008c0.135-0.938,0.327-1.876,0.62-2.777
		l0.04-0.125c-0.234,0.235-0.604,0.591-0.967,0.944c-0.387,0.378-0.705,0.875-0.705,0.875s-0.34-0.699-0.533-0.962
		c-0.238-0.322-0.429-0.621-0.429-0.621s-0.152,0.29-0.415,0.69c-0.265,0.403-0.442,0.94-0.442,0.94s-0.915-1.074-1.159-1.282
		c-0.242-0.208-0.563-0.537-0.563-0.537s-0.172-0.59-0.381-1.146c-0.605-1.613-1.077-2.672-2.223-4.548
		c-0.801-1.312-2.984-4.478-3.817-5.693c-0.833-1.214-2.215-3.984-2.215-3.984s-0.077-0.064,0.064,1.325
		c0.117,1.148,0.241,2,0.379,4.187c0.14,2.187,0.208,3.472,0.278,4.999c0.069,1.527,0.241,4.558,0.729,6.283
		c0.973,3.438,2.222,5.033,4.062,6.907c1.015,1.033,3.888,2.498,3.888,2.498l0.104-0.347c0,0,0.174-1.805,0.208-2.95
		c0.032-1.04-0.034-1.527-0.068-2.185c-0.035-0.66-0.174-2.432-0.174-2.432s0.729,0.973,0.938,1.492
		c0.207,0.523,0.42,1.554,0.515,2.566c0.071,0.743,0.036,2.025-0.018,3.135c-0.023,0.493-0.356,2.609-0.55,4.041
		c0.152-0.08,0.32-0.106,0.512-0.101c0.339,0.011,0.582,0.123,0.761,0.339c0.663,0.943-0.321,2.746-0.321,2.746h0.934
		c-0.023-0.102-0.278-1.233-0.321-2.024c-0.056-1.023-0.032-1.668,0-2.714c0.054-1.706,0.034-1.988,0.033-3.269
		C51.168,57.492,51.104,56.455,51.129,55.25 M46.847,56.519c-2.047-2.227-3.089-3.599-3.903-5.615c-1.086-2.684-1.5-9.38-1.5-9.38
		s0.09,0.034,0.109,0.3c0.02,0.267,0.246,1.606,0.381,2.398c0.152,0.895,0.604,3.243,0.971,4.593c0.563,2.068,0.927,2.845,1.277,3.5
		c0.724,1.35,2.503,3.785,2.617,3.957C46.912,56.442,46.847,56.519,46.847,56.519 M50.086,66.451
		c-0.179-0.722-0.88-1.625-0.518-2.316c0.093-0.156,0.244-0.272,0.46-0.276c0.247,0.012,0.442,0.104,0.524,0.338
		C50.781,64.963,50.291,65.76,50.086,66.451 M47.397,58.192c0,0-0.153-0.322-0.306-0.987c-0.152-0.667-0.246-1.105-0.418-1.713
		c-0.172-0.611-0.705-2.685-0.914-3.446s-0.514-1.77-0.838-2.513c-0.323-0.743-1.218-3.046-1.369-3.445
		c-0.153-0.4-0.609-1.618-0.629-1.714c-0.02-0.095,0.002-0.146,0.002-0.146s2.005,3.789,2.834,6.233
		c0.871,2.572,1.699,7.758,1.699,7.758L47.397,58.192z"/>
	<polyline clip-path="url(#SVGID_2_)" fill-rule="evenodd" clip-rule="evenodd" fill="#215393" points="57.616,23.823 
		57.622,23.818 57.616,23.823 	"/>
	<path clip-path="url(#SVGID_2_)" fill-rule="evenodd" clip-rule="evenodd" fill="#1FA12E" d="M68.33,42.641
		c-0.246,0.246-1.425,1.068-3.016,2.221c-1.006,0.729-2.569,1.701-4.201,2.639c-1.631,0.938-2.741,1.909-3.748,2.812
		c-1.008,0.903-2.049,2.083-2.985,3.576c-1.112,1.77-1.388,3.124-1.388,3.124s-0.418,1.389-0.486,3.957
		c-0.04,1.464,0.139,3.02,0.139,3.158c0,0,1.928-0.615,3.471-1.631c1.424-0.938,2.223-1.805,3.263-3.02
		c1.042-1.217,2.216-3.301,2.937-4.771c0.719-1.474,1.863-3.989,2.518-5.591c0.541-1.325,1.012-2.224,1.568-3.303
		c0.51-0.989,0.625-1.148,1.178-1.994C68.002,43.167,68.428,42.543,68.33,42.641 M60.298,55.521
		c-0.784,1.395-1.481,2.354-2.659,3.749s-2.514,2.133-3.355,2.677c0.033-0.094-0.182,0.073,0.332-0.409
		c0.408-0.384,1.559-1.353,2.248-2.094c0.689-0.742,1.711-2.172,2.273-3.04c0.563-0.869,1.533-2.478,2.018-3.321
		c0.485-0.842,1.098-1.711,1.098-1.711l0.205-0.127C62.457,51.245,61.082,54.127,60.298,55.521 M62.391,49.049
		c-0.537,0.46-1.533,1.431-2.375,2.247c-0.844,0.818-1.916,2.172-2.631,3.193c-0.715,1.023-1.814,3.218-2.094,3.831
		c-0.188,0.406-0.506,1.319-0.717,1.788c-0.107,0.24-0.205,0.251-0.205,0.251c0.48-2.266,1.134-3.572,1.787-4.881
		c0.654-1.308,2.07-3.16,3.053-4.054c1.287-1.176,3.917-3.273,4.387-3.658c0.038-0.031,0.059-0.048,0.059-0.048
		S62.927,48.589,62.391,49.049"/>
	<path clip-path="url(#SVGID_2_)" fill-rule="evenodd" clip-rule="evenodd" fill="#1FA12E" d="M64.377,52.881
		c-0.52,1.319-1.284,3.158-2.43,5.068s-2.328,3.336-3.879,4.655c-0.988,0.84-3.654,2.459-3.654,2.459s0.862-0.17,3.383-1.605
		c1.254-0.715,3.814-3.078,5.197-5.895c1.047-2.134,1.475-3.841,2.018-5.275s1.164-2.909,1.164-2.909l-0.167,0.169
		C65.453,50.381,64.873,51.623,64.377,52.881"/>
	<path clip-path="url(#SVGID_2_)" fill-rule="evenodd" clip-rule="evenodd" fill="#1FA12E" d="M40.904,55.346
		c-0.878-1.46-1.468-3.603-1.734-5.416c-0.174-1.18-0.225-2.458-0.308-4.123c-0.107-2.142-0.282-6.187-0.282-6.187
		s-0.109,1.726-0.146,2.51c-0.035,0.786-0.035,1.393-0.071,2.357c-0.036,0.963-0.036,4.391,0.179,6.211
		c0.214,1.821,0.809,3.661,1.857,5.175c0.32,0.465,0.763,0.956,1.57,1.644c1.16,0.99,2.199,1.646,2.199,1.646
		C43.717,58.817,41.718,56.695,40.904,55.346"/>
	<path clip-path="url(#SVGID_2_)" fill-rule="evenodd" clip-rule="evenodd" fill="#FFFFFF" d="M56.246,69.853
		c0.443-0.137,0.765-0.399,0.771-0.903c-0.024-0.442-0.125-0.645-0.423-0.922c-0.158-0.148-0.58-0.298-0.929-0.33
		c-0.813-0.053-1.266-0.028-1.898-0.028l-0.006,1.942c-0.142,0-0.309,0-0.461,0c0-0.493,0.111-1.188-0.295-1.618
		c-0.408-0.515-1.182-0.504-1.643-0.365c-0.422,0.165-0.855,0.63-0.855,1.164c0.178,0.008,0.479,0.008,0.686,0.008
		c0.045-0.261,0.07-0.438,0.295-0.66c0.242-0.188,0.467-0.176,0.752-0.065c0.461,0.249,0.363,1.1,0.373,1.537
		c-0.962-0.034-1.827,0.033-2.193,0.392c0.008-1.201-0.012-1.888,0.031-2.988h1.633c0-0.187,0.002-0.369-0.001-0.545h-1.56
		c0,0,0.984-1.803,0.321-2.746c-0.179-0.216-0.422-0.328-0.761-0.339c-0.358-0.01-0.639,0.09-0.875,0.453
		c-0.329,0.536-0.133,1.187,0.063,1.721c0.108,0.296,0.274,0.636,0.368,0.911h-1.615v0.545c0.812,0,1.723,0.004,1.729,0
		c-0.172,0.493-1.135,3.07-1.596,4.319c-0.421-1.17-0.985-2.484-1.448-3.655l-0.979,0.002l-0.002,4.551
		c0.188,0.002,0.383,0.002,0.61,0.002l-0.009-3.803c0.221,0.526,1.05,2.723,1.471,3.801l0.65,0.006
		c0.453-1.16,0.944-2.534,1.349-3.682c0,1.095-0.106,1.937,0.086,2.778c0.106,0.479,0.502,0.777,0.959,0.914
		c0.628,0.135,1.245,0.041,1.772-0.496c0.002,0.149,0.005,0.485,0.005,0.485h0.797c-0.154-0.626-0.123-1.506-0.123-2.126
		c0.132,0,0.311-0.004,0.469-0.002l-0.003,0.799v1.332c0.348,0,2.211,0.124,2.913-0.257c0.331-0.231,0.586-0.513,0.586-0.995
		C57.242,70.185,56.246,69.853,56.246,69.853 M50.086,66.451c-0.179-0.722-0.879-1.625-0.518-2.316
		c0.093-0.156,0.244-0.272,0.46-0.276c0.247,0.012,0.442,0.104,0.524,0.338C50.781,64.963,50.291,65.76,50.086,66.451 M52.099,71.62
		c-0.379,0.178-0.95,0.271-1.284-0.015c-0.279-0.165-0.382-0.528-0.293-0.842c0.207-0.763,1.447-0.641,2.105-0.65
		C52.59,70.67,52.676,71.377,52.099,71.62 M54.498,68.149c0.71,0.003,1.454-0.098,1.784,0.472c0.09,0.156,0.052,0.381,0,0.514
		c-0.225,0.57-1.226,0.471-1.786,0.479L54.498,68.149z M56.482,71.191c-0.122,0.343-0.4,0.457-0.743,0.536
		c-0.393,0.063-0.806,0.033-1.242,0.039v-1.649c0.874,0,1.454-0.063,1.887,0.369C56.548,70.692,56.532,70.914,56.482,71.191"/>
	<path clip-path="url(#SVGID_2_)" fill-rule="evenodd" clip-rule="evenodd" fill="#0D5AA2" d="M45.419,29.951
		c-0.108-1.261-0.396-2.547-0.875-3.72c-0.216-0.528-0.501-1.035-0.803-1.527c0.155,0.043,0.312,0.085,0.467,0.126
		c0.659,0.177,1.341,0.29,1.99,0.5c0.524,0.17,0.882,0.529,1.151,1.001c0.215,0.376,0.303,0.808,0.504,1.183
		c0.105,0.196,0.344-0.248,0.35-0.335c0.063-1.099,0.803-1.831,1.449-2.642c0.326-0.407,0.557-0.848,0.715-1.324
		c0.163,0.506,0.359,0.993,0.713,1.404c0.422,0.492,0.93,0.954,1.193,1.558c0.18,0.415,0.279,0.88,0.355,1.325
		c0.046,0.263,0.332-0.16,0.355-0.234c0.096-0.298,0.266-0.787,0.437-1.13c0.235-0.476,0.723-0.766,1.206-0.93
		c0.906-0.308,1.851-0.5,2.76-0.798c-0.483,0.701-0.92,1.438-1.291,2.201c-0.672,1.38-0.774,2.939-0.859,4.45
		c-0.111,2.004-0.058,4.014-0.219,6.016c-0.143,1.786-0.465,3.611-0.983,5.326c-0.458,1.511-0.981,3.002-1.43,4.518
		c-0.226,0.76-0.401,1.53-0.589,2.301c-0.078,0.32-0.25,0.585-0.439,0.856c-0.1-0.252-0.197-0.505-0.33-0.74
		c-0.185-0.32-0.405-0.589-0.658-0.858c-0.08-0.085-0.192,0.01-0.245,0.083c-0.218,0.303-0.427,0.6-0.589,0.938
		c-0.09,0.189-0.165,0.383-0.236,0.578l-0.15-0.202c-0.064-0.085-0.129-0.17-0.193-0.256c-0.066-0.091-0.025,0.008-0.047-0.08
		c-0.157-0.634-0.32-1.267-0.487-1.897c-0.374-1.408-0.922-2.761-1.398-4.135c-0.995-2.87-1.586-5.861-1.645-8.9
		C45.566,33.054,45.539,31.503,45.419,29.951"/>
	<path clip-path="url(#SVGID_2_)" fill-rule="evenodd" clip-rule="evenodd" fill="#FFDD0D" d="M49.105,43.805
		c0.25,0.825,0.568,1.269,0.574,1.292c0,0-0.578-3.123-0.624-3.59c-0.046-0.467-0.149-1.205-0.195-2.108
		c-0.046-0.904-0.03-2.365-0.062-3.239c-0.029-0.873-0.209-2.251-0.269-2.838c-0.061-0.587-0.298-2.042-0.466-2.622
		c-0.049-0.167-0.229-0.829-0.324-1.077c-0.125-0.319-0.236-0.321-0.236-0.321s0.608,3.702,0.739,6.317
		C48.373,38.208,48.241,40.968,49.105,43.805"/>
	<path clip-path="url(#SVGID_2_)" fill-rule="evenodd" clip-rule="evenodd" fill="#FFDD0D" d="M51.674,43.805
		c-0.251,0.825-0.568,1.269-0.573,1.292c0,0,0.577-3.123,0.623-3.59c0.045-0.467,0.15-1.205,0.196-2.108
		c0.045-0.904,0.029-2.365,0.059-3.239c0.031-0.873,0.211-2.251,0.271-2.838c0.06-0.587,0.298-2.042,0.467-2.622
		c0.05-0.167,0.227-0.829,0.323-1.077c0.124-0.319,0.236-0.321,0.236-0.321s-0.607,3.702-0.739,6.317
		C52.407,38.208,52.537,40.968,51.674,43.805"/>
	<path clip-path="url(#SVGID_2_)" fill-rule="evenodd" clip-rule="evenodd" fill="#0D5AA2" d="M59.932,44.148
		c0.094-0.575,0.152-1.157,0.149-1.736c-0.007-1.114-0.001-2.262,0.114-3.383c0.018-0.114,0.037-0.229,0.061-0.342
		c0.031-0.154,0.063-0.308,0.096-0.461c0.34-0.268,0.698-0.518,1.066-0.743l0.003,0c-0.124,2.259-0.647,4.545-1.487,6.665H59.932z"
		/>
	<path clip-path="url(#SVGID_2_)" fill-rule="evenodd" clip-rule="evenodd" fill="#0D5AA2" d="M52.734,52.216
		c0.316-2.162,0.996-4.234,1.857-6.24c0.643-1.492,1.545-2.923,2.506-4.229c0.829-1.126,1.78-2.227,2.818-3.178
		c-0.031,0.234-0.056,0.468-0.076,0.702c-0.122,0.813-0.186,1.626-0.172,2.467c0.015,0.952-0.057,1.929-0.174,2.874
		c-0.032,0.257-0.073,0.513-0.123,0.767c-0.037,0.176-0.061,0.281-0.145,0.433c-0.105,0.191-0.213,0.38-0.323,0.569
		c-0.956,1.647-2.083,3.19-3.423,4.547c-0.902,0.914-1.911,1.709-2.877,2.55l-0.01-0.007c0.021-0.24,0.045-0.479,0.072-0.716
		L52.734,52.216"/>
</g>
<rect fill="none" width="100" height="100"/>
</svg>
