<svg xmlns="http://www.w3.org/2000/svg" width="100" height="100" viewBox="0 0 100 100"><path fill-rule="evenodd" clip-rule="evenodd" fill="#1D5632" d="M63.683 62.055c-3.752 3.78-8.752 5.826-14.068 5.826v7.135c3.668 0 7.192-.71 10.518-2.132 3.212-1.363 6.108-3.297 8.582-5.77 2.5-2.5 4.434-5.37 5.8-8.583 1.39-3.354 2.13-6.878 2.13-10.516 0-3.667-.74-7.19-2.13-10.517-1.366-3.212-3.3-6.11-5.8-8.583-2.474-2.5-5.37-4.434-8.582-5.798-3.325-1.42-6.85-2.132-10.518-2.132v7.134c5.316 0 10.316 2.075 14.068 5.827 3.753 3.75 5.827 8.753 5.827 14.068 0 5.316-2.074 10.29-5.827 14.042zm-14.07 5.826c-5.284 0-10.26-2.045-14.04-5.825-3.75-3.752-5.825-8.726-5.825-14.04 0-5.315 2.075-10.317 5.826-14.068 3.78-3.752 8.755-5.827 14.04-5.827v-7.134c-3.61 0-7.162.71-10.487 2.132-3.21 1.364-6.11 3.297-8.583 5.798-2.473 2.473-4.434 5.37-5.77 8.583-1.42 3.324-2.132 6.85-2.132 10.516 0 3.638.71 7.16 2.132 10.516 1.335 3.212 3.297 6.082 5.77 8.584 2.473 2.472 5.372 4.405 8.583 5.77 3.326 1.42 6.878 2.13 10.487 2.13v-7.135z"/><path fill-rule="evenodd" clip-rule="evenodd" fill="#fff" d="M26.707 57.45l-.597.2c-.34-.313-.625-.74-.796-1.28-.142-.427-.17-.795-.113-1.165.058-.34.228-.653.455-.938.256-.285.54-.455.88-.597.57-.17 1.11-.143 1.62.142.512.255.854.683 1.053 1.25.142.397.17.88.142 1.45l-.597.198c.114-.54.085-1.023-.057-1.45-.142-.426-.398-.738-.767-.937-.37-.198-.77-.228-1.195-.085-.398.142-.71.397-.88.768-.17.396-.17.795-.03 1.222.143.483.455.88.882 1.223zM30.23 57.593l1.11 1.96-.455.257-.824-1.478-1.08.597.825 1.448-.455.256-.796-1.45-1.08.626.853 1.534-.454.256-1.138-2.046zM30.828 62.765l-.057-.51c-.056-.314-.027-.57 0-.77.058-.17.172-.34.342-.48.256-.2.51-.258.824-.2.284.027.54.2.74.482.227.257.34.54.37.88l-.513.4c.028-.4-.056-.712-.255-.968-.114-.17-.256-.257-.398-.284-.143-.06-.256-.03-.37.056-.085.086-.17.172-.2.313 0 .142 0 .312.03.54l.056.51c.085.57-.057.996-.398 1.253-.256.227-.54.283-.824.254-.285-.056-.54-.198-.768-.48-.227-.314-.37-.654-.37-1.082l.57-.454c-.115.51-.058.908.198 1.222.113.142.256.228.398.255.142.03.284 0 .397-.084.2-.173.285-.457.228-.855zM35.802 64.527l.54.484-2.558.285.227 3.013-.595-.54-.228-2.843-1.307 1.508-.427-.4 2.672-3.012.427.4-1.222 1.363zM39.554 65.692l-.683.285v-.455l.17-.113.514.282zm-.682 1.536v-.597l.596.37-.255.426-.34-.198zm0-1.25l-.312.113-.286-.17.598-.397v.455zm0 .653l-1.365-.795-2.046 3.41 1.992 1.222.254-.455-1.506-.908.654-1.052 1.393.852.284-.455-1.42-.853.626-1.052 1.137.683v-.597zM44.583 67.71l-.88.654-.512-.17-.34-1.023.312.086.398.653.71-.313.313.113zm-1.79 3.1l-.34-.37c-.228-.228-.37-.455-.427-.626-.056-.198-.056-.398 0-.597.086-.313.256-.512.54-.654.256-.114.568-.114.882-.027.34.113.597.284.824.54l-.2.624c-.2-.342-.454-.57-.766-.683-.2-.028-.34-.056-.484 0-.142.058-.228.143-.283.285-.03.112-.03.227.027.34.057.144.17.285.312.454l.368.37c.37.427.513.853.37 1.28-.084.312-.256.54-.54.652-.256.142-.57.142-.88.058-.4-.114-.684-.342-.94-.654l.2-.71c.2.454.483.768.88.88.17.058.314.03.456-.028.17-.057.255-.17.284-.31.085-.228-.03-.513-.284-.825zM48.137 69.473l.568.056-2.16 3.808-.142-.028-1.222-4.206.57.056.852 2.955zM51.576 68.25l-.568.91h-.342l.342-.88.568-.03zm.54 1.108l.683-.027-1.366 1.99.143 2.102-.598.06-.114-2.134-1.59-1.79.682-.057 1.165 1.337.993-1.48zM57.97 71.206l.173.597c-.37.342-.797.597-1.336.738-.427.115-.825.115-1.167.03-.34-.085-.653-.256-.91-.51-.254-.258-.454-.57-.54-.91-.14-.57-.084-1.11.23-1.592.284-.513.74-.824 1.306-.996.428-.114.88-.114 1.45-.056l.17.597c-.538-.142-.993-.142-1.448-.028-.426.142-.768.368-.966.738-.228.342-.285.738-.172 1.165.114.428.37.74.738.938.342.17.77.228 1.195.085.482-.112.908-.396 1.278-.794zM61.438 68.705l-.624-.483v-.71l2.613 2.074-.51.257-1.024-.797-1.08.57v-.57l.625-.34zm-.624-.483l-.627-.482.143 1.563.484-.257v.57l-.43.227.115 1.307-.54.257-.37-4.35.37-.198.853.652v.71zM63.854 66.29l.084.113.172-.143c.228-.198.368-.34.426-.455.03-.085.057-.198.03-.312 0-.113-.06-.228-.144-.34-.085-.086-.172-.143-.285-.2-.085-.028-.2-.028-.283 0v-.54c.084-.028.17-.028.256-.028.312 0 .566.143.794.398.143.2.228.37.228.597.03.198-.026.398-.14.598.17 0 .34 0 .51.027.2.028.484.143.88.256.258.114.456.173.6.2l.34.085-.54.427-.284-.085c-.03 0-.03 0-.056-.028l-.2-.03-.313-.113-.37-.143c-.17-.028-.34-.085-.483-.085-.143-.03-.256 0-.34 0-.086.028-.2.084-.37.197l-.115.114 1.108 1.337-.426.37-1.08-1.31v-.907zm-.597-.995l-.114.114.712.88v.908l-1.48-1.79.798-.653c.228-.17.455-.313.683-.34v.54c-.03 0-.06 0-.085.027-.115.03-.286.142-.513.313zM67.833 63.475l-.484.172c-.284.085-.54.142-.74.114-.197-.028-.395-.113-.538-.227-.257-.228-.37-.484-.37-.77 0-.282.113-.566.34-.823.23-.255.485-.426.826-.51l.48.425c-.395.03-.708.17-.936.427-.113.143-.172.284-.198.426 0 .143.026.284.14.37.088.056.2.113.342.113s.312-.027.54-.112l.484-.143c.54-.2.965-.142 1.307.172.256.198.37.453.37.767.03.283-.085.567-.312.823-.256.285-.598.484-.994.568l-.54-.482c.512.027.88-.114 1.165-.426.114-.143.17-.285.17-.428 0-.17-.056-.284-.17-.397-.17-.142-.485-.172-.882-.058zM68.685 58.274l.37-.625.74 2.472 2.927-.768-.426.682-2.757.71 1.703 1.025-.283.512-3.44-2.074.284-.484 1.563.937zM71.98 57.393c.2 0 .43-.027.628-.14.368-.172.653-.484.796-.91.14-.428.14-.825-.03-1.193-.17-.4-.454-.654-.88-.797-.17-.058-.34-.113-.513-.113v-.568c.23 0 .485.028.74.113.54.228.938.568 1.165 1.108.228.51.228 1.08 0 1.678-.198.568-.568.967-1.05 1.222-.286.143-.57.2-.854.2v-.6zm-1.42-2.103c-.168.427-.168.853 0 1.222.173.37.485.626.882.797.2.056.37.083.54.083v.598c-.254 0-.48-.027-.738-.142-.568-.198-.966-.54-1.193-1.08-.227-.51-.227-1.05-.028-1.647.228-.567.57-.993 1.08-1.25.285-.143.568-.198.88-.198v.568c-.225 0-.425.056-.652.17-.37.17-.627.483-.77.88zM30.544 55.688l-1.052-.398-.142-.54.682-.852.086.312-.313.712.626.426zM28.896 34.43l.284-.484 3.467 2.018-.256.426-4.006.767 2.672 1.564-.285.456-3.466-2.02.227-.396 4.065-.768zM33.7 32.212l-.77-.256v-.568l2.928.995-.398.426-1.25-.398-1.166 1.222.54 1.194-.426.426-.228-.54V33.01l.77-.798zm-.77-.256l-.738-.256.654 1.42.085-.112v1.705l-1.505-3.468.255-.312 1.25.455v.568zm-1.732-2.13l.17 1.05-.2.228-.37-.853.4-.425zM35.745 29.625l.03.03.168-.115c.256-.17.4-.312.455-.426.058-.086.086-.2.086-.313-.028-.112-.057-.226-.142-.34-.058-.085-.17-.17-.285-.227-.085-.03-.2-.03-.312-.03v-.51c.114-.028.228-.028.34-.028.286.027.54.17.74.454.142.198.2.397.227.597 0 .198-.084.426-.198.596.143 0 .312.03.512.086.17.027.454.14.853.31.254.115.425.172.567.23l.34.112-.567.398-.286-.114c0-.028-.028-.028-.056-.028l-.172-.057-.312-.142-.34-.142c-.2-.058-.37-.114-.512-.142-.114-.03-.228-.03-.34 0-.086 0-.2.057-.342.17l-.143.085 1.023 1.42-.482.313-.854-1.194v-.995zm-.57-1.107l-.14.113.71.995v.995l-1.45-2.074.824-.57c.198-.14.425-.254.624-.283v.512c0 .03-.028.03-.028.03-.142.027-.312.14-.54.283zM40.634 28.66c.198 0 .397-.058.597-.143.4-.17.682-.455.854-.825.17-.397.142-.795-.03-1.193-.17-.398-.425-.654-.823-.797-.2-.085-.397-.113-.596-.113v-.54c.283-.028.57.028.824.113.54.2.91.568 1.165 1.108.228.54.228 1.08 0 1.593-.228.54-.625.91-1.222 1.165-.255.114-.51.17-.766.2v-.57zm-.598-2.93c-.426.172-.71.456-.852.855-.17.37-.143.767.03 1.165.168.397.454.682.822.824.2.085.4.113.598.085v.567c-.285 0-.57-.028-.852-.142-.513-.2-.882-.568-1.108-1.08-.256-.568-.256-1.108-.058-1.62.228-.512.625-.91 1.193-1.137.284-.114.54-.2.824-.2v.54c-.2.002-.4.058-.598.143zM45.95 27.067c.197-.028.34-.085.482-.113.142-.086.255-.143.37-.228.084-.057.17-.17.226-.256.257-.34.312-.71.257-1.137-.057-.427-.257-.768-.598-.966-.114-.086-.255-.143-.397-.2-.143-.027-.256-.056-.34-.056v-.51c.226 0 .425.027.624.084.34.113.625.312.853.597s.398.598.455.968c.028.284.028.54-.028.796-.058.256-.17.483-.34.71-.173.228-.372.398-.6.54-.14.086-.282.143-.396.17s-.285.086-.568.143v-.54zm-.684-2.898l-.71.112.483 2.956.738-.143c.057 0 .113 0 .17-.028v.54h-.142l-1.25.2-.625-3.923 1.337-.228c.228-.028.455-.057.683-.057v.51h-.086c-.114.002-.314.03-.598.06zM52.854 23.43l.54.056-.312 3.98-.482-.028-2.445-3.27-.228 3.07-.51-.028.283-4.008.455.028 2.445 3.298zM56.663 23.09l-.824.652-.313-.057.598-.74.538.144zm-1.307.85l.54.143-.966 3.865-.542-.142.968-3.865zM60.814 26.5l-.314-.143v-.597l.653.342c.314.17.54.397.653.682.114.312.087.598-.085.91-.084.198-.253.37-.425.454-.198.114-.397.17-.598.143-.056 0-.14-.027-.198-.027v-.54c.112.028.227.028.313.028.17-.057.312-.17.396-.34.2-.37.057-.655-.396-.91zm-.314-.143l-.2-.114-.597 1.108.57.286c.086.028.17.085.227.085v.54c-.17-.057-.397-.142-.653-.255l-.37-.2-.795 1.536-.513-.255 1.848-3.553.482.228v.597zM63.568 30.422l.342-1.563-.68.396v-.597l1.05-.626.34.256-.993 4.29-.397-.283v-.426l.228-.91-.228-.14v-.654l.338.256zm-.34-1.166l-.654.398.655.512v.653l-1.14-.882-1.136.653-.454-.34 2.73-1.59v.596zm0 2.615v.427l-.057-.057.06-.37zM67.407 31.473l-.114-.113-.228.2v-.77l.2-.198.68.768c.258.284.398.597.398.91s-.113.596-.368.823c-.172.143-.37.228-.568.256-.114.027-.228 0-.342-.03v-.51h.2c.112-.03.227-.086.31-.17.115-.087.173-.2.202-.314.026-.113.026-.228-.03-.34-.057-.115-.17-.286-.34-.513zm-.342.086l-.738.624.17.17c.172.228.34.342.426.398.058.028.114.028.143.057v.51c-.085 0-.17-.027-.285-.084.03.142.03.312 0 .512-.025.17-.084.482-.227.88-.085.257-.11.455-.14.598l-.086.34-.455-.51.085-.285v-.084l.056-.17.087-.342.114-.34c.056-.2.085-.37.085-.513s0-.255-.03-.34-.085-.2-.228-.34l-.085-.115-1.307 1.165-.37-.427 2.785-2.473v.77zM71.44 36.276l.372.625-2.53-.54-.71 2.93-.398-.684.682-2.756-1.734.995-.284-.512 3.47-2.018.282.512-1.593.91z"/><path fill-rule="evenodd" clip-rule="evenodd" fill="#1D5632" d="M68.856 49.947c0-.33-.054-.492.17-.71-.026.228.078.71-.17.71zm0-1.563v-.71c.26.272.2.426.2.853-.064-.052-.13-.1-.2-.143zm0-2.985v-.17c.078.122.078.178 0 .17zM65.9 46.99c.005.397.064.912-.247 1.212-.176.17-.633.33-.633.607.026.142.056.227.085.255.37-.042.637-.218 1.007-.042.44.208 1.04.786 1.152 1.28.167.735.306.884-.312 1.377-.408.207-.933-.036-1.278.144-.087.056-.2.226-.143.34.306.47.968.057 1.366.057.735.19.03 1.67-.163 2.137-.49 1.182-1.287 1.417-2.51 1.53v.597c.756-.498 2.2-.218 2.586.568.24-.422.255-.532.255-.966.042-.968.463-1.617.616-2.534.07-.423.104-.855.14-1.282.032-.378.527-.334.864-.42.03-.17.06-.31.087-.48-.54.14-.68.14-.68.14-.24-.158-.224-1.037-.37-1.336-.33-.476-.85-.986-1.07-1.52-.206-.504-.075-1.042-.298-1.538-.22-.486-.48-.902-.48-1.46h.028c0-.26.208-.39.172-.682.53 0 1.04.112 1.563.17.188.186.113.53.113.768 0 .218 0 .506.198.653.062.062.397.158.397.256 0 .425-.68.528-.68.882.027.02.057.038.084.057.46.09.752.33 1.108.625v-.526c0-.23-.228-.234-.228-.413 0-.33.334-.512.028-.824-.428-.436-.608-.727-.23-1.307.067.065.383.078.43.085.08-2.02-1.028-4.496-1.935-6.252-.358-.18-.894-.198-1.298-.405-.464-.236-.915-.522-1.4-.703v5.173c.547.47 1.222 1.298 1.222 2.075 0 .803-1.424 1.158-1.222 1.818.335-.127.653-.333.948-.54.3-.212.73.014.73.425zm-1.675 5.715v-.313c.06 0 .48-.104.48.027-.15.15-.27.24-.48.285zm0-3.525v-.284c.078.166.14.134 0 .284zm4.63.2v.567c-.326 0-.065-.48 0-.568zm-4.63 10.458v-2.586c.374.562.657 1.033.312 1.704-.17.333.227.77.427.995-.095.114-.19.23-.286.342-.152-.15-.303-.303-.453-.454zm0-3.95c-.13 0-.467.04-.514-.143-.175-.447-.035-1.267-.043-1.75-.004-.25-.012-.5-.012-.75-.094-.464.265-.4.57-.54v-.313c-1.306.212-.986-1.52-1.327-2.202-.625-1.25.768-.644 1.326-1.01.2-.953-1.616-.302-1.947-.696-.447-.533-.326-1.086-.544-1.702-.147-.417-.935-.88-.665-1.41.682 0 1.328.068 1.97-.228.78-.357-.423-.2-.663-.17-.497.124-1.392.084-1.392-.576 0-.327.8-1.27 1.165-1.27.34 0 .67.17 1.023.112.333-.022.74-.262 1.054-.028V38.04c-1.525-.63-3.103-1.163-4.668-1.683-.85-.282-1.67-.528-2.41-1.046-.664-.462-1.265-.96-2.01-1.294-3.435-1.543-6.89-.907-10.193.697-2.294 1.115-4.697 2.568-7.184 3.185-1.415.35-2.822.743-4.216 1.166-.504.152-.956.263-1.346.637-.878.844-1.202 2.73-1.483 3.88.987.33 1.707.512 2.745.528 1.167.018 2.083-.298 3.207-.53.834-.173 1.535-.022 2.35.193.717.19 1.837.402 2.385.92v.255c-.733.367-1.324-.084-2.072-.118-.554-.024-2.277-.12-2.505.545 0 .223 1.565-.12 1.735-.085.69 0 1.23.26 1.917.317.73.06 1.343-.06 2.062-.14.778-.084 1.523-.038 2.33-.008 1.955.078 3.81.166 5.744-.174.334-.06.65-.146.963-.28.377-.15.85-.11 1.193-.285.665-.652 1.448-.3 2.246-.142.768.055 1.48-.556 2.117-.912.782-.437 1.046.234 1.72.458.362.09.96.256 1.306.256.404.602-.57.62-.768.967 0-.07 1.048.144 1.216.33.29.323.037.976-.39 1.12-.55.273-1.224-.31-1.777-.198-.286.06-1.645-.022-1.776.112-.028.057-.058.113-.028.17 0-.02 1.712.072 1.813.097.89.22 1.487.246 2.367.042.832-.192.838 1.138.39 1.528-.624.544-1.43.15-2.185.304-.614.124-1.225.338-1.838.444-.916.16-1.506-.408-2.34-.482-.428.062-.88.034-1.312.025-.53-.01-.736-.16-1.194-.312-.408-.136-1.082-.5-1.5-.366-.694-.683-2.4-.808-3.295-.965-2.034-.356-4.23-.26-6.25.146-.702.14-1.438.543-2.146.528-.543-.012-1.08-.042-1.623-.067-.927-.043-1.823.186-2.745.186-.45.006-1.702-.304-2.02.17.345.53 2.817.182 3.47.16.345-.01 1.01-.18 1.277.097 0 .494.202 1.506-.22 1.856-.583.48-1.24.93-1.768 1.474-.39.403-.585 1.146-.83 1.646-.24.494-1.044.654-1.54.633-.128-.007-1.316.496-1.27.585 0 .134 2.095-.202 2.273-.14.198.525-.158 1.51-.252 2.057-.1.583-.09 1.642-.542 2.09.787 1.182 1.69 2.287 2.702 3.282.504.494 1.036.96 1.592 1.394.55.43 1.57.28 2.26.302 2.264.07 4.624.124 6.854-.342 1.468-.307 2.616-1.213 4.12-1.483 1.878-.337 3.815-.372 5.72-.336 0 1.578.156 3.25 1.79 3.922.2-.112.4-.198.6-.312-.17-.082-1.693-1.08-1.395-1.392.926.142 2.215.98 3.072.342-1.123 0-2.362-.486-3.156-1.252.176.064 2.33.47 2.33.114 0-.15-1.772-.486-1.994-.577-.72-.3-.882-1.145-.677-1.867.06-.057.854-.123.974-.16.353-.115.89-.323 1.015-.72.028-.115 0-.2-.085-.23-.22-.146-.882.37-1.138.37-.514-.043-.965-.117-1.42-.34-.304-.254-.563-.57-.71-.94.45-.468 1.12-.688 1.814-.723.31-.016 1.6.373 1.738.1 0-1.95-4.34 1.065-4.66-.966.258-.26.317-.363.678-.37.342-.008.727.163.91-.23.247-.245-.597-.425-.708-.426-.42-.106-.456.188-.797.264-.684.153-1.512-.486-1.08-1.202.325-.43.625-.34 1.11-.34.22-.003.994.08.994-.313-.19-.562-1.13-.284-1.562-.292-.666-.01-1.044.55-1.762.55-.48-.392-1.792-2.093-.282-1.922.278.032 2.185.613 2.185.017-.155-.32-1.757-.396-2.156-.578-.623-.282-.69-.318-.867-.978-.14-.524-.7-.944-.7-1.515.122-.12.417.023.54.085.885.34 2.167.69 2.955-.142.69-.227 1.535.423 2.25.45 1.086.04 2.095-.378 3.196-.362.682.01 1.71-.12 2.337.246.618.36.672 1.804.48 2.382-.322.957-1.28 1.257-2.123.836-.575 0-3.666-.948-3.666.257-.03.085-.056.228.113.256.253.062.627-.27.863-.362.25-.1.647.06.898.107.353.064.744.1 1.08.228.386.113.83.455 1.225.455.866.17 1.296-.96 2.045-.712.738.188.463 2.235.214 2.724-.343.67-1.457.802-2.136.784-.3-.01-.592-.124-.893-.124-.48.158-.548.675-.022.737.623.072 2.362.51 2.837-.057.418-.368.698.003.998.315.338.353.434.86.195 1.333-.108.424-.143.624.172.94v-2.414c0-.275-.332-.41-.232-.69.122-.345.232-.398.232-.848zm0-9.18v.396c-.314.086-1.053.028-1.108-.028 0-.43.827-.37 1.108-.37z"/></svg>