<?xml version="1.0" encoding="utf-8"?>
<!-- Generator: Adobe Illustrator 16.0.0, SVG Export Plug-In . SVG Version: 6.00 Build 0)  -->
<!DOCTYPE svg PUBLIC "-//W3C//DTD SVG 1.1//EN" "http://www.w3.org/Graphics/SVG/1.1/DTD/svg11.dtd">
<svg version="1.1" id="Layer_2" xmlns="http://www.w3.org/2000/svg" xmlns:xlink="http://www.w3.org/1999/xlink" x="0px" y="0px"
	 width="100px" height="100px" viewBox="0 0 100 100" enable-background="new 0 0 100 100" xml:space="preserve">
<path fill-rule="evenodd" clip-rule="evenodd" fill="#1D5632" d="M62.902,60.887c-3.543,3.57-8.266,5.503-13.287,5.503v6.737
	c3.464,0,6.792-0.671,9.933-2.014c3.033-1.287,5.77-3.113,8.105-5.448c2.361-2.362,4.188-5.073,5.477-8.106
	c1.314-3.168,2.012-6.496,2.012-9.932c0-3.462-0.697-6.791-2.012-9.932c-1.289-3.033-3.115-5.771-5.477-8.106
	c-2.336-2.362-5.072-4.187-8.105-5.476c-3.141-1.342-6.469-2.013-9.933-2.013v6.737c5.021,0,9.744,1.959,13.287,5.503
	c3.545,3.543,5.504,8.267,5.504,13.287S66.447,57.344,62.902,60.887z M49.616,66.39L49.616,66.39c-4.991,0-9.689-1.933-13.26-5.503
	c-3.543-3.543-5.502-8.24-5.502-13.26s1.959-9.744,5.502-13.287c3.57-3.543,8.269-5.503,13.26-5.503l0,0V22.1l0,0
	c-3.408,0-6.764,0.671-9.904,2.013c-3.033,1.289-5.771,3.114-8.106,5.476c-2.335,2.335-4.188,5.073-5.449,8.106
	c-1.342,3.141-2.013,6.469-2.013,9.932c0,3.436,0.671,6.764,2.013,9.932c1.261,3.033,3.114,5.744,5.449,8.106
	c2.335,2.335,5.073,4.161,8.106,5.448c3.141,1.343,6.496,2.014,9.904,2.014l0,0V66.39z"/>
<path fill-rule="evenodd" clip-rule="evenodd" fill="#FFFFFF" d="M27.981,56.539l-0.564,0.188c-0.322-0.295-0.59-0.698-0.751-1.208
	c-0.134-0.403-0.161-0.751-0.107-1.101c0.054-0.322,0.214-0.617,0.429-0.886c0.242-0.269,0.51-0.43,0.832-0.563
	c0.537-0.161,1.047-0.135,1.53,0.134c0.483,0.241,0.805,0.645,0.993,1.181c0.134,0.376,0.161,0.832,0.134,1.369l-0.563,0.188
	c0.107-0.51,0.081-0.966-0.054-1.368c-0.134-0.403-0.376-0.698-0.725-0.886c-0.349-0.188-0.725-0.215-1.127-0.08
	c-0.376,0.134-0.671,0.375-0.832,0.725c-0.161,0.375-0.161,0.751-0.027,1.154C27.284,55.84,27.579,56.217,27.981,56.539z"/>
<polygon fill-rule="evenodd" clip-rule="evenodd" fill="#FFFFFF" points="31.31,56.673 32.356,58.525 31.927,58.767 31.149,57.371 
	30.129,57.935 30.907,59.304 30.478,59.545 29.726,58.176 28.706,58.767 29.511,60.216 29.082,60.457 28.008,58.525 "/>
<path fill-rule="evenodd" clip-rule="evenodd" fill="#FFFFFF" d="M31.874,61.558l-0.054-0.482c-0.054-0.296-0.027-0.537,0-0.726
	c0.054-0.16,0.161-0.322,0.322-0.455c0.242-0.188,0.483-0.242,0.778-0.188c0.269,0.026,0.51,0.188,0.698,0.456
	c0.215,0.242,0.322,0.51,0.349,0.832l-0.483,0.376c0.027-0.376-0.053-0.671-0.241-0.913c-0.107-0.16-0.242-0.241-0.376-0.268
	c-0.134-0.055-0.242-0.027-0.349,0.053c-0.08,0.081-0.161,0.162-0.188,0.296c0,0.134,0,0.296,0.026,0.511l0.054,0.482
	c0.081,0.537-0.054,0.939-0.375,1.182c-0.242,0.214-0.51,0.268-0.778,0.24c-0.269-0.053-0.51-0.188-0.725-0.455
	c-0.214-0.296-0.349-0.617-0.349-1.021l0.537-0.429c-0.107,0.482-0.054,0.857,0.188,1.153c0.107,0.134,0.242,0.215,0.376,0.241
	c0.134,0.027,0.269,0,0.375-0.08C31.847,62.202,31.927,61.934,31.874,61.558z"/>
<polygon fill-rule="evenodd" clip-rule="evenodd" fill="#FFFFFF" points="36.571,63.223 37.082,63.679 34.665,63.947 34.88,66.793 
	34.316,66.281 34.102,63.598 32.867,65.021 32.464,64.645 34.987,61.799 35.39,62.176 34.236,63.464 "/>
<path fill-rule="evenodd" clip-rule="evenodd" fill="#FFFFFF" d="M40.115,64.322l-0.645,0.27v-0.43l0.16-0.107L40.115,64.322
	L40.115,64.322z M39.47,65.772v-0.563l0.563,0.349l-0.241,0.402L39.47,65.772z M39.47,64.592l-0.295,0.107l-0.27-0.162l0.564-0.375
	V64.592L39.47,64.592z M39.47,65.209l-1.289-0.752l-1.933,3.221l1.88,1.154l0.24-0.43l-1.422-0.858l0.617-0.993l1.315,0.805
	l0.269-0.43l-1.342-0.805l0.59-0.993l1.074,0.645V65.209z"/>
<path fill-rule="evenodd" clip-rule="evenodd" fill="#FFFFFF" d="M44.865,66.229l-0.832,0.617l-0.482-0.161l-0.322-0.966l0.295,0.08
	l0.376,0.617l0.671-0.295L44.865,66.229L44.865,66.229z M43.174,69.154l-0.322-0.35c-0.215-0.214-0.349-0.429-0.403-0.59
	c-0.053-0.188-0.053-0.376,0-0.563c0.081-0.296,0.242-0.483,0.511-0.618c0.241-0.107,0.536-0.107,0.832-0.025
	c0.322,0.106,0.563,0.268,0.778,0.51l-0.188,0.59c-0.188-0.322-0.43-0.537-0.725-0.645c-0.188-0.026-0.322-0.053-0.457,0
	c-0.134,0.055-0.215,0.135-0.268,0.27c-0.027,0.106-0.027,0.214,0.026,0.321c0.054,0.135,0.161,0.269,0.295,0.429l0.349,0.35
	c0.35,0.402,0.484,0.805,0.35,1.208c-0.08,0.296-0.242,0.511-0.51,0.617c-0.242,0.134-0.537,0.134-0.832,0.054
	c-0.377-0.107-0.645-0.322-0.887-0.617l0.188-0.671c0.188,0.429,0.456,0.725,0.832,0.832c0.161,0.054,0.296,0.026,0.43-0.027
	c0.161-0.054,0.241-0.161,0.269-0.294C43.523,69.719,43.416,69.449,43.174,69.154z"/>
<polygon fill-rule="evenodd" clip-rule="evenodd" fill="#FFFFFF" points="48.22,67.893 48.757,67.946 46.717,71.543 46.583,71.517 
	45.429,67.544 45.966,67.598 46.771,70.389 "/>
<path fill-rule="evenodd" clip-rule="evenodd" fill="#FFFFFF" d="M51.469,66.738l-0.537,0.859h-0.322l0.322-0.832L51.469,66.738
	L51.469,66.738z M51.979,67.785l0.645-0.026l-1.289,1.878l0.135,1.986l-0.564,0.055l-0.107-2.014l-1.502-1.69l0.645-0.054l1.1,1.262
	L51.979,67.785z"/>
<path fill-rule="evenodd" clip-rule="evenodd" fill="#FFFFFF" d="M57.508,69.53l0.162,0.563c-0.35,0.322-0.752,0.563-1.262,0.697
	c-0.402,0.107-0.779,0.107-1.102,0.027s-0.617-0.241-0.859-0.482c-0.24-0.242-0.43-0.537-0.51-0.859
	c-0.133-0.537-0.08-1.047,0.215-1.503c0.27-0.483,0.699-0.778,1.234-0.94c0.404-0.107,0.832-0.107,1.369-0.053l0.162,0.563
	c-0.51-0.134-0.939-0.134-1.369-0.026c-0.402,0.134-0.725,0.348-0.912,0.697c-0.215,0.322-0.27,0.697-0.162,1.101
	s0.35,0.698,0.697,0.886c0.322,0.161,0.727,0.215,1.129,0.08C56.756,70.174,57.158,69.906,57.508,69.53z"/>
<path fill-rule="evenodd" clip-rule="evenodd" fill="#FFFFFF" d="M60.783,67.168l-0.59-0.457v-0.67L62.662,68l-0.482,0.242
	l-0.967-0.752l-1.02,0.537V67.49L60.783,67.168z M60.193,66.711l-0.592-0.455l0.135,1.477l0.457-0.242v0.537l-0.404,0.215
	l0.107,1.234l-0.51,0.242l-0.35-4.107l0.35-0.188l0.807,0.617V66.711z"/>
<path fill-rule="evenodd" clip-rule="evenodd" fill="#FFFFFF" d="M63.064,64.887l0.08,0.107l0.162-0.135
	c0.215-0.188,0.348-0.322,0.402-0.43c0.027-0.08,0.053-0.188,0.027-0.295c0-0.107-0.055-0.215-0.135-0.322
	c-0.08-0.08-0.162-0.134-0.27-0.188c-0.08-0.027-0.188-0.027-0.268,0v-0.51c0.08-0.027,0.16-0.027,0.242-0.027
	c0.295,0,0.535,0.135,0.75,0.376c0.135,0.188,0.215,0.349,0.215,0.563c0.027,0.188-0.025,0.376-0.133,0.564
	c0.16,0,0.322,0,0.482,0.026c0.188,0.026,0.457,0.134,0.832,0.241c0.242,0.107,0.43,0.162,0.564,0.188l0.322,0.081l-0.512,0.403
	l-0.268-0.081c-0.027,0-0.027,0-0.053-0.026l-0.189-0.027l-0.295-0.107l-0.348-0.135c-0.162-0.026-0.322-0.08-0.457-0.08
	c-0.135-0.027-0.242,0-0.322,0c-0.08,0.027-0.188,0.08-0.35,0.188l-0.107,0.107l1.047,1.262l-0.402,0.35l-1.02-1.235V64.887z
	 M62.5,63.947l-0.107,0.107l0.672,0.832v0.858l-1.396-1.69l0.752-0.617c0.215-0.162,0.43-0.296,0.645-0.322v0.51
	c-0.027,0-0.055,0-0.08,0.027C62.877,63.679,62.715,63.786,62.5,63.947z"/>
<path fill-rule="evenodd" clip-rule="evenodd" fill="#FFFFFF" d="M66.822,62.229l-0.457,0.162c-0.268,0.08-0.51,0.134-0.697,0.107
	c-0.188-0.027-0.375-0.107-0.51-0.215c-0.242-0.215-0.35-0.457-0.35-0.726c0-0.268,0.107-0.536,0.322-0.778
	c0.215-0.241,0.457-0.402,0.779-0.482l0.455,0.402c-0.375,0.027-0.67,0.161-0.885,0.402c-0.107,0.135-0.162,0.269-0.188,0.402
	c0,0.135,0.025,0.269,0.133,0.35c0.082,0.053,0.188,0.107,0.322,0.107s0.295-0.027,0.51-0.107l0.457-0.135
	c0.51-0.188,0.912-0.134,1.234,0.162c0.242,0.188,0.35,0.429,0.35,0.725c0.027,0.268-0.08,0.536-0.295,0.777
	c-0.242,0.27-0.564,0.457-0.939,0.537l-0.51-0.456c0.482,0.026,0.83-0.107,1.1-0.402c0.107-0.135,0.16-0.269,0.16-0.403
	c0-0.16-0.053-0.268-0.16-0.375C67.494,62.148,67.197,62.121,66.822,62.229z"/>
<polygon fill-rule="evenodd" clip-rule="evenodd" fill="#FFFFFF" points="67.627,57.316 67.977,56.727 68.674,59.062 71.439,58.337 
	71.037,58.98 68.434,59.652 70.043,60.619 69.775,61.102 66.527,59.143 66.795,58.686 68.271,59.571 "/>
<path fill-rule="evenodd" clip-rule="evenodd" fill="#FFFFFF" d="M70.74,56.484c0.189,0,0.404-0.026,0.592-0.133
	c0.348-0.162,0.617-0.457,0.752-0.859c0.133-0.403,0.133-0.779-0.027-1.127c-0.162-0.377-0.43-0.618-0.832-0.752
	c-0.16-0.055-0.322-0.107-0.484-0.107v-0.537c0.215,0,0.457,0.027,0.699,0.107c0.51,0.215,0.885,0.537,1.1,1.047
	c0.215,0.482,0.215,1.02,0,1.584c-0.188,0.536-0.537,0.912-0.992,1.153c-0.27,0.135-0.537,0.188-0.807,0.188V56.484z M69.398,54.498
	c-0.16,0.403-0.16,0.806,0,1.154c0.162,0.35,0.457,0.591,0.832,0.752c0.189,0.054,0.35,0.08,0.51,0.08v0.564
	c-0.24,0-0.455-0.027-0.697-0.135c-0.537-0.188-0.912-0.51-1.127-1.02c-0.215-0.483-0.215-0.993-0.027-1.557
	c0.215-0.537,0.537-0.939,1.02-1.182c0.27-0.135,0.537-0.188,0.832-0.188v0.537c-0.213,0-0.402,0.053-0.617,0.16
	C69.775,53.828,69.533,54.123,69.398,54.498z"/>
<polygon fill-rule="evenodd" clip-rule="evenodd" fill="#FFFFFF" points="31.605,54.874 30.612,54.498 30.478,53.988 31.122,53.184 
	31.203,53.479 30.907,54.15 31.498,54.553 "/>
<polygon fill-rule="evenodd" clip-rule="evenodd" fill="#FFFFFF" points="30.048,34.796 30.317,34.34 33.591,36.246 33.35,36.648 
	29.565,37.373 32.088,38.85 31.82,39.279 28.545,37.373 28.76,36.998 32.598,36.273 "/>
<path fill-rule="evenodd" clip-rule="evenodd" fill="#FFFFFF" d="M34.584,32.703l-0.725-0.242v-0.537l2.765,0.939l-0.376,0.402
	l-1.181-0.375l-1.101,1.154l0.51,1.127l-0.402,0.402l-0.215-0.51v-1.611L34.584,32.703z M33.86,32.461l-0.698-0.241l0.617,1.342
	l0.081-0.107v1.611l-1.422-3.275l0.241-0.295l1.181,0.43V32.461L33.86,32.461z M32.223,30.448l0.161,0.993l-0.188,0.214
	l-0.349-0.805L32.223,30.448z"/>
<path fill-rule="evenodd" clip-rule="evenodd" fill="#FFFFFF" d="M36.517,30.26l0.027,0.027l0.16-0.107
	c0.242-0.161,0.377-0.295,0.43-0.403c0.055-0.081,0.081-0.188,0.081-0.295c-0.026-0.107-0.054-0.214-0.134-0.322
	c-0.055-0.081-0.162-0.161-0.27-0.215c-0.08-0.027-0.188-0.027-0.295-0.027v-0.483c0.107-0.026,0.215-0.026,0.322-0.026
	c0.269,0.026,0.51,0.161,0.697,0.429c0.135,0.188,0.188,0.376,0.215,0.564c0,0.188-0.08,0.402-0.188,0.563
	c0.135,0,0.295,0.027,0.483,0.081c0.161,0.027,0.429,0.134,0.806,0.295c0.241,0.107,0.402,0.161,0.536,0.214l0.322,0.107
	l-0.536,0.376l-0.27-0.107c0-0.027-0.026-0.027-0.053-0.027l-0.162-0.054l-0.295-0.134l-0.322-0.134
	c-0.188-0.054-0.349-0.107-0.482-0.134c-0.107-0.027-0.215-0.027-0.322,0c-0.08,0-0.188,0.054-0.322,0.161l-0.135,0.081l0.967,1.342
	l-0.456,0.295L36.517,31.2V30.26z M35.98,29.213l-0.134,0.107l0.671,0.939v0.94l-1.369-1.959l0.779-0.537
	c0.188-0.134,0.402-0.241,0.59-0.269v0.483c0,0.027-0.026,0.027-0.026,0.027C36.356,28.972,36.195,29.079,35.98,29.213z"/>
<path fill-rule="evenodd" clip-rule="evenodd" fill="#FFFFFF" d="M41.134,29.348c0.188,0,0.375-0.054,0.563-0.134
	c0.376-0.161,0.644-0.43,0.806-0.779c0.16-0.375,0.134-0.751-0.027-1.127c-0.161-0.376-0.402-0.618-0.778-0.752
	c-0.188-0.081-0.376-0.107-0.563-0.107v-0.51c0.268-0.027,0.537,0.027,0.778,0.107c0.51,0.188,0.858,0.537,1.101,1.047
	c0.215,0.51,0.215,1.02,0,1.503c-0.215,0.51-0.591,0.859-1.154,1.101c-0.242,0.107-0.483,0.161-0.725,0.188V29.348z M40.57,26.583
	c-0.402,0.161-0.67,0.43-0.805,0.806c-0.161,0.349-0.135,0.725,0.027,1.1c0.16,0.376,0.43,0.645,0.777,0.779
	c0.188,0.081,0.377,0.107,0.564,0.081v0.537c-0.269,0-0.537-0.027-0.805-0.134c-0.484-0.188-0.833-0.537-1.047-1.02
	c-0.242-0.537-0.242-1.047-0.055-1.53c0.215-0.483,0.591-0.859,1.127-1.074c0.27-0.107,0.511-0.188,0.779-0.188v0.51
	C40.947,26.449,40.758,26.502,40.57,26.583z"/>
<path fill-rule="evenodd" clip-rule="evenodd" fill="#FFFFFF" d="M46.154,27.844c0.188-0.027,0.322-0.081,0.456-0.107
	c0.134-0.081,0.241-0.134,0.349-0.215c0.081-0.054,0.162-0.161,0.215-0.241c0.242-0.322,0.295-0.671,0.242-1.074
	c-0.054-0.403-0.242-0.725-0.564-0.913c-0.107-0.081-0.241-0.134-0.375-0.188c-0.135-0.027-0.242-0.054-0.322-0.054V24.57
	c0.215,0,0.402,0.026,0.59,0.08c0.322,0.107,0.591,0.295,0.806,0.564c0.215,0.268,0.376,0.563,0.43,0.913
	c0.026,0.269,0.026,0.51-0.026,0.751c-0.055,0.242-0.162,0.457-0.322,0.671c-0.162,0.215-0.35,0.376-0.564,0.51
	c-0.134,0.081-0.268,0.134-0.375,0.161s-0.27,0.081-0.537,0.134V27.844z M45.509,25.106l-0.671,0.107l0.456,2.792l0.698-0.134
	c0.054,0,0.106,0,0.161-0.027v0.51c-0.055,0-0.081,0-0.135,0l-1.181,0.188l-0.591-3.704l1.262-0.215
	c0.215-0.027,0.43-0.053,0.645-0.053v0.483c-0.027,0-0.055,0-0.081,0C45.966,25.053,45.778,25.08,45.509,25.106z"/>
<polygon fill-rule="evenodd" clip-rule="evenodd" fill="#FFFFFF" points="52.676,24.409 53.186,24.462 52.891,28.22 52.436,28.193 
	50.126,25.106 49.912,28.005 49.428,27.979 49.697,24.194 50.126,24.221 52.436,27.334 "/>
<path fill-rule="evenodd" clip-rule="evenodd" fill="#FFFFFF" d="M56.273,24.086l-0.779,0.617l-0.295-0.054l0.564-0.698
	L56.273,24.086L56.273,24.086z M55.039,24.892l0.51,0.134l-0.912,3.65l-0.512-0.134L55.039,24.892z"/>
<path fill-rule="evenodd" clip-rule="evenodd" fill="#FFFFFF" d="M60.193,27.308l-0.297-0.134v-0.564l0.617,0.322
	c0.297,0.161,0.51,0.376,0.617,0.644c0.107,0.295,0.082,0.564-0.08,0.859c-0.08,0.188-0.24,0.349-0.402,0.43
	c-0.188,0.107-0.375,0.161-0.564,0.134c-0.053,0-0.133-0.027-0.188-0.027v-0.51c0.107,0.026,0.215,0.026,0.297,0.026
	c0.16-0.054,0.295-0.161,0.375-0.322C60.756,27.817,60.621,27.549,60.193,27.308z M59.896,27.173l-0.188-0.107l-0.564,1.047
	l0.537,0.269c0.082,0.027,0.162,0.081,0.215,0.081v0.51c-0.16-0.054-0.375-0.134-0.617-0.242l-0.35-0.188l-0.75,1.45l-0.484-0.242
	l1.746-3.355l0.455,0.214V27.173z"/>
<path fill-rule="evenodd" clip-rule="evenodd" fill="#FFFFFF" d="M62.795,31.012l0.322-1.477l-0.643,0.376v-0.563l0.992-0.591
	l0.322,0.242l-0.939,4.053l-0.375-0.269V32.38l0.215-0.859l-0.215-0.134V30.77L62.795,31.012z M62.475,29.911l-0.619,0.376
	l0.619,0.483v0.618L61.4,30.555l-1.074,0.618l-0.43-0.322l2.578-1.503V29.911L62.475,29.911z M62.475,32.38v0.403l-0.055-0.054
	L62.475,32.38z"/>
<path fill-rule="evenodd" clip-rule="evenodd" fill="#FFFFFF" d="M66.42,32.005l-0.107-0.107l-0.215,0.188V31.36l0.188-0.188
	l0.645,0.725c0.242,0.269,0.375,0.563,0.375,0.859s-0.107,0.563-0.348,0.778c-0.162,0.134-0.35,0.215-0.537,0.242
	c-0.107,0.027-0.215,0-0.322-0.027v-0.483c0.053,0,0.135,0,0.188,0c0.107-0.026,0.215-0.08,0.295-0.161
	c0.107-0.081,0.162-0.188,0.189-0.295c0.025-0.107,0.025-0.215-0.027-0.322C66.688,32.38,66.58,32.22,66.42,32.005z M66.098,32.085
	l-0.697,0.59l0.16,0.161c0.162,0.215,0.322,0.322,0.402,0.376c0.055,0.027,0.107,0.027,0.135,0.053v0.483
	c-0.08,0-0.16-0.027-0.27-0.081c0.027,0.134,0.027,0.295,0,0.483c-0.025,0.161-0.08,0.456-0.215,0.832
	c-0.08,0.242-0.105,0.429-0.133,0.563L65.4,35.87l-0.43-0.483l0.08-0.269c0-0.027,0-0.054,0-0.081l0.053-0.161l0.082-0.322
	l0.107-0.322c0.053-0.188,0.08-0.349,0.08-0.483s0-0.242-0.027-0.322c-0.027-0.08-0.08-0.188-0.215-0.322l-0.08-0.107l-1.234,1.101
	l-0.35-0.403l2.631-2.335V32.085z"/>
<polygon fill-rule="evenodd" clip-rule="evenodd" fill="#FFFFFF" points="70.23,36.541 70.58,37.132 68.191,36.622 67.52,39.386 
	67.145,38.742 67.789,36.139 66.15,37.078 65.883,36.595 69.158,34.689 69.426,35.172 67.922,36.031 "/>
<path fill-rule="evenodd" clip-rule="evenodd" fill="#1D5632" d="M67.789,49.452c0-0.312-0.051-0.464,0.16-0.671
	C67.925,48.997,68.023,49.452,67.789,49.452L67.789,49.452z M67.789,47.976v-0.671c0.244,0.258,0.188,0.403,0.188,0.806
	C67.917,48.062,67.854,48.017,67.789,47.976L67.789,47.976z M67.789,45.158v-0.161C67.861,45.112,67.861,45.166,67.789,45.158z
	 M64.996,46.661c0.006,0.375,0.062,0.86-0.232,1.144c-0.166,0.16-0.598,0.312-0.598,0.574l0,0c0.025,0.134,0.053,0.215,0.08,0.242
	c0.349-0.04,0.602-0.206,0.951-0.04c0.415,0.196,0.982,0.743,1.088,1.208c0.158,0.696,0.289,0.836-0.295,1.302
	c-0.386,0.195-0.881-0.034-1.207,0.135c-0.082,0.053-0.189,0.214-0.135,0.321c0.288,0.443,0.913,0.054,1.289,0.054
	c0.694,0.18,0.029,1.575-0.153,2.017c-0.463,1.116-1.216,1.339-2.37,1.446v0.562c0.713-0.47,2.077-0.205,2.441,0.537
	c0.229-0.398,0.242-0.503,0.242-0.912l0,0c0.039-0.914,0.437-1.527,0.582-2.394c0.066-0.399,0.097-0.808,0.131-1.211
	c0.03-0.356,0.498-0.315,0.816-0.396c0.027-0.16,0.055-0.295,0.082-0.455c-0.512,0.133-0.645,0.133-0.645,0.133
	c-0.227-0.149-0.211-0.979-0.35-1.261c-0.312-0.45-0.803-0.932-1.01-1.438c-0.195-0.475-0.071-0.983-0.282-1.451
	c-0.207-0.459-0.452-0.853-0.452-1.379c0,0,0,0,0.025,0c0-0.245,0.196-0.368,0.162-0.644c0.501,0,0.981,0.106,1.477,0.161
	c0.178,0.175,0.107,0.5,0.107,0.725c0,0.206,0.001,0.478,0.188,0.617c0.059,0.058,0.375,0.149,0.375,0.242
	c0,0.4-0.643,0.498-0.643,0.832l0,0c0.026,0.018,0.054,0.036,0.08,0.054c0.434,0.086,0.71,0.312,1.047,0.59c0-0.166,0-0.332,0-0.497
	c0-0.214-0.215-0.22-0.215-0.389l0,0c0-0.312,0.315-0.484,0.026-0.778c-0.404-0.412-0.574-0.686-0.216-1.234
	c0.062,0.062,0.36,0.074,0.404,0.081c0.075-1.909-0.971-4.248-1.826-5.906c-0.339-0.169-0.844-0.188-1.226-0.382
	c-0.438-0.224-0.864-0.494-1.323-0.665v4.885l0,0c0.517,0.443,1.154,1.226,1.154,1.96c0,0.758-1.345,1.094-1.154,1.718
	c0.316-0.12,0.617-0.314,0.896-0.511C64.591,46.058,64.996,46.272,64.996,46.661z M63.414,52.057v-0.296
	c0.058,0,0.455-0.099,0.455,0.026C63.727,51.93,63.613,52.016,63.414,52.057L63.414,52.057z M63.414,48.728v-0.269
	C63.488,48.616,63.547,48.586,63.414,48.728L63.414,48.728z M67.789,48.916v0.537C67.479,49.452,67.727,48.999,67.789,48.916
	L67.789,48.916z M63.414,58.793v-2.441c0.354,0.53,0.621,0.976,0.295,1.609c-0.161,0.314,0.214,0.728,0.402,0.939
	c-0.089,0.107-0.179,0.215-0.27,0.322C63.699,59.079,63.557,58.937,63.414,58.793z M63.414,55.062c-0.123,0-0.44,0.037-0.484-0.135
	c-0.166-0.422-0.034-1.196-0.042-1.651c-0.004-0.236-0.011-0.474-0.011-0.71c-0.089-0.438,0.25-0.377,0.537-0.51v-0.296
	c-1.231,0.2-0.931-1.436-1.252-2.08c-0.591-1.18,0.725-0.607,1.252-0.953c0.188-0.9-1.526-0.285-1.839-0.658
	c-0.422-0.503-0.308-1.025-0.514-1.607c-0.14-0.394-0.883-0.833-0.628-1.333c0.644,0,1.254,0.064,1.861-0.214
	c0.736-0.337-0.4-0.188-0.627-0.161c-0.47,0.117-1.314,0.08-1.314-0.543c0-0.309,0.754-1.201,1.1-1.201
	c0.32,0,0.634,0.162,0.967,0.107c0.313-0.022,0.699-0.248,0.994-0.027v-4.885c-1.44-0.595-2.93-1.097-4.408-1.588
	c-0.802-0.266-1.576-0.499-2.277-0.988c-0.626-0.437-1.193-0.907-1.897-1.223c-3.243-1.457-6.507-0.857-9.626,0.658
	c-2.167,1.053-4.436,2.426-6.785,3.008c-1.335,0.331-2.665,0.702-3.981,1.101c-0.477,0.144-0.903,0.248-1.271,0.602
	c-0.829,0.796-1.135,2.579-1.401,3.665c0.932,0.311,1.612,0.482,2.592,0.498c1.102,0.017,1.967-0.281,3.028-0.501
	c0.788-0.163,1.449-0.021,2.218,0.183c0.679,0.179,1.736,0.379,2.254,0.868c0,0.081,0,0.161,0,0.242
	c-0.693,0.346-1.25-0.08-1.957-0.112c-0.523-0.023-2.151-0.115-2.366,0.514c0,0.211,1.478-0.112,1.639-0.08
	c0.652,0,1.163,0.246,1.811,0.3c0.69,0.058,1.268-0.057,1.947-0.131c0.736-0.081,1.44-0.037,2.2-0.008
	c1.848,0.074,3.6,0.157,5.426-0.165c0.315-0.055,0.613-0.137,0.909-0.265c0.356-0.142,0.802-0.105,1.127-0.269
	c0.628-0.617,1.368-0.284,2.121-0.134c0.726,0.052,1.396-0.525,2-0.861c0.738-0.413,0.987,0.221,1.623,0.432
	c0.343,0.085,0.908,0.241,1.234,0.241c0.383,0.568-0.537,0.586-0.725,0.913c0-0.066,0.99,0.136,1.148,0.312
	c0.274,0.306,0.035,0.922-0.369,1.057c-0.518,0.259-1.154-0.292-1.678-0.187c-0.271,0.055-1.554-0.021-1.678,0.106
	c-0.027,0.054-0.055,0.107-0.027,0.161c0-0.018,1.617,0.068,1.713,0.091c0.842,0.207,1.405,0.232,2.236,0.04
	c0.786-0.182,0.792,1.074,0.369,1.443c-0.59,0.514-1.352,0.143-2.064,0.287c-0.58,0.117-1.156,0.319-1.735,0.42
	c-0.865,0.15-1.422-0.386-2.21-0.456c-0.404,0.058-0.832,0.032-1.239,0.023c-0.5-0.01-0.695-0.151-1.128-0.295
	c-0.386-0.128-1.022-0.471-1.416-0.346c-0.657-0.645-2.267-0.763-3.113-0.912c-1.92-0.336-3.994-0.245-5.902,0.138
	c-0.663,0.133-1.358,0.513-2.027,0.499c-0.513-0.011-1.021-0.04-1.533-0.063c-0.875-0.04-1.721,0.176-2.592,0.176
	c-0.425,0.005-1.606-0.288-1.906,0.161c0.325,0.499,2.66,0.171,3.277,0.151c0.325-0.011,0.952-0.172,1.205,0.09
	c0,0.466,0.19,1.422-0.208,1.753c-0.55,0.456-1.171,0.878-1.668,1.393c-0.368,0.381-0.551,1.082-0.782,1.555
	c-0.228,0.467-0.987,0.618-1.454,0.598c-0.122-0.006-1.244,0.469-1.201,0.553c0,0.126,1.979-0.19,2.147-0.133
	c0.187,0.497-0.149,1.426-0.239,1.943c-0.095,0.551-0.086,1.551-0.513,1.975c0.744,1.115,1.595,2.159,2.552,3.099
	c0.476,0.467,0.978,0.907,1.504,1.316c0.521,0.405,1.483,0.264,2.134,0.284c2.138,0.066,4.367,0.117,6.473-0.323
	c1.386-0.289,2.471-1.146,3.89-1.4c1.774-0.318,3.604-0.352,5.403-0.317c0,1.489,0.147,3.067,1.691,3.703
	c0.189-0.106,0.377-0.188,0.564-0.295c-0.159-0.078-1.599-1.021-1.316-1.314c0.874,0.134,2.091,0.926,2.9,0.322
	c-1.061,0-2.23-0.459-2.98-1.182l0,0l0,0c0.166,0.061,2.201,0.444,2.201,0.107c0-0.141-1.675-0.459-1.884-0.545
	c-0.68-0.284-0.833-1.081-0.64-1.764c0.056-0.054,0.807-0.116,0.92-0.152c0.335-0.107,0.84-0.304,0.959-0.68
	c0.027-0.107,0-0.188-0.08-0.215c-0.207-0.139-0.833,0.35-1.074,0.35c-0.485-0.041-0.911-0.111-1.342-0.322l0,0
	c-0.286-0.239-0.53-0.537-0.67-0.887c0.426-0.442,1.058-0.651,1.714-0.684c0.292-0.015,1.51,0.353,1.642,0.094
	c0-1.842-4.099,1.007-4.402-0.912c0.244-0.245,0.301-0.342,0.641-0.349c0.323-0.007,0.687,0.154,0.861-0.216
	c0.232-0.232-0.564-0.401-0.67-0.402c-0.396-0.101-0.431,0.177-0.753,0.249c-0.646,0.145-1.428-0.46-1.019-1.136
	c0.306-0.406,0.589-0.321,1.047-0.321c0.207-0.002,0.939,0.077,0.939-0.296c-0.181-0.53-1.069-0.269-1.477-0.275
	c-0.629-0.011-0.986,0.518-1.664,0.518c-0.452-0.369-1.692-1.976-0.267-1.814c0.263,0.03,2.063,0.579,2.063,0.016
	c-0.146-0.302-1.658-0.374-2.035-0.546c-0.589-0.267-0.652-0.301-0.819-0.923c-0.132-0.494-0.661-0.891-0.661-1.429
	c0.115-0.113,0.394,0.022,0.51,0.08c0.836,0.321,2.047,0.653,2.791-0.134c0.652-0.213,1.45,0.4,2.125,0.425
	c1.025,0.038,1.979-0.356,3.019-0.341c0.644,0.009,1.615-0.113,2.207,0.232c0.584,0.34,0.635,1.703,0.452,2.249
	c-0.304,0.904-1.209,1.188-2.004,0.79c-0.544,0-3.463-0.896-3.463,0.242c-0.027,0.08-0.053,0.215,0.107,0.242
	c0.239,0.059,0.593-0.254,0.816-0.343c0.235-0.094,0.611,0.057,0.848,0.101c0.332,0.062,0.702,0.094,1.02,0.215
	c0.364,0.107,0.783,0.43,1.156,0.43c0.818,0.162,1.225-0.905,1.932-0.672c0.697,0.178,0.438,2.111,0.202,2.572
	c-0.324,0.634-1.376,0.757-2.018,0.74c-0.284-0.008-0.559-0.117-0.843-0.117c-0.453,0.149-0.518,0.638-0.021,0.696
	c0.589,0.069,2.231,0.481,2.68-0.052c0.395-0.348,0.659,0.002,0.942,0.298c0.319,0.333,0.41,0.812,0.185,1.259l0,0
	c-0.103,0.399-0.135,0.588,0.162,0.885c0-0.76,0-1.519,0-2.278c0-0.261-0.313-0.389-0.219-0.653
	C63.312,55.538,63.414,55.488,63.414,55.062L63.414,55.062z M63.414,46.392v0.376c-0.297,0.081-0.994,0.027-1.047-0.027
	C62.367,46.333,63.149,46.392,63.414,46.392z"/>
</svg>
