<?xml version="1.0" encoding="utf-8"?>
<!-- Generator: Adobe Illustrator 16.0.0, SVG Export Plug-In . SVG Version: 6.00 Build 0)  -->
<!DOCTYPE svg PUBLIC "-//W3C//DTD SVG 1.1//EN" "http://www.w3.org/Graphics/SVG/1.1/DTD/svg11.dtd">
<svg version="1.1" id="Layer_2" xmlns="http://www.w3.org/2000/svg" xmlns:xlink="http://www.w3.org/1999/xlink" x="0px" y="0px"
	 width="100px" height="100px" viewBox="0 0 100 100" enable-background="new 0 0 100 100" xml:space="preserve">
<polygon fill-rule="evenodd" clip-rule="evenodd" fill="#FFFFFF" points="48.22,67.893 48.757,67.946 46.717,71.543 46.583,71.517 
	45.429,67.544 45.966,67.598 46.771,70.389 "/>
<path fill-rule="evenodd" clip-rule="evenodd" fill="#FFFFFF" d="M51.469,66.738l-0.537,0.859h-0.322l0.322-0.832L51.469,66.738
	L51.469,66.738z M51.979,67.785l0.645-0.026l-1.289,1.878l0.135,1.986l-0.564,0.055l-0.107-2.014l-1.502-1.69l0.645-0.054l1.1,1.262
	L51.979,67.785z"/>
<path fill-rule="evenodd" clip-rule="evenodd" fill="#FFFFFF" d="M57.508,69.53l0.162,0.563c-0.35,0.322-0.752,0.563-1.262,0.697
	c-0.402,0.107-0.779,0.107-1.102,0.027s-0.617-0.241-0.859-0.482c-0.24-0.242-0.43-0.537-0.51-0.859
	c-0.133-0.537-0.08-1.047,0.215-1.503c0.27-0.483,0.699-0.778,1.234-0.94c0.404-0.107,0.832-0.107,1.369-0.053l0.162,0.563
	c-0.51-0.134-0.939-0.134-1.369-0.026c-0.402,0.134-0.725,0.348-0.912,0.697c-0.215,0.322-0.27,0.697-0.162,1.101
	s0.35,0.698,0.697,0.886c0.322,0.161,0.727,0.215,1.129,0.08C56.756,70.174,57.158,69.906,57.508,69.53z"/>
<path fill-rule="evenodd" clip-rule="evenodd" fill="#FFFFFF" d="M66.193,86.054c14.162,0,25.642-11.479,25.642-25.642
	c0-14.162-11.479-25.642-25.642-25.642S40.551,46.25,40.551,60.412C40.551,74.574,52.031,86.054,66.193,86.054L66.193,86.054z"/>
<g>
	<path fill-rule="evenodd" clip-rule="evenodd" fill="#005322" d="M73.139,50.562l0.021-0.22l-0.805-0.073
		c-0.019,0.064-0.025,0.139-0.033,0.249c-0.027,0.291,0.063,0.56,0.363,0.586C72.975,51.131,73.111,50.882,73.139,50.562
		L73.139,50.562z M73.905,51.144c0.215,0.021,0.346-0.136,0.37-0.427c0.015-0.143,0.013-0.224,0.004-0.276l-0.66-0.06l-0.019,0.214
		C73.571,50.936,73.694,51.125,73.905,51.144L73.905,51.144z M74.33,47.589c-0.019-0.444-0.462-0.677-0.996-0.655
		c-0.538,0.022-0.948,0.297-0.929,0.729v0.004c0.017,0.437,0.438,0.671,0.997,0.647C73.916,48.295,74.347,48.036,74.33,47.589
		L74.33,47.589z M72.109,55.592l-0.196,0.602l0.632,0.021c0.176,0.008,0.396,0.028,0.569,0.039l0.002-0.011
		c-0.147-0.092-0.34-0.201-0.484-0.295L72.109,55.592L72.109,55.592z M58.668,70.603c-0.133-0.179-0.295-0.409-0.422-0.583
		l-0.014,0.006c0.035,0.219,0.08,0.495,0.108,0.709l0.078,0.794l0.742-0.296L58.668,70.603L58.668,70.603z M51.985,72.229
		l-0.139,0.786l0.794-0.086l-0.304-0.737c-0.08-0.209-0.172-0.473-0.247-0.676l-0.017,0.002
		C52.046,71.735,52.018,72.015,51.985,72.229L51.985,72.229z M59.361,49.664l-0.373,17.171c0.315-0.16,0.626-0.327,0.932-0.503
		l-0.37-16.795l-0.096-0.346L59.361,49.664L59.361,49.664z M54.345,67.156l-4.672,0.151l0.004,0.419l0.015,0.114l0.93,0.463
		l-0.93,0.333v0.391c0.027,0,0.056,0,0.083,0c1.421,0,2.807-0.146,4.146-0.422L54.345,67.156L54.345,67.156z M56.997,66.835
		l-7.349-2.589l0.019,2.101l7.282,0.499L56.997,66.835L56.997,66.835z M56.141,63.954l-6.511-2.093l0.013,1.377l5.257,2l0.309-1.232
		L56.141,63.954L56.141,63.954z M51.683,49.096l-1.729-0.031v-1.07L51.683,49.096L51.683,49.096z M49.985,49.819l2.987,1.732
		l-2.987,0.22V49.819L49.985,49.819z M52.502,55.259l-2.423,0.221v-0.975L52.502,55.259L52.502,55.259z M52.062,36.892l-2.63,0.738
		l0.066,8.09l2.122,1.519l-2.109-0.027l0.043,5.292l1.907,1.245l-1.897,0.054l0.019,2.329l2.32,1.3l-2.309,0.027l0.014,1.859
		l2.546,1.258l-2.533,0.239v0.068l5.856,2.276l0.925-3.466l-1.164-0.187l2.14-6.89l-0.755-0.096l2.548-7.014l-0.691-0.596
		l1.321-2.046l1.888,4.594l-0.785,0.315l2.325,5.346l-0.974,0.031l2.894,7.237l-1.037,0.221l0.445,2.086
		c3.492-3.664,5.637-8.626,5.637-14.084c0-1.15-0.096-2.279-0.28-3.378c-3.462-3.448-7.779-6.049-9.168-6.169
		c-0.913-0.079-4.079,1.167-5.309,1.1c-1.229-0.062-2.588-0.905-4.466-1.035c-0.224-0.015-0.516,0.016-0.859,0.086l0.019-1.108
		L52.062,36.892L52.062,36.892z M51.703,34.127l-2.431-0.287l0.025,1.598l0.619,0.286l-0.048-1.359L51.703,34.127L51.703,34.127z
		 M49.773,33.101l-0.69-4.148l0.094,3.886L49.773,33.101L49.773,33.101z M45.911,62.603l1.463,2.378l0.062-1.92L45.911,62.603
		L45.911,62.603z M47.297,67.444h-5.425c1.69,0.708,3.497,1.192,5.379,1.426L47.297,67.444L47.297,67.444z M38.854,40.062
		l2.432-7.342l1.549,4.451l-0.516,0.432l2.001,4.912l-0.996,0.463l2.455,6.367h-1.459l2.85,7.29l-1.39-0.065l1.692,5.292
		l0.341-10.756l-1.478-0.498l1.322-0.567l-1.952-0.473l2.167-0.396l0.334-10.6l-1.878,0.609l1.723,0.634
		c-1.203,0.421-2.34,0.921-3.494,1.408l-1.625-3.25l0.69-0.625l-2.359-5.128l-3.457,7.88L38.854,40.062L38.854,40.062z
		 M29.354,48.612c0,5.421,2.117,10.354,5.569,14.01l0.748-1.993l-1.829,0.182l2.856-7.935l-1.661-0.086l3.315-7.425l-1.127,0.133
		l2.323-5.438l-0.634,0.006l-1.859,3.909c-2.895,1.017-6.222,2.218-7.609,2.707C29.387,47.317,29.354,47.961,29.354,48.612
		L29.354,48.612z M27.777,58.209c-0.136,0.11-0.313,0.243-0.448,0.349l0.006,0.014c0.17-0.034,0.387-0.08,0.556-0.106l0.625-0.088
		l-0.255-0.578L27.777,58.209L27.777,58.209z M26.488,55.135c-0.248,0.072-0.327,0.283-0.242,0.569
		c0.044,0.149,0.078,0.233,0.104,0.272l0.751-0.225l-0.073-0.243C26.936,55.199,26.727,55.064,26.488,55.135L26.488,55.135z
		 M25.524,52.56c0.071,0.438,0.539,0.617,1.066,0.531c0.533-0.086,0.905-0.409,0.835-0.837l0-0.004
		c-0.071-0.43-0.517-0.609-1.07-0.521C25.85,51.811,25.452,52.119,25.524,52.56L25.524,52.56z M25.226,49.403
		c0.003,0.142,0.017,0.237,0.031,0.293l1.872-0.042c0.012-0.056,0.01-0.148,0.008-0.225c-0.009-0.59-0.341-0.968-1.023-0.954
		C25.518,48.489,25.212,48.844,25.226,49.403L25.226,49.403z M27.193,40.017c-0.247-0.089-0.456,0.029-0.566,0.337
		c-0.043,0.12-0.065,0.207-0.069,0.256l0.795,0.285c0.03-0.049,0.055-0.107,0.088-0.199C27.558,40.372,27.465,40.113,27.193,40.017
		L27.193,40.017z M28.605,38.618l0.279-0.567l-0.623-0.107c-0.173-0.033-0.39-0.083-0.557-0.118l-0.005,0.011
		c0.135,0.109,0.309,0.247,0.438,0.358L28.605,38.618L28.605,38.618z M29.847,35.637c0.177-0.269,0.146-0.517-0.063-0.654
		c-0.216-0.142-0.428-0.068-0.591,0.181c-0.085,0.131-0.128,0.21-0.143,0.255l0.655,0.432L29.847,35.637L29.847,35.637z
		 M44.161,25.065c-0.062-0.25-0.27-0.338-0.557-0.264c-0.152,0.04-0.237,0.069-0.279,0.094l0.195,0.76l0.246-0.063
		C44.078,25.512,44.223,25.309,44.161,25.065L44.161,25.065z M46.482,25.426l0.626-0.078l-0.251-0.58
		c-0.067-0.164-0.146-0.371-0.208-0.531l-0.012,0.002c-0.017,0.173-0.036,0.395-0.058,0.564L46.482,25.426L46.482,25.426z
		 M58.879,26.377c0.021-0.175,0.053-0.394,0.076-0.563l-0.013-0.005c-0.097,0.143-0.222,0.327-0.323,0.464l-0.392,0.496l0.588,0.238
		L58.879,26.377L58.879,26.377z M65.218,29.979c0.162-0.202,0.108-0.419-0.125-0.605c-0.122-0.097-0.197-0.146-0.241-0.166
		l-0.49,0.613l0.198,0.158C64.812,30.181,65.062,30.174,65.218,29.979L65.218,29.979z M66.322,32.049l0.439,0.453l0.312-0.55
		c0.09-0.151,0.21-0.339,0.3-0.485l-0.01-0.008c-0.149,0.091-0.335,0.208-0.484,0.292L66.322,32.049L66.322,32.049z M73.224,43.434
		c0.156-0.081,0.356-0.177,0.508-0.255l-0.002-0.013c-0.173,0-0.396,0.002-0.567-0.004l-0.628-0.038l0.138,0.617L73.224,43.434
		L73.224,43.434z M74.881,43.006l0.147,0.661l-0.622-0.391l-0.114-0.505L74.881,43.006L74.881,43.006z M74.118,42.679l0.182,0.825
		l-2.597,1.493l-0.152-0.68l0.669-0.374l-0.178-0.804l-0.761-0.035l-0.147-0.654L74.118,42.679L74.118,42.679z M73.678,41.017
		l-2.685,0.992l-0.233-0.636l0.822-0.956c0.23-0.267,0.507-0.572,0.773-0.817l-0.005-0.015c-0.352,0.152-0.728,0.3-1.163,0.461
		l-0.809,0.299l-0.206-0.557l2.682-0.994l0.264,0.709l-0.779,0.921c-0.223,0.264-0.499,0.542-0.757,0.778l0.004,0.008
		c0.342-0.167,0.699-0.314,1.104-0.463l0.781-0.288L73.678,41.017L73.678,41.017z M72.418,37.828l-2.521,1.352l-0.318-0.599
		l0.683-1.061c0.192-0.297,0.426-0.637,0.656-0.915l-0.008-0.014c-0.327,0.198-0.679,0.397-1.09,0.617l-0.759,0.407l-0.28-0.523
		l2.521-1.35l0.355,0.665l-0.643,1.02c-0.186,0.292-0.422,0.605-0.645,0.874l0.005,0.007c0.315-0.212,0.65-0.406,1.031-0.61
		l0.732-0.393L72.418,37.828L72.418,37.828z M70.778,34.95L68.4,36.542l-0.36-0.536l2.378-1.592L70.778,34.95L70.778,34.95z
		 M69.926,33.716l-1.426,1.11c-0.645,0.5-1.108,0.366-1.49-0.125c-0.097-0.122-0.194-0.29-0.239-0.417l0.455-0.264
		c0.033,0.089,0.085,0.193,0.164,0.292c0.166,0.214,0.368,0.273,0.716,0.002l1.425-1.108L69.926,33.716L69.926,33.716z
		 M68.025,31.448l-1.432,2.631l-0.484-0.499l0.374-0.67l-0.574-0.59l-0.667,0.367l-0.466-0.481l2.661-1.363L68.025,31.448
		L68.025,31.448z M65.918,29.709c0.053,0.214,0,0.429-0.164,0.634c-0.227,0.282-0.585,0.315-0.834,0.23l-0.006,0.011
		c0.104,0.187,0.075,0.402-0.035,0.653c-0.133,0.311-0.301,0.654-0.326,0.775l-0.518-0.414c0.021-0.092,0.107-0.316,0.265-0.642
		c0.161-0.332,0.124-0.482-0.082-0.651l-0.149-0.12l-0.703,0.878l-0.501-0.4l1.763-2.2c0.188,0.1,0.441,0.271,0.714,0.489
		C65.67,29.217,65.862,29.453,65.918,29.709L65.918,29.709z M64.037,27.973l-1.446,0.537l-0.021,1.919l-0.638-0.396l0.052-1.421
		l-0.364,0.129l-0.491,0.794l-0.546-0.338l1.51-2.431l0.542,0.337l-0.665,1.075l0.006,0.005c0.112-0.06,0.225-0.111,0.335-0.162
		l1.05-0.468L64.037,27.973L64.037,27.973z M60.094,25.025l-0.675,0.289l-0.48-0.194l0.525-0.35L60.094,25.025L60.094,25.025z
		 M58.764,25.214l0.781,0.317l-0.249,2.986l-0.645-0.262l0.073-0.763l-0.765-0.31l-0.46,0.605l-0.621-0.251L58.764,25.214
		L58.764,25.214z M57.146,24.63l-0.708,2.771l-0.659-0.169l-0.318-1.22c-0.087-0.342-0.183-0.743-0.23-1.102l-0.017-0.004
		c-0.075,0.375-0.166,0.768-0.28,1.22l-0.215,0.835l-0.576-0.148l0.71-2.771l0.731,0.188l0.315,1.162
		c0.092,0.334,0.163,0.721,0.21,1.065l0.009,0.002c0.057-0.375,0.139-0.752,0.247-1.171l0.206-0.806L57.146,24.63L57.146,24.63z
		 M53.907,23.879l-0.069,0.527l-1.106-0.144l-0.076,0.59l1.046,0.133l-0.069,0.522l-1.043-0.135l-0.087,0.674l1.166,0.15
		l-0.069,0.526l-1.804-0.232l0.366-2.836L53.907,23.879L53.907,23.879z M53.765,23.181l-0.487,0.463l-0.48-0.062l-0.357-0.573
		l0.451,0.058l0.176,0.289l0.009,0.001l0.243-0.234L53.765,23.181L53.765,23.181z M51.173,23.578l-0.045,2.859l-0.679-0.012
		l-0.595-1.113c-0.164-0.312-0.349-0.68-0.48-1.018h-0.017c0.017,0.383,0.017,0.786,0.011,1.252l-0.015,0.862l-0.594-0.01
		l0.048-2.861l0.754,0.013l0.578,1.058c0.164,0.303,0.324,0.663,0.451,0.988h0.009c-0.033-0.379-0.04-0.766-0.031-1.198l0.012-0.832
		L51.173,23.578L51.173,23.578z M48.268,26.431l-0.69,0.086l-0.312-0.701l-0.816,0.103l-0.106,0.753l-0.665,0.083l0.509-2.947
		l0.84-0.105L48.268,26.431L48.268,26.431z M47.26,22.994l-0.451,0.583l-0.511,0.063l0.287-0.562L47.26,22.994L47.26,22.994z
		 M45.387,26.818l-0.64,0.166c-0.062-0.072-0.189-0.275-0.355-0.598c-0.168-0.328-0.31-0.389-0.569-0.326l-0.185,0.047l0.279,1.09
		l-0.62,0.16l-0.703-2.73c0.193-0.089,0.482-0.189,0.819-0.277c0.411-0.104,0.715-0.117,0.954-0.007
		c0.202,0.087,0.341,0.258,0.407,0.512c0.09,0.351-0.1,0.657-0.316,0.804l0.004,0.013c0.212,0.029,0.366,0.182,0.501,0.419
		C45.132,26.385,45.307,26.726,45.387,26.818L45.387,26.818z M41.592,24.897l1.061,2.656l-0.599,0.24l-0.443-1.109l-0.989,0.396
		l0.443,1.107l-0.599,0.239l-1.06-2.656l0.599-0.24l0.409,1.024l0.99-0.394l-0.41-1.024L41.592,24.897L41.592,24.897z
		 M39.178,28.539c0.175-0.097,0.342-0.233,0.431-0.345l0.329,0.399c-0.074,0.104-0.278,0.294-0.579,0.462
		c-0.863,0.481-1.61,0.187-2.006-0.525c-0.472-0.849-0.127-1.657,0.628-2.08c0.294-0.162,0.55-0.227,0.676-0.234l0.13,0.514
		c-0.138,0.014-0.32,0.059-0.524,0.172c-0.447,0.247-0.645,0.712-0.333,1.268C38.207,28.667,38.679,28.817,39.178,28.539
		L39.178,28.539z M35.343,31.035l-0.002,0.001c-0.232,0.192-0.574,0.165-0.773-0.077c-0.202-0.24-0.162-0.586,0.073-0.78
		c0.236-0.194,0.58-0.164,0.78,0.078C35.617,30.497,35.584,30.838,35.343,31.035L35.343,31.035z M33.662,33.3l-0.484,0.574
		l-1.398-0.257l0.074,0.379l0.714,0.603l-0.413,0.489l-2.188-1.844l0.414-0.49l0.968,0.814l0.005-0.006
		c-0.043-0.12-0.078-0.238-0.112-0.355l-0.311-1.105l0.515-0.61L31.768,33L33.662,33.3L33.662,33.3z M30.095,34.416
		c0.301,0.198,0.369,0.552,0.308,0.807l0.011,0.007c0.176-0.123,0.393-0.112,0.653-0.028c0.323,0.104,0.682,0.238,0.803,0.252
		l-0.363,0.554c-0.095-0.012-0.325-0.076-0.665-0.203c-0.346-0.131-0.491-0.079-0.642,0.142l-0.104,0.162l0.94,0.616l-0.352,0.536
		l-2.356-1.546c0.082-0.195,0.229-0.465,0.42-0.755c0.232-0.354,0.449-0.568,0.699-0.648C29.658,34.24,29.875,34.271,30.095,34.416
		L30.095,34.416z M27.464,37.216l2.961,0.461l-0.307,0.624l-0.756-0.125l-0.364,0.739l0.571,0.502l-0.294,0.603l-2.183-2.046
		L27.464,37.216L27.464,37.216z M27.39,39.406c0.268,0.095,0.461,0.26,0.55,0.477c0.118,0.275,0.1,0.616-0.029,0.976
		c-0.029,0.081-0.059,0.149-0.091,0.201l0.966,0.347L28.57,42.01l-2.657-0.951c0.036-0.2,0.106-0.472,0.24-0.844
		c0.134-0.375,0.302-0.616,0.514-0.744C26.863,39.343,27.126,39.312,27.39,39.406L27.39,39.406z M25.368,42.987l2.795,0.603
		l-0.135,0.63l-2.796-0.601L25.368,42.987L25.368,42.987z M25.192,43.076l-0.109,0.506l-0.436-0.459l0.143-0.663L25.192,43.076
		L25.192,43.076z M24.73,49.482c-0.012-0.547,0.082-0.907,0.279-1.181c0.214-0.303,0.558-0.498,1.067-0.509
		c0.547-0.011,0.93,0.18,1.169,0.446c0.257,0.296,0.386,0.756,0.398,1.317c0.008,0.334-0.009,0.576-0.027,0.734l-2.804,0.062
		C24.765,50.115,24.738,49.806,24.73,49.482L24.73,49.482z M26.989,45.322c-0.38-0.005-0.766-0.036-1.194-0.084l-0.827-0.096
		l0.067-0.59l2.842,0.325l-0.078,0.674l-1.165,0.482c-0.328,0.133-0.711,0.283-1.06,0.378l-0.002,0.017
		c0.381,0.022,0.783,0.061,1.248,0.112l0.855,0.098l-0.067,0.59l-2.842-0.323l0.087-0.751l1.108-0.471
		c0.318-0.134,0.691-0.258,1.027-0.353L26.989,45.322L26.989,45.322z M25.015,52.631c-0.14-0.866,0.432-1.443,1.209-1.572
		c0.932-0.15,1.578,0.316,1.712,1.137l0.001,0.004c0.135,0.834-0.416,1.432-1.22,1.564C25.87,53.9,25.149,53.457,25.015,52.631
		L25.015,52.631z M25.757,54.96c0.08-0.208,0.243-0.354,0.496-0.428c0.346-0.104,0.659,0.072,0.816,0.282l0.013-0.004
		c0.02-0.214,0.167-0.374,0.398-0.518c0.287-0.182,0.62-0.368,0.709-0.453l0.191,0.634c-0.07,0.064-0.269,0.2-0.583,0.378
		c-0.322,0.182-0.376,0.327-0.304,0.583l0.055,0.183l1.077-0.322l0.185,0.615l-2.699,0.809c-0.097-0.189-0.209-0.475-0.309-0.807
		C25.682,55.504,25.657,55.201,25.757,54.96L25.757,54.96z M25.962,58.334l0.687,0.262l0.21,0.471l-0.622-0.113L25.962,58.334
		L25.962,58.334z M27.049,59.123l-0.341-0.771l2.255-1.975l0.282,0.638l-0.583,0.499l0.333,0.752l0.752-0.114l0.271,0.613
		L27.049,59.123L27.049,59.123z M27.805,60.666l2.438-1.497l0.355,0.58l-0.62,1.098c-0.176,0.306-0.387,0.659-0.602,0.952
		l0.009,0.014c0.314-0.218,0.654-0.436,1.052-0.679l0.733-0.454l0.312,0.508l-2.438,1.496l-0.396-0.644l0.583-1.054
		c0.168-0.305,0.386-0.63,0.591-0.911l-0.004-0.009c-0.302,0.231-0.625,0.445-0.994,0.67l-0.709,0.437L27.805,60.666L27.805,60.666z
		 M33.052,67.528l1.622-4.25c-3.679-3.787-5.947-8.952-5.947-14.648c0-11.618,9.418-21.038,21.038-21.038
		c11.618,0,21.038,9.419,21.038,21.038c0,11.616-9.42,21.035-21.038,21.035c-2.91,0-6.057-0.688-8.576-1.758L40.995,43.86
		l-0.133-0.729l-0.133,0.729l-0.793,23.569L33.052,67.528L33.052,67.528z M38.935,72.115l0.405-0.559
		c0.156,0.185,0.432,0.42,0.754,0.551c0.348,0.142,0.591,0.071,0.68-0.147c0.085-0.207-0.027-0.393-0.373-0.693
		c-0.476-0.427-0.719-0.884-0.521-1.37c0.233-0.572,0.89-0.809,1.673-0.488c0.385,0.153,0.628,0.341,0.788,0.515l-0.416,0.536
		c-0.102-0.116-0.308-0.309-0.63-0.439c-0.328-0.134-0.55-0.044-0.62,0.124c-0.085,0.215,0.059,0.383,0.431,0.726
		c0.503,0.457,0.651,0.878,0.46,1.349c-0.229,0.562-0.851,0.865-1.769,0.493C39.417,72.555,39.081,72.297,38.935,72.115
		L38.935,72.115z M41.779,69.342l-0.567-0.229l-0.251-0.817l0.53,0.216l0.123,0.409l0.01,0.005l0.374-0.208l0.526,0.214
		L41.779,69.342L41.779,69.342z M42.486,71.977l0.484-1.957l0.79,0.194l-0.497,2.017c-0.151,0.608,0.008,0.975,0.408,1.072
		c0.417,0.103,0.719-0.133,0.873-0.756l0.497-2.015l0.792,0.195l-0.486,1.967c-0.266,1.085-0.939,1.464-1.856,1.238
		C42.604,73.713,42.209,73.091,42.486,71.977L42.486,71.977z M46.011,74.444l0.474-3.593l1.084,0.073l0.273,1.229
		c0.089,0.425,0.166,0.883,0.218,1.311h0.021c0.125-0.411,0.281-0.879,0.43-1.27l0.461-1.174l1.071,0.071l-0.052,3.619l-0.792-0.055
		l0.035-1.383c0.013-0.436,0.031-0.952,0.067-1.482l-0.009-0.002c-0.149,0.452-0.334,0.955-0.503,1.37l-0.534,1.376l-0.636-0.042
		l-0.292-1.422c-0.087-0.432-0.172-0.948-0.23-1.43l-0.01-0.002c-0.05,0.486-0.108,1.041-0.161,1.489l-0.162,1.364L46.011,74.444
		L46.011,74.444z M50.793,74.669l0.726-3.709l1.062-0.11l1.495,3.479L53.2,74.42l-0.372-0.895l-1.035,0.107l-0.156,0.95
		L50.793,74.669L50.793,74.669z M55.49,74.005l-1.985-3.235l0.869-0.212l0.793,1.38c0.221,0.391,0.428,0.761,0.618,1.178
		l0.016-0.004c-0.014-0.444-0.008-0.888,0.014-1.317l0.081-1.609l0.844-0.207l-0.322,3.802L55.49,74.005L55.49,74.005z
		 M57.548,69.639l0.991-0.393l2.381,2.945l-0.818,0.324L59.5,71.755l-0.967,0.385l0.108,0.953l-0.786,0.314L57.548,69.639
		L57.548,69.639z M68.558,60.399l0.335-0.548l1.979,1.205l0.401-0.659l0.465,0.282l-1.145,1.877l-0.463-0.282l0.405-0.667
		L68.558,60.399L68.558,60.399z M71.993,59.964l-0.407-0.352c0.098-0.077,0.258-0.231,0.376-0.48
		c0.119-0.254,0.056-0.432-0.072-0.495c-0.166-0.074-0.306,0.031-0.59,0.311c-0.385,0.378-0.722,0.478-1.088,0.308
		c-0.434-0.204-0.646-0.71-0.313-1.42c0.14-0.296,0.355-0.55,0.506-0.656l0.423,0.344c-0.151,0.114-0.349,0.323-0.466,0.572
		c-0.124,0.271-0.08,0.463,0.088,0.542c0.162,0.077,0.312-0.002,0.565-0.264c0.355-0.357,0.728-0.53,1.104-0.354
		c0.441,0.208,0.601,0.736,0.316,1.343C72.295,59.657,72.139,59.843,71.993,59.964L71.993,59.964z M73.435,56.825l-2.996-0.051
		l0.219-0.663l0.767,0.021l0.258-0.779l-0.636-0.419l0.209-0.639l2.443,1.727L73.435,56.825L73.435,56.825z M74.347,53.447
		l-2.271-0.461L71.848,54.1l-0.531-0.108l0.354-1.745l2.804,0.569L74.347,53.447L74.347,53.447z M73.453,48.997
		c-0.944,0.039-1.53-0.502-1.563-1.337v-0.004c-0.035-0.844,0.586-1.371,1.401-1.403c0.854-0.036,1.52,0.489,1.553,1.329
		C74.877,48.46,74.24,48.965,73.453,48.997L73.453,48.997z M74.517,51.506c-0.122,0.188-0.33,0.31-0.592,0.286
		c-0.249-0.021-0.468-0.189-0.563-0.518h-0.009c-0.114,0.318-0.384,0.534-0.752,0.504c-0.262-0.024-0.456-0.161-0.577-0.351
		c-0.146-0.22-0.208-0.575-0.159-1.143c0.027-0.317,0.071-0.552,0.104-0.694l2.793,0.25c0.019,0.172,0.019,0.513-0.01,0.839
		C74.717,51.072,74.658,51.311,74.517,51.506L74.517,51.506z M76.774,48.612c0-14.912-12.089-27-27-27
		c-14.912,0-27.001,12.088-27.001,27c0,14.909,12.089,26.996,27.001,26.996C64.686,75.608,76.774,63.521,76.774,48.612
		L76.774,48.612z"/>
</g>
<rect x="37.582" y="31.582" fill="none" width="56.836" height="56.836"/>
</svg>
