<?xml version="1.0" encoding="utf-8"?>
<!-- Generator: Adobe Illustrator 16.0.0, SVG Export Plug-In . SVG Version: 6.00 Build 0)  -->
<!DOCTYPE svg PUBLIC "-//W3C//DTD SVG 1.1//EN" "http://www.w3.org/Graphics/SVG/1.1/DTD/svg11.dtd">
<svg version="1.1" id="Layer_2" xmlns="http://www.w3.org/2000/svg" xmlns:xlink="http://www.w3.org/1999/xlink" x="0px" y="0px"
	 width="100px" height="100px" viewBox="0 0 100 100" enable-background="new 0 0 100 100" xml:space="preserve">
<polygon fill="#FFFFFF" points="48.134,70.02 48.7,70.074 46.547,73.872 46.406,73.845 45.188,69.651 45.754,69.708 46.604,72.654 
	"/>
<path fill="#FFFFFF" d="M51.562,68.801l-0.566,0.907h-0.34l0.34-0.879L51.562,68.801L51.562,68.801z M52.101,69.906l0.682-0.028
	l-1.36,1.982l0.144,2.096l-0.596,0.058l-0.113-2.125l-1.586-1.783l0.681-0.058l1.161,1.332L52.101,69.906z"/>
<path fill="#FFFFFF" d="M57.938,71.747l0.171,0.595c-0.369,0.34-0.794,0.594-1.332,0.735c-0.424,0.112-0.822,0.112-1.162,0.027
	c-0.343-0.084-0.652-0.254-0.908-0.507c-0.253-0.256-0.453-0.567-0.538-0.907c-0.139-0.566-0.084-1.104,0.228-1.588
	c0.284-0.508,0.738-0.819,1.303-0.99c0.426-0.114,0.877-0.114,1.444-0.056l0.171,0.594c-0.538-0.142-0.99-0.142-1.444-0.027
	c-0.425,0.141-0.766,0.367-0.963,0.734c-0.228,0.341-0.285,0.736-0.171,1.162c0.113,0.427,0.369,0.738,0.735,0.937
	c0.34,0.169,0.769,0.227,1.192,0.085C57.144,72.427,57.568,72.145,57.938,71.747z"/>
<g>
	<path fill="#005322" d="M73.139,50.562l0.021-0.22l-0.806-0.073c-0.019,0.064-0.022,0.139-0.032,0.249
		c-0.026,0.291,0.065,0.559,0.363,0.586C72.975,51.132,73.111,50.882,73.139,50.562L73.139,50.562z M73.906,51.143
		c0.213,0.021,0.345-0.135,0.369-0.426c0.016-0.144,0.014-0.224,0.005-0.277l-0.66-0.06l-0.019,0.214
		C73.57,50.936,73.693,51.125,73.906,51.143L73.906,51.143z M74.329,47.589c-0.019-0.443-0.462-0.677-0.993-0.655
		c-0.54,0.022-0.948,0.297-0.931,0.729v0.004c0.017,0.438,0.438,0.671,0.997,0.647C73.917,48.295,74.348,48.036,74.329,47.589
		L74.329,47.589z M72.11,55.592l-0.197,0.602l0.633,0.021c0.175,0.008,0.396,0.028,0.568,0.039l0.002-0.011
		c-0.147-0.093-0.34-0.202-0.484-0.295L72.11,55.592L72.11,55.592z M58.669,70.603c-0.134-0.18-0.296-0.41-0.422-0.583l-0.016,0.006
		c0.036,0.218,0.081,0.494,0.109,0.709l0.078,0.793l0.742-0.295L58.669,70.603L58.669,70.603z M51.985,72.228l-0.141,0.787
		l0.796-0.087l-0.304-0.737c-0.08-0.208-0.173-0.472-0.247-0.675l-0.017,0.002C52.046,71.736,52.016,72.015,51.985,72.228
		L51.985,72.228z M59.36,49.664l-0.372,17.17c0.315-0.159,0.625-0.326,0.93-0.503l-0.37-16.795l-0.096-0.346L59.36,49.664
		L59.36,49.664z M54.345,67.158l-4.672,0.15l0.004,0.418l0.015,0.113l0.931,0.464l-0.931,0.332v0.391c0.027,0,0.056,0,0.083,0
		c1.421,0,2.808-0.146,4.147-0.422L54.345,67.158L54.345,67.158z M56.997,66.834l-7.349-2.588l0.02,2.1l7.28,0.5L56.997,66.834
		L56.997,66.834z M56.142,63.954l-6.511-2.093l0.012,1.377l5.257,2.001l0.309-1.233L56.142,63.954L56.142,63.954z M51.683,49.095
		l-1.728-0.031v-1.07L51.683,49.095L51.683,49.095z M49.985,49.818l2.988,1.732l-2.988,0.219V49.818L49.985,49.818z M52.501,55.259
		l-2.422,0.221v-0.976L52.501,55.259L52.501,55.259z M52.062,36.893l-2.629,0.738l0.067,8.089l2.121,1.519l-2.11-0.026l0.044,5.292
		l1.907,1.244l-1.897,0.054l0.019,2.331l2.318,1.299l-2.309,0.027l0.015,1.859l2.546,1.257l-2.534,0.239v0.07l5.856,2.275
		l0.925-3.466l-1.163-0.188l2.138-6.889l-0.755-0.096l2.548-7.015l-0.691-0.596l1.321-2.046l1.889,4.594l-0.785,0.314l2.325,5.345
		l-0.973,0.032l2.892,7.235l-1.036,0.221l0.444,2.088c3.492-3.664,5.638-8.626,5.638-14.084c0-1.15-0.096-2.278-0.281-3.378
		c-3.462-3.449-7.778-6.048-9.168-6.17c-0.913-0.079-4.078,1.167-5.309,1.1c-1.229-0.062-2.588-0.905-4.464-1.034
		c-0.225-0.016-0.517,0.016-0.86,0.085l0.019-1.107L52.062,36.893L52.062,36.893z M51.703,34.127l-2.431-0.286l0.024,1.597
		l0.62,0.286l-0.047-1.359L51.703,34.127L51.703,34.127z M49.773,33.101l-0.69-4.148l0.093,3.887L49.773,33.101L49.773,33.101z
		 M45.911,62.603l1.463,2.378l0.063-1.92L45.911,62.603L45.911,62.603z M47.298,67.444h-5.426c1.69,0.707,3.496,1.192,5.379,1.426
		L47.298,67.444L47.298,67.444z M38.854,40.062l2.432-7.342l1.549,4.451l-0.517,0.432l2.001,4.912l-0.995,0.464l2.455,6.367h-1.459
		l2.85,7.289l-1.391-0.065l1.691,5.292l0.341-10.755l-1.478-0.499l1.321-0.567l-1.952-0.473l2.168-0.396l0.335-10.6l-1.88,0.609
		l1.724,0.634c-1.204,0.421-2.341,0.921-3.494,1.408l-1.625-3.25l0.69-0.625l-2.359-5.128l-3.456,7.879L38.854,40.062L38.854,40.062
		z M29.355,48.612c0,5.421,2.117,10.354,5.569,14.009l0.748-1.993l-1.829,0.182l2.856-7.935l-1.661-0.087l3.315-7.425l-1.127,0.133
		l2.323-5.438l-0.634,0.006l-1.858,3.908c-2.896,1.017-6.223,2.218-7.609,2.707C29.386,47.317,29.355,47.961,29.355,48.612
		L29.355,48.612z M27.777,58.209c-0.135,0.11-0.312,0.243-0.448,0.349l0.006,0.014c0.17-0.033,0.386-0.079,0.555-0.107l0.625-0.087
		l-0.255-0.579L27.777,58.209L27.777,58.209z M26.488,55.135c-0.248,0.071-0.327,0.284-0.242,0.569
		c0.044,0.149,0.078,0.233,0.104,0.272l0.752-0.226L27.03,55.51C26.937,55.2,26.726,55.063,26.488,55.135L26.488,55.135z
		 M25.524,52.56c0.07,0.438,0.539,0.619,1.066,0.531c0.533-0.087,0.905-0.409,0.836-0.837V52.25c-0.071-0.429-0.518-0.61-1.069-0.52
		C25.849,51.812,25.451,52.121,25.524,52.56L25.524,52.56z M25.226,49.402c0.003,0.142,0.017,0.238,0.031,0.294l1.871-0.042
		c0.012-0.057,0.011-0.149,0.009-0.224c-0.009-0.59-0.341-0.968-1.023-0.954C25.518,48.489,25.212,48.844,25.226,49.402
		L25.226,49.402z M27.193,40.017c-0.247-0.088-0.456,0.03-0.567,0.337c-0.043,0.12-0.065,0.207-0.068,0.255l0.795,0.285
		c0.029-0.048,0.055-0.106,0.087-0.198C27.559,40.373,27.465,40.114,27.193,40.017L27.193,40.017z M28.605,38.618l0.278-0.567
		l-0.622-0.108c-0.173-0.033-0.39-0.084-0.558-0.117l-0.006,0.012c0.135,0.109,0.309,0.246,0.439,0.358L28.605,38.618L28.605,38.618
		z M29.847,35.637c0.176-0.269,0.147-0.517-0.063-0.654c-0.216-0.141-0.428-0.067-0.591,0.182c-0.085,0.131-0.128,0.21-0.143,0.256
		l0.656,0.431L29.847,35.637L29.847,35.637z M44.161,25.065c-0.062-0.25-0.27-0.338-0.556-0.264
		c-0.152,0.039-0.237,0.069-0.278,0.093l0.195,0.76l0.245-0.064C44.077,25.513,44.223,25.31,44.161,25.065L44.161,25.065z
		 M46.483,25.426l0.626-0.078l-0.251-0.58c-0.066-0.163-0.146-0.372-0.208-0.531l-0.013,0.002c-0.017,0.173-0.036,0.395-0.058,0.564
		L46.483,25.426L46.483,25.426z M58.878,26.377c0.021-0.175,0.055-0.395,0.076-0.563l-0.013-0.004
		c-0.097,0.143-0.222,0.327-0.323,0.463l-0.392,0.496l0.588,0.237L58.878,26.377L58.878,26.377z M65.217,29.98
		c0.163-0.203,0.109-0.419-0.124-0.606c-0.122-0.097-0.197-0.146-0.241-0.166l-0.492,0.613l0.199,0.157
		C64.812,30.181,65.062,30.175,65.217,29.98L65.217,29.98z M66.322,32.048l0.439,0.453l0.312-0.549
		c0.09-0.152,0.209-0.339,0.3-0.485l-0.011-0.009c-0.149,0.091-0.335,0.208-0.484,0.293L66.322,32.048L66.322,32.048z
		 M73.224,43.434c0.154-0.082,0.355-0.178,0.507-0.256l-0.003-0.012c-0.172,0-0.394,0.002-0.565-0.004l-0.629-0.038l0.137,0.617
		L73.224,43.434L73.224,43.434z M74.882,43.006l0.147,0.661l-0.622-0.39l-0.114-0.506L74.882,43.006L74.882,43.006z M74.117,42.679
		l0.183,0.825l-2.597,1.493l-0.153-0.68l0.67-0.374l-0.178-0.804l-0.762-0.036l-0.147-0.653L74.117,42.679L74.117,42.679z
		 M73.678,41.017l-2.685,0.991l-0.234-0.637l0.821-0.956c0.231-0.267,0.508-0.572,0.773-0.817l-0.004-0.014
		c-0.352,0.152-0.728,0.299-1.164,0.461l-0.81,0.3l-0.203-0.556l2.682-0.993l0.264,0.708l-0.778,0.921
		c-0.224,0.264-0.5,0.542-0.758,0.778l0.005,0.009c0.341-0.167,0.699-0.313,1.103-0.463l0.781-0.288L73.678,41.017L73.678,41.017z
		 M72.418,37.828l-2.521,1.351l-0.319-0.598l0.682-1.061c0.194-0.297,0.426-0.638,0.658-0.916l-0.009-0.015
		c-0.327,0.198-0.68,0.396-1.09,0.617l-0.759,0.406l-0.28-0.524l2.521-1.35l0.355,0.664l-0.642,1.02
		c-0.187,0.292-0.422,0.606-0.646,0.874l0.005,0.007c0.315-0.212,0.651-0.405,1.031-0.61l0.733-0.393L72.418,37.828L72.418,37.828z
		 M70.777,34.949l-2.378,1.591l-0.359-0.536l2.378-1.591L70.777,34.949L70.777,34.949z M69.926,33.716l-1.427,1.109
		c-0.644,0.5-1.108,0.367-1.49-0.124c-0.097-0.122-0.194-0.291-0.24-0.417l0.456-0.264c0.032,0.089,0.084,0.193,0.164,0.292
		c0.166,0.214,0.368,0.273,0.716,0.002l1.426-1.107L69.926,33.716L69.926,33.716z M68.024,31.448l-1.431,2.631l-0.484-0.499
		l0.373-0.67l-0.573-0.591l-0.668,0.368l-0.466-0.481l2.662-1.364L68.024,31.448L68.024,31.448z M65.918,29.71
		c0.053,0.214,0,0.428-0.164,0.633c-0.227,0.282-0.584,0.314-0.834,0.23l-0.006,0.011c0.104,0.187,0.073,0.402-0.036,0.653
		c-0.132,0.311-0.3,0.655-0.325,0.775l-0.518-0.414c0.021-0.091,0.107-0.317,0.264-0.642c0.161-0.332,0.124-0.481-0.081-0.651
		l-0.149-0.121l-0.702,0.878l-0.503-0.4l1.765-2.2c0.187,0.101,0.44,0.272,0.713,0.489C65.67,29.218,65.862,29.452,65.918,29.71
		L65.918,29.71z M64.037,27.974l-1.446,0.536l-0.021,1.919l-0.639-0.396l0.051-1.422L61.62,28.74l-0.494,0.794l-0.544-0.338
		l1.509-2.431l0.543,0.338l-0.665,1.074l0.006,0.004c0.112-0.06,0.226-0.111,0.336-0.162l1.048-0.468L64.037,27.974L64.037,27.974z
		 M60.094,25.025l-0.675,0.288l-0.48-0.194l0.525-0.35L60.094,25.025L60.094,25.025z M58.764,25.214l0.781,0.318l-0.25,2.986
		l-0.643-0.263l0.073-0.762l-0.766-0.309l-0.461,0.604l-0.621-0.251L58.764,25.214L58.764,25.214z M57.146,24.63l-0.708,2.771
		l-0.659-0.169l-0.317-1.22c-0.088-0.342-0.185-0.743-0.231-1.101l-0.018-0.005c-0.075,0.376-0.166,0.769-0.28,1.221l-0.214,0.835
		l-0.576-0.148l0.708-2.771l0.732,0.189l0.315,1.162c0.092,0.334,0.163,0.72,0.21,1.064l0.008,0.002
		c0.057-0.375,0.14-0.752,0.248-1.171l0.205-0.807L57.146,24.63L57.146,24.63z M53.906,23.88l-0.068,0.527l-1.106-0.144l-0.075,0.59
		l1.044,0.133l-0.067,0.523l-1.044-0.134l-0.086,0.673l1.165,0.151l-0.067,0.526l-1.805-0.232l0.365-2.837L53.906,23.88
		L53.906,23.88z M53.765,23.181l-0.488,0.463l-0.479-0.062l-0.358-0.572l0.451,0.058l0.177,0.288l0.009,0.001l0.242-0.235
		L53.765,23.181L53.765,23.181z M51.174,23.578l-0.046,2.86l-0.678-0.012l-0.595-1.112c-0.164-0.312-0.35-0.68-0.48-1.019h-0.017
		c0.017,0.383,0.017,0.786,0.011,1.252l-0.015,0.863l-0.594-0.01l0.047-2.86l0.755,0.013l0.579,1.058
		c0.163,0.304,0.323,0.663,0.449,0.989h0.012c-0.035-0.379-0.042-0.766-0.033-1.199l0.013-0.831L51.174,23.578L51.174,23.578z
		 M48.268,26.431l-0.69,0.087l-0.312-0.701l-0.816,0.102l-0.107,0.754l-0.665,0.084l0.509-2.947l0.84-0.105L48.268,26.431
		L48.268,26.431z M47.26,22.994l-0.451,0.583l-0.511,0.063l0.287-0.562L47.26,22.994L47.26,22.994z M45.388,26.818l-0.64,0.166
		c-0.062-0.071-0.189-0.275-0.356-0.597c-0.168-0.329-0.309-0.389-0.57-0.327l-0.185,0.048l0.279,1.089l-0.62,0.16l-0.703-2.729
		c0.192-0.088,0.482-0.189,0.819-0.277c0.411-0.104,0.714-0.117,0.954-0.007c0.202,0.088,0.341,0.258,0.408,0.512
		c0.09,0.351-0.099,0.657-0.316,0.803l0.005,0.012c0.212,0.029,0.366,0.182,0.501,0.419C45.132,26.386,45.307,26.726,45.388,26.818
		L45.388,26.818z M41.592,24.897l1.06,2.656l-0.599,0.239l-0.442-1.109l-0.99,0.396l0.443,1.107l-0.6,0.239l-1.06-2.655l0.599-0.24
		l0.409,1.025l0.99-0.395l-0.409-1.024L41.592,24.897L41.592,24.897z M39.178,28.539c0.175-0.097,0.342-0.233,0.431-0.345
		l0.329,0.399c-0.074,0.104-0.277,0.294-0.578,0.462c-0.862,0.481-1.61,0.187-2.006-0.524c-0.472-0.848-0.126-1.657,0.629-2.079
		c0.294-0.162,0.55-0.228,0.676-0.235l0.13,0.514c-0.138,0.014-0.32,0.059-0.525,0.172c-0.447,0.247-0.645,0.713-0.333,1.269
		C38.206,28.667,38.679,28.818,39.178,28.539L39.178,28.539z M35.344,31.036l-0.002,0.001c-0.232,0.192-0.573,0.165-0.772-0.077
		c-0.203-0.24-0.162-0.587,0.072-0.78c0.237-0.194,0.58-0.163,0.78,0.078C35.617,30.497,35.584,30.838,35.344,31.036L35.344,31.036z
		 M33.662,33.301l-0.483,0.573l-1.397-0.257l0.074,0.379l0.713,0.603l-0.413,0.489l-2.188-1.844l0.414-0.489l0.968,0.813
		l0.006-0.006c-0.043-0.119-0.079-0.238-0.112-0.355L30.932,32.1l0.515-0.61l0.321,1.508L33.662,33.301L33.662,33.301z
		 M30.096,34.417c0.301,0.197,0.37,0.552,0.308,0.808l0.011,0.006c0.176-0.124,0.394-0.112,0.653-0.028
		c0.323,0.103,0.682,0.238,0.803,0.251l-0.363,0.554c-0.094-0.011-0.325-0.076-0.664-0.202c-0.346-0.131-0.49-0.08-0.642,0.141
		l-0.104,0.162l0.941,0.615l-0.352,0.536l-2.355-1.545c0.081-0.195,0.228-0.464,0.42-0.755c0.232-0.355,0.449-0.568,0.699-0.648
		C29.657,34.24,29.875,34.271,30.096,34.417L30.096,34.417z M27.464,37.216l2.961,0.462l-0.308,0.623l-0.755-0.125l-0.365,0.74
		l0.571,0.502l-0.294,0.603l-2.183-2.045L27.464,37.216L27.464,37.216z M27.39,39.406c0.267,0.095,0.461,0.259,0.55,0.477
		c0.118,0.276,0.1,0.617-0.028,0.977c-0.028,0.081-0.059,0.15-0.09,0.202l0.966,0.347l-0.216,0.603l-2.656-0.951
		c0.036-0.201,0.106-0.472,0.24-0.843c0.134-0.375,0.303-0.617,0.513-0.744C26.862,39.344,27.126,39.312,27.39,39.406L27.39,39.406z
		 M25.368,42.987l2.795,0.603l-0.135,0.63l-2.795-0.601L25.368,42.987L25.368,42.987z M25.191,43.076l-0.108,0.505l-0.437-0.46
		l0.143-0.663L25.191,43.076L25.191,43.076z M24.73,49.483c-0.013-0.547,0.082-0.906,0.28-1.182
		c0.214-0.302,0.557-0.498,1.067-0.508c0.547-0.011,0.929,0.179,1.168,0.445c0.256,0.297,0.385,0.757,0.398,1.317
		c0.007,0.335-0.009,0.576-0.026,0.734l-2.804,0.062C24.766,50.115,24.738,49.806,24.73,49.483L24.73,49.483z M26.989,45.322
		c-0.38-0.005-0.766-0.036-1.194-0.084l-0.826-0.095l0.066-0.59l2.843,0.325L27.8,45.551l-1.164,0.482
		c-0.329,0.133-0.711,0.283-1.06,0.378l-0.002,0.017c0.381,0.022,0.783,0.061,1.247,0.112l0.855,0.098l-0.066,0.59l-2.842-0.323
		l0.087-0.751l1.107-0.472c0.319-0.134,0.692-0.258,1.027-0.353V45.322L26.989,45.322z M25.014,52.63
		c-0.14-0.864,0.432-1.442,1.209-1.571c0.932-0.149,1.579,0.316,1.712,1.137l0.001,0.004c0.135,0.834-0.416,1.431-1.22,1.564
		C25.871,53.9,25.149,53.457,25.014,52.63L25.014,52.63z M25.758,54.96c0.08-0.208,0.243-0.354,0.496-0.428
		c0.345-0.104,0.66,0.072,0.816,0.284l0.013-0.005c0.021-0.215,0.167-0.375,0.398-0.518c0.287-0.182,0.621-0.367,0.71-0.454
		l0.19,0.635c-0.07,0.065-0.268,0.2-0.583,0.377c-0.322,0.182-0.375,0.328-0.304,0.583l0.055,0.184l1.078-0.323l0.185,0.616
		l-2.699,0.809c-0.097-0.189-0.209-0.474-0.31-0.807C25.682,55.506,25.657,55.2,25.758,54.96L25.758,54.96z M25.962,58.334
		l0.687,0.262l0.21,0.47l-0.622-0.112L25.962,58.334L25.962,58.334z M27.05,59.123l-0.341-0.771l2.256-1.976l0.282,0.638l-0.583,0.5
		l0.332,0.752l0.753-0.114l0.271,0.615L27.05,59.123L27.05,59.123z M27.804,60.665l2.438-1.496l0.354,0.58l-0.619,1.098
		c-0.177,0.306-0.387,0.658-0.602,0.95l0.008,0.016c0.314-0.219,0.655-0.436,1.053-0.68l0.733-0.454l0.312,0.506l-2.439,1.497
		l-0.396-0.643l0.583-1.054c0.168-0.305,0.385-0.631,0.592-0.912l-0.005-0.008c-0.303,0.231-0.625,0.446-0.993,0.67l-0.709,0.437
		L27.804,60.665L27.804,60.665z M33.052,67.529l1.623-4.251c-3.679-3.787-5.947-8.952-5.947-14.648
		c0-11.618,9.418-21.038,21.038-21.038c11.618,0,21.038,9.419,21.038,21.038c0,11.616-9.42,21.036-21.038,21.036
		c-2.911,0-6.057-0.688-8.576-1.758L40.995,43.86l-0.133-0.729l-0.133,0.729l-0.792,23.57L33.052,67.529L33.052,67.529z
		 M38.935,72.116l0.405-0.56c0.156,0.186,0.433,0.42,0.755,0.55c0.348,0.142,0.591,0.071,0.681-0.147
		c0.085-0.206-0.026-0.392-0.373-0.693c-0.477-0.427-0.719-0.884-0.522-1.371c0.233-0.57,0.89-0.808,1.673-0.488
		c0.385,0.155,0.628,0.343,0.789,0.516l-0.416,0.536c-0.101-0.115-0.309-0.31-0.63-0.438c-0.329-0.135-0.55-0.044-0.62,0.123
		c-0.085,0.214,0.059,0.382,0.431,0.727c0.503,0.457,0.651,0.878,0.46,1.347c-0.229,0.562-0.851,0.865-1.768,0.493
		C39.416,72.555,39.081,72.297,38.935,72.116L38.935,72.116z M41.78,69.342l-0.568-0.229l-0.251-0.818l0.53,0.217l0.123,0.41
		l0.01,0.004l0.374-0.207l0.526,0.214L41.78,69.342L41.78,69.342z M42.486,71.977l0.484-1.957l0.79,0.194l-0.498,2.018
		c-0.152,0.607,0.008,0.975,0.408,1.072c0.417,0.103,0.718-0.132,0.873-0.756l0.497-2.015l0.792,0.194l-0.487,1.967
		c-0.266,1.086-0.94,1.464-1.856,1.239C42.604,73.714,42.209,73.091,42.486,71.977L42.486,71.977z M46.011,74.444l0.474-3.592
		l1.085,0.072l0.272,1.229c0.088,0.426,0.166,0.884,0.218,1.312h0.021c0.125-0.411,0.28-0.88,0.431-1.27l0.461-1.174l1.071,0.071
		l-0.052,3.619l-0.792-0.054l0.035-1.385c0.012-0.435,0.032-0.952,0.066-1.482l-0.008-0.002c-0.15,0.453-0.335,0.955-0.504,1.37
		l-0.534,1.376l-0.636-0.041l-0.292-1.422c-0.087-0.433-0.172-0.948-0.229-1.429l-0.011-0.002c-0.049,0.486-0.108,1.04-0.16,1.488
		l-0.162,1.364L46.011,74.444L46.011,74.444z M50.792,74.669l0.727-3.709l1.062-0.109l1.495,3.477L53.2,74.42l-0.372-0.895
		l-1.034,0.107l-0.156,0.95L50.792,74.669L50.792,74.669z M55.49,74.005l-1.985-3.235l0.868-0.213l0.792,1.382
		c0.222,0.391,0.428,0.761,0.619,1.178l0.015-0.004c-0.012-0.444-0.006-0.887,0.016-1.317l0.081-1.609l0.844-0.206l-0.323,3.802
		L55.49,74.005L55.49,74.005z M57.547,69.639l0.992-0.393l2.38,2.944l-0.816,0.325L59.5,71.755l-0.966,0.384l0.108,0.954
		l-0.786,0.313L57.547,69.639L57.547,69.639z M68.557,60.399l0.336-0.55l1.978,1.206l0.401-0.658l0.465,0.282l-1.145,1.877
		l-0.462-0.283l0.403-0.667L68.557,60.399L68.557,60.399z M71.993,59.963l-0.408-0.351c0.099-0.078,0.258-0.231,0.377-0.481
		c0.118-0.252,0.057-0.432-0.074-0.494c-0.165-0.073-0.306,0.031-0.589,0.31c-0.385,0.378-0.723,0.479-1.087,0.308
		c-0.436-0.203-0.647-0.71-0.314-1.419c0.14-0.297,0.355-0.551,0.506-0.658l0.423,0.345c-0.151,0.114-0.349,0.323-0.466,0.573
		c-0.124,0.271-0.079,0.462,0.089,0.542c0.161,0.076,0.312-0.002,0.565-0.264c0.354-0.359,0.726-0.53,1.102-0.354
		c0.442,0.208,0.603,0.735,0.317,1.343C72.294,59.657,72.139,59.843,71.993,59.963L71.993,59.963z M73.434,56.825l-2.994-0.05
		l0.218-0.664l0.767,0.021l0.258-0.779l-0.637-0.419l0.209-0.637l2.441,1.727L73.434,56.825L73.434,56.825z M74.348,53.446
		l-2.271-0.461L71.849,54.1l-0.532-0.109l0.354-1.744l2.803,0.568L74.348,53.446L74.348,53.446z M73.453,48.998
		c-0.944,0.039-1.53-0.502-1.563-1.337v-0.004c-0.034-0.843,0.587-1.371,1.402-1.403c0.854-0.036,1.519,0.489,1.552,1.329
		C74.878,48.46,74.24,48.964,73.453,48.998L73.453,48.998z M74.517,51.505c-0.121,0.189-0.33,0.311-0.592,0.287
		c-0.249-0.022-0.468-0.189-0.563-0.519h-0.01c-0.113,0.319-0.383,0.536-0.752,0.505c-0.262-0.023-0.456-0.161-0.577-0.351
		c-0.146-0.221-0.208-0.576-0.158-1.144c0.025-0.316,0.071-0.552,0.104-0.693l2.793,0.25c0.019,0.172,0.019,0.513-0.011,0.838
		C74.717,51.072,74.659,51.311,74.517,51.505L74.517,51.505z M76.774,48.612c0-14.911-12.087-27-27-27c-14.911,0-27,12.088-27,27
		c0,14.91,12.089,26.997,27,26.997C64.686,75.608,76.774,63.521,76.774,48.612L76.774,48.612z"/>
</g>
</svg>
