<?xml version="1.0" encoding="utf-8"?>
<!-- Generator: Adobe Illustrator 16.0.0, SVG Export Plug-In . SVG Version: 6.00 Build 0)  -->
<!DOCTYPE svg PUBLIC "-//W3C//DTD SVG 1.1//EN" "http://www.w3.org/Graphics/SVG/1.1/DTD/svg11.dtd">
<svg version="1.1" id="Layer_2" xmlns="http://www.w3.org/2000/svg" xmlns:xlink="http://www.w3.org/1999/xlink" x="0px" y="0px"
	 width="100px" height="100px" viewBox="0 0 100 100" enable-background="new 0 0 100 100" xml:space="preserve">
<polygon fill-rule="evenodd" clip-rule="evenodd" fill="#FFFFFF" points="48.22,67.893 48.757,67.946 46.717,71.543 46.583,71.517 
	45.429,67.544 45.966,67.598 46.771,70.389 "/>
<path fill-rule="evenodd" clip-rule="evenodd" fill="#FFFFFF" d="M51.469,66.738l-0.537,0.859h-0.322l0.322-0.832L51.469,66.738
	L51.469,66.738z M51.979,67.785l0.645-0.026l-1.289,1.878l0.135,1.986l-0.564,0.055l-0.107-2.014l-1.502-1.69l0.645-0.054l1.1,1.262
	L51.979,67.785z"/>
<path fill-rule="evenodd" clip-rule="evenodd" fill="#FFFFFF" d="M57.508,69.53l0.162,0.563c-0.35,0.322-0.752,0.563-1.262,0.697
	c-0.402,0.107-0.779,0.107-1.102,0.027s-0.617-0.241-0.859-0.482c-0.24-0.242-0.43-0.537-0.51-0.859
	c-0.133-0.537-0.08-1.047,0.215-1.503c0.27-0.483,0.699-0.778,1.234-0.94c0.404-0.107,0.832-0.107,1.369-0.053l0.162,0.563
	c-0.51-0.134-0.939-0.134-1.369-0.026c-0.402,0.134-0.725,0.348-0.912,0.697c-0.215,0.322-0.27,0.697-0.162,1.101
	s0.35,0.698,0.697,0.886c0.322,0.161,0.727,0.215,1.129,0.08C56.756,70.174,57.158,69.906,57.508,69.53z"/>
<path fill-rule="evenodd" clip-rule="evenodd" fill="#FFFFFF" d="M66.193,86.054c14.162,0,25.642-11.479,25.642-25.642
	c0-14.162-11.479-25.642-25.642-25.642S40.551,46.25,40.551,60.412C40.551,74.574,52.031,86.054,66.193,86.054L66.193,86.054z"/>
<g>
	<path fill-rule="evenodd" clip-rule="evenodd" fill="#005322" d="M71.909,49.459l0.021-0.209l-0.763-0.069
		c-0.018,0.061-0.023,0.132-0.031,0.236c-0.025,0.276,0.061,0.53,0.345,0.555C71.754,49.999,71.884,49.762,71.909,49.459
		L71.909,49.459z M72.636,50.01c0.203,0.02,0.327-0.128,0.351-0.404c0.014-0.136,0.012-0.212,0.004-0.262l-0.626-0.057l-0.018,0.203
		C72.319,49.813,72.436,49.993,72.636,50.01L72.636,50.01z M73.038,46.643c-0.018-0.42-0.438-0.641-0.943-0.62
		c-0.51,0.021-0.898,0.281-0.88,0.691v0.004c0.016,0.414,0.415,0.635,0.944,0.613C72.646,47.312,73.054,47.066,73.038,46.643
		L73.038,46.643z M70.935,54.225l-0.187,0.569l0.599,0.02c0.167,0.008,0.376,0.027,0.539,0.037l0.002-0.01
		c-0.14-0.087-0.321-0.19-0.459-0.279L70.935,54.225L70.935,54.225z M58.2,68.445c-0.126-0.169-0.279-0.388-0.399-0.553
		l-0.014,0.006c0.033,0.207,0.076,0.469,0.103,0.672l0.074,0.752l0.703-0.28L58.2,68.445L58.2,68.445z M51.869,69.985l-0.132,0.745
		l0.753-0.081l-0.288-0.699c-0.076-0.197-0.163-0.447-0.234-0.64l-0.016,0.002C51.927,69.519,51.899,69.783,51.869,69.985
		L51.869,69.985z M58.856,48.608l-0.353,16.268c0.299-0.151,0.593-0.31,0.882-0.477l-0.351-15.912l-0.091-0.328L58.856,48.608
		L58.856,48.608z M54.104,65.181l-4.426,0.144l0.004,0.396l0.014,0.108l0.881,0.438l-0.881,0.315v0.37c0.025,0,0.053,0,0.079,0
		c1.346,0,2.66-0.138,3.928-0.399L54.104,65.181L54.104,65.181z M56.617,64.876l-6.962-2.452l0.018,1.989l6.898,0.473L56.617,64.876
		L56.617,64.876z M55.806,62.146l-6.168-1.982l0.012,1.305l4.981,1.895l0.292-1.168L55.806,62.146L55.806,62.146z M51.582,48.07
		l-1.637-0.03v-1.014L51.582,48.07L51.582,48.07z M49.974,48.755l2.831,1.641l-2.831,0.208V48.755L49.974,48.755z M52.358,53.909
		l-2.295,0.209v-0.924L52.358,53.909L52.358,53.909z M51.942,36.509l-2.492,0.699l0.063,7.664l2.01,1.439l-1.999-0.025l0.042,5.013
		l1.807,1.18l-1.797,0.051l0.018,2.207l2.197,1.231l-2.188,0.025l0.014,1.762l2.412,1.191l-2.4,0.227v0.065l5.548,2.156l0.876-3.283
		l-1.103-0.177l2.026-6.527l-0.715-0.091l2.414-6.645l-0.655-0.565l1.252-1.938l1.788,4.352l-0.744,0.298l2.203,5.065l-0.922,0.029
		l2.741,6.856l-0.982,0.209l0.422,1.977c3.308-3.472,5.34-8.172,5.34-13.343c0-1.09-0.091-2.159-0.266-3.201
		c-3.28-3.267-7.37-5.73-8.686-5.845c-0.865-0.075-3.864,1.105-5.029,1.042c-1.164-0.059-2.452-0.857-4.23-0.98
		c-0.212-0.015-0.489,0.015-0.814,0.081l0.018-1.049L51.942,36.509L51.942,36.509z M51.602,33.889l-2.303-0.271l0.023,1.513
		l0.587,0.271l-0.045-1.288L51.602,33.889L51.602,33.889z M49.773,32.917l-0.654-3.93l0.089,3.682L49.773,32.917L49.773,32.917z
		 M46.114,60.866l1.386,2.253L47.56,61.3L46.114,60.866L46.114,60.866z M47.428,65.453h-5.14c1.601,0.671,3.312,1.13,5.096,1.351
		L47.428,65.453L47.428,65.453z M39.429,39.512l2.304-6.956l1.467,4.217l-0.489,0.409l1.896,4.654l-0.943,0.439l2.326,6.032h-1.382
		l2.7,6.906L45.99,55.15l1.603,5.014l0.323-10.189l-1.4-0.473l1.252-0.537l-1.849-0.448l2.054-0.375l0.317-10.042l-1.78,0.577
		l1.632,0.601c-1.14,0.399-2.217,0.873-3.31,1.334l-1.54-3.08l0.654-0.592l-2.235-4.859l-3.274,7.465L39.429,39.512L39.429,39.512z
		 M30.429,47.612c0,5.136,2.006,9.809,5.276,13.272l0.709-1.889l-1.733,0.173l2.706-7.518l-1.573-0.081l3.141-7.035l-1.068,0.126
		l2.201-5.152l-0.601,0.006l-1.761,3.703c-2.743,0.963-5.895,2.101-7.209,2.564C30.459,46.385,30.429,46.995,30.429,47.612
		L30.429,47.612z M28.934,56.704c-0.128,0.104-0.296,0.23-0.424,0.33l0.006,0.013c0.161-0.032,0.366-0.075,0.526-0.101l0.592-0.083
		l-0.242-0.548L28.934,56.704L28.934,56.704z M27.713,53.791c-0.235,0.069-0.31,0.269-0.229,0.54
		c0.042,0.142,0.074,0.221,0.099,0.258l0.712-0.213l-0.069-0.23C28.138,53.853,27.939,53.725,27.713,53.791L27.713,53.791z
		 M26.8,51.352c0.067,0.416,0.511,0.585,1.01,0.504c0.505-0.082,0.858-0.388,0.792-0.793l0-0.004
		c-0.067-0.407-0.49-0.578-1.013-0.493C27.108,50.643,26.731,50.935,26.8,51.352L26.8,51.352z M26.517,48.361
		c0.003,0.134,0.016,0.225,0.029,0.278l1.773-0.04c0.011-0.053,0.01-0.141,0.008-0.212c-0.008-0.559-0.323-0.917-0.969-0.904
		C26.794,47.495,26.504,47.832,26.517,48.361L26.517,48.361z M28.381,39.469c-0.234-0.084-0.432,0.028-0.537,0.319
		c-0.041,0.113-0.062,0.196-0.065,0.242l0.753,0.27c0.028-0.046,0.052-0.101,0.083-0.188C28.727,39.806,28.639,39.561,28.381,39.469
		L28.381,39.469z M29.719,38.144l0.264-0.538l-0.59-0.102c-0.164-0.031-0.369-0.079-0.528-0.111l-0.005,0.011
		c0.128,0.104,0.292,0.233,0.416,0.339L29.719,38.144L29.719,38.144z M30.895,35.32c0.167-0.255,0.139-0.49-0.06-0.62
		c-0.205-0.134-0.406-0.064-0.56,0.172c-0.081,0.124-0.121,0.199-0.135,0.242l0.621,0.409L30.895,35.32L30.895,35.32z
		 M44.456,25.304c-0.059-0.237-0.256-0.32-0.527-0.25c-0.144,0.037-0.225,0.065-0.264,0.088l0.185,0.72l0.232-0.06
		C44.377,25.728,44.515,25.535,44.456,25.304L44.456,25.304z M46.656,25.646l0.593-0.074l-0.238-0.549
		c-0.063-0.155-0.138-0.352-0.197-0.503l-0.012,0.002c-0.016,0.164-0.034,0.374-0.055,0.534L46.656,25.646L46.656,25.646z
		 M58.399,26.547c0.02-0.166,0.051-0.374,0.072-0.534l-0.012-0.004c-0.092,0.135-0.21,0.31-0.307,0.439l-0.37,0.47l0.557,0.225
		L58.399,26.547L58.399,26.547z M64.405,29.96c0.153-0.192,0.103-0.397-0.118-0.574c-0.116-0.092-0.188-0.138-0.229-0.157
		l-0.465,0.581l0.188,0.149C64.021,30.151,64.258,30.145,64.405,29.96L64.405,29.96z M65.451,31.92l0.417,0.429l0.295-0.521
		c0.085-0.144,0.199-0.321,0.284-0.459l-0.01-0.008c-0.142,0.086-0.317,0.197-0.459,0.277L65.451,31.92L65.451,31.92z M71.99,42.706
		c0.147-0.077,0.337-0.168,0.48-0.242l-0.002-0.012c-0.163,0-0.374,0.002-0.537-0.004l-0.595-0.036l0.13,0.585L71.99,42.706
		L71.99,42.706z M73.56,42.301l0.14,0.626l-0.589-0.37l-0.108-0.479L73.56,42.301L73.56,42.301z M72.837,41.991l0.173,0.782
		l-2.461,1.414l-0.144-0.644l0.634-0.354l-0.169-0.762l-0.721-0.034l-0.14-0.619L72.837,41.991L72.837,41.991z M72.42,40.416
		l-2.543,0.939l-0.222-0.603l0.779-0.906c0.219-0.252,0.48-0.542,0.732-0.774l-0.004-0.014c-0.333,0.144-0.689,0.284-1.103,0.437
		l-0.766,0.284L69.1,39.252l2.54-0.941l0.25,0.671l-0.738,0.873c-0.211,0.25-0.473,0.514-0.717,0.737l0.004,0.008
		c0.323-0.158,0.662-0.297,1.046-0.439l0.74-0.273L72.42,40.416L72.42,40.416z M71.227,37.395l-2.389,1.28l-0.302-0.567l0.646-1.005
		c0.183-0.281,0.403-0.604,0.622-0.867l-0.008-0.014c-0.31,0.188-0.643,0.376-1.032,0.584l-0.719,0.385l-0.266-0.496l2.389-1.279
		l0.337,0.629l-0.608,0.966c-0.176,0.276-0.4,0.574-0.611,0.828l0.005,0.007c0.299-0.201,0.616-0.384,0.977-0.578l0.694-0.372
		L71.227,37.395L71.227,37.395z M69.673,34.668l-2.253,1.508l-0.341-0.508l2.253-1.508L69.673,34.668L69.673,34.668z M68.865,33.5
		l-1.351,1.051c-0.61,0.474-1.05,0.347-1.412-0.118c-0.091-0.115-0.184-0.275-0.227-0.395l0.432-0.25
		c0.031,0.085,0.08,0.183,0.155,0.277c0.157,0.203,0.349,0.259,0.678,0.002l1.351-1.049L68.865,33.5L68.865,33.5z M67.065,31.351
		l-1.356,2.493l-0.459-0.473l0.354-0.635l-0.544-0.559l-0.632,0.348l-0.441-0.456l2.521-1.292L67.065,31.351L67.065,31.351z
		 M65.068,29.704c0.05,0.203,0,0.406-0.155,0.6c-0.215,0.268-0.554,0.298-0.79,0.219l-0.006,0.01
		c0.099,0.177,0.071,0.381-0.033,0.619c-0.126,0.294-0.285,0.62-0.309,0.734l-0.49-0.392c0.02-0.087,0.102-0.3,0.25-0.608
		c0.153-0.314,0.118-0.457-0.077-0.617l-0.142-0.114l-0.666,0.832l-0.475-0.379l1.67-2.084c0.178,0.095,0.418,0.257,0.676,0.463
		C64.834,29.238,65.016,29.46,65.068,29.704L65.068,29.704z M63.287,28.059l-1.371,0.508l-0.02,1.818l-0.604-0.375l0.049-1.347
		l-0.345,0.122l-0.466,0.752l-0.517-0.32l1.43-2.303l0.514,0.32l-0.63,1.018l0.006,0.004c0.106-0.057,0.213-0.105,0.317-0.153
		l0.994-0.444L63.287,28.059L63.287,28.059z M59.551,25.266l-0.64,0.273l-0.455-0.184l0.498-0.331L59.551,25.266L59.551,25.266z
		 M58.291,25.445l0.74,0.301l-0.236,2.829l-0.61-0.249l0.069-0.722l-0.725-0.293l-0.436,0.573l-0.589-0.238L58.291,25.445
		L58.291,25.445z M56.759,24.892l-0.671,2.625l-0.625-0.16l-0.301-1.156c-0.083-0.324-0.174-0.704-0.219-1.043l-0.016-0.004
		c-0.071,0.356-0.157,0.728-0.266,1.156l-0.203,0.792l-0.546-0.141l0.672-2.625l0.693,0.179l0.299,1.101
		c0.087,0.317,0.154,0.683,0.199,1.009l0.008,0.002c0.054-0.355,0.132-0.713,0.234-1.11l0.195-0.764L56.759,24.892L56.759,24.892z
		 M53.689,24.181l-0.065,0.499l-1.048-0.136l-0.072,0.559l0.99,0.126l-0.065,0.495l-0.988-0.127l-0.082,0.638l1.104,0.143
		l-0.065,0.498l-1.709-0.22l0.347-2.687L53.689,24.181L53.689,24.181z M53.555,23.519l-0.462,0.438l-0.455-0.058l-0.339-0.542
		l0.428,0.055l0.167,0.273l0.008,0.001l0.23-0.222L53.555,23.519L53.555,23.519z M51.1,23.895l-0.043,2.709l-0.643-0.011
		l-0.564-1.054c-0.155-0.295-0.331-0.644-0.455-0.965h-0.016c0.016,0.363,0.016,0.745,0.01,1.187l-0.014,0.817l-0.563-0.009
		l0.045-2.71l0.715,0.012l0.548,1.002c0.155,0.288,0.307,0.628,0.427,0.937h0.009c-0.032-0.359-0.038-0.726-0.03-1.135l0.012-0.788
		L51.1,23.895L51.1,23.895z M48.347,26.598l-0.654,0.082l-0.295-0.664l-0.773,0.097l-0.101,0.714l-0.63,0.079l0.482-2.792l0.796-0.1
		L48.347,26.598L48.347,26.598z M47.392,23.342l-0.427,0.552l-0.484,0.06l0.272-0.533L47.392,23.342L47.392,23.342z M45.618,26.965
		l-0.606,0.157c-0.059-0.068-0.179-0.261-0.337-0.566c-0.16-0.311-0.293-0.368-0.54-0.309l-0.175,0.045l0.264,1.032l-0.587,0.152
		l-0.666-2.586c0.183-0.084,0.457-0.179,0.776-0.262c0.39-0.099,0.677-0.111,0.904-0.007c0.191,0.083,0.323,0.244,0.386,0.485
		c0.085,0.332-0.094,0.623-0.299,0.761l0.004,0.012c0.201,0.027,0.347,0.172,0.475,0.397C45.376,26.555,45.542,26.877,45.618,26.965
		L45.618,26.965z M42.022,25.145l1.004,2.516l-0.567,0.227l-0.419-1.051l-0.938,0.375l0.42,1.049l-0.568,0.227l-1.004-2.516
		l0.567-0.227l0.388,0.971l0.938-0.374l-0.388-0.971L42.022,25.145L42.022,25.145z M39.736,28.595
		c0.166-0.092,0.324-0.221,0.408-0.327l0.312,0.378c-0.07,0.099-0.263,0.279-0.548,0.438c-0.817,0.456-1.525,0.177-1.9-0.497
		c-0.447-0.804-0.12-1.57,0.596-1.97c0.279-0.153,0.521-0.215,0.64-0.222l0.123,0.487c-0.13,0.013-0.303,0.056-0.497,0.163
		c-0.423,0.234-0.61,0.675-0.316,1.202C38.815,28.716,39.263,28.859,39.736,28.595L39.736,28.595z M36.103,30.96l-0.002,0.001
		c-0.22,0.182-0.543,0.156-0.732-0.073c-0.192-0.228-0.153-0.556,0.069-0.739c0.224-0.184,0.549-0.155,0.739,0.074
		C36.362,30.45,36.331,30.773,36.103,30.96L36.103,30.96z M34.51,33.106l-0.458,0.543l-1.324-0.244l0.07,0.359l0.676,0.571
		l-0.391,0.463l-2.073-1.747l0.392-0.464l0.917,0.771l0.005-0.006c-0.041-0.113-0.074-0.225-0.106-0.336l-0.295-1.047l0.488-0.578
		l0.304,1.429L34.51,33.106L34.51,33.106z M31.131,34.163c0.285,0.187,0.35,0.523,0.292,0.765l0.01,0.006
		c0.167-0.117,0.373-0.106,0.619-0.027c0.306,0.098,0.646,0.226,0.761,0.239l-0.344,0.525c-0.089-0.011-0.308-0.072-0.629-0.192
		c-0.328-0.124-0.465-0.075-0.608,0.134l-0.099,0.153l0.891,0.583l-0.333,0.508l-2.232-1.464c0.077-0.185,0.216-0.44,0.398-0.716
		c0.22-0.336,0.425-0.538,0.662-0.614C30.716,33.996,30.922,34.025,31.131,34.163L31.131,34.163z M28.638,36.816l2.805,0.437
		l-0.291,0.591l-0.716-0.119l-0.345,0.701l0.541,0.476l-0.279,0.571l-2.068-1.938L28.638,36.816L28.638,36.816z M28.568,38.89
		c0.253,0.09,0.437,0.246,0.521,0.452c0.111,0.261,0.094,0.584-0.027,0.925c-0.027,0.077-0.056,0.142-0.086,0.191l0.916,0.329
		l-0.205,0.571l-2.517-0.901c0.034-0.19,0.101-0.447,0.227-0.799c0.127-0.355,0.287-0.584,0.487-0.705
		C28.068,38.831,28.318,38.801,28.568,38.89L28.568,38.89z M26.652,42.283l2.648,0.571l-0.128,0.597l-2.648-0.569L26.652,42.283
		L26.652,42.283z M26.485,42.367l-0.103,0.479l-0.413-0.436l0.135-0.628L26.485,42.367L26.485,42.367z M26.048,48.437
		c-0.012-0.518,0.077-0.859,0.265-1.119c0.203-0.287,0.528-0.472,1.011-0.482c0.519-0.011,0.88,0.17,1.107,0.422
		c0.243,0.281,0.365,0.717,0.377,1.248c0.007,0.317-0.008,0.546-0.025,0.695l-2.656,0.059
		C26.081,49.036,26.055,48.743,26.048,48.437L26.048,48.437z M28.188,44.495c-0.36-0.005-0.725-0.034-1.131-0.08l-0.783-0.091
		l0.063-0.559l2.693,0.308l-0.074,0.639l-1.103,0.457c-0.311,0.126-0.674,0.268-1.004,0.358l-0.002,0.016
		c0.361,0.021,0.742,0.057,1.182,0.106l0.81,0.093l-0.063,0.559l-2.693-0.306l0.083-0.712l1.049-0.447
		c0.302-0.127,0.655-0.244,0.973-0.334L28.188,44.495L28.188,44.495z M26.317,51.419c-0.133-0.82,0.409-1.367,1.146-1.489
		c0.882-0.142,1.495,0.299,1.622,1.077l0.001,0.004c0.128,0.79-0.394,1.355-1.156,1.481C27.128,52.622,26.445,52.202,26.317,51.419
		L26.317,51.419z M27.021,53.626c0.076-0.197,0.23-0.335,0.47-0.405c0.327-0.099,0.625,0.068,0.773,0.268l0.012-0.004
		c0.019-0.203,0.158-0.354,0.377-0.49c0.272-0.172,0.588-0.349,0.672-0.43l0.181,0.601c-0.066,0.062-0.254,0.189-0.552,0.358
		c-0.305,0.172-0.356,0.31-0.288,0.552l0.052,0.173l1.021-0.305l0.175,0.583l-2.557,0.766c-0.092-0.18-0.198-0.449-0.293-0.764
		C26.949,54.142,26.926,53.854,27.021,53.626L27.021,53.626z M27.215,56.822l0.65,0.248l0.199,0.446l-0.589-0.107L27.215,56.822
		L27.215,56.822z M28.245,57.57l-0.323-0.73l2.137-1.871l0.267,0.604l-0.552,0.473l0.315,0.713l0.713-0.108l0.257,0.581
		L28.245,57.57L28.245,57.57z M28.96,59.031l2.31-1.418l0.336,0.55l-0.587,1.04c-0.167,0.289-0.366,0.624-0.57,0.901l0.008,0.014
		c0.298-0.207,0.62-0.413,0.997-0.644l0.695-0.43l0.295,0.48l-2.31,1.418l-0.375-0.61l0.552-0.998
		c0.159-0.288,0.365-0.597,0.56-0.863l-0.004-0.008c-0.287,0.219-0.592,0.422-0.941,0.635l-0.672,0.413L28.96,59.031L28.96,59.031z
		 M33.932,65.533l1.537-4.026c-3.485-3.588-5.634-8.481-5.634-13.878c0-11.007,8.923-19.931,19.931-19.931
		c11.007,0,19.931,8.924,19.931,19.931c0,11.005-8.924,19.929-19.931,19.929c-2.757,0-5.738-0.651-8.125-1.666L41.457,43.11
		l-0.126-0.691l-0.126,0.691l-0.751,22.329L33.932,65.533L33.932,65.533z M39.505,69.879l0.384-0.529
		c0.148,0.175,0.41,0.397,0.715,0.521c0.33,0.134,0.56,0.067,0.645-0.14c0.081-0.196-0.025-0.372-0.353-0.657
		c-0.451-0.404-0.681-0.837-0.494-1.298c0.221-0.542,0.843-0.766,1.585-0.463c0.364,0.146,0.595,0.323,0.747,0.488l-0.394,0.508
		c-0.096-0.11-0.292-0.293-0.597-0.417c-0.311-0.126-0.521-0.041-0.587,0.118c-0.081,0.203,0.056,0.362,0.408,0.688
		c0.477,0.433,0.617,0.831,0.436,1.277c-0.217,0.532-0.806,0.819-1.675,0.467C39.961,70.295,39.643,70.051,39.505,69.879
		L39.505,69.879z M42.2,67.251l-0.538-0.217l-0.238-0.774l0.502,0.205l0.116,0.388l0.01,0.004l0.354-0.196l0.499,0.202L42.2,67.251
		L42.2,67.251z M42.869,69.747l0.459-1.854l0.748,0.185l-0.471,1.91c-0.144,0.577,0.008,0.924,0.386,1.017
		c0.396,0.097,0.681-0.126,0.827-0.717l0.471-1.908l0.75,0.185l-0.461,1.863c-0.252,1.028-0.89,1.387-1.758,1.174
		C42.981,71.392,42.607,70.803,42.869,69.747L42.869,69.747z M46.209,72.085l0.449-3.403l1.028,0.069l0.258,1.164
		c0.084,0.403,0.157,0.837,0.207,1.242h0.02c0.118-0.39,0.266-0.833,0.408-1.203l0.437-1.112l1.015,0.068l-0.049,3.429l-0.75-0.052
		l0.033-1.311c0.012-0.412,0.03-0.902,0.063-1.404l-0.008-0.002c-0.142,0.429-0.317,0.905-0.477,1.298l-0.506,1.304l-0.603-0.04
		l-0.276-1.347c-0.083-0.409-0.163-0.898-0.218-1.354l-0.01-0.002c-0.047,0.461-0.103,0.986-0.152,1.411l-0.153,1.292L46.209,72.085
		L46.209,72.085z M50.739,72.298l0.688-3.514l1.006-0.104l1.416,3.295l-0.829,0.087l-0.353-0.847l-0.98,0.102l-0.147,0.9
		L50.739,72.298L50.739,72.298z M55.189,71.669l-1.881-3.065l0.823-0.201l0.751,1.308c0.21,0.37,0.405,0.721,0.586,1.116
		l0.015-0.004c-0.013-0.421-0.007-0.841,0.014-1.248l0.076-1.524l0.8-0.196l-0.306,3.602L55.189,71.669L55.189,71.669z
		 M57.139,67.532l0.939-0.372l2.255,2.79l-0.774,0.308l-0.57-0.721l-0.916,0.364l0.103,0.903l-0.744,0.298L57.139,67.532
		L57.139,67.532z M67.569,58.779l0.317-0.52l1.874,1.142l0.381-0.624l0.44,0.268l-1.085,1.778l-0.438-0.268l0.384-0.632
		L67.569,58.779L67.569,58.779z M70.824,58.366l-0.386-0.333c0.093-0.073,0.244-0.219,0.356-0.455
		c0.112-0.24,0.053-0.409-0.069-0.469c-0.157-0.07-0.289,0.029-0.559,0.294c-0.364,0.358-0.684,0.452-1.03,0.291
		c-0.411-0.193-0.612-0.672-0.297-1.345c0.132-0.28,0.337-0.521,0.479-0.622l0.401,0.326c-0.144,0.108-0.331,0.306-0.441,0.542
		c-0.118,0.256-0.076,0.438,0.083,0.514c0.153,0.073,0.296-0.002,0.536-0.25c0.336-0.339,0.688-0.502,1.045-0.335
		c0.418,0.197,0.569,0.697,0.3,1.272C71.11,58.076,70.962,58.252,70.824,58.366L70.824,58.366z M72.189,55.393l-2.838-0.048
		l0.207-0.628l0.727,0.02l0.244-0.738l-0.603-0.397l0.198-0.604l2.314,1.636L72.189,55.393L72.189,55.393z M73.054,52.192
		l-2.152-0.437l-0.215,1.055l-0.504-0.103l0.335-1.653l2.656,0.539L73.054,52.192L73.054,52.192z M72.207,47.977
		c-0.895,0.037-1.449-0.476-1.481-1.267v-0.004c-0.033-0.799,0.556-1.299,1.328-1.329c0.809-0.034,1.439,0.463,1.471,1.259
		C73.556,47.468,72.953,47.946,72.207,47.977L72.207,47.977z M73.215,50.353c-0.116,0.179-0.312,0.293-0.561,0.272
		c-0.236-0.021-0.443-0.18-0.534-0.491h-0.008c-0.108,0.301-0.364,0.506-0.713,0.477c-0.248-0.022-0.432-0.152-0.547-0.332
		c-0.139-0.208-0.197-0.545-0.15-1.083c0.025-0.3,0.067-0.523,0.099-0.657l2.646,0.236c0.018,0.163,0.018,0.486-0.01,0.795
		C73.404,49.943,73.349,50.168,73.215,50.353L73.215,50.353z M75.354,47.612c0-14.127-11.452-25.58-25.579-25.58
		c-14.127,0-25.58,11.453-25.58,25.58c0,14.125,11.453,25.575,25.58,25.575C63.901,73.188,75.354,61.737,75.354,47.612
		L75.354,47.612z"/>
</g>
<rect x="37.582" y="31.582" fill="none" width="56.836" height="56.836"/>
</svg>
