<?xml version="1.0" encoding="utf-8"?>
<!-- Generator: Adobe Illustrator 13.0.1, SVG Export Plug-In . SVG Version: 6.00 Build 14948)  -->
<!DOCTYPE svg PUBLIC "-//W3C//DTD SVG 1.1//EN" "http://www.w3.org/Graphics/SVG/1.1/DTD/svg11.dtd">
<svg version="1.1" id="Vrstva_1" xmlns="http://www.w3.org/2000/svg" xmlns:xlink="http://www.w3.org/1999/xlink" x="0px" y="0px"
	 width="100px" height="100px" viewBox="0 0 100 100" enable-background="new 0 0 100 100" xml:space="preserve">
<g>
	<path fill="#FFFFFF" d="M23.827,48.893c0,14.339,11.66,26.009,25.991,26.009c14.342,0,26.009-11.67,26.009-26.009
		c0-14.341-11.667-26.008-26.009-26.008C35.487,22.885,23.827,34.552,23.827,48.893L23.827,48.893z"/>
	<path fill="none" stroke="#FFFFFF" stroke-width="2.5361" d="M23.827,48.893c0,14.339,11.66,26.009,25.991,26.009
		c14.342,0,26.009-11.67,26.009-26.009c0-14.341-11.667-26.008-26.009-26.008C35.487,22.885,23.827,34.552,23.827,48.893
		L23.827,48.893z"/>
	<path fill="#1A171B" d="M49.967,24.106c13.626,0,24.737,11.112,24.737,24.737c0,13.625-11.111,24.736-24.737,24.736
		c-13.608,0-24.719-11.111-24.719-24.736C25.248,35.218,36.358,24.106,49.967,24.106L49.967,24.106z"/>
	<path fill="none" stroke="#FFFFFF" stroke-width="2.5359" d="M49.967,24.106c13.626,0,24.737,11.112,24.737,24.737
		c0,13.625-11.111,24.736-24.737,24.736c-13.608,0-24.719-11.111-24.719-24.736C25.248,35.218,36.358,24.106,49.967,24.106
		L49.967,24.106z"/>
	<path fill="#FFFFFF" d="M30.19,44.1c0-11.206,9.085-20.289,20.289-20.289c11.206,0,20.289,9.083,20.289,20.289
		c0,11.205-9.083,20.289-20.289,20.289C39.275,64.389,30.19,55.305,30.19,44.1L30.19,44.1z"/>
	<path fill="#FFEC00" d="M51.469,39.952c4.378,0,7.968-3.589,7.968-7.983s-3.59-7.984-7.968-7.984c-4.394,0-7.982,3.589-7.982,7.984
		S47.075,39.952,51.469,39.952L51.469,39.952z"/>
	<path fill="none" stroke="#000C0A" stroke-width="1.0589" d="M51.469,39.952c4.378,0,7.968-3.589,7.968-7.983
		s-3.59-7.984-7.968-7.984c-4.394,0-7.982,3.589-7.982,7.984S47.075,39.952,51.469,39.952L51.469,39.952z"/>
	<path fill="#ECECED" d="M46.946,59.418c-0.048-0.045-0.077-0.084-0.107-0.127c0.263-1.066,0.617-2.008,0.961-3.008
		c0.08,0.045,0.178,0.07,0.274,0.115C47.803,57.344,47.514,58.529,46.946,59.418L46.946,59.418z"/>
	<path fill="#ECECED" d="M50.922,58.617c0.062-0.217-0.051-1.627-0.193-2.297c-0.051-0.244-0.271-0.719,0.064-0.779
		c0.415,1.086,0.491,2.016,0.37,3.17C51.084,58.666,51.004,58.641,50.922,58.617L50.922,58.617z"/>
	<path fill="#ECECED" d="M49.03,48.538c0.244-0.166,0.389-0.096,0.718-0.057c-0.003,0.301-2.676,2.866-2.901,4.656
		c-0.19,1.512,0.738,2.592,2.063,2.33c2.063-0.416,3.131-2.717,4.045-4.403c0.057-0.118,0.191-0.17,0.279-0.247
		c0.634,1.021-2.182,4.279-3.151,4.701c-0.393,0.178-1.536,0.729-2.263,0.445C44.246,54.521,47.957,49.877,49.03,48.538
		L49.03,48.538z"/>
	<path fill="#ECECED" d="M53.456,51.795c0.065-0.277,0.07-0.357,0.228-0.488c4.384,1.188,6.115-4.4,10.273-3.325
		c1.471,0.37,6.007,4.214,6.254,6.132c-0.326-0.078-0.621-0.658-0.771-0.928c-0.641-1.182-4.938-5.432-5.818-4.844
		c0.649,0.742,1.304,2.505,1.441,3.536c0.055,0.465,0.152,3.479,0.025,3.67c-0.174-0.131-0.188-0.172-0.173-0.41
		c0.082-1.1-0.439-6.964-2.333-6.878c-1.043,1.359-2.158,7.706-3.526,7.604c1.266-2.289,2.05-4.827,2.847-7.345
		c-0.918,0.144-1.62,0.783-2.16,1.21C57.885,51.162,56.091,52.314,53.456,51.795L53.456,51.795z"/>
	<path fill="#ECECED" d="M40.177,45.936c-0.738-1.468,1.522-6.504,2.219-8.405c0.696-1.942-8.069,3.279-8.878,3.771
		c-0.051,0.018-0.15,0.031-0.158-0.09c-0.074-0.966,7.343-4.185,8.137-4.157c0.563-0.005,0.15-0.03,0.086-0.055
		c-3.563-1.621-7.025-1.349-9.414-1.835c-0.245-0.054,8.721-0.393,11.452,2.64c1.77,1.972,1.64,6.835,3.032,9.266
		c0.391,0.665,1.878,2.079,1.179,1.876c-2.295-0.681-2.678-5.014-3.16-7.169C42.583,32.229,41.106,43.186,40.177,45.936
		L40.177,45.936z"/>
	<path fill="#ECECED" d="M53.533,46.145c-0.271-0.958,0.764-1.117-0.456-1.752c-0.291-0.138-0.621-0.158-0.91-0.295
		c-0.032-0.023-0.01-0.122,0.009-0.121c0.583-0.064,1.165,0.171,1.743,0.466C54.433,44.716,53.933,46.109,53.533,46.145
		L53.533,46.145z"/>
	<path fill="#ECECED" d="M54.774,46.441c0.178,0.071,0.266,0.276,0.22,0.454c-0.059,0.177-0.247,0.265-0.425,0.194
		c-0.179-0.07-0.282-0.277-0.221-0.454C54.41,46.459,54.597,46.37,54.774,46.441L54.774,46.441z"/>
	<path fill="#FFFFFF" d="M29.171,34.363l0.191,0.827c0.376-0.001,1.094,0.438,1.491,1.028c0.19,0.282,0.265,0.544,0.198,0.703
		c-0.248,0.593,0.51,5.422,0.519,5.468l0.077,0.422l0.422-0.069c1.479-0.245,2.821,0.041,3.257,0.152
		c2.655,1.397,3.528,2.415,3.528,4.03c0,0.539-0.098,1.145-0.258,1.852l-0.3,1.328l1.016-0.907c0.038-0.033,0.925-0.813,1.914-0.455
		c0.006,0.002,0.112,0.04,0.112,0.04c1.053,0.358,1.532,0.524,2.312,1.574c0.644,0.853,0.832,1.654,0.832,2.516
		c0,0.559-0.079,1.141-0.167,1.777c0,0-0.028,0.229-0.058,0.451c-0.004-0.008-0.017-0.031-0.017-0.031l-0.249-0.076
		c-0.478-0.057-0.939,0.363-1.07,0.494c-0.185,0.186-0.396,0.461-0.396,0.758c0,0.023,0.001,0.049,0.003,0.074l0.043,0.361
		c0,0,0.1,0.006,0.197,0.014c-0.001,0.012-0.01,0.027-0.01,0.041c0,0.078,0.015,0.156,0.04,0.23l0.076,0.223l0.23,0.059
		c0.22,0.055,0.383,0.004,0.51-0.076c0.012,0.213,0.091,0.387,0.308,0.469c0.35,0.135,0.602-0.127,0.866-0.572
		c0.918,0.635,1.179,1.922,1.389,2.984l0.225,1.123c0,0,0.496-0.465,0.558-0.523c0.002,0,0.297-0.182,0.297-0.182l0.565-0.346
		c0.362-0.24,1.936-0.852,2.945-0.752c-0.033,0.102-0.059,0.219-0.059,0.334c0,0.199,0.069,0.404,0.289,0.564l0.351,0.256
		l0.258-0.35c0.071-0.098,0.131-0.172,0.184-0.236c0.043,0.236,0.133,0.504,0.44,0.568l0.26,0.057l0.168-0.205
		c0.151-0.184,0.23-0.346,0.28-0.486c0.011,0.002,1.112,0.344,1.112,0.344l-0.199-0.758c-0.165-0.641-0.644-0.824-1.019-0.945
		c0.264-0.359,1.195-0.996,1.777-1.172c2.085-0.584,3.046-0.387,4.273,0.877l0.276,0.285l0.311-0.252
		c0.635-0.514,2.323-1.643,4.297-1.045c0.743,0.355,0.811,0.457,1.349,1.291l0.314,0.486l0.379-0.309
		c0.283-0.234,1.805-1.387,3.804-0.961c-0.008-0.002,0.808,0.182,0.808,0.182c1.362,0.301,1.608,0.355,2.498,1.102l0.683-0.498
		c-1.299-3.184-3.251-6.084-3.461-6.264l-0.017-0.014l-0.02-0.014c-0.099-0.068-0.225-0.207-0.369-0.363
		c-0.179-0.195-0.401-0.438-0.703-0.699c-0.007-0.005-0.734-0.616-0.734-0.616c-1.219-1.031-2.371-2.004-3.812-2.665
		c-0.004-0.001-0.266-0.082-0.446-0.136c0.001-0.001,0.005-0.008,0.006-0.01c0.001,0,0.389-0.432,0.389-0.432l-0.453-0.279
		c-0.605-0.353-0.997-0.551-1.353-0.347c-0.323,0.186-0.349,0.541-0.349,1.068c0,0.016,0,0.032,0,0.049
		c-0.213,0.117-0.77,0.28-1.094,0.372c-0.409,0.118-0.67,0.194-0.83,0.277c-0.534,0.259-1.047,0.624-1.544,0.976
		c-0.85,0.607-1.73,1.232-2.843,1.412c-0.365,0.056-0.964,0.038-1.306-0.017c-0.048-0.089-0.078-0.166-0.078-0.234
		c0-0.097,0.044-0.195,0.117-0.354c0,0,0.042-0.108,0.085-0.21c0.067,0.001,0.14,0.002,0.2,0.006l0.595-0.003
		c1.152-0.102,1.361-0.606,1.375-0.918c0.487-0.313,0.895-1.255,0.899-1.267L57.94,47.6l-0.138-0.191
		c-0.268-0.364-0.561-0.46-0.776-0.528c0,0-0.014-0.007-0.017-0.008c0.041-0.214,0.228-0.312,0.699-0.466
		c0.364-0.12,0.778-0.255,0.979-0.625l0.242-0.445l-0.477-0.173c-1.327-0.481-2.453-0.237-3.19,0.649c0-0.013,0-0.061,0-0.073
		c0-0.596-0.117-1.22-1.336-1.746c-0.353-0.154-4.248-1.187-4.857-0.313l-0.304,0.434l0.485,0.213
		c0.824,0.363,1.326,0.783,1.492,1.247c0.042,0.12,0.063,0.245,0.063,0.376c0,0.248-0.076,0.521-0.23,0.821
		c-0.188,0.371-0.505,0.488-0.759,0.581c0,0-0.068,0.033-0.133,0.064c-2.053-0.064-3.038-3.372-3.757-5.798
		c-0.226-0.757-0.419-1.41-0.624-1.9c-0.175-0.418-0.367-0.727-0.522-0.976c-0.216-0.342-0.347-0.55-0.347-0.857
		c0-0.122,0.022-0.259,0.065-0.426l0.053-0.2l-0.122-0.167c-0.006-0.008-0.613-0.815-1.186-0.718
		c-0.212,0.036-0.378,0.191-0.453,0.408c-0.249-0.151-0.574-0.348-1.043-0.579l-0.017-0.008l-0.017-0.006
		c-0.965-0.378-2.667-0.961-5.301-1.594l-0.028-0.007C36.07,34.513,30.64,33.648,29.171,34.363L29.171,34.363z"/>
	<path fill="#1A171B" d="M44.624,56.471c-0.411,0.777-0.771,1.234-0.465,0.012c-0.674-0.342-0.523,0.447-0.947,0.344
		c-0.101-0.289,0.325-0.723,0.605-0.705c0.306-0.664-0.787,0.152-0.854,0.148c-0.031-0.283,0.617-0.887,0.979-0.844
		c0.072,0.184,1.059,0.846,1.306,0.582c0.16-0.17,1.859-1.15,1.027-1.363c-0.424-0.104-0.981,1.186-1.655,1.064
		c0.229-2.113,0.776-3.762-0.619-5.611c-0.89-1.197-1.491-1.374-2.627-1.764c-1.134-0.41-2.143,0.352-2.351,0.54
		c0.679-3.007,0.266-4.395-3.539-6.39c-0.701-0.183-2.063-0.406-3.485-0.171c-0.1-0.547-0.698-4.854-0.543-5.226
		c0.368-0.899-1.167-2.336-2.096-2.332c1.246-0.607,6.388,0.127,6.924,0.26c0.557,0.134,3.152,0.752,5.273,1.583
		c1.253,0.617,1.479,0.991,2.012,0.942c0.055-0.357,0.011-0.439-0.377-0.604c0.124-0.414,0.763,0.247,0.886,0.415
		c-0.302,1.145,0.331,1.364,0.823,2.536c0.882,2.119,1.736,7.984,4.851,7.972c0.173-0.128,0.855-0.188,1.213-0.888
		c0.715-1.399-0.005-2.365-1.537-3.04c0.309-0.442,3.636,0.16,4.328,0.462c1.889,0.816,0.459,1.713,1.524,2.158
		c0.581-1.106,1.633-1.485,3.025-0.979c-0.315,0.582-1.907,0.305-1.736,1.578c0.287,0.198,0.59,0.116,0.882,0.515
		c-0.061,0.156-1.018,1.741-0.745,0.797c-1.272-1.422-3.21,0.767-0.719,0.638c0.075-0.417-0.275-0.357-0.699-0.464
		c0.207-0.95,2.522,0.735,0.24,0.937c-0.317,0.041-0.841-0.052-1.043,0.017c-0.207,0.669-0.583,0.866-0.1,1.599
		c0.358,0.102,1.187,0.13,1.654,0.059c1.892-0.305,3.087-1.736,4.521-2.431c0.376-0.197,2.152-0.531,2.156-0.87
		c-0.004-1.023-0.028-1.185,1.045-0.56c-0.034,0.039-0.07,0.077-0.089,0.115c-0.533-0.233-0.646-0.3-0.681,0.28
		c0.313,0.298,0.894,0.293,1.313,0.481c1.658,0.761,2.928,1.96,4.443,3.215c0.55,0.475,0.822,0.895,1.109,1.09
		c0.126,0.107,2.057,2.951,3.341,6.096c-1.136-0.949-1.371-0.883-3.496-1.375c-2.108-0.447-3.717,0.68-4.171,1.051
		c-0.606-0.938-0.695-1.105-1.613-1.539c-1.771-0.551-3.502,0.129-4.723,1.117c-1.325-1.367-2.419-1.633-4.71-0.988
		c-0.559,0.166-2.338,1.141-2.152,1.873c0.453,0.188,0.949,0.197,1.097,0.768c-1.398-0.426-0.481-0.25-1.107,0.514
		c-0.262-0.055,0.089-1.738-1.066-0.164c-0.271-0.197,0.019-0.602,0.103-0.857c-1.147-0.488-3.356,0.42-3.771,0.695
		c-0.431,0.273-0.858,0.508-0.911,0.566C46.407,59.023,46.174,57.145,44.624,56.471L44.624,56.471z"/>
	<path fill="#FFFFFF" d="M47.419,59.006c-0.046-0.045-0.094-0.088-0.126-0.109c0.242-1.006,0.561-1.869,0.882-2.791
		c0.082,0.023,0.162,0.068,0.258,0.113C48.196,57.107,47.947,58.217,47.419,59.006L47.419,59.006z"/>
	<path fill="#FFFFFF" d="M51.331,58.422c0.046-0.219-0.091-1.529-0.249-2.16c-0.069-0.246-0.29-0.701,0.044-0.74
		c0.436,1.029,0.529,1.916,0.449,2.977C51.492,58.471,51.413,58.445,51.331,58.422L51.331,58.422z"/>
	<path fill="#FFFFFF" d="M49.178,48.887c0.224-0.146,0.367-0.077,0.695-0.017c0.018,0.261-2.574,2.57-2.743,4.245
		c-0.134,1.414,0.812,2.453,2.116,2.273c2.04-0.316,3.031-2.443,3.886-3.994c0.057-0.1,0.189-0.13,0.277-0.203
		c0.652,0.98-2.044,3.924-2.993,4.289c-0.372,0.137-1.513,0.629-2.24,0.324C44.589,54.303,48.141,50.107,49.178,48.887
		L49.178,48.887z"/>
	<path fill="#FFFFFF" d="M53.651,52.105c0.049-0.256,0.053-0.316,0.21-0.447c4.395,1.289,5.951-3.869,10.121-2.714
		c1.449,0.409,6.057,4.198,6.359,6.021c-0.309-0.1-0.639-0.66-0.789-0.91c-0.676-1.145-5.045-5.299-5.904-4.79
		c0.666,0.742,1.36,2.409,1.533,3.379c0.072,0.447,0.248,3.285,0.122,3.436c-0.175-0.109-0.188-0.15-0.177-0.369
		c0.049-1.041-0.644-6.556-2.516-6.549c-1.003,1.223-1.906,7.121-3.292,6.998c1.205-2.094,1.896-4.457,2.632-6.797
		c-0.899,0.105-1.599,0.684-2.116,1.054C58.017,51.689,56.283,52.707,53.651,52.105L53.651,52.105z"/>
	<path fill="#FFFFFF" d="M40.3,46.104c-0.774-1.41,1.329-6.053,1.965-7.799c0.64-1.806-7.903,2.748-8.707,3.18
		c-0.051,0.017-0.15,0.011-0.161-0.089c-0.11-0.929,7.178-3.634,7.955-3.587c0.561,0.034,0.149-0.011,0.084-0.055
		c-3.592-1.662-7.012-1.529-9.397-2.074c-0.246-0.055,8.648-0.036,11.451,2.94c1.806,1.894,1.827,6.446,3.275,8.799
		c0.408,0.646,1.932,2.022,1.216,1.799c-2.292-0.722-2.806-4.822-3.328-6.858C42.301,33.335,41.151,43.549,40.3,46.104L40.3,46.104z
		"/>
	<path fill="#FFFFFF" d="M53.56,46.808c-0.292-0.899,0.742-1.018-0.495-1.653c-0.29-0.139-0.619-0.178-0.909-0.316
		c-0.03-0.021-0.027-0.102,0.006-0.1c0.582-0.045,1.148,0.189,1.726,0.486C54.417,45.497,53.976,46.793,53.56,46.808L53.56,46.808z"
		/>
	<path fill="#FFFFFF" d="M54.798,47.145c0.178,0.07,0.281,0.277,0.24,0.435c-0.044,0.158-0.23,0.228-0.408,0.156
		c-0.178-0.071-0.299-0.258-0.239-0.436C54.436,47.142,54.619,47.073,54.798,47.145L54.798,47.145z"/>
	<path fill="#FFFFFF" d="M28.069,43.006c-0.141-0.032-0.421-0.03-0.531,0.413c-0.06,0.24-0.066,0.521,0.198,0.587
		c0.194,0.048,0.293-0.121,0.42-0.362l0.127-0.245c0.19-0.369,0.375-0.724,0.925-0.589c0.277,0.069,0.732,0.336,0.539,1.123
		c-0.185,0.742-0.735,0.817-1.042,0.746l0.12-0.487c0.115,0.014,0.389,0.04,0.499-0.403c0.048-0.193,0.03-0.44-0.195-0.496
		c-0.195-0.048-0.276,0.097-0.324,0.191l-0.296,0.554c-0.166,0.311-0.379,0.58-0.83,0.468c-0.751-0.186-0.635-0.945-0.581-1.158
		c0.22-0.885,0.781-0.907,1.091-0.83L28.069,43.006L28.069,43.006z"/>
	<path fill="#FFFFFF" d="M28.055,46.069c-0.051,0.387,0.232,0.425,0.347,0.441c0.248,0.032,0.368-0.088,0.413-0.409l0.054-0.411
		l-0.749-0.1L28.055,46.069L28.055,46.069z M26.758,45.409l0.069-0.517l2.551,0.341l-0.151,1.131
		c-0.063,0.479-0.418,0.726-0.919,0.659c-0.231-0.03-0.798-0.232-0.709-0.898l0.079-0.593L26.758,45.409L26.758,45.409z"/>
	<path fill="#FFFFFF" d="M27.949,48.534c-0.007,0.272,0.087,0.406,0.341,0.411c0.138,0.003,0.34-0.052,0.347-0.358l0.012-0.65
		l-0.688-0.015L27.949,48.534L27.949,48.534z M29.103,47.435l-0.024,1.262c-0.013,0.664-0.521,0.775-0.744,0.771
		c-0.282-0.006-0.524-0.149-0.605-0.399c-0.098,0.203-0.179,0.313-0.659,0.303c-0.375-0.007-0.468-0.009-0.513,0.102l-0.07-0.002
		l0.014-0.577c0.121-0.033,0.255-0.05,0.52-0.045c0.351,0.007,0.488-0.011,0.496-0.396l0.011-0.539l-1.008-0.02l0.011-0.512
		L29.103,47.435L29.103,47.435z"/>
	<path fill="#FFFFFF" d="M29.354,50.826l-0.035-0.364l0.437,0.302l0.052,0.551L29.354,50.826L29.354,50.826z M27.551,50.658
		l0.063,0.635l0.983-0.407l-0.001-0.007L27.551,50.658L27.551,50.658z M26.552,50.44l-0.054-0.547l2.648,0.639l0.057,0.599
		l-2.477,1.125l-0.056-0.566l0.514-0.209l-0.09-0.917L26.552,50.44L26.552,50.44z"/>
	<polygon fill="#FFFFFF" points="29.618,53.545 29.729,54.078 27.036,53.77 26.935,53.283 29.282,51.934 29.397,52.484 
		27.597,53.404 27.598,53.41 29.618,53.545 	"/>
	<path fill="#FFFFFF" d="M28.437,55.279l0.197,0.609l0.873-0.609l-0.003-0.006L28.437,55.279L28.437,55.279z M27.414,55.281
		l-0.171-0.521l2.725,0.059l0.186,0.57l-2.181,1.629L27.8,56.477l0.455-0.313l-0.283-0.879L27.414,55.281L27.414,55.281z"/>
	<path fill="#FFFFFF" d="M29.893,59.375c-0.488,0.244-0.848,0.117-1.071-0.332c-0.37-0.742,0.118-0.988,0.557-1.205l0.218,0.436
		c-0.363,0.18-0.525,0.293-0.402,0.543c0.121,0.242,0.29,0.18,0.466,0.094l1.639-0.816l0.232,0.467L29.893,59.375L29.893,59.375z"/>
	<polygon fill="#FFFFFF" points="32.321,60.73 31.616,59.609 31.158,59.898 31.808,60.93 31.422,61.17 30.772,60.141 30.21,60.496 
		30.947,61.668 30.561,61.91 29.551,60.307 31.73,58.936 32.708,60.488 32.321,60.73 	"/>
	<path fill="#FFFFFF" d="M31.765,62.199c-0.109,0.09-0.281,0.316,0.002,0.672c0.153,0.195,0.372,0.373,0.585,0.203
		c0.158-0.125,0.084-0.305-0.03-0.553l-0.115-0.25c-0.173-0.377-0.342-0.74,0.103-1.092c0.225-0.178,0.714-0.373,1.217,0.262
		c0.475,0.6,0.196,1.082-0.049,1.281l-0.312-0.393c0.083-0.084,0.271-0.285-0.012-0.643c-0.122-0.156-0.328-0.293-0.512-0.15
		c-0.158,0.125-0.093,0.277-0.047,0.373l0.258,0.574c0.143,0.322,0.225,0.656-0.139,0.943c-0.608,0.48-1.136-0.076-1.272-0.252
		c-0.565-0.713-0.237-1.172,0.014-1.369L31.765,62.199L31.765,62.199z"/>
	<polygon fill="#FFFFFF" points="32.886,64.74 32.521,64.369 34.352,62.559 34.717,62.928 33.972,63.664 35.388,63.607 
		35.861,64.088 34.396,64.104 34.072,65.939 33.601,65.461 33.861,64.117 33.507,64.127 32.886,64.74 	"/>
	<polygon fill="#FFFFFF" points="35.329,66.963 34.923,66.635 35.535,65.879 35.874,64.09 36.353,64.477 36.052,65.674 
		37.139,65.115 37.6,65.486 35.937,66.213 35.329,66.963 	"/>
	<polygon fill="#FFFFFF" points="39.057,66.43 39.467,66.693 38.076,68.859 37.636,68.578 37.771,66.482 37.765,66.477 
		36.772,68.023 36.362,67.76 37.755,65.594 38.216,65.891 38.084,67.936 38.088,67.939 39.057,66.43 	"/>
	<path fill="#FFFFFF" d="M40.192,66.879l-0.321-0.174l0.492-0.195l0.488,0.262L40.192,66.879L40.192,66.879z M39.06,69.379
		l-0.461-0.246l1.216-2.27l0.46,0.246L39.06,69.379L39.06,69.379z"/>
	<path fill="#FFFFFF" d="M42.69,67.986l-0.409-0.16l-0.224-0.527l0.369,0.143l0.122,0.297l0.294-0.137l0.37,0.145L42.69,67.986
		L42.69,67.986z M42.66,69.068c0.019-0.156,0.046-0.459-0.356-0.611c-0.232-0.092-0.639-0.064-0.9,0.615
		c-0.167,0.432-0.15,0.883,0.261,1.041c0.271,0.105,0.519,0.02,0.69-0.252l0.487,0.189c-0.298,0.484-0.771,0.721-1.355,0.496
		c-0.619-0.24-0.897-0.844-0.577-1.672c0.323-0.84,0.959-1.086,1.561-0.855c0.696,0.268,0.789,0.873,0.678,1.238L42.66,69.068
		L42.66,69.068z"/>
	<polygon fill="#FFFFFF" points="45.396,69.459 44.116,69.121 43.977,69.645 45.154,69.955 45.039,70.396 43.861,70.084 
		43.691,70.73 45.03,71.082 44.914,71.525 43.081,71.041 43.737,68.551 45.514,69.02 45.396,69.459 	"/>
	<path fill="#FFFFFF" d="M45.99,70.914c-0.018,0.141,0.01,0.422,0.46,0.49c0.243,0.039,0.524,0.021,0.567-0.25
		c0.029-0.197-0.148-0.279-0.4-0.385l-0.255-0.104c-0.382-0.156-0.754-0.309-0.668-0.867c0.044-0.285,0.269-0.762,1.07-0.637
		c0.756,0.115,0.881,0.656,0.836,0.971l-0.495-0.076c0.003-0.117,0.004-0.393-0.446-0.461c-0.196-0.031-0.442,0.006-0.477,0.236
		c-0.031,0.199,0.121,0.268,0.22,0.307l0.578,0.246c0.323,0.135,0.611,0.326,0.541,0.783c-0.118,0.766-0.884,0.717-1.102,0.684
		c-0.9-0.141-0.973-0.699-0.923-1.014L45.99,70.914L45.99,70.914z"/>
	<polygon fill="#FFFFFF" points="48.54,72.012 48.018,71.988 48.133,69.418 48.653,69.441 48.606,70.488 49.606,69.482 
		50.279,69.514 49.214,70.52 50.224,72.088 49.555,72.059 48.832,70.895 48.577,71.143 48.54,72.012 	"/>
	<path fill="#FFFFFF" d="M51.45,69.256l-0.364,0.023l0.314-0.426l0.553-0.035L51.45,69.256L51.45,69.256z M52.373,69.834
		l-1.323,0.084l0.034,0.541l1.215-0.076l0.029,0.455l-1.218,0.076l0.043,0.666l1.381-0.088l0.028,0.455l-1.891,0.117l-0.161-2.568
		l1.833-0.115L52.373,69.834L52.373,69.834z"/>
	<path fill="#FFFFFF" d="M54.983,70.072c0.265-0.059,0.373-0.182,0.318-0.43c-0.028-0.133-0.129-0.318-0.429-0.25l-0.636,0.137
		l0.147,0.674L54.983,70.072L54.983,70.072z M53.645,69.205l1.233-0.27c0.649-0.143,0.876,0.326,0.924,0.543
		c0.059,0.275-0.023,0.545-0.248,0.68c0.221,0.049,0.347,0.102,0.449,0.572c0.08,0.367,0.1,0.459,0.217,0.477l0.016,0.068
		l-0.564,0.121c-0.061-0.111-0.109-0.236-0.166-0.496c-0.075-0.342-0.124-0.471-0.501-0.389l-0.526,0.115l0.214,0.982l-0.499,0.109
		L53.645,69.205L53.645,69.205z"/>
	<polygon fill="#FFFFFF" points="57.877,68.508 56.62,68.932 56.794,69.445 57.947,69.057 58.093,69.488 56.939,69.877 
		57.152,70.51 58.464,70.066 58.608,70.498 56.813,71.102 55.99,68.662 57.733,68.076 57.877,68.508 	"/>
	<path fill="#FFFFFF" d="M59.505,68.605c0.354-0.162,0.234-0.424,0.187-0.529c-0.104-0.229-0.271-0.266-0.564-0.129l-0.377,0.172
		l0.314,0.688L59.505,68.605L59.505,68.605z M59.639,70.057l-0.476,0.215l-1.072-2.34l1.036-0.475
		c0.438-0.201,0.839-0.035,1.048,0.426c0.099,0.211,0.229,0.799-0.381,1.078l-0.543,0.25L59.639,70.057L59.639,70.057z"/>
	<path fill="#FFFFFF" d="M62.675,67.398c0.349,0.58,0.159,1.033-0.382,1.359c-0.195,0.115-0.519,0.242-0.841,0.139
		c-0.196-0.066-0.349-0.217-0.488-0.436l-0.877-1.463l0.456-0.273l0.859,1.432c0.185,0.309,0.439,0.34,0.648,0.215
		c0.307-0.186,0.34-0.414,0.18-0.68l-0.873-1.455l0.457-0.275L62.675,67.398L62.675,67.398z"/>
	<path fill="#FFFFFF" d="M63.844,67.115l0.508-0.387c0.201-0.156,0.247-0.336,0.088-0.543c-0.138-0.18-0.339-0.133-0.487-0.02
		l-0.528,0.404L63.844,67.115L63.844,67.115z M63.161,66.227l0.485-0.373c0.161-0.125,0.241-0.289,0.117-0.451
		c-0.129-0.17-0.284-0.131-0.472,0.014l-0.476,0.363L63.161,66.227L63.161,66.227z M62.15,65.732l0.963-0.74
		c0.485-0.371,0.849-0.154,1.011,0.057c0.225,0.293,0.128,0.498,0.078,0.604c0.314-0.092,0.531,0.061,0.687,0.262
		c0.124,0.16,0.176,0.365,0.151,0.551c-0.025,0.201-0.078,0.355-0.484,0.666l-0.839,0.643L62.15,65.732L62.15,65.732z"/>
	<polygon fill="#FFFFFF" points="65.875,65.406 66.775,64.549 67.097,64.887 65.817,66.102 64.044,64.236 64.422,63.877 
		65.875,65.406 	"/>
	<polygon fill="#FFFFFF" points="67.736,64.172 67.385,64.559 65.482,62.822 65.835,62.438 67.736,64.172 	"/>
	<polygon fill="#FFFFFF" points="68.502,63.275 68.181,63.686 66.146,62.109 66.468,61.697 67.295,62.338 67.052,60.941 
		67.465,60.408 67.673,61.861 69.536,61.941 69.124,62.473 67.759,62.389 67.813,62.742 68.502,63.275 	"/>
	<polygon fill="#FFFFFF" points="70.385,60.561 70.114,61.006 69.284,60.498 67.466,60.398 67.788,59.875 69.012,60.014 
		68.315,59.012 68.624,58.504 69.563,60.057 70.385,60.561 	"/>
	<path fill="none" stroke="#1A171B" stroke-width="2.5361" d="M49.818,74.174c13.924,0,25.283-11.357,25.283-25.281
		c0-13.922-11.359-25.282-25.283-25.282c-13.905,0-25.266,11.36-25.266,25.282C24.553,62.816,35.913,74.174,49.818,74.174
		L49.818,74.174z"/>
</g>
<rect fill="none" width="100" height="100"/>
</svg>
